%TF.GenerationSoftware,KiCad,Pcbnew,9.0.0*%
%TF.CreationDate,2025-03-23T18:07:52+01:00*%
%TF.ProjectId,Board_PAMI,426f6172-645f-4504-914d-492e6b696361,V2*%
%TF.SameCoordinates,Original*%
%TF.FileFunction,Legend,Bot*%
%TF.FilePolarity,Positive*%
%FSLAX46Y46*%
G04 Gerber Fmt 4.6, Leading zero omitted, Abs format (unit mm)*
G04 Created by KiCad (PCBNEW 9.0.0) date 2025-03-23 18:07:52*
%MOMM*%
%LPD*%
G01*
G04 APERTURE LIST*
%ADD10C,0.150000*%
%ADD11C,0.120000*%
G04 APERTURE END LIST*
D10*
X140882666Y-73352819D02*
X141215999Y-72876628D01*
X141454094Y-73352819D02*
X141454094Y-72352819D01*
X141454094Y-72352819D02*
X141073142Y-72352819D01*
X141073142Y-72352819D02*
X140977904Y-72400438D01*
X140977904Y-72400438D02*
X140930285Y-72448057D01*
X140930285Y-72448057D02*
X140882666Y-72543295D01*
X140882666Y-72543295D02*
X140882666Y-72686152D01*
X140882666Y-72686152D02*
X140930285Y-72781390D01*
X140930285Y-72781390D02*
X140977904Y-72829009D01*
X140977904Y-72829009D02*
X141073142Y-72876628D01*
X141073142Y-72876628D02*
X141454094Y-72876628D01*
X140025523Y-72686152D02*
X140025523Y-73352819D01*
X140263618Y-72305200D02*
X140501713Y-73019485D01*
X140501713Y-73019485D02*
X139882666Y-73019485D01*
X140882666Y-76654819D02*
X141215999Y-76178628D01*
X141454094Y-76654819D02*
X141454094Y-75654819D01*
X141454094Y-75654819D02*
X141073142Y-75654819D01*
X141073142Y-75654819D02*
X140977904Y-75702438D01*
X140977904Y-75702438D02*
X140930285Y-75750057D01*
X140930285Y-75750057D02*
X140882666Y-75845295D01*
X140882666Y-75845295D02*
X140882666Y-75988152D01*
X140882666Y-75988152D02*
X140930285Y-76083390D01*
X140930285Y-76083390D02*
X140977904Y-76131009D01*
X140977904Y-76131009D02*
X141073142Y-76178628D01*
X141073142Y-76178628D02*
X141454094Y-76178628D01*
X140549332Y-75654819D02*
X139930285Y-75654819D01*
X139930285Y-75654819D02*
X140263618Y-76035771D01*
X140263618Y-76035771D02*
X140120761Y-76035771D01*
X140120761Y-76035771D02*
X140025523Y-76083390D01*
X140025523Y-76083390D02*
X139977904Y-76131009D01*
X139977904Y-76131009D02*
X139930285Y-76226247D01*
X139930285Y-76226247D02*
X139930285Y-76464342D01*
X139930285Y-76464342D02*
X139977904Y-76559580D01*
X139977904Y-76559580D02*
X140025523Y-76607200D01*
X140025523Y-76607200D02*
X140120761Y-76654819D01*
X140120761Y-76654819D02*
X140406475Y-76654819D01*
X140406475Y-76654819D02*
X140501713Y-76607200D01*
X140501713Y-76607200D02*
X140549332Y-76559580D01*
X140882666Y-70304819D02*
X141215999Y-69828628D01*
X141454094Y-70304819D02*
X141454094Y-69304819D01*
X141454094Y-69304819D02*
X141073142Y-69304819D01*
X141073142Y-69304819D02*
X140977904Y-69352438D01*
X140977904Y-69352438D02*
X140930285Y-69400057D01*
X140930285Y-69400057D02*
X140882666Y-69495295D01*
X140882666Y-69495295D02*
X140882666Y-69638152D01*
X140882666Y-69638152D02*
X140930285Y-69733390D01*
X140930285Y-69733390D02*
X140977904Y-69781009D01*
X140977904Y-69781009D02*
X141073142Y-69828628D01*
X141073142Y-69828628D02*
X141454094Y-69828628D01*
X139977904Y-69304819D02*
X140454094Y-69304819D01*
X140454094Y-69304819D02*
X140501713Y-69781009D01*
X140501713Y-69781009D02*
X140454094Y-69733390D01*
X140454094Y-69733390D02*
X140358856Y-69685771D01*
X140358856Y-69685771D02*
X140120761Y-69685771D01*
X140120761Y-69685771D02*
X140025523Y-69733390D01*
X140025523Y-69733390D02*
X139977904Y-69781009D01*
X139977904Y-69781009D02*
X139930285Y-69876247D01*
X139930285Y-69876247D02*
X139930285Y-70114342D01*
X139930285Y-70114342D02*
X139977904Y-70209580D01*
X139977904Y-70209580D02*
X140025523Y-70257200D01*
X140025523Y-70257200D02*
X140120761Y-70304819D01*
X140120761Y-70304819D02*
X140358856Y-70304819D01*
X140358856Y-70304819D02*
X140454094Y-70257200D01*
X140454094Y-70257200D02*
X140501713Y-70209580D01*
D11*
%TO.C,R4*%
X136676000Y-72898000D02*
X137446000Y-72898000D01*
X137446000Y-71528000D02*
X143986000Y-71528000D01*
X137446000Y-74268000D02*
X137446000Y-71528000D01*
X143986000Y-71528000D02*
X143986000Y-74268000D01*
X143986000Y-74268000D02*
X137446000Y-74268000D01*
X144756000Y-72898000D02*
X143986000Y-72898000D01*
%TO.C,R3*%
X136676000Y-76200000D02*
X137446000Y-76200000D01*
X137446000Y-74830000D02*
X143986000Y-74830000D01*
X137446000Y-77570000D02*
X137446000Y-74830000D01*
X143986000Y-74830000D02*
X143986000Y-77570000D01*
X143986000Y-77570000D02*
X137446000Y-77570000D01*
X144756000Y-76200000D02*
X143986000Y-76200000D01*
%TO.C,R5*%
X136676000Y-69850000D02*
X137446000Y-69850000D01*
X137446000Y-68480000D02*
X143986000Y-68480000D01*
X137446000Y-71220000D02*
X137446000Y-68480000D01*
X143986000Y-68480000D02*
X143986000Y-71220000D01*
X143986000Y-71220000D02*
X137446000Y-71220000D01*
X144756000Y-69850000D02*
X143986000Y-69850000D01*
%TD*%
M02*
