%TF.GenerationSoftware,KiCad,Pcbnew,9.0.0*%
%TF.CreationDate,2025-03-23T18:07:52+01:00*%
%TF.ProjectId,Board_PAMI,426f6172-645f-4504-914d-492e6b696361,V2*%
%TF.SameCoordinates,Original*%
%TF.FileFunction,Legend,Top*%
%TF.FilePolarity,Positive*%
%FSLAX46Y46*%
G04 Gerber Fmt 4.6, Leading zero omitted, Abs format (unit mm)*
G04 Created by KiCad (PCBNEW 9.0.0) date 2025-03-23 18:07:52*
%MOMM*%
%LPD*%
G01*
G04 APERTURE LIST*
%ADD10C,0.150000*%
%ADD11C,0.100000*%
%ADD12C,0.120000*%
G04 APERTURE END LIST*
D10*
X177988095Y-57904819D02*
X177988095Y-58714342D01*
X177988095Y-58714342D02*
X178035714Y-58809580D01*
X178035714Y-58809580D02*
X178083333Y-58857200D01*
X178083333Y-58857200D02*
X178178571Y-58904819D01*
X178178571Y-58904819D02*
X178369047Y-58904819D01*
X178369047Y-58904819D02*
X178464285Y-58857200D01*
X178464285Y-58857200D02*
X178511904Y-58809580D01*
X178511904Y-58809580D02*
X178559523Y-58714342D01*
X178559523Y-58714342D02*
X178559523Y-57904819D01*
X178940476Y-57904819D02*
X179559523Y-57904819D01*
X179559523Y-57904819D02*
X179226190Y-58285771D01*
X179226190Y-58285771D02*
X179369047Y-58285771D01*
X179369047Y-58285771D02*
X179464285Y-58333390D01*
X179464285Y-58333390D02*
X179511904Y-58381009D01*
X179511904Y-58381009D02*
X179559523Y-58476247D01*
X179559523Y-58476247D02*
X179559523Y-58714342D01*
X179559523Y-58714342D02*
X179511904Y-58809580D01*
X179511904Y-58809580D02*
X179464285Y-58857200D01*
X179464285Y-58857200D02*
X179369047Y-58904819D01*
X179369047Y-58904819D02*
X179083333Y-58904819D01*
X179083333Y-58904819D02*
X178988095Y-58857200D01*
X178988095Y-58857200D02*
X178940476Y-58809580D01*
X128479009Y-93618952D02*
X128526628Y-93476095D01*
X128526628Y-93476095D02*
X128574247Y-93428476D01*
X128574247Y-93428476D02*
X128669485Y-93380857D01*
X128669485Y-93380857D02*
X128812342Y-93380857D01*
X128812342Y-93380857D02*
X128907580Y-93428476D01*
X128907580Y-93428476D02*
X128955200Y-93476095D01*
X128955200Y-93476095D02*
X129002819Y-93571333D01*
X129002819Y-93571333D02*
X129002819Y-93952285D01*
X129002819Y-93952285D02*
X128002819Y-93952285D01*
X128002819Y-93952285D02*
X128002819Y-93618952D01*
X128002819Y-93618952D02*
X128050438Y-93523714D01*
X128050438Y-93523714D02*
X128098057Y-93476095D01*
X128098057Y-93476095D02*
X128193295Y-93428476D01*
X128193295Y-93428476D02*
X128288533Y-93428476D01*
X128288533Y-93428476D02*
X128383771Y-93476095D01*
X128383771Y-93476095D02*
X128431390Y-93523714D01*
X128431390Y-93523714D02*
X128479009Y-93618952D01*
X128479009Y-93618952D02*
X128479009Y-93952285D01*
X128717104Y-92999904D02*
X128717104Y-92523714D01*
X129002819Y-93095142D02*
X128002819Y-92761809D01*
X128002819Y-92761809D02*
X129002819Y-92428476D01*
X128002819Y-92095142D02*
X128812342Y-92095142D01*
X128812342Y-92095142D02*
X128907580Y-92047523D01*
X128907580Y-92047523D02*
X128955200Y-91999904D01*
X128955200Y-91999904D02*
X129002819Y-91904666D01*
X129002819Y-91904666D02*
X129002819Y-91714190D01*
X129002819Y-91714190D02*
X128955200Y-91618952D01*
X128955200Y-91618952D02*
X128907580Y-91571333D01*
X128907580Y-91571333D02*
X128812342Y-91523714D01*
X128812342Y-91523714D02*
X128002819Y-91523714D01*
X131534819Y-113617333D02*
X132249104Y-113617333D01*
X132249104Y-113617333D02*
X132391961Y-113664952D01*
X132391961Y-113664952D02*
X132487200Y-113760190D01*
X132487200Y-113760190D02*
X132534819Y-113903047D01*
X132534819Y-113903047D02*
X132534819Y-113998285D01*
X131868152Y-112712571D02*
X132534819Y-112712571D01*
X131487200Y-112950666D02*
X132201485Y-113188761D01*
X132201485Y-113188761D02*
X132201485Y-112569714D01*
X124238095Y-119604819D02*
X124238095Y-118604819D01*
X124238095Y-118604819D02*
X124619047Y-118604819D01*
X124619047Y-118604819D02*
X124714285Y-118652438D01*
X124714285Y-118652438D02*
X124761904Y-118700057D01*
X124761904Y-118700057D02*
X124809523Y-118795295D01*
X124809523Y-118795295D02*
X124809523Y-118938152D01*
X124809523Y-118938152D02*
X124761904Y-119033390D01*
X124761904Y-119033390D02*
X124714285Y-119081009D01*
X124714285Y-119081009D02*
X124619047Y-119128628D01*
X124619047Y-119128628D02*
X124238095Y-119128628D01*
X125142857Y-118604819D02*
X125380952Y-119604819D01*
X125380952Y-119604819D02*
X125571428Y-118890533D01*
X125571428Y-118890533D02*
X125761904Y-119604819D01*
X125761904Y-119604819D02*
X126000000Y-118604819D01*
X126952380Y-119604819D02*
X126619047Y-119128628D01*
X126380952Y-119604819D02*
X126380952Y-118604819D01*
X126380952Y-118604819D02*
X126761904Y-118604819D01*
X126761904Y-118604819D02*
X126857142Y-118652438D01*
X126857142Y-118652438D02*
X126904761Y-118700057D01*
X126904761Y-118700057D02*
X126952380Y-118795295D01*
X126952380Y-118795295D02*
X126952380Y-118938152D01*
X126952380Y-118938152D02*
X126904761Y-119033390D01*
X126904761Y-119033390D02*
X126857142Y-119081009D01*
X126857142Y-119081009D02*
X126761904Y-119128628D01*
X126761904Y-119128628D02*
X126380952Y-119128628D01*
X127142857Y-119700057D02*
X127904761Y-119700057D01*
X128333333Y-118604819D02*
X128523809Y-118604819D01*
X128523809Y-118604819D02*
X128619047Y-118652438D01*
X128619047Y-118652438D02*
X128714285Y-118747676D01*
X128714285Y-118747676D02*
X128761904Y-118938152D01*
X128761904Y-118938152D02*
X128761904Y-119271485D01*
X128761904Y-119271485D02*
X128714285Y-119461961D01*
X128714285Y-119461961D02*
X128619047Y-119557200D01*
X128619047Y-119557200D02*
X128523809Y-119604819D01*
X128523809Y-119604819D02*
X128333333Y-119604819D01*
X128333333Y-119604819D02*
X128238095Y-119557200D01*
X128238095Y-119557200D02*
X128142857Y-119461961D01*
X128142857Y-119461961D02*
X128095238Y-119271485D01*
X128095238Y-119271485D02*
X128095238Y-118938152D01*
X128095238Y-118938152D02*
X128142857Y-118747676D01*
X128142857Y-118747676D02*
X128238095Y-118652438D01*
X128238095Y-118652438D02*
X128333333Y-118604819D01*
X129190476Y-119604819D02*
X129190476Y-118604819D01*
X129190476Y-118604819D02*
X129761904Y-119604819D01*
X129761904Y-119604819D02*
X129761904Y-118604819D01*
X128002819Y-87217142D02*
X128002819Y-86645714D01*
X129002819Y-86931428D02*
X128002819Y-86931428D01*
X129002819Y-86312380D02*
X128002819Y-86312380D01*
X128002819Y-86312380D02*
X128717104Y-85979047D01*
X128717104Y-85979047D02*
X128002819Y-85645714D01*
X128002819Y-85645714D02*
X129002819Y-85645714D01*
D11*
X192566580Y-106172095D02*
X191757057Y-106172095D01*
X191757057Y-106172095D02*
X191661819Y-106219714D01*
X191661819Y-106219714D02*
X191614200Y-106267333D01*
X191614200Y-106267333D02*
X191566580Y-106362571D01*
X191566580Y-106362571D02*
X191566580Y-106553047D01*
X191566580Y-106553047D02*
X191614200Y-106648285D01*
X191614200Y-106648285D02*
X191661819Y-106695904D01*
X191661819Y-106695904D02*
X191757057Y-106743523D01*
X191757057Y-106743523D02*
X192566580Y-106743523D01*
X191566580Y-107743523D02*
X191566580Y-107172095D01*
X191566580Y-107457809D02*
X192566580Y-107457809D01*
X192566580Y-107457809D02*
X192423723Y-107362571D01*
X192423723Y-107362571D02*
X192328485Y-107267333D01*
X192328485Y-107267333D02*
X192280866Y-107172095D01*
D10*
X126388905Y-101142819D02*
X126388905Y-100142819D01*
X126388905Y-100142819D02*
X126627000Y-100142819D01*
X126627000Y-100142819D02*
X126769857Y-100190438D01*
X126769857Y-100190438D02*
X126865095Y-100285676D01*
X126865095Y-100285676D02*
X126912714Y-100380914D01*
X126912714Y-100380914D02*
X126960333Y-100571390D01*
X126960333Y-100571390D02*
X126960333Y-100714247D01*
X126960333Y-100714247D02*
X126912714Y-100904723D01*
X126912714Y-100904723D02*
X126865095Y-100999961D01*
X126865095Y-100999961D02*
X126769857Y-101095200D01*
X126769857Y-101095200D02*
X126627000Y-101142819D01*
X126627000Y-101142819D02*
X126388905Y-101142819D01*
X127912714Y-101142819D02*
X127341286Y-101142819D01*
X127627000Y-101142819D02*
X127627000Y-100142819D01*
X127627000Y-100142819D02*
X127531762Y-100285676D01*
X127531762Y-100285676D02*
X127436524Y-100380914D01*
X127436524Y-100380914D02*
X127341286Y-100428533D01*
X154166952Y-122073200D02*
X154309809Y-122120819D01*
X154309809Y-122120819D02*
X154547904Y-122120819D01*
X154547904Y-122120819D02*
X154643142Y-122073200D01*
X154643142Y-122073200D02*
X154690761Y-122025580D01*
X154690761Y-122025580D02*
X154738380Y-121930342D01*
X154738380Y-121930342D02*
X154738380Y-121835104D01*
X154738380Y-121835104D02*
X154690761Y-121739866D01*
X154690761Y-121739866D02*
X154643142Y-121692247D01*
X154643142Y-121692247D02*
X154547904Y-121644628D01*
X154547904Y-121644628D02*
X154357428Y-121597009D01*
X154357428Y-121597009D02*
X154262190Y-121549390D01*
X154262190Y-121549390D02*
X154214571Y-121501771D01*
X154214571Y-121501771D02*
X154166952Y-121406533D01*
X154166952Y-121406533D02*
X154166952Y-121311295D01*
X154166952Y-121311295D02*
X154214571Y-121216057D01*
X154214571Y-121216057D02*
X154262190Y-121168438D01*
X154262190Y-121168438D02*
X154357428Y-121120819D01*
X154357428Y-121120819D02*
X154595523Y-121120819D01*
X154595523Y-121120819D02*
X154738380Y-121168438D01*
X155024095Y-121454152D02*
X155405047Y-121454152D01*
X155166952Y-121120819D02*
X155166952Y-121977961D01*
X155166952Y-121977961D02*
X155214571Y-122073200D01*
X155214571Y-122073200D02*
X155309809Y-122120819D01*
X155309809Y-122120819D02*
X155405047Y-122120819D01*
X156119333Y-122073200D02*
X156024095Y-122120819D01*
X156024095Y-122120819D02*
X155833619Y-122120819D01*
X155833619Y-122120819D02*
X155738381Y-122073200D01*
X155738381Y-122073200D02*
X155690762Y-121977961D01*
X155690762Y-121977961D02*
X155690762Y-121597009D01*
X155690762Y-121597009D02*
X155738381Y-121501771D01*
X155738381Y-121501771D02*
X155833619Y-121454152D01*
X155833619Y-121454152D02*
X156024095Y-121454152D01*
X156024095Y-121454152D02*
X156119333Y-121501771D01*
X156119333Y-121501771D02*
X156166952Y-121597009D01*
X156166952Y-121597009D02*
X156166952Y-121692247D01*
X156166952Y-121692247D02*
X155690762Y-121787485D01*
X156595524Y-121454152D02*
X156595524Y-122454152D01*
X156595524Y-121501771D02*
X156690762Y-121454152D01*
X156690762Y-121454152D02*
X156881238Y-121454152D01*
X156881238Y-121454152D02*
X156976476Y-121501771D01*
X156976476Y-121501771D02*
X157024095Y-121549390D01*
X157024095Y-121549390D02*
X157071714Y-121644628D01*
X157071714Y-121644628D02*
X157071714Y-121930342D01*
X157071714Y-121930342D02*
X157024095Y-122025580D01*
X157024095Y-122025580D02*
X156976476Y-122073200D01*
X156976476Y-122073200D02*
X156881238Y-122120819D01*
X156881238Y-122120819D02*
X156690762Y-122120819D01*
X156690762Y-122120819D02*
X156595524Y-122073200D01*
X157500286Y-121454152D02*
X157500286Y-122454152D01*
X157500286Y-121501771D02*
X157595524Y-121454152D01*
X157595524Y-121454152D02*
X157786000Y-121454152D01*
X157786000Y-121454152D02*
X157881238Y-121501771D01*
X157881238Y-121501771D02*
X157928857Y-121549390D01*
X157928857Y-121549390D02*
X157976476Y-121644628D01*
X157976476Y-121644628D02*
X157976476Y-121930342D01*
X157976476Y-121930342D02*
X157928857Y-122025580D01*
X157928857Y-122025580D02*
X157881238Y-122073200D01*
X157881238Y-122073200D02*
X157786000Y-122120819D01*
X157786000Y-122120819D02*
X157595524Y-122120819D01*
X157595524Y-122120819D02*
X157500286Y-122073200D01*
X158786000Y-122073200D02*
X158690762Y-122120819D01*
X158690762Y-122120819D02*
X158500286Y-122120819D01*
X158500286Y-122120819D02*
X158405048Y-122073200D01*
X158405048Y-122073200D02*
X158357429Y-121977961D01*
X158357429Y-121977961D02*
X158357429Y-121597009D01*
X158357429Y-121597009D02*
X158405048Y-121501771D01*
X158405048Y-121501771D02*
X158500286Y-121454152D01*
X158500286Y-121454152D02*
X158690762Y-121454152D01*
X158690762Y-121454152D02*
X158786000Y-121501771D01*
X158786000Y-121501771D02*
X158833619Y-121597009D01*
X158833619Y-121597009D02*
X158833619Y-121692247D01*
X158833619Y-121692247D02*
X158357429Y-121787485D01*
X159262191Y-122120819D02*
X159262191Y-121454152D01*
X159262191Y-121644628D02*
X159309810Y-121549390D01*
X159309810Y-121549390D02*
X159357429Y-121501771D01*
X159357429Y-121501771D02*
X159452667Y-121454152D01*
X159452667Y-121454152D02*
X159547905Y-121454152D01*
X159833620Y-121216057D02*
X159881239Y-121168438D01*
X159881239Y-121168438D02*
X159976477Y-121120819D01*
X159976477Y-121120819D02*
X160214572Y-121120819D01*
X160214572Y-121120819D02*
X160309810Y-121168438D01*
X160309810Y-121168438D02*
X160357429Y-121216057D01*
X160357429Y-121216057D02*
X160405048Y-121311295D01*
X160405048Y-121311295D02*
X160405048Y-121406533D01*
X160405048Y-121406533D02*
X160357429Y-121549390D01*
X160357429Y-121549390D02*
X159786001Y-122120819D01*
X159786001Y-122120819D02*
X160405048Y-122120819D01*
X136485333Y-67510819D02*
X136152000Y-67034628D01*
X135913905Y-67510819D02*
X135913905Y-66510819D01*
X135913905Y-66510819D02*
X136294857Y-66510819D01*
X136294857Y-66510819D02*
X136390095Y-66558438D01*
X136390095Y-66558438D02*
X136437714Y-66606057D01*
X136437714Y-66606057D02*
X136485333Y-66701295D01*
X136485333Y-66701295D02*
X136485333Y-66844152D01*
X136485333Y-66844152D02*
X136437714Y-66939390D01*
X136437714Y-66939390D02*
X136390095Y-66987009D01*
X136390095Y-66987009D02*
X136294857Y-67034628D01*
X136294857Y-67034628D02*
X135913905Y-67034628D01*
X137437714Y-67510819D02*
X136866286Y-67510819D01*
X137152000Y-67510819D02*
X137152000Y-66510819D01*
X137152000Y-66510819D02*
X137056762Y-66653676D01*
X137056762Y-66653676D02*
X136961524Y-66748914D01*
X136961524Y-66748914D02*
X136866286Y-66796533D01*
X131000667Y-127620819D02*
X131000667Y-126620819D01*
X131000667Y-126620819D02*
X131381619Y-126620819D01*
X131381619Y-126620819D02*
X131476857Y-126668438D01*
X131476857Y-126668438D02*
X131524476Y-126716057D01*
X131524476Y-126716057D02*
X131572095Y-126811295D01*
X131572095Y-126811295D02*
X131572095Y-126954152D01*
X131572095Y-126954152D02*
X131524476Y-127049390D01*
X131524476Y-127049390D02*
X131476857Y-127097009D01*
X131476857Y-127097009D02*
X131381619Y-127144628D01*
X131381619Y-127144628D02*
X131000667Y-127144628D01*
X131905429Y-126620819D02*
X132143524Y-127620819D01*
X132143524Y-127620819D02*
X132334000Y-126906533D01*
X132334000Y-126906533D02*
X132524476Y-127620819D01*
X132524476Y-127620819D02*
X132762572Y-126620819D01*
X133714952Y-127620819D02*
X133381619Y-127144628D01*
X133143524Y-127620819D02*
X133143524Y-126620819D01*
X133143524Y-126620819D02*
X133524476Y-126620819D01*
X133524476Y-126620819D02*
X133619714Y-126668438D01*
X133619714Y-126668438D02*
X133667333Y-126716057D01*
X133667333Y-126716057D02*
X133714952Y-126811295D01*
X133714952Y-126811295D02*
X133714952Y-126954152D01*
X133714952Y-126954152D02*
X133667333Y-127049390D01*
X133667333Y-127049390D02*
X133619714Y-127097009D01*
X133619714Y-127097009D02*
X133524476Y-127144628D01*
X133524476Y-127144628D02*
X133143524Y-127144628D01*
X177534952Y-122073200D02*
X177677809Y-122120819D01*
X177677809Y-122120819D02*
X177915904Y-122120819D01*
X177915904Y-122120819D02*
X178011142Y-122073200D01*
X178011142Y-122073200D02*
X178058761Y-122025580D01*
X178058761Y-122025580D02*
X178106380Y-121930342D01*
X178106380Y-121930342D02*
X178106380Y-121835104D01*
X178106380Y-121835104D02*
X178058761Y-121739866D01*
X178058761Y-121739866D02*
X178011142Y-121692247D01*
X178011142Y-121692247D02*
X177915904Y-121644628D01*
X177915904Y-121644628D02*
X177725428Y-121597009D01*
X177725428Y-121597009D02*
X177630190Y-121549390D01*
X177630190Y-121549390D02*
X177582571Y-121501771D01*
X177582571Y-121501771D02*
X177534952Y-121406533D01*
X177534952Y-121406533D02*
X177534952Y-121311295D01*
X177534952Y-121311295D02*
X177582571Y-121216057D01*
X177582571Y-121216057D02*
X177630190Y-121168438D01*
X177630190Y-121168438D02*
X177725428Y-121120819D01*
X177725428Y-121120819D02*
X177963523Y-121120819D01*
X177963523Y-121120819D02*
X178106380Y-121168438D01*
X178392095Y-121454152D02*
X178773047Y-121454152D01*
X178534952Y-121120819D02*
X178534952Y-121977961D01*
X178534952Y-121977961D02*
X178582571Y-122073200D01*
X178582571Y-122073200D02*
X178677809Y-122120819D01*
X178677809Y-122120819D02*
X178773047Y-122120819D01*
X179487333Y-122073200D02*
X179392095Y-122120819D01*
X179392095Y-122120819D02*
X179201619Y-122120819D01*
X179201619Y-122120819D02*
X179106381Y-122073200D01*
X179106381Y-122073200D02*
X179058762Y-121977961D01*
X179058762Y-121977961D02*
X179058762Y-121597009D01*
X179058762Y-121597009D02*
X179106381Y-121501771D01*
X179106381Y-121501771D02*
X179201619Y-121454152D01*
X179201619Y-121454152D02*
X179392095Y-121454152D01*
X179392095Y-121454152D02*
X179487333Y-121501771D01*
X179487333Y-121501771D02*
X179534952Y-121597009D01*
X179534952Y-121597009D02*
X179534952Y-121692247D01*
X179534952Y-121692247D02*
X179058762Y-121787485D01*
X179963524Y-121454152D02*
X179963524Y-122454152D01*
X179963524Y-121501771D02*
X180058762Y-121454152D01*
X180058762Y-121454152D02*
X180249238Y-121454152D01*
X180249238Y-121454152D02*
X180344476Y-121501771D01*
X180344476Y-121501771D02*
X180392095Y-121549390D01*
X180392095Y-121549390D02*
X180439714Y-121644628D01*
X180439714Y-121644628D02*
X180439714Y-121930342D01*
X180439714Y-121930342D02*
X180392095Y-122025580D01*
X180392095Y-122025580D02*
X180344476Y-122073200D01*
X180344476Y-122073200D02*
X180249238Y-122120819D01*
X180249238Y-122120819D02*
X180058762Y-122120819D01*
X180058762Y-122120819D02*
X179963524Y-122073200D01*
X180868286Y-121454152D02*
X180868286Y-122454152D01*
X180868286Y-121501771D02*
X180963524Y-121454152D01*
X180963524Y-121454152D02*
X181154000Y-121454152D01*
X181154000Y-121454152D02*
X181249238Y-121501771D01*
X181249238Y-121501771D02*
X181296857Y-121549390D01*
X181296857Y-121549390D02*
X181344476Y-121644628D01*
X181344476Y-121644628D02*
X181344476Y-121930342D01*
X181344476Y-121930342D02*
X181296857Y-122025580D01*
X181296857Y-122025580D02*
X181249238Y-122073200D01*
X181249238Y-122073200D02*
X181154000Y-122120819D01*
X181154000Y-122120819D02*
X180963524Y-122120819D01*
X180963524Y-122120819D02*
X180868286Y-122073200D01*
X182154000Y-122073200D02*
X182058762Y-122120819D01*
X182058762Y-122120819D02*
X181868286Y-122120819D01*
X181868286Y-122120819D02*
X181773048Y-122073200D01*
X181773048Y-122073200D02*
X181725429Y-121977961D01*
X181725429Y-121977961D02*
X181725429Y-121597009D01*
X181725429Y-121597009D02*
X181773048Y-121501771D01*
X181773048Y-121501771D02*
X181868286Y-121454152D01*
X181868286Y-121454152D02*
X182058762Y-121454152D01*
X182058762Y-121454152D02*
X182154000Y-121501771D01*
X182154000Y-121501771D02*
X182201619Y-121597009D01*
X182201619Y-121597009D02*
X182201619Y-121692247D01*
X182201619Y-121692247D02*
X181725429Y-121787485D01*
X182630191Y-122120819D02*
X182630191Y-121454152D01*
X182630191Y-121644628D02*
X182677810Y-121549390D01*
X182677810Y-121549390D02*
X182725429Y-121501771D01*
X182725429Y-121501771D02*
X182820667Y-121454152D01*
X182820667Y-121454152D02*
X182915905Y-121454152D01*
X183773048Y-122120819D02*
X183201620Y-122120819D01*
X183487334Y-122120819D02*
X183487334Y-121120819D01*
X183487334Y-121120819D02*
X183392096Y-121263676D01*
X183392096Y-121263676D02*
X183296858Y-121358914D01*
X183296858Y-121358914D02*
X183201620Y-121406533D01*
D11*
X169072580Y-106172095D02*
X168263057Y-106172095D01*
X168263057Y-106172095D02*
X168167819Y-106219714D01*
X168167819Y-106219714D02*
X168120200Y-106267333D01*
X168120200Y-106267333D02*
X168072580Y-106362571D01*
X168072580Y-106362571D02*
X168072580Y-106553047D01*
X168072580Y-106553047D02*
X168120200Y-106648285D01*
X168120200Y-106648285D02*
X168167819Y-106695904D01*
X168167819Y-106695904D02*
X168263057Y-106743523D01*
X168263057Y-106743523D02*
X169072580Y-106743523D01*
X168977342Y-107172095D02*
X169024961Y-107219714D01*
X169024961Y-107219714D02*
X169072580Y-107314952D01*
X169072580Y-107314952D02*
X169072580Y-107553047D01*
X169072580Y-107553047D02*
X169024961Y-107648285D01*
X169024961Y-107648285D02*
X168977342Y-107695904D01*
X168977342Y-107695904D02*
X168882104Y-107743523D01*
X168882104Y-107743523D02*
X168786866Y-107743523D01*
X168786866Y-107743523D02*
X168644009Y-107695904D01*
X168644009Y-107695904D02*
X168072580Y-107124476D01*
X168072580Y-107124476D02*
X168072580Y-107743523D01*
D10*
X140414666Y-117799200D02*
X140557523Y-117846819D01*
X140557523Y-117846819D02*
X140795618Y-117846819D01*
X140795618Y-117846819D02*
X140890856Y-117799200D01*
X140890856Y-117799200D02*
X140938475Y-117751580D01*
X140938475Y-117751580D02*
X140986094Y-117656342D01*
X140986094Y-117656342D02*
X140986094Y-117561104D01*
X140986094Y-117561104D02*
X140938475Y-117465866D01*
X140938475Y-117465866D02*
X140890856Y-117418247D01*
X140890856Y-117418247D02*
X140795618Y-117370628D01*
X140795618Y-117370628D02*
X140605142Y-117323009D01*
X140605142Y-117323009D02*
X140509904Y-117275390D01*
X140509904Y-117275390D02*
X140462285Y-117227771D01*
X140462285Y-117227771D02*
X140414666Y-117132533D01*
X140414666Y-117132533D02*
X140414666Y-117037295D01*
X140414666Y-117037295D02*
X140462285Y-116942057D01*
X140462285Y-116942057D02*
X140509904Y-116894438D01*
X140509904Y-116894438D02*
X140605142Y-116846819D01*
X140605142Y-116846819D02*
X140843237Y-116846819D01*
X140843237Y-116846819D02*
X140986094Y-116894438D01*
X141795618Y-117799200D02*
X141700380Y-117846819D01*
X141700380Y-117846819D02*
X141509904Y-117846819D01*
X141509904Y-117846819D02*
X141414666Y-117799200D01*
X141414666Y-117799200D02*
X141367047Y-117703961D01*
X141367047Y-117703961D02*
X141367047Y-117323009D01*
X141367047Y-117323009D02*
X141414666Y-117227771D01*
X141414666Y-117227771D02*
X141509904Y-117180152D01*
X141509904Y-117180152D02*
X141700380Y-117180152D01*
X141700380Y-117180152D02*
X141795618Y-117227771D01*
X141795618Y-117227771D02*
X141843237Y-117323009D01*
X141843237Y-117323009D02*
X141843237Y-117418247D01*
X141843237Y-117418247D02*
X141367047Y-117513485D01*
X142271809Y-117846819D02*
X142271809Y-117180152D01*
X142271809Y-117370628D02*
X142319428Y-117275390D01*
X142319428Y-117275390D02*
X142367047Y-117227771D01*
X142367047Y-117227771D02*
X142462285Y-117180152D01*
X142462285Y-117180152D02*
X142557523Y-117180152D01*
X142795619Y-117180152D02*
X143033714Y-117846819D01*
X143033714Y-117846819D02*
X143271809Y-117180152D01*
X143795619Y-117846819D02*
X143700381Y-117799200D01*
X143700381Y-117799200D02*
X143652762Y-117751580D01*
X143652762Y-117751580D02*
X143605143Y-117656342D01*
X143605143Y-117656342D02*
X143605143Y-117370628D01*
X143605143Y-117370628D02*
X143652762Y-117275390D01*
X143652762Y-117275390D02*
X143700381Y-117227771D01*
X143700381Y-117227771D02*
X143795619Y-117180152D01*
X143795619Y-117180152D02*
X143938476Y-117180152D01*
X143938476Y-117180152D02*
X144033714Y-117227771D01*
X144033714Y-117227771D02*
X144081333Y-117275390D01*
X144081333Y-117275390D02*
X144128952Y-117370628D01*
X144128952Y-117370628D02*
X144128952Y-117656342D01*
X144128952Y-117656342D02*
X144081333Y-117751580D01*
X144081333Y-117751580D02*
X144033714Y-117799200D01*
X144033714Y-117799200D02*
X143938476Y-117846819D01*
X143938476Y-117846819D02*
X143795619Y-117846819D01*
X145081333Y-117846819D02*
X144509905Y-117846819D01*
X144795619Y-117846819D02*
X144795619Y-116846819D01*
X144795619Y-116846819D02*
X144700381Y-116989676D01*
X144700381Y-116989676D02*
X144605143Y-117084914D01*
X144605143Y-117084914D02*
X144509905Y-117132533D01*
X134064666Y-117861200D02*
X134207523Y-117908819D01*
X134207523Y-117908819D02*
X134445618Y-117908819D01*
X134445618Y-117908819D02*
X134540856Y-117861200D01*
X134540856Y-117861200D02*
X134588475Y-117813580D01*
X134588475Y-117813580D02*
X134636094Y-117718342D01*
X134636094Y-117718342D02*
X134636094Y-117623104D01*
X134636094Y-117623104D02*
X134588475Y-117527866D01*
X134588475Y-117527866D02*
X134540856Y-117480247D01*
X134540856Y-117480247D02*
X134445618Y-117432628D01*
X134445618Y-117432628D02*
X134255142Y-117385009D01*
X134255142Y-117385009D02*
X134159904Y-117337390D01*
X134159904Y-117337390D02*
X134112285Y-117289771D01*
X134112285Y-117289771D02*
X134064666Y-117194533D01*
X134064666Y-117194533D02*
X134064666Y-117099295D01*
X134064666Y-117099295D02*
X134112285Y-117004057D01*
X134112285Y-117004057D02*
X134159904Y-116956438D01*
X134159904Y-116956438D02*
X134255142Y-116908819D01*
X134255142Y-116908819D02*
X134493237Y-116908819D01*
X134493237Y-116908819D02*
X134636094Y-116956438D01*
X135445618Y-117861200D02*
X135350380Y-117908819D01*
X135350380Y-117908819D02*
X135159904Y-117908819D01*
X135159904Y-117908819D02*
X135064666Y-117861200D01*
X135064666Y-117861200D02*
X135017047Y-117765961D01*
X135017047Y-117765961D02*
X135017047Y-117385009D01*
X135017047Y-117385009D02*
X135064666Y-117289771D01*
X135064666Y-117289771D02*
X135159904Y-117242152D01*
X135159904Y-117242152D02*
X135350380Y-117242152D01*
X135350380Y-117242152D02*
X135445618Y-117289771D01*
X135445618Y-117289771D02*
X135493237Y-117385009D01*
X135493237Y-117385009D02*
X135493237Y-117480247D01*
X135493237Y-117480247D02*
X135017047Y-117575485D01*
X135921809Y-117908819D02*
X135921809Y-117242152D01*
X135921809Y-117432628D02*
X135969428Y-117337390D01*
X135969428Y-117337390D02*
X136017047Y-117289771D01*
X136017047Y-117289771D02*
X136112285Y-117242152D01*
X136112285Y-117242152D02*
X136207523Y-117242152D01*
X136445619Y-117242152D02*
X136683714Y-117908819D01*
X136683714Y-117908819D02*
X136921809Y-117242152D01*
X137445619Y-117908819D02*
X137350381Y-117861200D01*
X137350381Y-117861200D02*
X137302762Y-117813580D01*
X137302762Y-117813580D02*
X137255143Y-117718342D01*
X137255143Y-117718342D02*
X137255143Y-117432628D01*
X137255143Y-117432628D02*
X137302762Y-117337390D01*
X137302762Y-117337390D02*
X137350381Y-117289771D01*
X137350381Y-117289771D02*
X137445619Y-117242152D01*
X137445619Y-117242152D02*
X137588476Y-117242152D01*
X137588476Y-117242152D02*
X137683714Y-117289771D01*
X137683714Y-117289771D02*
X137731333Y-117337390D01*
X137731333Y-117337390D02*
X137778952Y-117432628D01*
X137778952Y-117432628D02*
X137778952Y-117718342D01*
X137778952Y-117718342D02*
X137731333Y-117813580D01*
X137731333Y-117813580D02*
X137683714Y-117861200D01*
X137683714Y-117861200D02*
X137588476Y-117908819D01*
X137588476Y-117908819D02*
X137445619Y-117908819D01*
X138159905Y-117004057D02*
X138207524Y-116956438D01*
X138207524Y-116956438D02*
X138302762Y-116908819D01*
X138302762Y-116908819D02*
X138540857Y-116908819D01*
X138540857Y-116908819D02*
X138636095Y-116956438D01*
X138636095Y-116956438D02*
X138683714Y-117004057D01*
X138683714Y-117004057D02*
X138731333Y-117099295D01*
X138731333Y-117099295D02*
X138731333Y-117194533D01*
X138731333Y-117194533D02*
X138683714Y-117337390D01*
X138683714Y-117337390D02*
X138112286Y-117908819D01*
X138112286Y-117908819D02*
X138731333Y-117908819D01*
X128002819Y-99845713D02*
X128002819Y-99274285D01*
X129002819Y-99559999D02*
X128002819Y-99559999D01*
X129002819Y-98369523D02*
X128526628Y-98702856D01*
X129002819Y-98940951D02*
X128002819Y-98940951D01*
X128002819Y-98940951D02*
X128002819Y-98559999D01*
X128002819Y-98559999D02*
X128050438Y-98464761D01*
X128050438Y-98464761D02*
X128098057Y-98417142D01*
X128098057Y-98417142D02*
X128193295Y-98369523D01*
X128193295Y-98369523D02*
X128336152Y-98369523D01*
X128336152Y-98369523D02*
X128431390Y-98417142D01*
X128431390Y-98417142D02*
X128479009Y-98464761D01*
X128479009Y-98464761D02*
X128526628Y-98559999D01*
X128526628Y-98559999D02*
X128526628Y-98940951D01*
X141057333Y-127030819D02*
X140724000Y-126554628D01*
X140485905Y-127030819D02*
X140485905Y-126030819D01*
X140485905Y-126030819D02*
X140866857Y-126030819D01*
X140866857Y-126030819D02*
X140962095Y-126078438D01*
X140962095Y-126078438D02*
X141009714Y-126126057D01*
X141009714Y-126126057D02*
X141057333Y-126221295D01*
X141057333Y-126221295D02*
X141057333Y-126364152D01*
X141057333Y-126364152D02*
X141009714Y-126459390D01*
X141009714Y-126459390D02*
X140962095Y-126507009D01*
X140962095Y-126507009D02*
X140866857Y-126554628D01*
X140866857Y-126554628D02*
X140485905Y-126554628D01*
X141438286Y-126126057D02*
X141485905Y-126078438D01*
X141485905Y-126078438D02*
X141581143Y-126030819D01*
X141581143Y-126030819D02*
X141819238Y-126030819D01*
X141819238Y-126030819D02*
X141914476Y-126078438D01*
X141914476Y-126078438D02*
X141962095Y-126126057D01*
X141962095Y-126126057D02*
X142009714Y-126221295D01*
X142009714Y-126221295D02*
X142009714Y-126316533D01*
X142009714Y-126316533D02*
X141962095Y-126459390D01*
X141962095Y-126459390D02*
X141390667Y-127030819D01*
X141390667Y-127030819D02*
X142009714Y-127030819D01*
X177988095Y-67904819D02*
X177988095Y-68714342D01*
X177988095Y-68714342D02*
X178035714Y-68809580D01*
X178035714Y-68809580D02*
X178083333Y-68857200D01*
X178083333Y-68857200D02*
X178178571Y-68904819D01*
X178178571Y-68904819D02*
X178369047Y-68904819D01*
X178369047Y-68904819D02*
X178464285Y-68857200D01*
X178464285Y-68857200D02*
X178511904Y-68809580D01*
X178511904Y-68809580D02*
X178559523Y-68714342D01*
X178559523Y-68714342D02*
X178559523Y-67904819D01*
X179464285Y-68238152D02*
X179464285Y-68904819D01*
X179226190Y-67857200D02*
X178988095Y-68571485D01*
X178988095Y-68571485D02*
X179607142Y-68571485D01*
X166285104Y-72342285D02*
X166285104Y-71866095D01*
X166570819Y-72437523D02*
X165570819Y-72104190D01*
X165570819Y-72104190D02*
X166570819Y-71770857D01*
X166570819Y-70913714D02*
X166570819Y-71485142D01*
X166570819Y-71199428D02*
X165570819Y-71199428D01*
X165570819Y-71199428D02*
X165713676Y-71294666D01*
X165713676Y-71294666D02*
X165808914Y-71389904D01*
X165808914Y-71389904D02*
X165856533Y-71485142D01*
X126021180Y-70366095D02*
X125211657Y-70366095D01*
X125211657Y-70366095D02*
X125116419Y-70413714D01*
X125116419Y-70413714D02*
X125068800Y-70461333D01*
X125068800Y-70461333D02*
X125021180Y-70556571D01*
X125021180Y-70556571D02*
X125021180Y-70747047D01*
X125021180Y-70747047D02*
X125068800Y-70842285D01*
X125068800Y-70842285D02*
X125116419Y-70889904D01*
X125116419Y-70889904D02*
X125211657Y-70937523D01*
X125211657Y-70937523D02*
X126021180Y-70937523D01*
X125068800Y-71366095D02*
X125021180Y-71508952D01*
X125021180Y-71508952D02*
X125021180Y-71747047D01*
X125021180Y-71747047D02*
X125068800Y-71842285D01*
X125068800Y-71842285D02*
X125116419Y-71889904D01*
X125116419Y-71889904D02*
X125211657Y-71937523D01*
X125211657Y-71937523D02*
X125306895Y-71937523D01*
X125306895Y-71937523D02*
X125402133Y-71889904D01*
X125402133Y-71889904D02*
X125449752Y-71842285D01*
X125449752Y-71842285D02*
X125497371Y-71747047D01*
X125497371Y-71747047D02*
X125544990Y-71556571D01*
X125544990Y-71556571D02*
X125592609Y-71461333D01*
X125592609Y-71461333D02*
X125640228Y-71413714D01*
X125640228Y-71413714D02*
X125735466Y-71366095D01*
X125735466Y-71366095D02*
X125830704Y-71366095D01*
X125830704Y-71366095D02*
X125925942Y-71413714D01*
X125925942Y-71413714D02*
X125973561Y-71461333D01*
X125973561Y-71461333D02*
X126021180Y-71556571D01*
X126021180Y-71556571D02*
X126021180Y-71794666D01*
X126021180Y-71794666D02*
X125973561Y-71937523D01*
X125544990Y-72699428D02*
X125497371Y-72842285D01*
X125497371Y-72842285D02*
X125449752Y-72889904D01*
X125449752Y-72889904D02*
X125354514Y-72937523D01*
X125354514Y-72937523D02*
X125211657Y-72937523D01*
X125211657Y-72937523D02*
X125116419Y-72889904D01*
X125116419Y-72889904D02*
X125068800Y-72842285D01*
X125068800Y-72842285D02*
X125021180Y-72747047D01*
X125021180Y-72747047D02*
X125021180Y-72366095D01*
X125021180Y-72366095D02*
X126021180Y-72366095D01*
X126021180Y-72366095D02*
X126021180Y-72699428D01*
X126021180Y-72699428D02*
X125973561Y-72794666D01*
X125973561Y-72794666D02*
X125925942Y-72842285D01*
X125925942Y-72842285D02*
X125830704Y-72889904D01*
X125830704Y-72889904D02*
X125735466Y-72889904D01*
X125735466Y-72889904D02*
X125640228Y-72842285D01*
X125640228Y-72842285D02*
X125592609Y-72794666D01*
X125592609Y-72794666D02*
X125544990Y-72699428D01*
X125544990Y-72699428D02*
X125544990Y-72366095D01*
D12*
%TO.C,U3*%
X169650000Y-59250000D02*
X169650000Y-60500000D01*
X169940000Y-59540000D02*
X169940000Y-65510000D01*
X169940000Y-65510000D02*
X187560000Y-65510000D01*
X169950000Y-59550000D02*
X169950000Y-60300000D01*
X169950000Y-60300000D02*
X171750000Y-60300000D01*
X169950000Y-61800000D02*
X170700000Y-61800000D01*
X170700000Y-61800000D02*
X170700000Y-64750000D01*
X170700000Y-64750000D02*
X178750000Y-64750000D01*
X170900000Y-59250000D02*
X169650000Y-59250000D01*
X171750000Y-59550000D02*
X169950000Y-59550000D01*
X171750000Y-60300000D02*
X171750000Y-59550000D01*
X173250000Y-59550000D02*
X173250000Y-60300000D01*
X173250000Y-60300000D02*
X184250000Y-60300000D01*
X184250000Y-59550000D02*
X173250000Y-59550000D01*
X184250000Y-60300000D02*
X184250000Y-59550000D01*
X185750000Y-59550000D02*
X185750000Y-60300000D01*
X185750000Y-60300000D02*
X187550000Y-60300000D01*
X186800000Y-61800000D02*
X186800000Y-64750000D01*
X186800000Y-64750000D02*
X178750000Y-64750000D01*
X187550000Y-59550000D02*
X185750000Y-59550000D01*
X187550000Y-60300000D02*
X187550000Y-59550000D01*
X187550000Y-61800000D02*
X186800000Y-61800000D01*
X187560000Y-59540000D02*
X169940000Y-59540000D01*
X187560000Y-65510000D02*
X187560000Y-59540000D01*
%TO.C,BAU*%
X129988000Y-91408000D02*
X131318000Y-91408000D01*
X129988000Y-92738000D02*
X129988000Y-91408000D01*
X132588000Y-91408000D02*
X135188000Y-91408000D01*
X132588000Y-94068000D02*
X132588000Y-91408000D01*
X132588000Y-94068000D02*
X135188000Y-94068000D01*
X135188000Y-94068000D02*
X135188000Y-91408000D01*
%TO.C,J4*%
X123190000Y-108204000D02*
X123190000Y-118364000D01*
X123190000Y-118364000D02*
X130810000Y-118364000D01*
X124460000Y-118364000D02*
X124460000Y-108204000D01*
X130810000Y-108204000D02*
X123190000Y-108204000D01*
X130810000Y-118364000D02*
X130810000Y-108204000D01*
%TO.C,PWR_ON*%
X125670000Y-123190000D02*
X125670000Y-125790000D01*
X125670000Y-123190000D02*
X128330000Y-123190000D01*
X125670000Y-125790000D02*
X128330000Y-125790000D01*
X127000000Y-120590000D02*
X128330000Y-120590000D01*
X128330000Y-120590000D02*
X128330000Y-121920000D01*
X128330000Y-123190000D02*
X128330000Y-125790000D01*
%TO.C,TM*%
X129988000Y-85030000D02*
X131318000Y-85030000D01*
X129988000Y-86360000D02*
X129988000Y-85030000D01*
X132588000Y-85030000D02*
X135188000Y-85030000D01*
X132588000Y-87690000D02*
X132588000Y-85030000D01*
X132588000Y-87690000D02*
X135188000Y-87690000D01*
X135188000Y-87690000D02*
X135188000Y-85030000D01*
D11*
%TO.C,U1*%
X170434000Y-105664000D02*
X170434000Y-120904000D01*
X170434000Y-120904000D02*
X190754000Y-120904000D01*
X190754000Y-105664000D02*
X170434000Y-105664000D01*
X190754000Y-120904000D02*
X190754000Y-105664000D01*
D12*
%TO.C,D1*%
X124567000Y-103103000D02*
X124567000Y-103568000D01*
X124567000Y-105728000D02*
X124567000Y-106193000D01*
X124567000Y-103103170D02*
G75*
G02*
X129915107Y-103567925I2560000J-1544830D01*
G01*
X124872316Y-103568000D02*
G75*
G02*
X129381656Y-103567941I2254684J-1080000D01*
G01*
X129381656Y-105728059D02*
G75*
G02*
X124872316Y-105728000I-2254656J1080059D01*
G01*
X129915107Y-105728075D02*
G75*
G02*
X124567000Y-106192830I-2788107J1080075D01*
G01*
%TO.C,Stepper2*%
X150976000Y-122490000D02*
X150976000Y-128460000D01*
X150976000Y-128460000D02*
X163596000Y-128460000D01*
X150986000Y-126200000D02*
X151736000Y-126200000D01*
X150986000Y-127700000D02*
X150986000Y-128450000D01*
X150986000Y-128450000D02*
X152786000Y-128450000D01*
X151736000Y-123250000D02*
X157286000Y-123250000D01*
X151736000Y-126200000D02*
X151736000Y-123250000D01*
X152786000Y-127700000D02*
X150986000Y-127700000D01*
X152786000Y-128450000D02*
X152786000Y-127700000D01*
X154286000Y-127700000D02*
X154286000Y-128450000D01*
X154286000Y-128450000D02*
X160286000Y-128450000D01*
X160286000Y-127700000D02*
X154286000Y-127700000D01*
X160286000Y-128450000D02*
X160286000Y-127700000D01*
X161786000Y-127700000D02*
X161786000Y-128450000D01*
X161786000Y-128450000D02*
X163586000Y-128450000D01*
X162636000Y-128750000D02*
X163886000Y-128750000D01*
X162836000Y-123250000D02*
X157286000Y-123250000D01*
X162836000Y-126200000D02*
X162836000Y-123250000D01*
X163586000Y-126200000D02*
X162836000Y-126200000D01*
X163586000Y-127700000D02*
X161786000Y-127700000D01*
X163586000Y-128450000D02*
X163586000Y-127700000D01*
X163596000Y-122490000D02*
X150976000Y-122490000D01*
X163596000Y-128460000D02*
X163596000Y-122490000D01*
X163886000Y-128750000D02*
X163886000Y-127500000D01*
%TO.C,R1*%
X132612000Y-67056000D02*
X133382000Y-67056000D01*
X133382000Y-65686000D02*
X133382000Y-68426000D01*
X133382000Y-68426000D02*
X139922000Y-68426000D01*
X139922000Y-65686000D02*
X133382000Y-65686000D01*
X139922000Y-68426000D02*
X139922000Y-65686000D01*
X140692000Y-67056000D02*
X139922000Y-67056000D01*
%TO.C,PWR*%
X133894000Y-123126000D02*
X133894000Y-122970000D01*
X133894000Y-125442000D02*
X133894000Y-125286000D01*
X130662603Y-123125939D02*
G75*
G02*
X133894000Y-122970484I1671397J-1080061D01*
G01*
X131293090Y-123125951D02*
G75*
G02*
X133374961Y-123126000I1040910J-1080049D01*
G01*
X133374961Y-125286000D02*
G75*
G02*
X131293090Y-125286049I-1040961J1080000D01*
G01*
X133894000Y-125441516D02*
G75*
G02*
X130662603Y-125286061I-1560000J1235516D01*
G01*
%TO.C,Stepper1*%
X174344000Y-122490000D02*
X174344000Y-128460000D01*
X174344000Y-128460000D02*
X186964000Y-128460000D01*
X174354000Y-126200000D02*
X175104000Y-126200000D01*
X174354000Y-127700000D02*
X174354000Y-128450000D01*
X174354000Y-128450000D02*
X176154000Y-128450000D01*
X175104000Y-123250000D02*
X180654000Y-123250000D01*
X175104000Y-126200000D02*
X175104000Y-123250000D01*
X176154000Y-127700000D02*
X174354000Y-127700000D01*
X176154000Y-128450000D02*
X176154000Y-127700000D01*
X177654000Y-127700000D02*
X177654000Y-128450000D01*
X177654000Y-128450000D02*
X183654000Y-128450000D01*
X183654000Y-127700000D02*
X177654000Y-127700000D01*
X183654000Y-128450000D02*
X183654000Y-127700000D01*
X185154000Y-127700000D02*
X185154000Y-128450000D01*
X185154000Y-128450000D02*
X186954000Y-128450000D01*
X186004000Y-128750000D02*
X187254000Y-128750000D01*
X186204000Y-123250000D02*
X180654000Y-123250000D01*
X186204000Y-126200000D02*
X186204000Y-123250000D01*
X186954000Y-126200000D02*
X186204000Y-126200000D01*
X186954000Y-127700000D02*
X185154000Y-127700000D01*
X186954000Y-128450000D02*
X186954000Y-127700000D01*
X186964000Y-122490000D02*
X174344000Y-122490000D01*
X186964000Y-128460000D02*
X186964000Y-122490000D01*
X187254000Y-128750000D02*
X187254000Y-127500000D01*
D11*
%TO.C,U2*%
X146940000Y-105664000D02*
X146940000Y-120904000D01*
X146940000Y-120904000D02*
X167260000Y-120904000D01*
X167260000Y-105664000D02*
X146940000Y-105664000D01*
X167260000Y-120904000D02*
X167260000Y-105664000D01*
D12*
%TO.C,Servo1*%
X140656000Y-113792000D02*
X140656000Y-108652000D01*
X143316000Y-108652000D02*
X140656000Y-108652000D01*
X143316000Y-113792000D02*
X140656000Y-113792000D01*
X143316000Y-113792000D02*
X143316000Y-108652000D01*
X143316000Y-115062000D02*
X143316000Y-116392000D01*
X143316000Y-116392000D02*
X141986000Y-116392000D01*
%TO.C,Servo2*%
X135562000Y-113854000D02*
X135562000Y-108714000D01*
X138222000Y-108714000D02*
X135562000Y-108714000D01*
X138222000Y-113854000D02*
X135562000Y-113854000D01*
X138222000Y-113854000D02*
X138222000Y-108714000D01*
X138222000Y-115124000D02*
X138222000Y-116454000D01*
X138222000Y-116454000D02*
X136892000Y-116454000D01*
%TO.C,TR*%
X129988000Y-97730000D02*
X131318000Y-97730000D01*
X129988000Y-99060000D02*
X129988000Y-97730000D01*
X132588000Y-97730000D02*
X135188000Y-97730000D01*
X132588000Y-100390000D02*
X132588000Y-97730000D01*
X132588000Y-100390000D02*
X135188000Y-100390000D01*
X135188000Y-100390000D02*
X135188000Y-97730000D01*
%TO.C,R2*%
X137184000Y-124206000D02*
X137954000Y-124206000D01*
X137954000Y-122836000D02*
X137954000Y-125576000D01*
X137954000Y-125576000D02*
X144494000Y-125576000D01*
X144494000Y-122836000D02*
X137954000Y-122836000D01*
X144494000Y-125576000D02*
X144494000Y-122836000D01*
X145264000Y-124206000D02*
X144494000Y-124206000D01*
%TO.C,U4*%
X169650000Y-69250000D02*
X169650000Y-70500000D01*
X169940000Y-69540000D02*
X169940000Y-75510000D01*
X169940000Y-75510000D02*
X187560000Y-75510000D01*
X169950000Y-69550000D02*
X169950000Y-70300000D01*
X169950000Y-70300000D02*
X171750000Y-70300000D01*
X169950000Y-71800000D02*
X170700000Y-71800000D01*
X170700000Y-71800000D02*
X170700000Y-74750000D01*
X170700000Y-74750000D02*
X178750000Y-74750000D01*
X170900000Y-69250000D02*
X169650000Y-69250000D01*
X171750000Y-69550000D02*
X169950000Y-69550000D01*
X171750000Y-70300000D02*
X171750000Y-69550000D01*
X173250000Y-69550000D02*
X173250000Y-70300000D01*
X173250000Y-70300000D02*
X184250000Y-70300000D01*
X184250000Y-69550000D02*
X173250000Y-69550000D01*
X184250000Y-70300000D02*
X184250000Y-69550000D01*
X185750000Y-69550000D02*
X185750000Y-70300000D01*
X185750000Y-70300000D02*
X187550000Y-70300000D01*
X186800000Y-71800000D02*
X186800000Y-74750000D01*
X186800000Y-74750000D02*
X178750000Y-74750000D01*
X187550000Y-69550000D02*
X185750000Y-69550000D01*
X187550000Y-70300000D02*
X187550000Y-69550000D01*
X187550000Y-71800000D02*
X186800000Y-71800000D01*
X187560000Y-69540000D02*
X169940000Y-69540000D01*
X187560000Y-75510000D02*
X187560000Y-69540000D01*
%TO.C,A1*%
X118996000Y-67688000D02*
X129416000Y-67688000D01*
X118996000Y-75568000D02*
X118996000Y-67688000D01*
X121536000Y-62608000D02*
X121536000Y-67688000D01*
X121536000Y-80648000D02*
X121536000Y-75568000D01*
X121536000Y-80648000D02*
X164976000Y-80648000D01*
X124206000Y-65278000D02*
X124206000Y-62608000D01*
X124206000Y-77978000D02*
X124206000Y-80648000D01*
X129416000Y-67688000D02*
X129416000Y-75568000D01*
X129416000Y-75568000D02*
X118996000Y-75568000D01*
X159766000Y-62608000D02*
X121536000Y-62608000D01*
X159766000Y-65278000D02*
X124206000Y-65278000D01*
X159766000Y-65278000D02*
X159766000Y-62608000D01*
X159766000Y-65278000D02*
X162306000Y-65278000D01*
X162306000Y-65278000D02*
X162306000Y-62608000D01*
X162306000Y-77978000D02*
X124206000Y-77978000D01*
X162306000Y-77978000D02*
X162306000Y-80648000D01*
X164976000Y-62608000D02*
X162306000Y-62608000D01*
X164976000Y-80648000D02*
X164976000Y-62608000D01*
%TD*%
M02*
