%TF.GenerationSoftware,KiCad,Pcbnew,9.0.0*%
%TF.CreationDate,2025-03-23T18:07:52+01:00*%
%TF.ProjectId,Board_PAMI,426f6172-645f-4504-914d-492e6b696361,V2*%
%TF.SameCoordinates,Original*%
%TF.FileFunction,Soldermask,Top*%
%TF.FilePolarity,Negative*%
%FSLAX46Y46*%
G04 Gerber Fmt 4.6, Leading zero omitted, Abs format (unit mm)*
G04 Created by KiCad (PCBNEW 9.0.0) date 2025-03-23 18:07:52*
%MOMM*%
%LPD*%
G01*
G04 APERTURE LIST*
G04 Aperture macros list*
%AMRoundRect*
0 Rectangle with rounded corners*
0 $1 Rounding radius*
0 $2 $3 $4 $5 $6 $7 $8 $9 X,Y pos of 4 corners*
0 Add a 4 corners polygon primitive as box body*
4,1,4,$2,$3,$4,$5,$6,$7,$8,$9,$2,$3,0*
0 Add four circle primitives for the rounded corners*
1,1,$1+$1,$2,$3*
1,1,$1+$1,$4,$5*
1,1,$1+$1,$6,$7*
1,1,$1+$1,$8,$9*
0 Add four rect primitives between the rounded corners*
20,1,$1+$1,$2,$3,$4,$5,0*
20,1,$1+$1,$4,$5,$6,$7,0*
20,1,$1+$1,$6,$7,$8,$9,0*
20,1,$1+$1,$8,$9,$2,$3,0*%
G04 Aperture macros list end*
%ADD10RoundRect,0.250000X-0.600000X-0.725000X0.600000X-0.725000X0.600000X0.725000X-0.600000X0.725000X0*%
%ADD11O,1.700000X1.950000*%
%ADD12R,1.700000X1.700000*%
%ADD13O,1.700000X1.700000*%
%ADD14R,3.000000X3.000000*%
%ADD15C,3.000000*%
%ADD16O,1.070000X1.800000*%
%ADD17R,1.070000X1.800000*%
%ADD18RoundRect,0.250000X0.600000X0.725000X-0.600000X0.725000X-0.600000X-0.725000X0.600000X-0.725000X0*%
%ADD19C,1.600000*%
%ADD20O,1.600000X1.600000*%
%ADD21R,1.800000X1.800000*%
%ADD22C,1.800000*%
%ADD23C,4.300000*%
%ADD24R,1.600000X1.600000*%
G04 APERTURE END LIST*
D10*
%TO.C,U3*%
X172500000Y-62000000D03*
D11*
X175000000Y-62000000D03*
X177500000Y-62000000D03*
X180000000Y-62000000D03*
X182500000Y-62000000D03*
X185000000Y-62000000D03*
%TD*%
D12*
%TO.C,BAU*%
X131318000Y-92738000D03*
D13*
X133858000Y-92738000D03*
%TD*%
D14*
%TO.C,J4*%
X127000000Y-110744000D03*
D15*
X127000000Y-115824000D03*
%TD*%
D12*
%TO.C,PWR_ON*%
X127000000Y-121920000D03*
D13*
X127000000Y-124460000D03*
%TD*%
D12*
%TO.C,TM*%
X131318000Y-86360000D03*
D13*
X133858000Y-86360000D03*
%TD*%
D12*
%TO.C,U1*%
X189484000Y-106934000D03*
D13*
X186944000Y-106934000D03*
X184404000Y-106934000D03*
X181864000Y-106934000D03*
X179324000Y-106934000D03*
X176784000Y-106934000D03*
X174244000Y-106934000D03*
X171704000Y-106934000D03*
X189484000Y-119634000D03*
X186944000Y-119634000D03*
X184404000Y-119634000D03*
X181864000Y-119634000D03*
X179324000Y-119634000D03*
X176784000Y-119634000D03*
X174244000Y-119634000D03*
X171704000Y-119634000D03*
%TD*%
D16*
%TO.C,D1*%
X129032000Y-104648000D03*
X127762000Y-104648000D03*
X126492000Y-104648000D03*
D17*
X125222000Y-104648000D03*
%TD*%
D18*
%TO.C,Stepper2*%
X161036000Y-126000000D03*
D11*
X158536000Y-126000000D03*
X156036000Y-126000000D03*
X153536000Y-126000000D03*
%TD*%
D19*
%TO.C,R1*%
X141732000Y-67056000D03*
D20*
X131572000Y-67056000D03*
%TD*%
D21*
%TO.C,PWR*%
X133604000Y-124206000D03*
D22*
X131064000Y-124206000D03*
%TD*%
D18*
%TO.C,Stepper1*%
X184404000Y-126000000D03*
D11*
X181904000Y-126000000D03*
X179404000Y-126000000D03*
X176904000Y-126000000D03*
%TD*%
D12*
%TO.C,U2*%
X165990000Y-106934000D03*
D13*
X163450000Y-106934000D03*
X160910000Y-106934000D03*
X158370000Y-106934000D03*
X155830000Y-106934000D03*
X153290000Y-106934000D03*
X150750000Y-106934000D03*
X148210000Y-106934000D03*
X165990000Y-119634000D03*
X163450000Y-119634000D03*
X160910000Y-119634000D03*
X158370000Y-119634000D03*
X155830000Y-119634000D03*
X153290000Y-119634000D03*
X150750000Y-119634000D03*
X148210000Y-119634000D03*
%TD*%
D12*
%TO.C,Servo1*%
X141986000Y-115062000D03*
D13*
X141986000Y-112522000D03*
X141986000Y-109982000D03*
%TD*%
D23*
%TO.C,H1*%
X118600000Y-63910000D03*
%TD*%
%TO.C,H3*%
X194400000Y-121700000D03*
%TD*%
D12*
%TO.C,Servo2*%
X136892000Y-115124000D03*
D13*
X136892000Y-112584000D03*
X136892000Y-110044000D03*
%TD*%
D12*
%TO.C,TR*%
X131318000Y-99060000D03*
D13*
X133858000Y-99060000D03*
%TD*%
D19*
%TO.C,R2*%
X146304000Y-124206000D03*
D20*
X136144000Y-124206000D03*
%TD*%
D23*
%TO.C,H2*%
X118600000Y-121700000D03*
%TD*%
D10*
%TO.C,U4*%
X172500000Y-72000000D03*
D11*
X175000000Y-72000000D03*
X177500000Y-72000000D03*
X180000000Y-72000000D03*
X182500000Y-72000000D03*
X185000000Y-72000000D03*
%TD*%
D24*
%TO.C,A1*%
X161036000Y-64008000D03*
D20*
X158496000Y-64008000D03*
X155956000Y-64008000D03*
X153416000Y-64008000D03*
X150876000Y-64008000D03*
X148336000Y-64008000D03*
X145796000Y-64008000D03*
X143256000Y-64008000D03*
X140716000Y-64008000D03*
X138176000Y-64008000D03*
X135636000Y-64008000D03*
X133096000Y-64008000D03*
X130556000Y-64008000D03*
X128016000Y-64008000D03*
X125476000Y-64008000D03*
X125476000Y-79248000D03*
X128016000Y-79248000D03*
X130556000Y-79248000D03*
X133096000Y-79248000D03*
X135636000Y-79248000D03*
X138176000Y-79248000D03*
X140716000Y-79248000D03*
X143256000Y-79248000D03*
X145796000Y-79248000D03*
X148336000Y-79248000D03*
X150876000Y-79248000D03*
X153416000Y-79248000D03*
X155956000Y-79248000D03*
X158496000Y-79248000D03*
X161036000Y-79248000D03*
%TD*%
D23*
%TO.C,H4*%
X194400000Y-63900000D03*
%TD*%
D19*
%TO.C,R4*%
X145796000Y-72898000D03*
D20*
X135636000Y-72898000D03*
%TD*%
D19*
%TO.C,R3*%
X145796000Y-76200000D03*
D20*
X135636000Y-76200000D03*
%TD*%
D19*
%TO.C,R5*%
X145796000Y-69850000D03*
D20*
X135636000Y-69850000D03*
%TD*%
M02*
