%TF.GenerationSoftware,KiCad,Pcbnew,9.0.0*%
%TF.CreationDate,2025-03-23T18:07:52+01:00*%
%TF.ProjectId,Board_PAMI,426f6172-645f-4504-914d-492e6b696361,V2*%
%TF.SameCoordinates,Original*%
%TF.FileFunction,Copper,L1,Top*%
%TF.FilePolarity,Positive*%
%FSLAX46Y46*%
G04 Gerber Fmt 4.6, Leading zero omitted, Abs format (unit mm)*
G04 Created by KiCad (PCBNEW 9.0.0) date 2025-03-23 18:07:52*
%MOMM*%
%LPD*%
G01*
G04 APERTURE LIST*
G04 Aperture macros list*
%AMRoundRect*
0 Rectangle with rounded corners*
0 $1 Rounding radius*
0 $2 $3 $4 $5 $6 $7 $8 $9 X,Y pos of 4 corners*
0 Add a 4 corners polygon primitive as box body*
4,1,4,$2,$3,$4,$5,$6,$7,$8,$9,$2,$3,0*
0 Add four circle primitives for the rounded corners*
1,1,$1+$1,$2,$3*
1,1,$1+$1,$4,$5*
1,1,$1+$1,$6,$7*
1,1,$1+$1,$8,$9*
0 Add four rect primitives between the rounded corners*
20,1,$1+$1,$2,$3,$4,$5,0*
20,1,$1+$1,$4,$5,$6,$7,0*
20,1,$1+$1,$6,$7,$8,$9,0*
20,1,$1+$1,$8,$9,$2,$3,0*%
G04 Aperture macros list end*
%TA.AperFunction,ComponentPad*%
%ADD10RoundRect,0.250000X-0.600000X-0.725000X0.600000X-0.725000X0.600000X0.725000X-0.600000X0.725000X0*%
%TD*%
%TA.AperFunction,ComponentPad*%
%ADD11O,1.700000X1.950000*%
%TD*%
%TA.AperFunction,ComponentPad*%
%ADD12R,1.700000X1.700000*%
%TD*%
%TA.AperFunction,ComponentPad*%
%ADD13O,1.700000X1.700000*%
%TD*%
%TA.AperFunction,ComponentPad*%
%ADD14R,3.000000X3.000000*%
%TD*%
%TA.AperFunction,ComponentPad*%
%ADD15C,3.000000*%
%TD*%
%TA.AperFunction,ComponentPad*%
%ADD16O,1.070000X1.800000*%
%TD*%
%TA.AperFunction,ComponentPad*%
%ADD17R,1.070000X1.800000*%
%TD*%
%TA.AperFunction,ComponentPad*%
%ADD18RoundRect,0.250000X0.600000X0.725000X-0.600000X0.725000X-0.600000X-0.725000X0.600000X-0.725000X0*%
%TD*%
%TA.AperFunction,ComponentPad*%
%ADD19C,1.600000*%
%TD*%
%TA.AperFunction,ComponentPad*%
%ADD20O,1.600000X1.600000*%
%TD*%
%TA.AperFunction,ComponentPad*%
%ADD21R,1.800000X1.800000*%
%TD*%
%TA.AperFunction,ComponentPad*%
%ADD22C,1.800000*%
%TD*%
%TA.AperFunction,ComponentPad*%
%ADD23C,4.300000*%
%TD*%
%TA.AperFunction,ComponentPad*%
%ADD24R,1.600000X1.600000*%
%TD*%
%TA.AperFunction,Conductor*%
%ADD25C,0.500000*%
%TD*%
%TA.AperFunction,Conductor*%
%ADD26C,1.000000*%
%TD*%
%TA.AperFunction,Conductor*%
%ADD27C,0.700000*%
%TD*%
G04 APERTURE END LIST*
D10*
%TO.P,U3,1,VCC*%
%TO.N,VCC*%
X172500000Y-62000000D03*
D11*
%TO.P,U3,2,GND*%
%TO.N,GND*%
X175000000Y-62000000D03*
%TO.P,U3,3,SCL*%
%TO.N,SCL*%
X177500000Y-62000000D03*
%TO.P,U3,4,SDA*%
%TO.N,SDA*%
X180000000Y-62000000D03*
%TO.P,U3,5,GPIO1*%
%TO.N,unconnected-(U3-GPIO1-Pad5)*%
X182500000Y-62000000D03*
%TO.P,U3,6,XSHUT*%
%TO.N,XSHUT_1*%
X185000000Y-62000000D03*
%TD*%
D12*
%TO.P,BAU,1,1*%
%TO.N,GND*%
X131318000Y-92738000D03*
D13*
%TO.P,BAU,2,2*%
%TO.N,SW_BAU*%
X133858000Y-92738000D03*
%TD*%
D14*
%TO.P,J4,1,Pin_1*%
%TO.N,GND*%
X127000000Y-110744000D03*
D15*
%TO.P,J4,2,Pin_2*%
%TO.N,/6V*%
X127000000Y-115824000D03*
%TD*%
D12*
%TO.P,PWR_ON,1,A*%
%TO.N,/6V*%
X127000000Y-121920000D03*
D13*
%TO.P,PWR_ON,2,B*%
%TO.N,VM*%
X127000000Y-124460000D03*
%TD*%
D12*
%TO.P,TM,1,A*%
%TO.N,GND*%
X131318000Y-86360000D03*
D13*
%TO.P,TM,2,B*%
%TO.N,SW_TM*%
X133858000Y-86360000D03*
%TD*%
D12*
%TO.P,U1,1,EN*%
%TO.N,EN_STP_1*%
X189484000Y-106934000D03*
D13*
%TO.P,U1,2,MS1*%
%TO.N,GND*%
X186944000Y-106934000D03*
%TO.P,U1,3,MS2*%
X184404000Y-106934000D03*
%TO.P,U1,4,UART_RX*%
%TO.N,UART_RX*%
X181864000Y-106934000D03*
%TO.P,U1,5,UART_TX*%
X179324000Y-106934000D03*
%TO.P,U1,6,CLK*%
%TO.N,unconnected-(U1-CLK-Pad6)*%
X176784000Y-106934000D03*
%TO.P,U1,7,STEP*%
%TO.N,STEP_1*%
X174244000Y-106934000D03*
%TO.P,U1,8,DIR*%
%TO.N,DIR_1*%
X171704000Y-106934000D03*
%TO.P,U1,9,VM*%
%TO.N,VM*%
X189484000Y-119634000D03*
%TO.P,U1,10,GND*%
%TO.N,GND*%
X186944000Y-119634000D03*
%TO.P,U1,11,A2*%
%TO.N,Net-(J1-Pin_1)*%
X184404000Y-119634000D03*
%TO.P,U1,12,A1*%
%TO.N,Net-(J1-Pin_2)*%
X181864000Y-119634000D03*
%TO.P,U1,13,B1*%
%TO.N,Net-(J1-Pin_3)*%
X179324000Y-119634000D03*
%TO.P,U1,14,B2*%
%TO.N,Net-(J1-Pin_4)*%
X176784000Y-119634000D03*
%TO.P,U1,15,VCC*%
%TO.N,VCC*%
X174244000Y-119634000D03*
%TO.P,U1,16,GND*%
%TO.N,GND*%
X171704000Y-119634000D03*
%TD*%
D16*
%TO.P,D1,1,BA*%
%TO.N,Net-(D1-BA)*%
X129032000Y-104648000D03*
%TO.P,D1,2,GA*%
%TO.N,Net-(D1-GA)*%
X127762000Y-104648000D03*
%TO.P,D1,3,K*%
%TO.N,GND*%
X126492000Y-104648000D03*
D17*
%TO.P,D1,4,RA*%
%TO.N,Net-(D1-RA)*%
X125222000Y-104648000D03*
%TD*%
D18*
%TO.P,Stepper2,1,Pin_1*%
%TO.N,Net-(J2-Pin_1)*%
X161036000Y-126000000D03*
D11*
%TO.P,Stepper2,2,Pin_2*%
%TO.N,Net-(J2-Pin_2)*%
X158536000Y-126000000D03*
%TO.P,Stepper2,3,Pin_3*%
%TO.N,Net-(J2-Pin_3)*%
X156036000Y-126000000D03*
%TO.P,Stepper2,4,Pin_4*%
%TO.N,Net-(J2-Pin_4)*%
X153536000Y-126000000D03*
%TD*%
D19*
%TO.P,R1,1*%
%TO.N,UART_RX*%
X141732000Y-67056000D03*
D20*
%TO.P,R1,2*%
%TO.N,Net-(A1-D8)*%
X131572000Y-67056000D03*
%TD*%
D21*
%TO.P,PWR,1,K*%
%TO.N,Net-(D2-K)*%
X133604000Y-124206000D03*
D22*
%TO.P,PWR,2,A*%
%TO.N,VM*%
X131064000Y-124206000D03*
%TD*%
D18*
%TO.P,Stepper1,1,Pin_1*%
%TO.N,Net-(J1-Pin_1)*%
X184404000Y-126000000D03*
D11*
%TO.P,Stepper1,2,Pin_2*%
%TO.N,Net-(J1-Pin_2)*%
X181904000Y-126000000D03*
%TO.P,Stepper1,3,Pin_3*%
%TO.N,Net-(J1-Pin_3)*%
X179404000Y-126000000D03*
%TO.P,Stepper1,4,Pin_4*%
%TO.N,Net-(J1-Pin_4)*%
X176904000Y-126000000D03*
%TD*%
D12*
%TO.P,U2,1,EN*%
%TO.N,EN_STP_2*%
X165990000Y-106934000D03*
D13*
%TO.P,U2,2,MS1*%
%TO.N,VCC*%
X163450000Y-106934000D03*
%TO.P,U2,3,MS2*%
%TO.N,GND*%
X160910000Y-106934000D03*
%TO.P,U2,4,UART_RX*%
%TO.N,UART_RX*%
X158370000Y-106934000D03*
%TO.P,U2,5,UART_TX*%
X155830000Y-106934000D03*
%TO.P,U2,6,CLK*%
%TO.N,unconnected-(U2-CLK-Pad6)*%
X153290000Y-106934000D03*
%TO.P,U2,7,STEP*%
%TO.N,STEP_2*%
X150750000Y-106934000D03*
%TO.P,U2,8,DIR*%
%TO.N,DIR_2*%
X148210000Y-106934000D03*
%TO.P,U2,9,VM*%
%TO.N,VM*%
X165990000Y-119634000D03*
%TO.P,U2,10,GND*%
%TO.N,GND*%
X163450000Y-119634000D03*
%TO.P,U2,11,A2*%
%TO.N,Net-(J2-Pin_1)*%
X160910000Y-119634000D03*
%TO.P,U2,12,A1*%
%TO.N,Net-(J2-Pin_2)*%
X158370000Y-119634000D03*
%TO.P,U2,13,B1*%
%TO.N,Net-(J2-Pin_3)*%
X155830000Y-119634000D03*
%TO.P,U2,14,B2*%
%TO.N,Net-(J2-Pin_4)*%
X153290000Y-119634000D03*
%TO.P,U2,15,VCC*%
%TO.N,VCC*%
X150750000Y-119634000D03*
%TO.P,U2,16,GND*%
%TO.N,GND*%
X148210000Y-119634000D03*
%TD*%
D12*
%TO.P,Servo1,1,Pin_1*%
%TO.N,GND*%
X141986000Y-115062000D03*
D13*
%TO.P,Servo1,2,Pin_2*%
%TO.N,VM*%
X141986000Y-112522000D03*
%TO.P,Servo1,3,Pin_3*%
%TO.N,PWM_SERVO_1*%
X141986000Y-109982000D03*
%TD*%
D23*
%TO.P,H1,1,1*%
%TO.N,GND*%
X118600000Y-63910000D03*
%TD*%
%TO.P,H3,1,1*%
%TO.N,GND*%
X194400000Y-121700000D03*
%TD*%
D12*
%TO.P,Servo2,1,Pin_1*%
%TO.N,GND*%
X136892000Y-115124000D03*
D13*
%TO.P,Servo2,2,Pin_2*%
%TO.N,VM*%
X136892000Y-112584000D03*
%TO.P,Servo2,3,Pin_3*%
%TO.N,PWM_SERVO_2*%
X136892000Y-110044000D03*
%TD*%
D12*
%TO.P,TR,1,A*%
%TO.N,GND*%
X131318000Y-99060000D03*
D13*
%TO.P,TR,2,B*%
%TO.N,SW_TR*%
X133858000Y-99060000D03*
%TD*%
D19*
%TO.P,R2,1*%
%TO.N,GND*%
X146304000Y-124206000D03*
D20*
%TO.P,R2,2*%
%TO.N,Net-(D2-K)*%
X136144000Y-124206000D03*
%TD*%
D23*
%TO.P,H2,1,1*%
%TO.N,GND*%
X118600000Y-121700000D03*
%TD*%
D10*
%TO.P,U4,1,VCC*%
%TO.N,VCC*%
X172500000Y-72000000D03*
D11*
%TO.P,U4,2,GND*%
%TO.N,GND*%
X175000000Y-72000000D03*
%TO.P,U4,3,SCL*%
%TO.N,SCL*%
X177500000Y-72000000D03*
%TO.P,U4,4,SDA*%
%TO.N,SDA*%
X180000000Y-72000000D03*
%TO.P,U4,5,GPIO1*%
%TO.N,unconnected-(U4-GPIO1-Pad5)*%
X182500000Y-72000000D03*
%TO.P,U4,6,XSHUT*%
%TO.N,XSHUT_2*%
X185000000Y-72000000D03*
%TD*%
D24*
%TO.P,A1,1,D1/TX*%
%TO.N,EN_STP_2*%
X161036000Y-64008000D03*
D20*
%TO.P,A1,2,D0/RX*%
%TO.N,EN_STP_1*%
X158496000Y-64008000D03*
%TO.P,A1,3,~{RESET}*%
%TO.N,unconnected-(A1-~{RESET}-Pad3)*%
X155956000Y-64008000D03*
%TO.P,A1,4,GND*%
%TO.N,GND*%
X153416000Y-64008000D03*
%TO.P,A1,5,D2*%
%TO.N,DIR_1*%
X150876000Y-64008000D03*
%TO.P,A1,6,D3*%
%TO.N,STEP_1*%
X148336000Y-64008000D03*
%TO.P,A1,7,D4*%
%TO.N,DIR_2*%
X145796000Y-64008000D03*
%TO.P,A1,8,D5*%
%TO.N,STEP_2*%
X143256000Y-64008000D03*
%TO.P,A1,9,D6*%
%TO.N,PWM_SERVO_1*%
X140716000Y-64008000D03*
%TO.P,A1,10,D7*%
%TO.N,UART_RX*%
X138176000Y-64008000D03*
%TO.P,A1,11,D8*%
%TO.N,Net-(A1-D8)*%
X135636000Y-64008000D03*
%TO.P,A1,12,D9*%
%TO.N,PWM_SERVO_2*%
X133096000Y-64008000D03*
%TO.P,A1,13,D10*%
%TO.N,SW_TR*%
X130556000Y-64008000D03*
%TO.P,A1,14,D11*%
%TO.N,SW_BAU*%
X128016000Y-64008000D03*
%TO.P,A1,15,D12*%
%TO.N,XSHUT_1*%
X125476000Y-64008000D03*
%TO.P,A1,16,D13*%
%TO.N,XSHUT_2*%
X125476000Y-79248000D03*
%TO.P,A1,17,3V3*%
%TO.N,unconnected-(A1-3V3-Pad17)*%
X128016000Y-79248000D03*
%TO.P,A1,18,AREF*%
%TO.N,unconnected-(A1-AREF-Pad18)*%
X130556000Y-79248000D03*
%TO.P,A1,19,A0*%
%TO.N,SW_TM*%
X133096000Y-79248000D03*
%TO.P,A1,20,A1*%
%TO.N,LED_R*%
X135636000Y-79248000D03*
%TO.P,A1,21,A2*%
%TO.N,LED_G*%
X138176000Y-79248000D03*
%TO.P,A1,22,A3*%
%TO.N,LED_B*%
X140716000Y-79248000D03*
%TO.P,A1,23,A4*%
%TO.N,SDA*%
X143256000Y-79248000D03*
%TO.P,A1,24,A5*%
%TO.N,SCL*%
X145796000Y-79248000D03*
%TO.P,A1,25,A6*%
%TO.N,unconnected-(A1-A6-Pad25)*%
X148336000Y-79248000D03*
%TO.P,A1,26,A7*%
%TO.N,unconnected-(A1-A7-Pad26)*%
X150876000Y-79248000D03*
%TO.P,A1,27,+5V*%
%TO.N,VCC*%
X153416000Y-79248000D03*
%TO.P,A1,28,~{RESET}*%
%TO.N,unconnected-(A1-~{RESET}-Pad28)*%
X155956000Y-79248000D03*
%TO.P,A1,29,GND*%
%TO.N,GND*%
X158496000Y-79248000D03*
%TO.P,A1,30,VIN*%
%TO.N,VM*%
X161036000Y-79248000D03*
%TD*%
D23*
%TO.P,H4,1,1*%
%TO.N,GND*%
X194400000Y-63900000D03*
%TD*%
D19*
%TO.P,R4,1*%
%TO.N,Net-(D1-GA)*%
X145796000Y-72898000D03*
D20*
%TO.P,R4,2*%
%TO.N,LED_G*%
X135636000Y-72898000D03*
%TD*%
D19*
%TO.P,R3,1*%
%TO.N,Net-(D1-RA)*%
X145796000Y-76200000D03*
D20*
%TO.P,R3,2*%
%TO.N,LED_R*%
X135636000Y-76200000D03*
%TD*%
D19*
%TO.P,R5,1*%
%TO.N,Net-(D1-BA)*%
X145796000Y-69850000D03*
D20*
%TO.P,R5,2*%
%TO.N,LED_B*%
X135636000Y-69850000D03*
%TD*%
D25*
%TO.N,Net-(A1-D8)*%
X134620000Y-67056000D02*
X135636000Y-66040000D01*
X131572000Y-67056000D02*
X134620000Y-67056000D01*
X135636000Y-66040000D02*
X135636000Y-64008000D01*
%TO.N,SDA*%
X186690000Y-73152000D02*
X186690000Y-70358000D01*
X130048000Y-66294000D02*
X131845000Y-64497000D01*
X130048000Y-68072000D02*
X130048000Y-66294000D01*
X136652000Y-68580000D02*
X130556000Y-68580000D01*
X180000000Y-69682000D02*
X180000000Y-72000000D01*
X143256000Y-79248000D02*
X143256000Y-75184000D01*
X186690000Y-70358000D02*
X185420000Y-69088000D01*
X170241000Y-60005000D02*
X170241000Y-73696364D01*
X135382000Y-58674000D02*
X168910000Y-58674000D01*
X170307000Y-73787000D02*
X171958000Y-75438000D01*
X185420000Y-69088000D02*
X180594000Y-69088000D01*
X131845000Y-62211000D02*
X135382000Y-58674000D01*
X184404000Y-75438000D02*
X186690000Y-73152000D01*
X170241000Y-73696364D02*
X170307000Y-73762364D01*
X168910000Y-58674000D02*
X170241000Y-60005000D01*
X171958000Y-75438000D02*
X184404000Y-75438000D01*
X143256000Y-75184000D02*
X136652000Y-68580000D01*
X180594000Y-69088000D02*
X180000000Y-69682000D01*
X130556000Y-68580000D02*
X130048000Y-68072000D01*
X131845000Y-64497000D02*
X131845000Y-62211000D01*
X170307000Y-73762364D02*
X170307000Y-73787000D01*
%TO.N,SW_TR*%
X130556000Y-64008000D02*
X129267000Y-65297000D01*
X130810000Y-96520000D02*
X132842000Y-96520000D01*
X132842000Y-96520000D02*
X133858000Y-97536000D01*
X129267000Y-65297000D02*
X129267000Y-94977000D01*
X129267000Y-94977000D02*
X130810000Y-96520000D01*
X133858000Y-97536000D02*
X133858000Y-99060000D01*
%TO.N,STEP_1*%
X162555000Y-103246000D02*
X167712728Y-103246000D01*
X166700000Y-83137456D02*
X161925000Y-87912456D01*
X163739364Y-66101000D02*
X166700000Y-69061636D01*
X172720000Y-105410000D02*
X174244000Y-106934000D01*
X163576000Y-66040000D02*
X163637000Y-66101000D01*
X166700000Y-69061636D02*
X166700000Y-83137456D01*
X148844000Y-66040000D02*
X163576000Y-66040000D01*
X174290000Y-107300000D02*
X174290000Y-107234000D01*
X161925000Y-102616000D02*
X162555000Y-103246000D01*
X169876728Y-105410000D02*
X172720000Y-105410000D01*
X167712728Y-103246000D02*
X169876728Y-105410000D01*
X163637000Y-66101000D02*
X163739364Y-66101000D01*
X148336000Y-65532000D02*
X148844000Y-66040000D01*
X161925000Y-87912456D02*
X161925000Y-102616000D01*
X148336000Y-64008000D02*
X148336000Y-65532000D01*
%TO.N,LED_G*%
X138176000Y-75438000D02*
X138176000Y-79248000D01*
X135636000Y-72898000D02*
X138176000Y-75438000D01*
%TO.N,UART_RX*%
X168148000Y-105664000D02*
X167386000Y-104902000D01*
X179370000Y-107300000D02*
X178069000Y-108601000D01*
X160472000Y-104140000D02*
X160472000Y-87382728D01*
X181910000Y-107300000D02*
X179370000Y-107300000D01*
X159766000Y-104902000D02*
X159004000Y-104902000D01*
X178069000Y-108601000D02*
X169561000Y-108601000D01*
X138176000Y-66040000D02*
X138176000Y-64008000D01*
X167386000Y-104902000D02*
X161234000Y-104902000D01*
X142179000Y-67503000D02*
X141732000Y-67056000D01*
X163060092Y-67503000D02*
X142179000Y-67503000D01*
X158369000Y-105537000D02*
X158369000Y-106933000D01*
X141732000Y-67056000D02*
X139192000Y-67056000D01*
X160472000Y-104196000D02*
X159766000Y-104902000D01*
X168148000Y-107188000D02*
X168148000Y-105664000D01*
X169561000Y-108601000D02*
X168148000Y-107188000D01*
X160472000Y-104140000D02*
X160472000Y-104196000D01*
X160472000Y-87382728D02*
X165298000Y-82556728D01*
X139192000Y-67056000D02*
X138176000Y-66040000D01*
X155830000Y-107000000D02*
X158430000Y-107000000D01*
X165298000Y-82556728D02*
X165298000Y-69740908D01*
X161234000Y-104902000D02*
X160472000Y-104140000D01*
X159004000Y-104902000D02*
X158369000Y-105537000D01*
X165298000Y-69740908D02*
X163060092Y-67503000D01*
X158369000Y-106933000D02*
X158370000Y-106934000D01*
%TO.N,LED_B*%
X135636000Y-69850000D02*
X140716000Y-74930000D01*
X140716000Y-74930000D02*
X140716000Y-79248000D01*
%TO.N,VM*%
X131064000Y-124206000D02*
X131064000Y-127508000D01*
D26*
X137922000Y-127508000D02*
X143256000Y-122174000D01*
X141986000Y-112522000D02*
X136954000Y-112522000D01*
X145034000Y-122174000D02*
X164846000Y-122174000D01*
X127000000Y-124460000D02*
X130048000Y-127508000D01*
X130048000Y-127508000D02*
X131064000Y-127508000D01*
X142000000Y-112460000D02*
X144972000Y-112460000D01*
X167132000Y-122174000D02*
X188722000Y-122174000D01*
X165990000Y-121032000D02*
X167132000Y-122174000D01*
X145288000Y-121920000D02*
X145034000Y-122174000D01*
X145288000Y-112776000D02*
X145288000Y-121920000D01*
X188722000Y-122174000D02*
X189530000Y-121366000D01*
X165990000Y-119700000D02*
X165990000Y-121032000D01*
X164846000Y-122174000D02*
X165990000Y-121030000D01*
X143256000Y-122174000D02*
X145034000Y-122174000D01*
X136954000Y-112522000D02*
X136892000Y-112584000D01*
X189530000Y-121366000D02*
X189530000Y-120000000D01*
X165990000Y-121030000D02*
X165990000Y-119700000D01*
X131064000Y-127508000D02*
X137922000Y-127508000D01*
X144972000Y-112460000D02*
X145288000Y-112776000D01*
%TO.N,GND*%
X169606000Y-117856000D02*
X171710500Y-119960500D01*
D25*
X162560000Y-109474000D02*
X160910000Y-107824000D01*
X128400000Y-110744000D02*
X127000000Y-110744000D01*
D26*
X163450000Y-119700000D02*
X165294000Y-117856000D01*
X161606000Y-117856000D02*
X163450000Y-119700000D01*
D25*
X184450000Y-107300000D02*
X182276000Y-109474000D01*
X182276000Y-109474000D02*
X162560000Y-109474000D01*
X131318000Y-86360000D02*
X131318000Y-92738000D01*
D26*
X184846000Y-117856000D02*
X186990000Y-120000000D01*
D25*
X136892000Y-115124000D02*
X136700000Y-115316000D01*
X136892000Y-115124000D02*
X141924000Y-115124000D01*
D26*
X165294000Y-117856000D02*
X169606000Y-117856000D01*
D25*
X132780000Y-115124000D02*
X128400000Y-110744000D01*
D26*
X173815000Y-117856000D02*
X184846000Y-117856000D01*
X171710500Y-119960500D02*
X173815000Y-117856000D01*
D25*
X141924000Y-115124000D02*
X141986000Y-115062000D01*
X136892000Y-115124000D02*
X132780000Y-115124000D01*
D26*
X148210000Y-119700000D02*
X150054000Y-117856000D01*
D25*
X160910000Y-107824000D02*
X160910000Y-107000000D01*
D26*
X150054000Y-117856000D02*
X161606000Y-117856000D01*
D27*
X194400000Y-63900000D02*
X177400000Y-63900000D01*
X177400000Y-63900000D02*
X175000000Y-66300000D01*
D25*
X186990000Y-107300000D02*
X186990000Y-120000000D01*
D27*
X175000000Y-66300000D02*
X175000000Y-72000000D01*
D25*
%TO.N,LED_R*%
X135636000Y-76200000D02*
X135636000Y-79248000D01*
%TO.N,DIR_1*%
X161173000Y-87673092D02*
X165588364Y-83257728D01*
X161173000Y-103388000D02*
X161173000Y-87673092D01*
X165989000Y-69440544D02*
X165989000Y-69342000D01*
X165999000Y-82266364D02*
X165999000Y-70031272D01*
X163350456Y-66802000D02*
X162769728Y-66802000D01*
X147828000Y-62230000D02*
X149098000Y-62230000D01*
X167676364Y-104201000D02*
X167422364Y-103947000D01*
X162769728Y-66802000D02*
X148614636Y-66802000D01*
X147085000Y-62973000D02*
X147828000Y-62230000D01*
X165989000Y-69342000D02*
X163449000Y-66802000D01*
X149098000Y-62230000D02*
X150876000Y-64008000D01*
X148614636Y-66802000D02*
X147085000Y-65272364D01*
X163449000Y-66802000D02*
X163350456Y-66802000D01*
X165999000Y-82847092D02*
X165999000Y-82266364D01*
X168087000Y-104611636D02*
X167676364Y-104201000D01*
X165999000Y-70031272D02*
X165999000Y-69450544D01*
X147085000Y-65272364D02*
X147085000Y-62973000D01*
X170409364Y-106934000D02*
X168849000Y-105373636D01*
X165989000Y-82857092D02*
X165999000Y-82847092D01*
X165999000Y-69450544D02*
X165989000Y-69440544D01*
X171704000Y-106934000D02*
X170409364Y-106934000D01*
X167422364Y-103947000D02*
X161732000Y-103947000D01*
X168438364Y-104963000D02*
X168087000Y-104611636D01*
X165588364Y-83257728D02*
X165989000Y-82857092D01*
X168849000Y-105373636D02*
X168438364Y-104963000D01*
X161732000Y-103947000D02*
X161173000Y-103388000D01*
%TO.N,EN_STP_1*%
X167422364Y-102545000D02*
X162997000Y-102545000D01*
X167401000Y-82847092D02*
X167401000Y-69352000D01*
X168413728Y-102955636D02*
X168003092Y-102545000D01*
X162626000Y-102174000D02*
X162626000Y-88202820D01*
X167401000Y-83427820D02*
X167401000Y-82847092D01*
X173711364Y-105410000D02*
X173421000Y-105119636D01*
X163866364Y-65339000D02*
X163285636Y-65339000D01*
X166990364Y-68360636D02*
X164440364Y-65810636D01*
X173421000Y-105119636D02*
X173010364Y-104709000D01*
X163968728Y-65339000D02*
X163866364Y-65339000D01*
X163285636Y-65339000D02*
X159827000Y-65339000D01*
X159827000Y-65339000D02*
X158496000Y-64008000D01*
X162997000Y-102545000D02*
X162626000Y-102174000D01*
X172429636Y-104709000D02*
X170167092Y-104709000D01*
X170167092Y-104709000D02*
X168413728Y-102955636D01*
X167386000Y-68756272D02*
X166990364Y-68360636D01*
X164029728Y-65400000D02*
X163968728Y-65339000D01*
X168003092Y-102545000D02*
X167422364Y-102545000D01*
X189484000Y-106934000D02*
X189484000Y-106680000D01*
X189484000Y-106680000D02*
X188214000Y-105410000D01*
X164440364Y-65810636D02*
X164029728Y-65400000D01*
X173010364Y-104709000D02*
X172429636Y-104709000D01*
X166990364Y-83838456D02*
X167386000Y-83442820D01*
X162626000Y-88202820D02*
X166990364Y-83838456D01*
X188214000Y-105410000D02*
X173711364Y-105410000D01*
X167401000Y-69352000D02*
X167401000Y-68771272D01*
X167386000Y-83442820D02*
X167401000Y-83427820D01*
X167401000Y-68771272D02*
X167386000Y-68756272D01*
%TO.N,XSHUT_1*%
X127762000Y-60452000D02*
X125476000Y-62738000D01*
X185000000Y-62000000D02*
X185000000Y-59651000D01*
X170130728Y-57912000D02*
X169490728Y-57272000D01*
X131621272Y-60452000D02*
X127762000Y-60452000D01*
X125476000Y-62738000D02*
X125476000Y-64008000D01*
X169490728Y-57272000D02*
X134801272Y-57272000D01*
X183261000Y-57912000D02*
X170130728Y-57912000D01*
X185000000Y-59651000D02*
X183261000Y-57912000D01*
X134801272Y-57272000D02*
X131621272Y-60452000D01*
%TO.N,XSHUT_2*%
X170942000Y-59702318D02*
X170942000Y-73406000D01*
X169840364Y-58613000D02*
X169852682Y-58613000D01*
X185000000Y-73318000D02*
X185000000Y-72000000D01*
X169852682Y-58613000D02*
X170942000Y-59702318D01*
X126746000Y-62484000D02*
X128016000Y-61214000D01*
X183642000Y-74676000D02*
X185000000Y-73318000D01*
X125476000Y-65786000D02*
X126746000Y-64516000D01*
X172212000Y-74676000D02*
X183642000Y-74676000D01*
X135091636Y-57973000D02*
X169200364Y-57973000D01*
X170942000Y-73406000D02*
X172212000Y-74676000D01*
X126746000Y-64516000D02*
X126746000Y-62484000D01*
X128016000Y-61214000D02*
X131850636Y-61214000D01*
X169200364Y-57973000D02*
X169840364Y-58613000D01*
X125476000Y-79248000D02*
X125476000Y-65786000D01*
X131850636Y-61214000D02*
X135091636Y-57973000D01*
%TO.N,SCL*%
X187391000Y-70648364D02*
X187391000Y-70067636D01*
X136906000Y-60198000D02*
X137668000Y-59436000D01*
X137668000Y-59436000D02*
X168656000Y-59436000D01*
X187391000Y-73467000D02*
X187391000Y-73442364D01*
X169545000Y-74016364D02*
X169606000Y-74077364D01*
X185649364Y-68326000D02*
X178054000Y-68326000D01*
X136906000Y-67818000D02*
X136906000Y-60198000D01*
X143957000Y-75474364D02*
X143957000Y-74893636D01*
X171728636Y-76200000D02*
X184658000Y-76200000D01*
X186121000Y-68797636D02*
X185710364Y-68387000D01*
X187391000Y-72861636D02*
X187391000Y-70648364D01*
X177500000Y-68880000D02*
X177500000Y-72000000D01*
X184658000Y-76200000D02*
X187391000Y-73467000D01*
X145796000Y-79248000D02*
X143957000Y-77409000D01*
X185710364Y-68387000D02*
X185649364Y-68326000D01*
X171257000Y-75728364D02*
X171667636Y-76139000D01*
X169545000Y-73991728D02*
X169545000Y-74016364D01*
X168656000Y-59436000D02*
X169540000Y-60320000D01*
X169540000Y-72825272D02*
X169540000Y-73406000D01*
X143957000Y-74893636D02*
X143957000Y-74869000D01*
X170016636Y-74488000D02*
X171257000Y-75728364D01*
X171667636Y-76139000D02*
X171728636Y-76200000D01*
X169606000Y-74077364D02*
X170016636Y-74488000D01*
X186980364Y-69657000D02*
X186121000Y-68797636D01*
X143957000Y-74869000D02*
X136906000Y-67818000D01*
X178054000Y-68326000D02*
X177500000Y-68880000D01*
X143957000Y-77409000D02*
X143957000Y-75474364D01*
X169540000Y-73986728D02*
X169545000Y-73991728D01*
X169540000Y-60320000D02*
X169540000Y-72825272D01*
X187391000Y-73442364D02*
X187391000Y-72861636D01*
X187391000Y-70067636D02*
X186980364Y-69657000D01*
X169540000Y-73406000D02*
X169540000Y-73986728D01*
%TO.N,SW_TM*%
X133858000Y-80010000D02*
X133096000Y-79248000D01*
X133858000Y-86360000D02*
X133858000Y-80010000D01*
%TO.N,Net-(D1-BA)*%
X164597000Y-70031272D02*
X162769728Y-68204000D01*
X159766000Y-100026728D02*
X159771000Y-100021728D01*
X155438000Y-104648000D02*
X159766000Y-100320000D01*
X162769728Y-68204000D02*
X147442000Y-68204000D01*
X159766000Y-100320000D02*
X159766000Y-100026728D01*
X147442000Y-68204000D02*
X145796000Y-69850000D01*
X129032000Y-104648000D02*
X155438000Y-104648000D01*
X164597000Y-82266364D02*
X164597000Y-70031272D01*
X159771000Y-100021728D02*
X159771000Y-87092364D01*
X159771000Y-87092364D02*
X164597000Y-82266364D01*
%TO.N,Net-(D1-GA)*%
X159070000Y-99150636D02*
X159070000Y-86802000D01*
X130556000Y-103886000D02*
X154940000Y-103886000D01*
X163830000Y-70255636D02*
X163485364Y-69911000D01*
X163896000Y-81370636D02*
X163896000Y-71888364D01*
X127762000Y-104158585D02*
X128623585Y-103297000D01*
X163896000Y-70902364D02*
X163896000Y-70321636D01*
X159004000Y-99822000D02*
X159004000Y-99797364D01*
X162479364Y-68905000D02*
X161898636Y-68905000D01*
X159004000Y-99797364D02*
X159070000Y-99731364D01*
X152680364Y-68905000D02*
X152099636Y-68905000D01*
X129967000Y-103297000D02*
X130556000Y-103886000D01*
X128623585Y-103297000D02*
X129967000Y-103297000D01*
X127762000Y-104648000D02*
X127762000Y-104158585D01*
X163896000Y-81951364D02*
X163896000Y-81370636D01*
X159070000Y-86802000D02*
X163896000Y-81976000D01*
X159070000Y-99731364D02*
X159070000Y-99150636D01*
X163896000Y-71888364D02*
X163896000Y-70902364D01*
X163485364Y-69911000D02*
X162890000Y-69315636D01*
X163896000Y-81976000D02*
X163896000Y-81951364D01*
X152099636Y-68905000D02*
X149789000Y-68905000D01*
X162890000Y-69315636D02*
X162479364Y-68905000D01*
X149789000Y-68905000D02*
X145796000Y-72898000D01*
X163896000Y-70321636D02*
X163830000Y-70255636D01*
X161898636Y-68905000D02*
X152680364Y-68905000D01*
X154940000Y-103886000D02*
X159004000Y-99822000D01*
%TO.N,Net-(D1-RA)*%
X163195000Y-70612000D02*
X163195000Y-81661000D01*
X125222000Y-103378000D02*
X125222000Y-104648000D01*
X130302000Y-102362000D02*
X126238000Y-102362000D01*
X154686000Y-103124000D02*
X131064000Y-103124000D01*
X163195000Y-81661000D02*
X158369000Y-86487000D01*
X152390000Y-69606000D02*
X162189000Y-69606000D01*
X158369000Y-99441000D02*
X154686000Y-103124000D01*
X126238000Y-102362000D02*
X125222000Y-103378000D01*
X131064000Y-103124000D02*
X130302000Y-102362000D01*
X158369000Y-86487000D02*
X158369000Y-99441000D01*
X162189000Y-69606000D02*
X163195000Y-70612000D01*
X145796000Y-76200000D02*
X152390000Y-69606000D01*
%TO.N,Net-(D2-K)*%
X133604000Y-124206000D02*
X136144000Y-124206000D01*
D26*
%TO.N,/6V*%
X127000000Y-115824000D02*
X127000000Y-121920000D01*
%TD*%
%TA.AperFunction,Conductor*%
%TO.N,GND*%
G36*
X186478075Y-106741007D02*
G01*
X186444000Y-106868174D01*
X186444000Y-106999826D01*
X186478075Y-107126993D01*
X186510988Y-107184000D01*
X184837012Y-107184000D01*
X184869925Y-107126993D01*
X184904000Y-106999826D01*
X184904000Y-106868174D01*
X184869925Y-106741007D01*
X184837012Y-106684000D01*
X186510988Y-106684000D01*
X186478075Y-106741007D01*
G37*
%TD.AperFunction*%
%TA.AperFunction,Conductor*%
G36*
X131897445Y-79791865D02*
G01*
X131936485Y-79836919D01*
X131983715Y-79929614D01*
X132104028Y-80095213D01*
X132248786Y-80239971D01*
X132403463Y-80352348D01*
X132414390Y-80360287D01*
X132530607Y-80419503D01*
X132596776Y-80453218D01*
X132596778Y-80453218D01*
X132596781Y-80453220D01*
X132701137Y-80487127D01*
X132791465Y-80516477D01*
X132895012Y-80532877D01*
X132993648Y-80548500D01*
X132993649Y-80548500D01*
X132998460Y-80549262D01*
X132998280Y-80550394D01*
X133058511Y-80573345D01*
X133099986Y-80629574D01*
X133107500Y-80672084D01*
X133107500Y-85172779D01*
X133087815Y-85239818D01*
X133056385Y-85273097D01*
X132978211Y-85329893D01*
X132864285Y-85443819D01*
X132802962Y-85477303D01*
X132733270Y-85472319D01*
X132677337Y-85430447D01*
X132660422Y-85399470D01*
X132611354Y-85267913D01*
X132611350Y-85267906D01*
X132525190Y-85152812D01*
X132525187Y-85152809D01*
X132410093Y-85066649D01*
X132410086Y-85066645D01*
X132275379Y-85016403D01*
X132275372Y-85016401D01*
X132215844Y-85010000D01*
X131568000Y-85010000D01*
X131568000Y-85926988D01*
X131510993Y-85894075D01*
X131383826Y-85860000D01*
X131252174Y-85860000D01*
X131125007Y-85894075D01*
X131068000Y-85926988D01*
X131068000Y-85010000D01*
X130420155Y-85010000D01*
X130360627Y-85016401D01*
X130360620Y-85016403D01*
X130225913Y-85066645D01*
X130225906Y-85066649D01*
X130215811Y-85074207D01*
X130150347Y-85098625D01*
X130082074Y-85083774D01*
X130032668Y-85034369D01*
X130017500Y-84974941D01*
X130017500Y-80611128D01*
X130037185Y-80544089D01*
X130089989Y-80498334D01*
X130159147Y-80488390D01*
X130179813Y-80493195D01*
X130211675Y-80503548D01*
X130251465Y-80516477D01*
X130352557Y-80532488D01*
X130453648Y-80548500D01*
X130453649Y-80548500D01*
X130658351Y-80548500D01*
X130658352Y-80548500D01*
X130860534Y-80516477D01*
X131055219Y-80453220D01*
X131237610Y-80360287D01*
X131340809Y-80285309D01*
X131403213Y-80239971D01*
X131403215Y-80239968D01*
X131403219Y-80239966D01*
X131547966Y-80095219D01*
X131547968Y-80095215D01*
X131547971Y-80095213D01*
X131668284Y-79929614D01*
X131668286Y-79929611D01*
X131668287Y-79929610D01*
X131715516Y-79836917D01*
X131763489Y-79786123D01*
X131831310Y-79769328D01*
X131897445Y-79791865D01*
G37*
%TD.AperFunction*%
%TA.AperFunction,Conductor*%
G36*
X161893809Y-70376185D02*
G01*
X161914451Y-70392819D01*
X162408181Y-70886549D01*
X162441666Y-70947872D01*
X162444500Y-70974230D01*
X162444500Y-78631242D01*
X162424815Y-78698281D01*
X162372011Y-78744036D01*
X162302853Y-78753980D01*
X162239297Y-78724955D01*
X162210015Y-78687537D01*
X162181331Y-78631242D01*
X162148287Y-78566390D01*
X162135025Y-78548136D01*
X162027971Y-78400786D01*
X161883213Y-78256028D01*
X161717613Y-78135715D01*
X161717612Y-78135714D01*
X161717610Y-78135713D01*
X161629709Y-78090925D01*
X161535223Y-78042781D01*
X161340534Y-77979522D01*
X161165995Y-77951878D01*
X161138352Y-77947500D01*
X160933648Y-77947500D01*
X160909329Y-77951351D01*
X160731465Y-77979522D01*
X160536776Y-78042781D01*
X160354386Y-78135715D01*
X160188786Y-78256028D01*
X160044028Y-78400786D01*
X159923713Y-78566388D01*
X159876203Y-78659630D01*
X159828228Y-78710426D01*
X159760407Y-78727220D01*
X159694272Y-78704682D01*
X159655234Y-78659628D01*
X159607861Y-78566652D01*
X159487582Y-78401105D01*
X159487582Y-78401104D01*
X159342895Y-78256417D01*
X159177349Y-78136140D01*
X158995029Y-78043244D01*
X158800413Y-77980009D01*
X158746000Y-77971390D01*
X158746000Y-78814988D01*
X158688993Y-78782075D01*
X158561826Y-78748000D01*
X158430174Y-78748000D01*
X158303007Y-78782075D01*
X158246000Y-78814988D01*
X158246000Y-77971390D01*
X158191586Y-77980009D01*
X157996970Y-78043244D01*
X157814650Y-78136140D01*
X157649105Y-78256417D01*
X157649104Y-78256417D01*
X157504417Y-78401104D01*
X157504417Y-78401105D01*
X157384140Y-78566650D01*
X157336765Y-78659629D01*
X157288790Y-78710425D01*
X157220969Y-78727220D01*
X157154834Y-78704682D01*
X157115795Y-78659629D01*
X157101331Y-78631242D01*
X157068287Y-78566390D01*
X157055025Y-78548136D01*
X156947971Y-78400786D01*
X156803213Y-78256028D01*
X156637613Y-78135715D01*
X156637612Y-78135714D01*
X156637610Y-78135713D01*
X156549709Y-78090925D01*
X156455223Y-78042781D01*
X156260534Y-77979522D01*
X156085995Y-77951878D01*
X156058352Y-77947500D01*
X155853648Y-77947500D01*
X155829329Y-77951351D01*
X155651465Y-77979522D01*
X155456776Y-78042781D01*
X155274386Y-78135715D01*
X155108786Y-78256028D01*
X154964028Y-78400786D01*
X154843715Y-78566386D01*
X154796485Y-78659080D01*
X154748510Y-78709876D01*
X154680689Y-78726671D01*
X154614554Y-78704134D01*
X154575515Y-78659080D01*
X154561331Y-78631242D01*
X154528287Y-78566390D01*
X154515025Y-78548136D01*
X154407971Y-78400786D01*
X154263213Y-78256028D01*
X154097613Y-78135715D01*
X154097612Y-78135714D01*
X154097610Y-78135713D01*
X154009709Y-78090925D01*
X153915223Y-78042781D01*
X153720534Y-77979522D01*
X153545995Y-77951878D01*
X153518352Y-77947500D01*
X153313648Y-77947500D01*
X153289329Y-77951351D01*
X153111465Y-77979522D01*
X152916776Y-78042781D01*
X152734386Y-78135715D01*
X152568786Y-78256028D01*
X152424028Y-78400786D01*
X152303715Y-78566386D01*
X152256485Y-78659080D01*
X152208510Y-78709876D01*
X152140689Y-78726671D01*
X152074554Y-78704134D01*
X152035515Y-78659080D01*
X152021331Y-78631242D01*
X151988287Y-78566390D01*
X151975025Y-78548136D01*
X151867971Y-78400786D01*
X151723213Y-78256028D01*
X151557613Y-78135715D01*
X151557612Y-78135714D01*
X151557610Y-78135713D01*
X151469709Y-78090925D01*
X151375223Y-78042781D01*
X151180534Y-77979522D01*
X151005995Y-77951878D01*
X150978352Y-77947500D01*
X150773648Y-77947500D01*
X150749329Y-77951351D01*
X150571465Y-77979522D01*
X150376776Y-78042781D01*
X150194386Y-78135715D01*
X150028786Y-78256028D01*
X149884028Y-78400786D01*
X149763715Y-78566386D01*
X149716485Y-78659080D01*
X149668510Y-78709876D01*
X149600689Y-78726671D01*
X149534554Y-78704134D01*
X149495515Y-78659080D01*
X149481331Y-78631242D01*
X149448287Y-78566390D01*
X149435025Y-78548136D01*
X149327971Y-78400786D01*
X149183213Y-78256028D01*
X149017613Y-78135715D01*
X149017612Y-78135714D01*
X149017610Y-78135713D01*
X148929709Y-78090925D01*
X148835223Y-78042781D01*
X148640534Y-77979522D01*
X148465995Y-77951878D01*
X148438352Y-77947500D01*
X148233648Y-77947500D01*
X148209329Y-77951351D01*
X148031465Y-77979522D01*
X147836776Y-78042781D01*
X147654386Y-78135715D01*
X147488786Y-78256028D01*
X147344028Y-78400786D01*
X147223715Y-78566386D01*
X147176485Y-78659080D01*
X147128510Y-78709876D01*
X147060689Y-78726671D01*
X146994554Y-78704134D01*
X146955515Y-78659080D01*
X146941331Y-78631242D01*
X146908287Y-78566390D01*
X146895025Y-78548136D01*
X146787971Y-78400786D01*
X146643213Y-78256028D01*
X146477613Y-78135715D01*
X146477612Y-78135714D01*
X146477610Y-78135713D01*
X146389709Y-78090925D01*
X146295223Y-78042781D01*
X146100534Y-77979522D01*
X145925995Y-77951878D01*
X145898352Y-77947500D01*
X145693648Y-77947500D01*
X145637972Y-77956318D01*
X145568679Y-77947363D01*
X145530894Y-77921526D01*
X145243985Y-77634617D01*
X145210500Y-77573294D01*
X145215484Y-77503602D01*
X145257356Y-77447669D01*
X145322820Y-77423252D01*
X145369982Y-77429004D01*
X145427426Y-77447669D01*
X145491465Y-77468477D01*
X145525995Y-77473946D01*
X145693648Y-77500500D01*
X145693649Y-77500500D01*
X145898351Y-77500500D01*
X145898352Y-77500500D01*
X146100534Y-77468477D01*
X146295219Y-77405220D01*
X146477610Y-77312287D01*
X146603516Y-77220812D01*
X146643213Y-77191971D01*
X146643215Y-77191968D01*
X146643219Y-77191966D01*
X146787966Y-77047219D01*
X146787968Y-77047215D01*
X146787971Y-77047213D01*
X146858236Y-76950500D01*
X146908287Y-76881610D01*
X147001220Y-76699219D01*
X147064477Y-76504534D01*
X147096500Y-76302352D01*
X147096500Y-76097648D01*
X147087681Y-76041971D01*
X147096635Y-75972679D01*
X147122470Y-75934895D01*
X152664548Y-70392819D01*
X152725871Y-70359334D01*
X152752229Y-70356500D01*
X161826770Y-70356500D01*
X161893809Y-70376185D01*
G37*
%TD.AperFunction*%
%TA.AperFunction,Conductor*%
G36*
X175250000Y-73452230D02*
G01*
X175316126Y-73441757D01*
X175316129Y-73441757D01*
X175518217Y-73376095D01*
X175707557Y-73279620D01*
X175879459Y-73154727D01*
X175879464Y-73154723D01*
X176029721Y-73004466D01*
X176149371Y-72839781D01*
X176204701Y-72797115D01*
X176274314Y-72791136D01*
X176336110Y-72823741D01*
X176350008Y-72839781D01*
X176469890Y-73004785D01*
X176469894Y-73004790D01*
X176620213Y-73155109D01*
X176792179Y-73280048D01*
X176792181Y-73280049D01*
X176792184Y-73280051D01*
X176981588Y-73376557D01*
X177183757Y-73442246D01*
X177393713Y-73475500D01*
X177393714Y-73475500D01*
X177606286Y-73475500D01*
X177606287Y-73475500D01*
X177816243Y-73442246D01*
X178018412Y-73376557D01*
X178207816Y-73280051D01*
X178314510Y-73202534D01*
X178379786Y-73155109D01*
X178379788Y-73155106D01*
X178379792Y-73155104D01*
X178530104Y-73004792D01*
X178649683Y-72840204D01*
X178705011Y-72797540D01*
X178774624Y-72791561D01*
X178836420Y-72824166D01*
X178850313Y-72840199D01*
X178952242Y-72980493D01*
X178969896Y-73004792D01*
X179120213Y-73155109D01*
X179292179Y-73280048D01*
X179292181Y-73280049D01*
X179292184Y-73280051D01*
X179481588Y-73376557D01*
X179683757Y-73442246D01*
X179893713Y-73475500D01*
X179893714Y-73475500D01*
X180106286Y-73475500D01*
X180106287Y-73475500D01*
X180316243Y-73442246D01*
X180518412Y-73376557D01*
X180707816Y-73280051D01*
X180814510Y-73202534D01*
X180879786Y-73155109D01*
X180879788Y-73155106D01*
X180879792Y-73155104D01*
X181030104Y-73004792D01*
X181149683Y-72840204D01*
X181205011Y-72797540D01*
X181274624Y-72791561D01*
X181336420Y-72824166D01*
X181350313Y-72840199D01*
X181452242Y-72980493D01*
X181469896Y-73004792D01*
X181620213Y-73155109D01*
X181792179Y-73280048D01*
X181792181Y-73280049D01*
X181792184Y-73280051D01*
X181981588Y-73376557D01*
X182183757Y-73442246D01*
X182393713Y-73475500D01*
X182393714Y-73475500D01*
X182606286Y-73475500D01*
X182606287Y-73475500D01*
X182816243Y-73442246D01*
X183018412Y-73376557D01*
X183207816Y-73280051D01*
X183314510Y-73202534D01*
X183379786Y-73155109D01*
X183379788Y-73155106D01*
X183379792Y-73155104D01*
X183530104Y-73004792D01*
X183649683Y-72840204D01*
X183705011Y-72797540D01*
X183774624Y-72791561D01*
X183836420Y-72824166D01*
X183850313Y-72840199D01*
X183952242Y-72980493D01*
X183969896Y-73004792D01*
X184023187Y-73058083D01*
X184056672Y-73119406D01*
X184051688Y-73189098D01*
X184023187Y-73233445D01*
X183367451Y-73889181D01*
X183306128Y-73922666D01*
X183279770Y-73925500D01*
X172574229Y-73925500D01*
X172507190Y-73905815D01*
X172486548Y-73889181D01*
X172284548Y-73687180D01*
X172251063Y-73625857D01*
X172256047Y-73556165D01*
X172297919Y-73500232D01*
X172363383Y-73475815D01*
X172372229Y-73475499D01*
X173150002Y-73475499D01*
X173150008Y-73475499D01*
X173252797Y-73464999D01*
X173419334Y-73409814D01*
X173568656Y-73317712D01*
X173692712Y-73193656D01*
X173784814Y-73044334D01*
X173784814Y-73044331D01*
X173788448Y-73038441D01*
X173840395Y-72991716D01*
X173909358Y-72980493D01*
X173973440Y-73008336D01*
X173981668Y-73015856D01*
X174120535Y-73154723D01*
X174120540Y-73154727D01*
X174292442Y-73279620D01*
X174481782Y-73376095D01*
X174683871Y-73441757D01*
X174750000Y-73452231D01*
X174750000Y-72404145D01*
X174816657Y-72442630D01*
X174937465Y-72475000D01*
X175062535Y-72475000D01*
X175183343Y-72442630D01*
X175250000Y-72404145D01*
X175250000Y-73452230D01*
G37*
%TD.AperFunction*%
%TA.AperFunction,Conductor*%
G36*
X182965809Y-58682185D02*
G01*
X182986451Y-58698819D01*
X184213181Y-59925548D01*
X184246666Y-59986871D01*
X184249500Y-60013229D01*
X184249500Y-60687779D01*
X184229815Y-60754818D01*
X184198385Y-60788097D01*
X184120211Y-60844893D01*
X184120205Y-60844898D01*
X183969894Y-60995209D01*
X183969890Y-60995214D01*
X183850318Y-61159793D01*
X183794989Y-61202459D01*
X183725375Y-61208438D01*
X183663580Y-61175833D01*
X183649682Y-61159793D01*
X183530109Y-60995214D01*
X183530105Y-60995209D01*
X183379786Y-60844890D01*
X183207820Y-60719951D01*
X183018414Y-60623444D01*
X183018413Y-60623443D01*
X183018412Y-60623443D01*
X182816243Y-60557754D01*
X182816241Y-60557753D01*
X182816240Y-60557753D01*
X182619760Y-60526634D01*
X182606287Y-60524500D01*
X182393713Y-60524500D01*
X182380240Y-60526634D01*
X182183760Y-60557753D01*
X181981585Y-60623444D01*
X181792179Y-60719951D01*
X181620213Y-60844890D01*
X181469894Y-60995209D01*
X181469890Y-60995214D01*
X181350318Y-61159793D01*
X181294989Y-61202459D01*
X181225375Y-61208438D01*
X181163580Y-61175833D01*
X181149682Y-61159793D01*
X181030109Y-60995214D01*
X181030105Y-60995209D01*
X180879786Y-60844890D01*
X180707820Y-60719951D01*
X180518414Y-60623444D01*
X180518413Y-60623443D01*
X180518412Y-60623443D01*
X180316243Y-60557754D01*
X180316241Y-60557753D01*
X180316240Y-60557753D01*
X180119760Y-60526634D01*
X180106287Y-60524500D01*
X179893713Y-60524500D01*
X179880240Y-60526634D01*
X179683760Y-60557753D01*
X179481585Y-60623444D01*
X179292179Y-60719951D01*
X179120213Y-60844890D01*
X178969894Y-60995209D01*
X178969890Y-60995214D01*
X178850318Y-61159793D01*
X178794989Y-61202459D01*
X178725375Y-61208438D01*
X178663580Y-61175833D01*
X178649682Y-61159793D01*
X178530109Y-60995214D01*
X178530105Y-60995209D01*
X178379786Y-60844890D01*
X178207820Y-60719951D01*
X178018414Y-60623444D01*
X178018413Y-60623443D01*
X178018412Y-60623443D01*
X177816243Y-60557754D01*
X177816241Y-60557753D01*
X177816240Y-60557753D01*
X177619760Y-60526634D01*
X177606287Y-60524500D01*
X177393713Y-60524500D01*
X177380240Y-60526634D01*
X177183760Y-60557753D01*
X176981585Y-60623444D01*
X176792179Y-60719951D01*
X176620213Y-60844890D01*
X176469894Y-60995209D01*
X176469890Y-60995214D01*
X176350008Y-61160218D01*
X176294678Y-61202884D01*
X176225065Y-61208863D01*
X176163270Y-61176257D01*
X176149372Y-61160218D01*
X176029727Y-60995540D01*
X176029723Y-60995535D01*
X175879464Y-60845276D01*
X175879459Y-60845272D01*
X175707557Y-60720379D01*
X175518215Y-60623903D01*
X175316124Y-60558241D01*
X175250000Y-60547768D01*
X175250000Y-61595854D01*
X175183343Y-61557370D01*
X175062535Y-61525000D01*
X174937465Y-61525000D01*
X174816657Y-61557370D01*
X174750000Y-61595854D01*
X174750000Y-60547768D01*
X174749999Y-60547768D01*
X174683875Y-60558241D01*
X174481784Y-60623903D01*
X174292442Y-60720379D01*
X174120541Y-60845271D01*
X173981668Y-60984144D01*
X173920345Y-61017628D01*
X173850653Y-61012644D01*
X173794720Y-60970772D01*
X173788448Y-60961558D01*
X173692712Y-60806344D01*
X173568657Y-60682289D01*
X173568656Y-60682288D01*
X173419334Y-60590186D01*
X173252797Y-60535001D01*
X173252795Y-60535000D01*
X173150010Y-60524500D01*
X171849998Y-60524500D01*
X171849970Y-60524502D01*
X171829097Y-60526634D01*
X171760405Y-60513862D01*
X171709522Y-60465980D01*
X171692500Y-60403276D01*
X171692500Y-59628397D01*
X171663659Y-59483410D01*
X171663658Y-59483409D01*
X171663658Y-59483405D01*
X171642404Y-59432092D01*
X171607087Y-59346829D01*
X171607080Y-59346816D01*
X171524952Y-59223903D01*
X171473633Y-59172584D01*
X171420416Y-59119367D01*
X171175230Y-58874181D01*
X171141745Y-58812858D01*
X171146729Y-58743166D01*
X171188601Y-58687233D01*
X171254065Y-58662816D01*
X171262911Y-58662500D01*
X182898770Y-58662500D01*
X182965809Y-58682185D01*
G37*
%TD.AperFunction*%
%TA.AperFunction,Conductor*%
G36*
X189102981Y-55814803D02*
G01*
X189123623Y-55831437D01*
X194330764Y-61038578D01*
X194364249Y-61099901D01*
X194359265Y-61169593D01*
X194317393Y-61225526D01*
X194254562Y-61248960D01*
X194254636Y-61249610D01*
X194252036Y-61249902D01*
X194251929Y-61249943D01*
X194251357Y-61249979D01*
X193955423Y-61283322D01*
X193955405Y-61283325D01*
X193665230Y-61349555D01*
X193665218Y-61349559D01*
X193384297Y-61447858D01*
X193384283Y-61447864D01*
X193116127Y-61577001D01*
X192864106Y-61735357D01*
X192711003Y-61857449D01*
X192966055Y-62112501D01*
X192999540Y-62173824D01*
X192994556Y-62243516D01*
X192961288Y-62291747D01*
X192961447Y-62291906D01*
X192960584Y-62292768D01*
X192960155Y-62293391D01*
X192958580Y-62294772D01*
X192787580Y-62465772D01*
X192726257Y-62499257D01*
X192656565Y-62494273D01*
X192612218Y-62465772D01*
X192357449Y-62211003D01*
X192235357Y-62364106D01*
X192077001Y-62616127D01*
X191947864Y-62884283D01*
X191947858Y-62884297D01*
X191849559Y-63165218D01*
X191849555Y-63165230D01*
X191783325Y-63455405D01*
X191783322Y-63455423D01*
X191750000Y-63751172D01*
X191750000Y-64048827D01*
X191783322Y-64344576D01*
X191783325Y-64344594D01*
X191849555Y-64634769D01*
X191849559Y-64634781D01*
X191947858Y-64915702D01*
X191947864Y-64915716D01*
X192077001Y-65183872D01*
X192235359Y-65435897D01*
X192235362Y-65435901D01*
X192357449Y-65588995D01*
X192597141Y-65349303D01*
X192658464Y-65315818D01*
X192728155Y-65320802D01*
X192772503Y-65349303D01*
X192950695Y-65527495D01*
X192984180Y-65588818D01*
X192979196Y-65658510D01*
X192950695Y-65702857D01*
X192711003Y-65942548D01*
X192864112Y-66064646D01*
X193116127Y-66222998D01*
X193384283Y-66352135D01*
X193384297Y-66352141D01*
X193665218Y-66450440D01*
X193665230Y-66450444D01*
X193955405Y-66516674D01*
X193955423Y-66516677D01*
X194251172Y-66549999D01*
X194251176Y-66550000D01*
X194548824Y-66550000D01*
X194548827Y-66549999D01*
X194844576Y-66516677D01*
X194844594Y-66516674D01*
X195134769Y-66450444D01*
X195134781Y-66450440D01*
X195415702Y-66352141D01*
X195415716Y-66352135D01*
X195683872Y-66222998D01*
X195935893Y-66064642D01*
X196088995Y-65942549D01*
X195828846Y-65682400D01*
X195795361Y-65621077D01*
X195800345Y-65551385D01*
X195828846Y-65507038D01*
X195999831Y-65336052D01*
X195999842Y-65336041D01*
X195999851Y-65336028D01*
X196001197Y-65334495D01*
X196001722Y-65334161D01*
X196002713Y-65333171D01*
X196002934Y-65333392D01*
X196060194Y-65297064D01*
X196130063Y-65297472D01*
X196182116Y-65328562D01*
X196442549Y-65588995D01*
X196564642Y-65435893D01*
X196722998Y-65183872D01*
X196852135Y-64915716D01*
X196852141Y-64915702D01*
X196950440Y-64634781D01*
X196950444Y-64634769D01*
X197016674Y-64344594D01*
X197016677Y-64344576D01*
X197050390Y-64045364D01*
X197051536Y-64045493D01*
X197073319Y-63984172D01*
X197128589Y-63941428D01*
X197198194Y-63935351D01*
X197260035Y-63967870D01*
X197261421Y-63969235D01*
X202463181Y-69170995D01*
X202496666Y-69232318D01*
X202499500Y-69258676D01*
X202499500Y-75042811D01*
X202499288Y-75050060D01*
X202482847Y-75330822D01*
X202481156Y-75345216D01*
X202432700Y-75618577D01*
X202429340Y-75632675D01*
X202349326Y-75898495D01*
X202344345Y-75912105D01*
X202233854Y-76166789D01*
X202227319Y-76179726D01*
X202087872Y-76419767D01*
X202079872Y-76431851D01*
X201913361Y-76653994D01*
X201904005Y-76665064D01*
X201712721Y-76866251D01*
X201702138Y-76876153D01*
X201488679Y-77053652D01*
X201477013Y-77062251D01*
X201244299Y-77213633D01*
X201231708Y-77220812D01*
X200982939Y-77343997D01*
X200969598Y-77349659D01*
X200708134Y-77442984D01*
X200694223Y-77447050D01*
X200419173Y-77510261D01*
X200412075Y-77511674D01*
X200412072Y-77511675D01*
X200401698Y-77513429D01*
X200388736Y-77515621D01*
X200364312Y-77519751D01*
X200362747Y-77520016D01*
X200351628Y-77521896D01*
X200351626Y-77521896D01*
X200345102Y-77523000D01*
X200345098Y-77523001D01*
X200048819Y-77573105D01*
X199320127Y-77732664D01*
X198599933Y-77927093D01*
X198599928Y-77927094D01*
X197889987Y-78155914D01*
X197889958Y-78155924D01*
X197191795Y-78418644D01*
X197191786Y-78418647D01*
X196507075Y-78714639D01*
X196507051Y-78714650D01*
X195837370Y-79043233D01*
X195184258Y-79403650D01*
X195184250Y-79403654D01*
X194549236Y-79795063D01*
X193933794Y-80216553D01*
X193933751Y-80216584D01*
X193339307Y-80667177D01*
X192767187Y-81145870D01*
X192767177Y-81145879D01*
X192218754Y-81651527D01*
X192218752Y-81651528D01*
X191695277Y-82182973D01*
X191695269Y-82182982D01*
X191495250Y-82406572D01*
X191495251Y-82406573D01*
X191490550Y-82411827D01*
X191490540Y-82411835D01*
X191469403Y-82435466D01*
X191453431Y-82453321D01*
X191448785Y-82458517D01*
X191444314Y-82463258D01*
X191266054Y-82642626D01*
X191256396Y-82651373D01*
X191062836Y-82808978D01*
X191052321Y-82816657D01*
X190843287Y-82953083D01*
X190832016Y-82959621D01*
X190609821Y-83073355D01*
X190597926Y-83078675D01*
X190365019Y-83168466D01*
X190352631Y-83172508D01*
X190111587Y-83237362D01*
X190098844Y-83240081D01*
X189852340Y-83279280D01*
X189839381Y-83280648D01*
X189654246Y-83290388D01*
X189586651Y-83293945D01*
X189580144Y-83294116D01*
X189517702Y-83294116D01*
X173806408Y-83294117D01*
X173806346Y-83294122D01*
X173575673Y-83294122D01*
X172967631Y-83333160D01*
X172363302Y-83411079D01*
X171765223Y-83527555D01*
X171765199Y-83527561D01*
X171175816Y-83682116D01*
X171175800Y-83682121D01*
X170597545Y-83874115D01*
X170597526Y-83874121D01*
X170032740Y-84102778D01*
X170032718Y-84102788D01*
X169483750Y-84367157D01*
X169483748Y-84367158D01*
X168952861Y-84666149D01*
X168952839Y-84666162D01*
X168442175Y-84998567D01*
X167953839Y-85363021D01*
X167489907Y-85757973D01*
X167489871Y-85758006D01*
X167052175Y-86181890D01*
X166642523Y-86632963D01*
X166262614Y-87109354D01*
X165914017Y-87609094D01*
X165598137Y-88130171D01*
X165598136Y-88130173D01*
X165316302Y-88670395D01*
X165316301Y-88670397D01*
X165069660Y-89227567D01*
X165069657Y-89227575D01*
X164859230Y-89799373D01*
X164859223Y-89799393D01*
X164685851Y-90383543D01*
X164685851Y-90383545D01*
X164550266Y-90977580D01*
X164453018Y-91579090D01*
X164453016Y-91579110D01*
X164394508Y-92185602D01*
X164394506Y-92185634D01*
X164374978Y-92794611D01*
X164374978Y-92794630D01*
X164394506Y-93403607D01*
X164394508Y-93403639D01*
X164417560Y-93642595D01*
X164452069Y-94000320D01*
X164453016Y-94010131D01*
X164453018Y-94010151D01*
X164550266Y-94611661D01*
X164683616Y-95195907D01*
X164685853Y-95205705D01*
X164859223Y-95789845D01*
X164859224Y-95789848D01*
X164859231Y-95789868D01*
X165069658Y-96361666D01*
X165069661Y-96361674D01*
X165316302Y-96918844D01*
X165316303Y-96918846D01*
X165598137Y-97459068D01*
X165598143Y-97459079D01*
X165906597Y-97967906D01*
X165914018Y-97980147D01*
X166262615Y-98479887D01*
X166642524Y-98956278D01*
X166642538Y-98956293D01*
X167025844Y-99378355D01*
X167052176Y-99407349D01*
X167489884Y-99831246D01*
X167489898Y-99831257D01*
X167489909Y-99831268D01*
X167953841Y-100226220D01*
X168068185Y-100311557D01*
X168442173Y-100590671D01*
X168952842Y-100923079D01*
X168952856Y-100923087D01*
X168952863Y-100923091D01*
X169483750Y-101222082D01*
X169483752Y-101222083D01*
X169483756Y-101222085D01*
X169483758Y-101222086D01*
X170032741Y-101486462D01*
X170302302Y-101595595D01*
X170597528Y-101715119D01*
X170597532Y-101715120D01*
X170597534Y-101715121D01*
X171175818Y-101907124D01*
X171765215Y-102061682D01*
X172363303Y-102178160D01*
X172967626Y-102256079D01*
X173283009Y-102276326D01*
X173575676Y-102295117D01*
X173575694Y-102295117D01*
X173575699Y-102295118D01*
X173575702Y-102295118D01*
X173997609Y-102295118D01*
X173997612Y-102295116D01*
X189580334Y-102295116D01*
X189586849Y-102295287D01*
X189614256Y-102296729D01*
X189839393Y-102308574D01*
X189852338Y-102309941D01*
X190098861Y-102349143D01*
X190111591Y-102351860D01*
X190352640Y-102416717D01*
X190365005Y-102420750D01*
X190597939Y-102510553D01*
X190609806Y-102515860D01*
X190832017Y-102629605D01*
X190843288Y-102636144D01*
X191052313Y-102772564D01*
X191062836Y-102780249D01*
X191256400Y-102937858D01*
X191266058Y-102946605D01*
X191444221Y-103125878D01*
X191448683Y-103130610D01*
X191478859Y-103164342D01*
X191490535Y-103177396D01*
X191490537Y-103177397D01*
X191608353Y-103309099D01*
X191695279Y-103406270D01*
X191984737Y-103700135D01*
X192218755Y-103937715D01*
X192767184Y-104443365D01*
X192767195Y-104443374D01*
X192767197Y-104443376D01*
X192767204Y-104443383D01*
X193339285Y-104922041D01*
X193339305Y-104922057D01*
X193933750Y-105372651D01*
X193933766Y-105372662D01*
X193933776Y-105372670D01*
X194450356Y-105726452D01*
X194543629Y-105790331D01*
X194549238Y-105794172D01*
X194652310Y-105857703D01*
X195184249Y-106185578D01*
X195184252Y-106185579D01*
X195184261Y-106185585D01*
X195653295Y-106444419D01*
X195837369Y-106545999D01*
X195837374Y-106546001D01*
X195837375Y-106546002D01*
X196507067Y-106874589D01*
X196879813Y-107035722D01*
X197191786Y-107170584D01*
X197191809Y-107170593D01*
X197889944Y-107433301D01*
X197889987Y-107433316D01*
X198599926Y-107662135D01*
X198599932Y-107662136D01*
X198599949Y-107662142D01*
X199320128Y-107856565D01*
X200048825Y-108016125D01*
X200344266Y-108066086D01*
X200351595Y-108067326D01*
X200351614Y-108067335D01*
X200377552Y-108071719D01*
X200377580Y-108071724D01*
X200391116Y-108078317D01*
X200402519Y-108078317D01*
X200430295Y-108081468D01*
X200694226Y-108142130D01*
X200708133Y-108146195D01*
X200818401Y-108185557D01*
X200969607Y-108239532D01*
X200982948Y-108245194D01*
X201231728Y-108368392D01*
X201244317Y-108375571D01*
X201477040Y-108526965D01*
X201488707Y-108535565D01*
X201702166Y-108713071D01*
X201712749Y-108722973D01*
X201904042Y-108924177D01*
X201913397Y-108935246D01*
X202079909Y-109157397D01*
X202087908Y-109169482D01*
X202227357Y-109409534D01*
X202233892Y-109422469D01*
X202344383Y-109677157D01*
X202349365Y-109690768D01*
X202429384Y-109956613D01*
X202432743Y-109970711D01*
X202481198Y-110244076D01*
X202482889Y-110258469D01*
X202499288Y-110538524D01*
X202499500Y-110545773D01*
X202499500Y-116330559D01*
X202479815Y-116397598D01*
X202463181Y-116418240D01*
X197260450Y-121620970D01*
X197199127Y-121654455D01*
X197129435Y-121649471D01*
X197073502Y-121607599D01*
X197049549Y-121547172D01*
X197016677Y-121255423D01*
X197016674Y-121255405D01*
X196950444Y-120965230D01*
X196950440Y-120965218D01*
X196852141Y-120684297D01*
X196852135Y-120684283D01*
X196722998Y-120416127D01*
X196564646Y-120164112D01*
X196442548Y-120011004D01*
X196186882Y-120266670D01*
X196125559Y-120300155D01*
X196055867Y-120295171D01*
X196002838Y-120255965D01*
X196002518Y-120256246D01*
X196001227Y-120254774D01*
X196000828Y-120254479D01*
X195999844Y-120253197D01*
X195999837Y-120253189D01*
X195834227Y-120087579D01*
X195800742Y-120026256D01*
X195805726Y-119956564D01*
X195834227Y-119912217D01*
X196088995Y-119657449D01*
X195935901Y-119535362D01*
X195935897Y-119535359D01*
X195683872Y-119377001D01*
X195415716Y-119247864D01*
X195415702Y-119247858D01*
X195134781Y-119149559D01*
X195134769Y-119149555D01*
X194844594Y-119083325D01*
X194844576Y-119083322D01*
X194548827Y-119050000D01*
X194251172Y-119050000D01*
X193955423Y-119083322D01*
X193955405Y-119083325D01*
X193665230Y-119149555D01*
X193665218Y-119149559D01*
X193384297Y-119247858D01*
X193384283Y-119247864D01*
X193116127Y-119377001D01*
X192864106Y-119535357D01*
X192711003Y-119657449D01*
X192945314Y-119891760D01*
X192978799Y-119953083D01*
X192973815Y-120022775D01*
X192945314Y-120067122D01*
X192767122Y-120245314D01*
X192705799Y-120278799D01*
X192636107Y-120273815D01*
X192591760Y-120245314D01*
X192357449Y-120011003D01*
X192235357Y-120164106D01*
X192077001Y-120416127D01*
X191947864Y-120684283D01*
X191947858Y-120684297D01*
X191849559Y-120965218D01*
X191849555Y-120965230D01*
X191783325Y-121255405D01*
X191783322Y-121255423D01*
X191750000Y-121551172D01*
X191750000Y-121848827D01*
X191783322Y-122144576D01*
X191783325Y-122144594D01*
X191849555Y-122434769D01*
X191849559Y-122434781D01*
X191947858Y-122715702D01*
X191947864Y-122715716D01*
X192077001Y-122983872D01*
X192235359Y-123235897D01*
X192235362Y-123235901D01*
X192357449Y-123388995D01*
X192617599Y-123128845D01*
X192678922Y-123095360D01*
X192748613Y-123100344D01*
X192792961Y-123128845D01*
X192958571Y-123294455D01*
X192958579Y-123294462D01*
X192959861Y-123295446D01*
X192960145Y-123295836D01*
X192961628Y-123297136D01*
X192961337Y-123297467D01*
X193001062Y-123351875D01*
X193005214Y-123421621D01*
X192972052Y-123481500D01*
X192711003Y-123742548D01*
X192864112Y-123864646D01*
X193116127Y-124022998D01*
X193384283Y-124152135D01*
X193384297Y-124152141D01*
X193665218Y-124250440D01*
X193665230Y-124250444D01*
X193955405Y-124316674D01*
X193955423Y-124316677D01*
X194247172Y-124349549D01*
X194311586Y-124376615D01*
X194351142Y-124434210D01*
X194353279Y-124504047D01*
X194320970Y-124560450D01*
X189123623Y-129757799D01*
X189062300Y-129791284D01*
X189035942Y-129794118D01*
X123964058Y-129794118D01*
X123897019Y-129774433D01*
X123876377Y-129757799D01*
X118679028Y-124560450D01*
X118645543Y-124499127D01*
X118650527Y-124429435D01*
X118692399Y-124373502D01*
X118752826Y-124349549D01*
X119044576Y-124316677D01*
X119044594Y-124316674D01*
X119334769Y-124250444D01*
X119334781Y-124250440D01*
X119615702Y-124152141D01*
X119615716Y-124152135D01*
X119883872Y-124022998D01*
X120135893Y-123864642D01*
X120288995Y-123742549D01*
X120027946Y-123481500D01*
X119994461Y-123420177D01*
X119999445Y-123350485D01*
X120038656Y-123297460D01*
X120038372Y-123297136D01*
X120039864Y-123295827D01*
X120040156Y-123295431D01*
X120041423Y-123294460D01*
X120122090Y-123213793D01*
X120207038Y-123128846D01*
X120268361Y-123095361D01*
X120338053Y-123100345D01*
X120382400Y-123128846D01*
X120642549Y-123388995D01*
X120764642Y-123235893D01*
X120922998Y-122983872D01*
X121052135Y-122715716D01*
X121052141Y-122715702D01*
X121150440Y-122434781D01*
X121150444Y-122434769D01*
X121216674Y-122144594D01*
X121216677Y-122144576D01*
X121249999Y-121848827D01*
X121250000Y-121848823D01*
X121250000Y-121551176D01*
X121249999Y-121551172D01*
X121216677Y-121255423D01*
X121216674Y-121255405D01*
X121150444Y-120965230D01*
X121150440Y-120965218D01*
X121052141Y-120684297D01*
X121052135Y-120684283D01*
X120922998Y-120416127D01*
X120764646Y-120164112D01*
X120642548Y-120011004D01*
X120408239Y-120245313D01*
X120346916Y-120278798D01*
X120277224Y-120273814D01*
X120232877Y-120245313D01*
X120054685Y-120067121D01*
X120021200Y-120005798D01*
X120026184Y-119936106D01*
X120054685Y-119891759D01*
X120288995Y-119657449D01*
X120135901Y-119535362D01*
X120135897Y-119535359D01*
X119883872Y-119377001D01*
X119615716Y-119247864D01*
X119615702Y-119247858D01*
X119334781Y-119149559D01*
X119334769Y-119149555D01*
X119044594Y-119083325D01*
X119044576Y-119083322D01*
X118748827Y-119050000D01*
X118451172Y-119050000D01*
X118155423Y-119083322D01*
X118155405Y-119083325D01*
X117865230Y-119149555D01*
X117865218Y-119149559D01*
X117584297Y-119247858D01*
X117584283Y-119247864D01*
X117316127Y-119377001D01*
X117064106Y-119535357D01*
X116911003Y-119657449D01*
X117165772Y-119912218D01*
X117199257Y-119973541D01*
X117194273Y-120043233D01*
X117165773Y-120087580D01*
X117000156Y-120253197D01*
X117000149Y-120253205D01*
X116999158Y-120254497D01*
X116998765Y-120254783D01*
X116997483Y-120256246D01*
X116997155Y-120255958D01*
X116942722Y-120295688D01*
X116872975Y-120299828D01*
X116813117Y-120266671D01*
X116557449Y-120011003D01*
X116435357Y-120164106D01*
X116277001Y-120416127D01*
X116147864Y-120684283D01*
X116147858Y-120684297D01*
X116049559Y-120965218D01*
X116049555Y-120965230D01*
X115983325Y-121255405D01*
X115983323Y-121255421D01*
X115950450Y-121547174D01*
X115923383Y-121611588D01*
X115865788Y-121651143D01*
X115795951Y-121653280D01*
X115739549Y-121620971D01*
X110536819Y-116418241D01*
X110503334Y-116356918D01*
X110500500Y-116330560D01*
X110500500Y-115692872D01*
X124999500Y-115692872D01*
X124999500Y-115955127D01*
X125025695Y-116154086D01*
X125033730Y-116215116D01*
X125101382Y-116467598D01*
X125101602Y-116468418D01*
X125101605Y-116468428D01*
X125201953Y-116710690D01*
X125201958Y-116710700D01*
X125333075Y-116937803D01*
X125492718Y-117145851D01*
X125492726Y-117145860D01*
X125678140Y-117331274D01*
X125678148Y-117331281D01*
X125678149Y-117331282D01*
X125886197Y-117490924D01*
X125937498Y-117520542D01*
X125985715Y-117571108D01*
X125999500Y-117627930D01*
X125999500Y-120505858D01*
X125979815Y-120572897D01*
X125927011Y-120618652D01*
X125918847Y-120622034D01*
X125907669Y-120626204D01*
X125907664Y-120626206D01*
X125792455Y-120712452D01*
X125792452Y-120712455D01*
X125706206Y-120827664D01*
X125706202Y-120827671D01*
X125655908Y-120962517D01*
X125649501Y-121022116D01*
X125649501Y-121022123D01*
X125649500Y-121022135D01*
X125649500Y-122817870D01*
X125649501Y-122817876D01*
X125655908Y-122877483D01*
X125706202Y-123012328D01*
X125706206Y-123012335D01*
X125792452Y-123127544D01*
X125792455Y-123127547D01*
X125907664Y-123213793D01*
X125907671Y-123213797D01*
X126039082Y-123262810D01*
X126095016Y-123304681D01*
X126119433Y-123370145D01*
X126104582Y-123438418D01*
X126083431Y-123466673D01*
X125969889Y-123580215D01*
X125844951Y-123752179D01*
X125748444Y-123941585D01*
X125682753Y-124143760D01*
X125655438Y-124316221D01*
X125649500Y-124353713D01*
X125649500Y-124566287D01*
X125655790Y-124606000D01*
X125677584Y-124743606D01*
X125682754Y-124776243D01*
X125741323Y-124956500D01*
X125748444Y-124978414D01*
X125844951Y-125167820D01*
X125969890Y-125339786D01*
X126120213Y-125490109D01*
X126292179Y-125615048D01*
X126292181Y-125615049D01*
X126292184Y-125615051D01*
X126481588Y-125711557D01*
X126683757Y-125777246D01*
X126893713Y-125810500D01*
X126893714Y-125810500D01*
X126898525Y-125811262D01*
X126898357Y-125812321D01*
X126958829Y-125835362D01*
X126971503Y-125846423D01*
X129267735Y-128142655D01*
X129267764Y-128142686D01*
X129410214Y-128285136D01*
X129410218Y-128285139D01*
X129574079Y-128394628D01*
X129574092Y-128394635D01*
X129702833Y-128447961D01*
X129745744Y-128465735D01*
X129756164Y-128470051D01*
X129852812Y-128489275D01*
X129901135Y-128498887D01*
X129949458Y-128508500D01*
X129949459Y-128508500D01*
X138020542Y-128508500D01*
X138051566Y-128502328D01*
X138117188Y-128489275D01*
X138213836Y-128470051D01*
X138267165Y-128447961D01*
X138395914Y-128394632D01*
X138559782Y-128285139D01*
X138699139Y-128145782D01*
X138699140Y-128145779D01*
X138706206Y-128138714D01*
X138706208Y-128138710D01*
X141076206Y-125768713D01*
X152185500Y-125768713D01*
X152185500Y-126231287D01*
X152218754Y-126441243D01*
X152240282Y-126507500D01*
X152284444Y-126643414D01*
X152380951Y-126832820D01*
X152505890Y-127004786D01*
X152656213Y-127155109D01*
X152828179Y-127280048D01*
X152828181Y-127280049D01*
X152828184Y-127280051D01*
X153017588Y-127376557D01*
X153219757Y-127442246D01*
X153429713Y-127475500D01*
X153429714Y-127475500D01*
X153642286Y-127475500D01*
X153642287Y-127475500D01*
X153852243Y-127442246D01*
X154054412Y-127376557D01*
X154243816Y-127280051D01*
X154265789Y-127264086D01*
X154415786Y-127155109D01*
X154415788Y-127155106D01*
X154415792Y-127155104D01*
X154566104Y-127004792D01*
X154685683Y-126840204D01*
X154741011Y-126797540D01*
X154810624Y-126791561D01*
X154872420Y-126824166D01*
X154886313Y-126840199D01*
X154989925Y-126982809D01*
X155005896Y-127004792D01*
X155156213Y-127155109D01*
X155328179Y-127280048D01*
X155328181Y-127280049D01*
X155328184Y-127280051D01*
X155517588Y-127376557D01*
X155719757Y-127442246D01*
X155929713Y-127475500D01*
X155929714Y-127475500D01*
X156142286Y-127475500D01*
X156142287Y-127475500D01*
X156352243Y-127442246D01*
X156554412Y-127376557D01*
X156743816Y-127280051D01*
X156765789Y-127264086D01*
X156915786Y-127155109D01*
X156915788Y-127155106D01*
X156915792Y-127155104D01*
X157066104Y-127004792D01*
X157185683Y-126840204D01*
X157241011Y-126797540D01*
X157310624Y-126791561D01*
X157372420Y-126824166D01*
X157386313Y-126840199D01*
X157489925Y-126982809D01*
X157505896Y-127004792D01*
X157656213Y-127155109D01*
X157828179Y-127280048D01*
X157828181Y-127280049D01*
X157828184Y-127280051D01*
X158017588Y-127376557D01*
X158219757Y-127442246D01*
X158429713Y-127475500D01*
X158429714Y-127475500D01*
X158642286Y-127475500D01*
X158642287Y-127475500D01*
X158852243Y-127442246D01*
X159054412Y-127376557D01*
X159243816Y-127280051D01*
X159415792Y-127155104D01*
X159554604Y-127016291D01*
X159615923Y-126982809D01*
X159685615Y-126987793D01*
X159741549Y-127029664D01*
X159747821Y-127038878D01*
X159751185Y-127044333D01*
X159751186Y-127044334D01*
X159843288Y-127193656D01*
X159967344Y-127317712D01*
X160116666Y-127409814D01*
X160283203Y-127464999D01*
X160385991Y-127475500D01*
X161686008Y-127475499D01*
X161788797Y-127464999D01*
X161955334Y-127409814D01*
X162104656Y-127317712D01*
X162228712Y-127193656D01*
X162320814Y-127044334D01*
X162375999Y-126877797D01*
X162386500Y-126775009D01*
X162386499Y-125768713D01*
X175553500Y-125768713D01*
X175553500Y-126231287D01*
X175586754Y-126441243D01*
X175608282Y-126507500D01*
X175652444Y-126643414D01*
X175748951Y-126832820D01*
X175873890Y-127004786D01*
X176024213Y-127155109D01*
X176196179Y-127280048D01*
X176196181Y-127280049D01*
X176196184Y-127280051D01*
X176385588Y-127376557D01*
X176587757Y-127442246D01*
X176797713Y-127475500D01*
X176797714Y-127475500D01*
X177010286Y-127475500D01*
X177010287Y-127475500D01*
X177220243Y-127442246D01*
X177422412Y-127376557D01*
X177611816Y-127280051D01*
X177633789Y-127264086D01*
X177783786Y-127155109D01*
X177783788Y-127155106D01*
X177783792Y-127155104D01*
X177934104Y-127004792D01*
X178053683Y-126840204D01*
X178109011Y-126797540D01*
X178178624Y-126791561D01*
X178240420Y-126824166D01*
X178254313Y-126840199D01*
X178357925Y-126982809D01*
X178373896Y-127004792D01*
X178524213Y-127155109D01*
X178696179Y-127280048D01*
X178696181Y-127280049D01*
X178696184Y-127280051D01*
X178885588Y-127376557D01*
X179087757Y-127442246D01*
X179297713Y-127475500D01*
X179297714Y-127475500D01*
X179510286Y-127475500D01*
X179510287Y-127475500D01*
X179720243Y-127442246D01*
X179922412Y-127376557D01*
X180111816Y-127280051D01*
X180133789Y-127264086D01*
X180283786Y-127155109D01*
X180283788Y-127155106D01*
X180283792Y-127155104D01*
X180434104Y-127004792D01*
X180553683Y-126840204D01*
X180609011Y-126797540D01*
X180678624Y-126791561D01*
X180740420Y-126824166D01*
X180754313Y-126840199D01*
X180857925Y-126982809D01*
X180873896Y-127004792D01*
X181024213Y-127155109D01*
X181196179Y-127280048D01*
X181196181Y-127280049D01*
X181196184Y-127280051D01*
X181385588Y-127376557D01*
X181587757Y-127442246D01*
X181797713Y-127475500D01*
X181797714Y-127475500D01*
X182010286Y-127475500D01*
X182010287Y-127475500D01*
X182220243Y-127442246D01*
X182422412Y-127376557D01*
X182611816Y-127280051D01*
X182783792Y-127155104D01*
X182922604Y-127016291D01*
X182983923Y-126982809D01*
X183053615Y-126987793D01*
X183109549Y-127029664D01*
X183115821Y-127038878D01*
X183119185Y-127044333D01*
X183119186Y-127044334D01*
X183211288Y-127193656D01*
X183335344Y-127317712D01*
X183484666Y-127409814D01*
X183651203Y-127464999D01*
X183753991Y-127475500D01*
X185054008Y-127475499D01*
X185156797Y-127464999D01*
X185323334Y-127409814D01*
X185472656Y-127317712D01*
X185596712Y-127193656D01*
X185688814Y-127044334D01*
X185743999Y-126877797D01*
X185754500Y-126775009D01*
X185754499Y-125224992D01*
X185750775Y-125188541D01*
X185743999Y-125122203D01*
X185743998Y-125122200D01*
X185740964Y-125113043D01*
X185688814Y-124955666D01*
X185596712Y-124806344D01*
X185472656Y-124682288D01*
X185323334Y-124590186D01*
X185156797Y-124535001D01*
X185156795Y-124535000D01*
X185054010Y-124524500D01*
X183753998Y-124524500D01*
X183753981Y-124524501D01*
X183651203Y-124535000D01*
X183651200Y-124535001D01*
X183484668Y-124590185D01*
X183484663Y-124590187D01*
X183335342Y-124682289D01*
X183211289Y-124806342D01*
X183115821Y-124961121D01*
X183063873Y-125007845D01*
X182994910Y-125019068D01*
X182930828Y-124991224D01*
X182922601Y-124983705D01*
X182783786Y-124844890D01*
X182611820Y-124719951D01*
X182422414Y-124623444D01*
X182422413Y-124623443D01*
X182422412Y-124623443D01*
X182220243Y-124557754D01*
X182220241Y-124557753D01*
X182220240Y-124557753D01*
X182058957Y-124532208D01*
X182010287Y-124524500D01*
X181797713Y-124524500D01*
X181749042Y-124532208D01*
X181587760Y-124557753D01*
X181385585Y-124623444D01*
X181196179Y-124719951D01*
X181024213Y-124844890D01*
X180873894Y-124995209D01*
X180873890Y-124995214D01*
X180754318Y-125159793D01*
X180698989Y-125202459D01*
X180629375Y-125208438D01*
X180567580Y-125175833D01*
X180553682Y-125159793D01*
X180434109Y-124995214D01*
X180434105Y-124995209D01*
X180283786Y-124844890D01*
X180111820Y-124719951D01*
X179922414Y-124623444D01*
X179922413Y-124623443D01*
X179922412Y-124623443D01*
X179720243Y-124557754D01*
X179720241Y-124557753D01*
X179720240Y-124557753D01*
X179558957Y-124532208D01*
X179510287Y-124524500D01*
X179297713Y-124524500D01*
X179249042Y-124532208D01*
X179087760Y-124557753D01*
X178885585Y-124623444D01*
X178696179Y-124719951D01*
X178524213Y-124844890D01*
X178373894Y-124995209D01*
X178373890Y-124995214D01*
X178254318Y-125159793D01*
X178198989Y-125202459D01*
X178129375Y-125208438D01*
X178067580Y-125175833D01*
X178053682Y-125159793D01*
X177934109Y-124995214D01*
X177934105Y-124995209D01*
X177783786Y-124844890D01*
X177611820Y-124719951D01*
X177422414Y-124623444D01*
X177422413Y-124623443D01*
X177422412Y-124623443D01*
X177220243Y-124557754D01*
X177220241Y-124557753D01*
X177220240Y-124557753D01*
X177058957Y-124532208D01*
X177010287Y-124524500D01*
X176797713Y-124524500D01*
X176749042Y-124532208D01*
X176587760Y-124557753D01*
X176385585Y-124623444D01*
X176196179Y-124719951D01*
X176024213Y-124844890D01*
X175873890Y-124995213D01*
X175748951Y-125167179D01*
X175652444Y-125356585D01*
X175586753Y-125558760D01*
X175568159Y-125676160D01*
X175553500Y-125768713D01*
X162386499Y-125768713D01*
X162386499Y-125224992D01*
X162382775Y-125188541D01*
X162375999Y-125122203D01*
X162375998Y-125122200D01*
X162372964Y-125113043D01*
X162320814Y-124955666D01*
X162228712Y-124806344D01*
X162104656Y-124682288D01*
X161955334Y-124590186D01*
X161788797Y-124535001D01*
X161788795Y-124535000D01*
X161686010Y-124524500D01*
X160385998Y-124524500D01*
X160385981Y-124524501D01*
X160283203Y-124535000D01*
X160283200Y-124535001D01*
X160116668Y-124590185D01*
X160116663Y-124590187D01*
X159967342Y-124682289D01*
X159843289Y-124806342D01*
X159747821Y-124961121D01*
X159695873Y-125007845D01*
X159626910Y-125019068D01*
X159562828Y-124991224D01*
X159554601Y-124983705D01*
X159415786Y-124844890D01*
X159243820Y-124719951D01*
X159054414Y-124623444D01*
X159054413Y-124623443D01*
X159054412Y-124623443D01*
X158852243Y-124557754D01*
X158852241Y-124557753D01*
X158852240Y-124557753D01*
X158690957Y-124532208D01*
X158642287Y-124524500D01*
X158429713Y-124524500D01*
X158381042Y-124532208D01*
X158219760Y-124557753D01*
X158017585Y-124623444D01*
X157828179Y-124719951D01*
X157656213Y-124844890D01*
X157505894Y-124995209D01*
X157505890Y-124995214D01*
X157386318Y-125159793D01*
X157330989Y-125202459D01*
X157261375Y-125208438D01*
X157199580Y-125175833D01*
X157185682Y-125159793D01*
X157066109Y-124995214D01*
X157066105Y-124995209D01*
X156915786Y-124844890D01*
X156743820Y-124719951D01*
X156554414Y-124623444D01*
X156554413Y-124623443D01*
X156554412Y-124623443D01*
X156352243Y-124557754D01*
X156352241Y-124557753D01*
X156352240Y-124557753D01*
X156190957Y-124532208D01*
X156142287Y-124524500D01*
X155929713Y-124524500D01*
X155881042Y-124532208D01*
X155719760Y-124557753D01*
X155517585Y-124623444D01*
X155328179Y-124719951D01*
X155156213Y-124844890D01*
X155005894Y-124995209D01*
X155005890Y-124995214D01*
X154886318Y-125159793D01*
X154830989Y-125202459D01*
X154761375Y-125208438D01*
X154699580Y-125175833D01*
X154685682Y-125159793D01*
X154566109Y-124995214D01*
X154566105Y-124995209D01*
X154415786Y-124844890D01*
X154243820Y-124719951D01*
X154054414Y-124623444D01*
X154054413Y-124623443D01*
X154054412Y-124623443D01*
X153852243Y-124557754D01*
X153852241Y-124557753D01*
X153852240Y-124557753D01*
X153690957Y-124532208D01*
X153642287Y-124524500D01*
X153429713Y-124524500D01*
X153381042Y-124532208D01*
X153219760Y-124557753D01*
X153017585Y-124623444D01*
X152828179Y-124719951D01*
X152656213Y-124844890D01*
X152505890Y-124995213D01*
X152380951Y-125167179D01*
X152284444Y-125356585D01*
X152218753Y-125558760D01*
X152200159Y-125676160D01*
X152185500Y-125768713D01*
X141076206Y-125768713D01*
X143634101Y-123210819D01*
X143695424Y-123177334D01*
X143721782Y-123174500D01*
X145203176Y-123174500D01*
X145270215Y-123194185D01*
X145315970Y-123246989D01*
X145325914Y-123316147D01*
X145303494Y-123371386D01*
X145192140Y-123524650D01*
X145099244Y-123706968D01*
X145036009Y-123901582D01*
X145004000Y-124103682D01*
X145004000Y-124308317D01*
X145036009Y-124510417D01*
X145099244Y-124705031D01*
X145192141Y-124887350D01*
X145192147Y-124887359D01*
X145224523Y-124931921D01*
X145224524Y-124931922D01*
X145904000Y-124252446D01*
X145904000Y-124258661D01*
X145931259Y-124360394D01*
X145983920Y-124451606D01*
X146058394Y-124526080D01*
X146149606Y-124578741D01*
X146251339Y-124606000D01*
X146257553Y-124606000D01*
X145578076Y-125285474D01*
X145622650Y-125317859D01*
X145804968Y-125410755D01*
X145999582Y-125473990D01*
X146201683Y-125506000D01*
X146406317Y-125506000D01*
X146608417Y-125473990D01*
X146803031Y-125410755D01*
X146985349Y-125317859D01*
X147029921Y-125285474D01*
X146350447Y-124606000D01*
X146356661Y-124606000D01*
X146458394Y-124578741D01*
X146549606Y-124526080D01*
X146624080Y-124451606D01*
X146676741Y-124360394D01*
X146704000Y-124258661D01*
X146704000Y-124252447D01*
X147383474Y-124931921D01*
X147415859Y-124887349D01*
X147508755Y-124705031D01*
X147571990Y-124510417D01*
X147604000Y-124308317D01*
X147604000Y-124103682D01*
X147571990Y-123901582D01*
X147508755Y-123706968D01*
X147415859Y-123524650D01*
X147304506Y-123371386D01*
X147281026Y-123305579D01*
X147296851Y-123237525D01*
X147346957Y-123188830D01*
X147404824Y-123174500D01*
X164944542Y-123174500D01*
X164970145Y-123169406D01*
X165041188Y-123155275D01*
X165137836Y-123136051D01*
X165201935Y-123109500D01*
X165319914Y-123060632D01*
X165483782Y-122951139D01*
X165623139Y-122811782D01*
X165623139Y-122811780D01*
X165633347Y-122801573D01*
X165633348Y-122801570D01*
X165901321Y-122533597D01*
X165962641Y-122500115D01*
X166032333Y-122505099D01*
X166076680Y-122533600D01*
X166351735Y-122808655D01*
X166351764Y-122808686D01*
X166494217Y-122951139D01*
X166585798Y-123012331D01*
X166658086Y-123060632D01*
X166658088Y-123060633D01*
X166658092Y-123060635D01*
X166702359Y-123078970D01*
X166776065Y-123109500D01*
X166840164Y-123136051D01*
X166936812Y-123155275D01*
X167013566Y-123170542D01*
X167033458Y-123174500D01*
X167033459Y-123174500D01*
X188820542Y-123174500D01*
X188846145Y-123169406D01*
X188917188Y-123155275D01*
X189013836Y-123136051D01*
X189077935Y-123109500D01*
X189195914Y-123060632D01*
X189359782Y-122951139D01*
X189499139Y-122811782D01*
X189499139Y-122811780D01*
X189509347Y-122801573D01*
X189509348Y-122801570D01*
X190307140Y-122003781D01*
X190416632Y-121839914D01*
X190492052Y-121657835D01*
X190530501Y-121464540D01*
X190530501Y-121267459D01*
X190530501Y-121262349D01*
X190530500Y-121262323D01*
X190530500Y-120531513D01*
X190550185Y-120464474D01*
X190554165Y-120458651D01*
X190639051Y-120341816D01*
X190735557Y-120152412D01*
X190801246Y-119950243D01*
X190834500Y-119740287D01*
X190834500Y-119527713D01*
X190801246Y-119317757D01*
X190735557Y-119115588D01*
X190639051Y-118926184D01*
X190639049Y-118926181D01*
X190639048Y-118926179D01*
X190514109Y-118754213D01*
X190363786Y-118603890D01*
X190191820Y-118478951D01*
X190002414Y-118382444D01*
X190002413Y-118382443D01*
X190002412Y-118382443D01*
X189800243Y-118316754D01*
X189800241Y-118316753D01*
X189800240Y-118316753D01*
X189638957Y-118291208D01*
X189590287Y-118283500D01*
X189377713Y-118283500D01*
X189329042Y-118291208D01*
X189167760Y-118316753D01*
X188965585Y-118382444D01*
X188776179Y-118478951D01*
X188604213Y-118603890D01*
X188453890Y-118754213D01*
X188328949Y-118926182D01*
X188324202Y-118935499D01*
X188276227Y-118986293D01*
X188208405Y-119003087D01*
X188142271Y-118980548D01*
X188103234Y-118935495D01*
X188098622Y-118926444D01*
X187973727Y-118754540D01*
X187973723Y-118754535D01*
X187823464Y-118604276D01*
X187823459Y-118604272D01*
X187651557Y-118479379D01*
X187462215Y-118382903D01*
X187260124Y-118317241D01*
X187194000Y-118306768D01*
X187194000Y-119200988D01*
X187136993Y-119168075D01*
X187009826Y-119134000D01*
X186878174Y-119134000D01*
X186751007Y-119168075D01*
X186694000Y-119200988D01*
X186694000Y-118306768D01*
X186693999Y-118306768D01*
X186627875Y-118317241D01*
X186425784Y-118382903D01*
X186236442Y-118479379D01*
X186064540Y-118604272D01*
X186064535Y-118604276D01*
X185914276Y-118754535D01*
X185914272Y-118754540D01*
X185789378Y-118926443D01*
X185784762Y-118935502D01*
X185736784Y-118986295D01*
X185668963Y-119003087D01*
X185602829Y-118980546D01*
X185563794Y-118935493D01*
X185559051Y-118926184D01*
X185559049Y-118926181D01*
X185559048Y-118926179D01*
X185434109Y-118754213D01*
X185283786Y-118603890D01*
X185111820Y-118478951D01*
X184922414Y-118382444D01*
X184922413Y-118382443D01*
X184922412Y-118382443D01*
X184720243Y-118316754D01*
X184720241Y-118316753D01*
X184720240Y-118316753D01*
X184558957Y-118291208D01*
X184510287Y-118283500D01*
X184297713Y-118283500D01*
X184249042Y-118291208D01*
X184087760Y-118316753D01*
X183885585Y-118382444D01*
X183696179Y-118478951D01*
X183524213Y-118603890D01*
X183373890Y-118754213D01*
X183248949Y-118926182D01*
X183244484Y-118934946D01*
X183196509Y-118985742D01*
X183128688Y-119002536D01*
X183062553Y-118979998D01*
X183023516Y-118934946D01*
X183019050Y-118926182D01*
X182894109Y-118754213D01*
X182743786Y-118603890D01*
X182571820Y-118478951D01*
X182382414Y-118382444D01*
X182382413Y-118382443D01*
X182382412Y-118382443D01*
X182180243Y-118316754D01*
X182180241Y-118316753D01*
X182180240Y-118316753D01*
X182018957Y-118291208D01*
X181970287Y-118283500D01*
X181757713Y-118283500D01*
X181709042Y-118291208D01*
X181547760Y-118316753D01*
X181345585Y-118382444D01*
X181156179Y-118478951D01*
X180984213Y-118603890D01*
X180833890Y-118754213D01*
X180708949Y-118926182D01*
X180704484Y-118934946D01*
X180656509Y-118985742D01*
X180588688Y-119002536D01*
X180522553Y-118979998D01*
X180483516Y-118934946D01*
X180479050Y-118926182D01*
X180354109Y-118754213D01*
X180203786Y-118603890D01*
X180031820Y-118478951D01*
X179842414Y-118382444D01*
X179842413Y-118382443D01*
X179842412Y-118382443D01*
X179640243Y-118316754D01*
X179640241Y-118316753D01*
X179640240Y-118316753D01*
X179478957Y-118291208D01*
X179430287Y-118283500D01*
X179217713Y-118283500D01*
X179169042Y-118291208D01*
X179007760Y-118316753D01*
X178805585Y-118382444D01*
X178616179Y-118478951D01*
X178444213Y-118603890D01*
X178293890Y-118754213D01*
X178168949Y-118926182D01*
X178164484Y-118934946D01*
X178116509Y-118985742D01*
X178048688Y-119002536D01*
X177982553Y-118979998D01*
X177943516Y-118934946D01*
X177939050Y-118926182D01*
X177814109Y-118754213D01*
X177663786Y-118603890D01*
X177491820Y-118478951D01*
X177302414Y-118382444D01*
X177302413Y-118382443D01*
X177302412Y-118382443D01*
X177100243Y-118316754D01*
X177100241Y-118316753D01*
X177100240Y-118316753D01*
X176938957Y-118291208D01*
X176890287Y-118283500D01*
X176677713Y-118283500D01*
X176629042Y-118291208D01*
X176467760Y-118316753D01*
X176265585Y-118382444D01*
X176076179Y-118478951D01*
X175904213Y-118603890D01*
X175753890Y-118754213D01*
X175628949Y-118926182D01*
X175624484Y-118934946D01*
X175576509Y-118985742D01*
X175508688Y-119002536D01*
X175442553Y-118979998D01*
X175403516Y-118934946D01*
X175399050Y-118926182D01*
X175274109Y-118754213D01*
X175123786Y-118603890D01*
X174951820Y-118478951D01*
X174762414Y-118382444D01*
X174762413Y-118382443D01*
X174762412Y-118382443D01*
X174560243Y-118316754D01*
X174560241Y-118316753D01*
X174560240Y-118316753D01*
X174398957Y-118291208D01*
X174350287Y-118283500D01*
X174137713Y-118283500D01*
X174089042Y-118291208D01*
X173927760Y-118316753D01*
X173725585Y-118382444D01*
X173536179Y-118478951D01*
X173364213Y-118603890D01*
X173213890Y-118754213D01*
X173088949Y-118926182D01*
X173084202Y-118935499D01*
X173036227Y-118986293D01*
X172968405Y-119003087D01*
X172902271Y-118980548D01*
X172863234Y-118935495D01*
X172858622Y-118926444D01*
X172733727Y-118754540D01*
X172733723Y-118754535D01*
X172583464Y-118604276D01*
X172583459Y-118604272D01*
X172411557Y-118479379D01*
X172222215Y-118382903D01*
X172020124Y-118317241D01*
X171954000Y-118306768D01*
X171954000Y-119200988D01*
X171896993Y-119168075D01*
X171769826Y-119134000D01*
X171638174Y-119134000D01*
X171511007Y-119168075D01*
X171454000Y-119200988D01*
X171454000Y-118306768D01*
X171453999Y-118306768D01*
X171387875Y-118317241D01*
X171185784Y-118382903D01*
X170996442Y-118479379D01*
X170824540Y-118604272D01*
X170824535Y-118604276D01*
X170674276Y-118754535D01*
X170674272Y-118754540D01*
X170549379Y-118926442D01*
X170452904Y-119115782D01*
X170387242Y-119317870D01*
X170387242Y-119317873D01*
X170376769Y-119384000D01*
X171270988Y-119384000D01*
X171238075Y-119441007D01*
X171204000Y-119568174D01*
X171204000Y-119699826D01*
X171238075Y-119826993D01*
X171270988Y-119884000D01*
X170376769Y-119884000D01*
X170387242Y-119950126D01*
X170387242Y-119950129D01*
X170452904Y-120152217D01*
X170549379Y-120341557D01*
X170674272Y-120513459D01*
X170674276Y-120513464D01*
X170824535Y-120663723D01*
X170824540Y-120663727D01*
X170996442Y-120788620D01*
X171185782Y-120885095D01*
X171328814Y-120931569D01*
X171386489Y-120971006D01*
X171413688Y-121035365D01*
X171401773Y-121104211D01*
X171354529Y-121155687D01*
X171290496Y-121173500D01*
X167597782Y-121173500D01*
X167530743Y-121153815D01*
X167510101Y-121137181D01*
X167038858Y-120665938D01*
X167005373Y-120604615D01*
X167010357Y-120534923D01*
X167026221Y-120505372D01*
X167044954Y-120479588D01*
X167145051Y-120341816D01*
X167241557Y-120152412D01*
X167307246Y-119950243D01*
X167340500Y-119740287D01*
X167340500Y-119527713D01*
X167307246Y-119317757D01*
X167241557Y-119115588D01*
X167145051Y-118926184D01*
X167145049Y-118926181D01*
X167145048Y-118926179D01*
X167020109Y-118754213D01*
X166869786Y-118603890D01*
X166697820Y-118478951D01*
X166508414Y-118382444D01*
X166508413Y-118382443D01*
X166508412Y-118382443D01*
X166306243Y-118316754D01*
X166306241Y-118316753D01*
X166306240Y-118316753D01*
X166144957Y-118291208D01*
X166096287Y-118283500D01*
X165883713Y-118283500D01*
X165835042Y-118291208D01*
X165673760Y-118316753D01*
X165471585Y-118382444D01*
X165282179Y-118478951D01*
X165110213Y-118603890D01*
X164959890Y-118754213D01*
X164834949Y-118926182D01*
X164830202Y-118935499D01*
X164782227Y-118986293D01*
X164714405Y-119003087D01*
X164648271Y-118980548D01*
X164609234Y-118935495D01*
X164604622Y-118926444D01*
X164479727Y-118754540D01*
X164479723Y-118754535D01*
X164329464Y-118604276D01*
X164329459Y-118604272D01*
X164157557Y-118479379D01*
X163968215Y-118382903D01*
X163766124Y-118317241D01*
X163700000Y-118306768D01*
X163700000Y-119200988D01*
X163642993Y-119168075D01*
X163515826Y-119134000D01*
X163384174Y-119134000D01*
X163257007Y-119168075D01*
X163200000Y-119200988D01*
X163200000Y-118306768D01*
X163199999Y-118306768D01*
X163133875Y-118317241D01*
X162931784Y-118382903D01*
X162742442Y-118479379D01*
X162570540Y-118604272D01*
X162570535Y-118604276D01*
X162420276Y-118754535D01*
X162420272Y-118754540D01*
X162295378Y-118926443D01*
X162290762Y-118935502D01*
X162242784Y-118986295D01*
X162174963Y-119003087D01*
X162108829Y-118980546D01*
X162069794Y-118935493D01*
X162065051Y-118926184D01*
X162065049Y-118926181D01*
X162065048Y-118926179D01*
X161940109Y-118754213D01*
X161789786Y-118603890D01*
X161617820Y-118478951D01*
X161428414Y-118382444D01*
X161428413Y-118382443D01*
X161428412Y-118382443D01*
X161226243Y-118316754D01*
X161226241Y-118316753D01*
X161226240Y-118316753D01*
X161064957Y-118291208D01*
X161016287Y-118283500D01*
X160803713Y-118283500D01*
X160755042Y-118291208D01*
X160593760Y-118316753D01*
X160391585Y-118382444D01*
X160202179Y-118478951D01*
X160030213Y-118603890D01*
X159879890Y-118754213D01*
X159754949Y-118926182D01*
X159750484Y-118934946D01*
X159702509Y-118985742D01*
X159634688Y-119002536D01*
X159568553Y-118979998D01*
X159529516Y-118934946D01*
X159525050Y-118926182D01*
X159400109Y-118754213D01*
X159249786Y-118603890D01*
X159077820Y-118478951D01*
X158888414Y-118382444D01*
X158888413Y-118382443D01*
X158888412Y-118382443D01*
X158686243Y-118316754D01*
X158686241Y-118316753D01*
X158686240Y-118316753D01*
X158524957Y-118291208D01*
X158476287Y-118283500D01*
X158263713Y-118283500D01*
X158215042Y-118291208D01*
X158053760Y-118316753D01*
X157851585Y-118382444D01*
X157662179Y-118478951D01*
X157490213Y-118603890D01*
X157339890Y-118754213D01*
X157214949Y-118926182D01*
X157210484Y-118934946D01*
X157162509Y-118985742D01*
X157094688Y-119002536D01*
X157028553Y-118979998D01*
X156989516Y-118934946D01*
X156985050Y-118926182D01*
X156860109Y-118754213D01*
X156709786Y-118603890D01*
X156537820Y-118478951D01*
X156348414Y-118382444D01*
X156348413Y-118382443D01*
X156348412Y-118382443D01*
X156146243Y-118316754D01*
X156146241Y-118316753D01*
X156146240Y-118316753D01*
X155984957Y-118291208D01*
X155936287Y-118283500D01*
X155723713Y-118283500D01*
X155675042Y-118291208D01*
X155513760Y-118316753D01*
X155311585Y-118382444D01*
X155122179Y-118478951D01*
X154950213Y-118603890D01*
X154799890Y-118754213D01*
X154674949Y-118926182D01*
X154670484Y-118934946D01*
X154622509Y-118985742D01*
X154554688Y-119002536D01*
X154488553Y-118979998D01*
X154449516Y-118934946D01*
X154445050Y-118926182D01*
X154320109Y-118754213D01*
X154169786Y-118603890D01*
X153997820Y-118478951D01*
X153808414Y-118382444D01*
X153808413Y-118382443D01*
X153808412Y-118382443D01*
X153606243Y-118316754D01*
X153606241Y-118316753D01*
X153606240Y-118316753D01*
X153444957Y-118291208D01*
X153396287Y-118283500D01*
X153183713Y-118283500D01*
X153135042Y-118291208D01*
X152973760Y-118316753D01*
X152771585Y-118382444D01*
X152582179Y-118478951D01*
X152410213Y-118603890D01*
X152259890Y-118754213D01*
X152134949Y-118926182D01*
X152130484Y-118934946D01*
X152082509Y-118985742D01*
X152014688Y-119002536D01*
X151948553Y-118979998D01*
X151909516Y-118934946D01*
X151905050Y-118926182D01*
X151780109Y-118754213D01*
X151629786Y-118603890D01*
X151457820Y-118478951D01*
X151268414Y-118382444D01*
X151268413Y-118382443D01*
X151268412Y-118382443D01*
X151066243Y-118316754D01*
X151066241Y-118316753D01*
X151066240Y-118316753D01*
X150904957Y-118291208D01*
X150856287Y-118283500D01*
X150643713Y-118283500D01*
X150595042Y-118291208D01*
X150433760Y-118316753D01*
X150231585Y-118382444D01*
X150042179Y-118478951D01*
X149870213Y-118603890D01*
X149719890Y-118754213D01*
X149594949Y-118926182D01*
X149590202Y-118935499D01*
X149542227Y-118986293D01*
X149474405Y-119003087D01*
X149408271Y-118980548D01*
X149369234Y-118935495D01*
X149364622Y-118926444D01*
X149239727Y-118754540D01*
X149239723Y-118754535D01*
X149089464Y-118604276D01*
X149089459Y-118604272D01*
X148917557Y-118479379D01*
X148728215Y-118382903D01*
X148526124Y-118317241D01*
X148460000Y-118306768D01*
X148460000Y-119200988D01*
X148402993Y-119168075D01*
X148275826Y-119134000D01*
X148144174Y-119134000D01*
X148017007Y-119168075D01*
X147960000Y-119200988D01*
X147960000Y-118306768D01*
X147959999Y-118306768D01*
X147893875Y-118317241D01*
X147691784Y-118382903D01*
X147502442Y-118479379D01*
X147330540Y-118604272D01*
X147330535Y-118604276D01*
X147180276Y-118754535D01*
X147180272Y-118754540D01*
X147055379Y-118926442D01*
X146958904Y-119115782D01*
X146893242Y-119317870D01*
X146893242Y-119317873D01*
X146882769Y-119384000D01*
X147776988Y-119384000D01*
X147744075Y-119441007D01*
X147710000Y-119568174D01*
X147710000Y-119699826D01*
X147744075Y-119826993D01*
X147776988Y-119884000D01*
X146882769Y-119884000D01*
X146893242Y-119950126D01*
X146893242Y-119950129D01*
X146958904Y-120152217D01*
X147055379Y-120341557D01*
X147180272Y-120513459D01*
X147180276Y-120513464D01*
X147330535Y-120663723D01*
X147330540Y-120663727D01*
X147502442Y-120788620D01*
X147691782Y-120885095D01*
X147834814Y-120931569D01*
X147892489Y-120971006D01*
X147919688Y-121035365D01*
X147907773Y-121104211D01*
X147860529Y-121155687D01*
X147796496Y-121173500D01*
X146412500Y-121173500D01*
X146345461Y-121153815D01*
X146299706Y-121101011D01*
X146288500Y-121049500D01*
X146288500Y-112677457D01*
X146277178Y-112620542D01*
X146277178Y-112620540D01*
X146273328Y-112601187D01*
X146250051Y-112484164D01*
X146199225Y-112361459D01*
X146195047Y-112351372D01*
X146174635Y-112302092D01*
X146174628Y-112302079D01*
X146065140Y-112138219D01*
X146065139Y-112138218D01*
X145925782Y-111998861D01*
X145925781Y-111998860D01*
X145756208Y-111829288D01*
X145756207Y-111829286D01*
X145756206Y-111829285D01*
X145756206Y-111829286D01*
X145749139Y-111822219D01*
X145749139Y-111822218D01*
X145609782Y-111682861D01*
X145609781Y-111682860D01*
X145609780Y-111682859D01*
X145445920Y-111573371D01*
X145445911Y-111573366D01*
X145373315Y-111543296D01*
X145317165Y-111520038D01*
X145263836Y-111497949D01*
X145263832Y-111497948D01*
X145263828Y-111497946D01*
X145167188Y-111478724D01*
X145070544Y-111459500D01*
X145070541Y-111459500D01*
X142861492Y-111459500D01*
X142842284Y-111453860D01*
X142822278Y-111453136D01*
X142798939Y-111441132D01*
X142794453Y-111439815D01*
X142790724Y-111437323D01*
X142789661Y-111436584D01*
X142693816Y-111366949D01*
X142677520Y-111358646D01*
X142670581Y-111353823D01*
X142653760Y-111332929D01*
X142634259Y-111314512D01*
X142632182Y-111306126D01*
X142626766Y-111299399D01*
X142623911Y-111272730D01*
X142617463Y-111246692D01*
X142620249Y-111238515D01*
X142619330Y-111229926D01*
X142631346Y-111205948D01*
X142639999Y-111180556D01*
X142647198Y-111174317D01*
X142650634Y-111167462D01*
X142664800Y-111159065D01*
X142685054Y-111141515D01*
X142693816Y-111137051D01*
X142780456Y-111074104D01*
X142865786Y-111012109D01*
X142865788Y-111012106D01*
X142865792Y-111012104D01*
X143016104Y-110861792D01*
X143016106Y-110861788D01*
X143016109Y-110861786D01*
X143141048Y-110689820D01*
X143141047Y-110689820D01*
X143141051Y-110689816D01*
X143237557Y-110500412D01*
X143303246Y-110298243D01*
X143336500Y-110088287D01*
X143336500Y-109875713D01*
X143303246Y-109665757D01*
X143237557Y-109463588D01*
X143141051Y-109274184D01*
X143141049Y-109274181D01*
X143141048Y-109274179D01*
X143016109Y-109102213D01*
X142865786Y-108951890D01*
X142693820Y-108826951D01*
X142504414Y-108730444D01*
X142504413Y-108730443D01*
X142504412Y-108730443D01*
X142302243Y-108664754D01*
X142302241Y-108664753D01*
X142302240Y-108664753D01*
X142140957Y-108639208D01*
X142092287Y-108631500D01*
X141879713Y-108631500D01*
X141831042Y-108639208D01*
X141669760Y-108664753D01*
X141467585Y-108730444D01*
X141278179Y-108826951D01*
X141106213Y-108951890D01*
X140955890Y-109102213D01*
X140830951Y-109274179D01*
X140734444Y-109463585D01*
X140668753Y-109665760D01*
X140635500Y-109875713D01*
X140635500Y-110088286D01*
X140661306Y-110251222D01*
X140668754Y-110298243D01*
X140691179Y-110367261D01*
X140734444Y-110500414D01*
X140830951Y-110689820D01*
X140955890Y-110861786D01*
X141106213Y-111012109D01*
X141278182Y-111137050D01*
X141286946Y-111141516D01*
X141337742Y-111189491D01*
X141354536Y-111257312D01*
X141331998Y-111323447D01*
X141286946Y-111362484D01*
X141278182Y-111366949D01*
X141102266Y-111494759D01*
X141101635Y-111493891D01*
X141042581Y-111520359D01*
X141025800Y-111521500D01*
X137767492Y-111521500D01*
X137748284Y-111515860D01*
X137728278Y-111515136D01*
X137704939Y-111503132D01*
X137700453Y-111501815D01*
X137696724Y-111499323D01*
X137695661Y-111498584D01*
X137599816Y-111428949D01*
X137583520Y-111420646D01*
X137576581Y-111415823D01*
X137559760Y-111394929D01*
X137540259Y-111376512D01*
X137538182Y-111368126D01*
X137532766Y-111361399D01*
X137529911Y-111334730D01*
X137523463Y-111308692D01*
X137526249Y-111300515D01*
X137525330Y-111291926D01*
X137537346Y-111267948D01*
X137545999Y-111242556D01*
X137553198Y-111236317D01*
X137556634Y-111229462D01*
X137570800Y-111221065D01*
X137591054Y-111203515D01*
X137599816Y-111199051D01*
X137643295Y-111167462D01*
X137771786Y-111074109D01*
X137771788Y-111074106D01*
X137771792Y-111074104D01*
X137922104Y-110923792D01*
X137922106Y-110923788D01*
X137922109Y-110923786D01*
X138047048Y-110751820D01*
X138047047Y-110751820D01*
X138047051Y-110751816D01*
X138143557Y-110562412D01*
X138209246Y-110360243D01*
X138242500Y-110150287D01*
X138242500Y-109937713D01*
X138209246Y-109727757D01*
X138143557Y-109525588D01*
X138047051Y-109336184D01*
X138047049Y-109336181D01*
X138047048Y-109336179D01*
X137922109Y-109164213D01*
X137771786Y-109013890D01*
X137599820Y-108888951D01*
X137410414Y-108792444D01*
X137410413Y-108792443D01*
X137410412Y-108792443D01*
X137208243Y-108726754D01*
X137208241Y-108726753D01*
X137208240Y-108726753D01*
X137046957Y-108701208D01*
X136998287Y-108693500D01*
X136785713Y-108693500D01*
X136737042Y-108701208D01*
X136575760Y-108726753D01*
X136373585Y-108792444D01*
X136184179Y-108888951D01*
X136012213Y-109013890D01*
X135861890Y-109164213D01*
X135736951Y-109336179D01*
X135640444Y-109525585D01*
X135574753Y-109727760D01*
X135552074Y-109870952D01*
X135541500Y-109937713D01*
X135541500Y-110150287D01*
X135574754Y-110360243D01*
X135632681Y-110538524D01*
X135640444Y-110562414D01*
X135736951Y-110751820D01*
X135861890Y-110923786D01*
X136012213Y-111074109D01*
X136184182Y-111199050D01*
X136192946Y-111203516D01*
X136243742Y-111251491D01*
X136260536Y-111319312D01*
X136237998Y-111385447D01*
X136192946Y-111424484D01*
X136184182Y-111428949D01*
X136012213Y-111553890D01*
X135861890Y-111704213D01*
X135736951Y-111876179D01*
X135640444Y-112065585D01*
X135574753Y-112267760D01*
X135541500Y-112477713D01*
X135541500Y-112690286D01*
X135574753Y-112900239D01*
X135640444Y-113102414D01*
X135736951Y-113291820D01*
X135861890Y-113463786D01*
X135975818Y-113577714D01*
X136009303Y-113639037D01*
X136004319Y-113708729D01*
X135962447Y-113764662D01*
X135931471Y-113781577D01*
X135799912Y-113830646D01*
X135799906Y-113830649D01*
X135684812Y-113916809D01*
X135684809Y-113916812D01*
X135598649Y-114031906D01*
X135598645Y-114031913D01*
X135548403Y-114166620D01*
X135548401Y-114166627D01*
X135542000Y-114226155D01*
X135542000Y-114874000D01*
X136458988Y-114874000D01*
X136426075Y-114931007D01*
X136392000Y-115058174D01*
X136392000Y-115189826D01*
X136426075Y-115316993D01*
X136458988Y-115374000D01*
X135542000Y-115374000D01*
X135542000Y-116021844D01*
X135548401Y-116081372D01*
X135548403Y-116081379D01*
X135598645Y-116216086D01*
X135598649Y-116216093D01*
X135684809Y-116331187D01*
X135684812Y-116331190D01*
X135799906Y-116417350D01*
X135799913Y-116417354D01*
X135934620Y-116467596D01*
X135934627Y-116467598D01*
X135994155Y-116473999D01*
X135994172Y-116474000D01*
X136642000Y-116474000D01*
X136642000Y-115557012D01*
X136699007Y-115589925D01*
X136826174Y-115624000D01*
X136957826Y-115624000D01*
X137084993Y-115589925D01*
X137142000Y-115557012D01*
X137142000Y-116474000D01*
X137789828Y-116474000D01*
X137789844Y-116473999D01*
X137849372Y-116467598D01*
X137849379Y-116467596D01*
X137984086Y-116417354D01*
X137984093Y-116417350D01*
X138099187Y-116331190D01*
X138099190Y-116331187D01*
X138185350Y-116216093D01*
X138185354Y-116216086D01*
X138235596Y-116081379D01*
X138235598Y-116081372D01*
X138241999Y-116021844D01*
X138242000Y-116021827D01*
X138242000Y-115374000D01*
X137325012Y-115374000D01*
X137357925Y-115316993D01*
X137392000Y-115189826D01*
X137392000Y-115058174D01*
X137357925Y-114931007D01*
X137325012Y-114874000D01*
X138242000Y-114874000D01*
X138242000Y-114226166D01*
X138241999Y-114226155D01*
X138235598Y-114166627D01*
X138235596Y-114166620D01*
X138185354Y-114031913D01*
X138185350Y-114031906D01*
X138099190Y-113916812D01*
X138099187Y-113916809D01*
X137984093Y-113830649D01*
X137984088Y-113830646D01*
X137852528Y-113781577D01*
X137852526Y-113781576D01*
X137852525Y-113781576D01*
X137812675Y-113751742D01*
X137796595Y-113739705D01*
X137796593Y-113739703D01*
X137781599Y-113699500D01*
X137772178Y-113674241D01*
X137772178Y-113674238D01*
X137781871Y-113629682D01*
X137787030Y-113605968D01*
X137787030Y-113605967D01*
X137787031Y-113605965D01*
X137808177Y-113577718D01*
X137827081Y-113558814D01*
X137888403Y-113525333D01*
X137914758Y-113522500D01*
X140866570Y-113522500D01*
X140933609Y-113542185D01*
X140979364Y-113594989D01*
X140989308Y-113664147D01*
X140960283Y-113727703D01*
X140909903Y-113762682D01*
X140893913Y-113768645D01*
X140893906Y-113768649D01*
X140778812Y-113854809D01*
X140778809Y-113854812D01*
X140692649Y-113969906D01*
X140692645Y-113969913D01*
X140642403Y-114104620D01*
X140642401Y-114104627D01*
X140636000Y-114164155D01*
X140636000Y-114812000D01*
X141552988Y-114812000D01*
X141520075Y-114869007D01*
X141486000Y-114996174D01*
X141486000Y-115127826D01*
X141520075Y-115254993D01*
X141552988Y-115312000D01*
X140636000Y-115312000D01*
X140636000Y-115959844D01*
X140642401Y-116019372D01*
X140642403Y-116019379D01*
X140692645Y-116154086D01*
X140692649Y-116154093D01*
X140778809Y-116269187D01*
X140778812Y-116269190D01*
X140893906Y-116355350D01*
X140893913Y-116355354D01*
X141028620Y-116405596D01*
X141028627Y-116405598D01*
X141088155Y-116411999D01*
X141088172Y-116412000D01*
X141736000Y-116412000D01*
X141736000Y-115495012D01*
X141793007Y-115527925D01*
X141920174Y-115562000D01*
X142051826Y-115562000D01*
X142178993Y-115527925D01*
X142236000Y-115495012D01*
X142236000Y-116412000D01*
X142883828Y-116412000D01*
X142883844Y-116411999D01*
X142943372Y-116405598D01*
X142943379Y-116405596D01*
X143078086Y-116355354D01*
X143078093Y-116355350D01*
X143193187Y-116269190D01*
X143193190Y-116269187D01*
X143279350Y-116154093D01*
X143279354Y-116154086D01*
X143329596Y-116019379D01*
X143329598Y-116019372D01*
X143335999Y-115959844D01*
X143336000Y-115959827D01*
X143336000Y-115312000D01*
X142419012Y-115312000D01*
X142451925Y-115254993D01*
X142486000Y-115127826D01*
X142486000Y-114996174D01*
X142451925Y-114869007D01*
X142419012Y-114812000D01*
X143336000Y-114812000D01*
X143336000Y-114164172D01*
X143335999Y-114164155D01*
X143329598Y-114104627D01*
X143329596Y-114104620D01*
X143279354Y-113969913D01*
X143279350Y-113969906D01*
X143193190Y-113854812D01*
X143193187Y-113854809D01*
X143078093Y-113768649D01*
X143078088Y-113768646D01*
X142946528Y-113719577D01*
X142946526Y-113719576D01*
X142946525Y-113719576D01*
X142906675Y-113689742D01*
X142890595Y-113677705D01*
X142890593Y-113677703D01*
X142877690Y-113643107D01*
X142866178Y-113612241D01*
X142866178Y-113612238D01*
X142881031Y-113543965D01*
X142902177Y-113515718D01*
X142921081Y-113496814D01*
X142982403Y-113463333D01*
X143008758Y-113460500D01*
X144163500Y-113460500D01*
X144230539Y-113480185D01*
X144276294Y-113532989D01*
X144287500Y-113584500D01*
X144287500Y-121049500D01*
X144267815Y-121116539D01*
X144215011Y-121162294D01*
X144163500Y-121173500D01*
X143157455Y-121173500D01*
X143060812Y-121192724D01*
X142964167Y-121211947D01*
X142964161Y-121211949D01*
X142910834Y-121234037D01*
X142910834Y-121234038D01*
X142865315Y-121252892D01*
X142782089Y-121287366D01*
X142782079Y-121287371D01*
X142618219Y-121396859D01*
X142550539Y-121464540D01*
X142478861Y-121536218D01*
X142478858Y-121536221D01*
X137543899Y-126471181D01*
X137482576Y-126504666D01*
X137456218Y-126507500D01*
X131938500Y-126507500D01*
X131871461Y-126487815D01*
X131825706Y-126435011D01*
X131814500Y-126383500D01*
X131814500Y-125455024D01*
X131815043Y-125453173D01*
X131814556Y-125451309D01*
X131824844Y-125419794D01*
X131834185Y-125387985D01*
X131835831Y-125386141D01*
X131836240Y-125384890D01*
X131844850Y-125376042D01*
X131860141Y-125358921D01*
X131862819Y-125356737D01*
X131976365Y-125274242D01*
X132030988Y-125219618D01*
X132035857Y-125215649D01*
X132062490Y-125204437D01*
X132087857Y-125190586D01*
X132094301Y-125191046D01*
X132100254Y-125188541D01*
X132128722Y-125193508D01*
X132157548Y-125195570D01*
X132162718Y-125199440D01*
X132169083Y-125200551D01*
X132190350Y-125220125D01*
X132213482Y-125237441D01*
X132217844Y-125245430D01*
X132220493Y-125247868D01*
X132221702Y-125252494D01*
X132230398Y-125268419D01*
X132260202Y-125348328D01*
X132260206Y-125348335D01*
X132346452Y-125463544D01*
X132346455Y-125463547D01*
X132461664Y-125549793D01*
X132461671Y-125549797D01*
X132596517Y-125600091D01*
X132596516Y-125600091D01*
X132603444Y-125600835D01*
X132656127Y-125606500D01*
X134551872Y-125606499D01*
X134611483Y-125600091D01*
X134746331Y-125549796D01*
X134861546Y-125463546D01*
X134947796Y-125348331D01*
X134998091Y-125213483D01*
X135000888Y-125187466D01*
X135027625Y-125122918D01*
X135085018Y-125083070D01*
X135154843Y-125080576D01*
X135211858Y-125113043D01*
X135296786Y-125197971D01*
X135417226Y-125285474D01*
X135462390Y-125318287D01*
X135537560Y-125356588D01*
X135644776Y-125411218D01*
X135644778Y-125411218D01*
X135644781Y-125411220D01*
X135749137Y-125445127D01*
X135839465Y-125474477D01*
X135938129Y-125490104D01*
X136041648Y-125506500D01*
X136041649Y-125506500D01*
X136246351Y-125506500D01*
X136246352Y-125506500D01*
X136448534Y-125474477D01*
X136643219Y-125411220D01*
X136825610Y-125318287D01*
X136936886Y-125237441D01*
X136991213Y-125197971D01*
X136991215Y-125197968D01*
X136991219Y-125197966D01*
X137135966Y-125053219D01*
X137135968Y-125053215D01*
X137135971Y-125053213D01*
X137190316Y-124978412D01*
X137256287Y-124887610D01*
X137349220Y-124705219D01*
X137412477Y-124510534D01*
X137444500Y-124308352D01*
X137444500Y-124103648D01*
X137412477Y-123901465D01*
X137363972Y-123752184D01*
X137349220Y-123706781D01*
X137349218Y-123706778D01*
X137349218Y-123706776D01*
X137315503Y-123640607D01*
X137256287Y-123524390D01*
X137218205Y-123471974D01*
X137135971Y-123358786D01*
X136991213Y-123214028D01*
X136825613Y-123093715D01*
X136825612Y-123093714D01*
X136825610Y-123093713D01*
X136760677Y-123060628D01*
X136643223Y-123000781D01*
X136448534Y-122937522D01*
X136262799Y-122908105D01*
X136246352Y-122905500D01*
X136041648Y-122905500D01*
X136025201Y-122908105D01*
X135839465Y-122937522D01*
X135644776Y-123000781D01*
X135462386Y-123093715D01*
X135296788Y-123214027D01*
X135211858Y-123298957D01*
X135150534Y-123332441D01*
X135080843Y-123327457D01*
X135024909Y-123285585D01*
X135000887Y-123224527D01*
X134998091Y-123198516D01*
X134947797Y-123063671D01*
X134947793Y-123063664D01*
X134861547Y-122948455D01*
X134861544Y-122948452D01*
X134746335Y-122862206D01*
X134746328Y-122862202D01*
X134611482Y-122811908D01*
X134611483Y-122811908D01*
X134551883Y-122805501D01*
X134551881Y-122805500D01*
X134551873Y-122805500D01*
X134551864Y-122805500D01*
X132656129Y-122805500D01*
X132656123Y-122805501D01*
X132596516Y-122811908D01*
X132461671Y-122862202D01*
X132461664Y-122862206D01*
X132346455Y-122948452D01*
X132346452Y-122948455D01*
X132260206Y-123063664D01*
X132260203Y-123063669D01*
X132230398Y-123143581D01*
X132188526Y-123199514D01*
X132123062Y-123223931D01*
X132054789Y-123209079D01*
X132026535Y-123187928D01*
X131976363Y-123137756D01*
X131976358Y-123137752D01*
X131798025Y-123008187D01*
X131798024Y-123008186D01*
X131798022Y-123008185D01*
X131735096Y-122976122D01*
X131601606Y-122908104D01*
X131601603Y-122908103D01*
X131391952Y-122839985D01*
X131252405Y-122817883D01*
X131174222Y-122805500D01*
X130953778Y-122805500D01*
X130881201Y-122816995D01*
X130736047Y-122839985D01*
X130526396Y-122908103D01*
X130526393Y-122908104D01*
X130329974Y-123008187D01*
X130151641Y-123137752D01*
X130151636Y-123137756D01*
X129995756Y-123293636D01*
X129995752Y-123293641D01*
X129866187Y-123471974D01*
X129766104Y-123668393D01*
X129766103Y-123668396D01*
X129697985Y-123878047D01*
X129687922Y-123941585D01*
X129663500Y-124095778D01*
X129663500Y-124316222D01*
X129669438Y-124353713D01*
X129697985Y-124533952D01*
X129766103Y-124743603D01*
X129766104Y-124743606D01*
X129817712Y-124844890D01*
X129862057Y-124931921D01*
X129866187Y-124940025D01*
X129995752Y-125118358D01*
X129995756Y-125118363D01*
X130151638Y-125274245D01*
X130211669Y-125317859D01*
X130253610Y-125348331D01*
X130262384Y-125354705D01*
X130305051Y-125410035D01*
X130313500Y-125455024D01*
X130313500Y-126059218D01*
X130293815Y-126126257D01*
X130241011Y-126172012D01*
X130171853Y-126181956D01*
X130108297Y-126152931D01*
X130101819Y-126146899D01*
X128386423Y-124431503D01*
X128352938Y-124370180D01*
X128350657Y-124354708D01*
X128350500Y-124353716D01*
X128350500Y-124353713D01*
X128317246Y-124143757D01*
X128251557Y-123941588D01*
X128155051Y-123752184D01*
X128155049Y-123752181D01*
X128155048Y-123752179D01*
X128030109Y-123580213D01*
X127916569Y-123466673D01*
X127883084Y-123405350D01*
X127888068Y-123335658D01*
X127929940Y-123279725D01*
X127960915Y-123262810D01*
X128092331Y-123213796D01*
X128207546Y-123127546D01*
X128293796Y-123012331D01*
X128344091Y-122877483D01*
X128350500Y-122817873D01*
X128350499Y-121022128D01*
X128344091Y-120962517D01*
X128343019Y-120959644D01*
X128293797Y-120827671D01*
X128293793Y-120827664D01*
X128207547Y-120712455D01*
X128207544Y-120712452D01*
X128092335Y-120626206D01*
X128092332Y-120626205D01*
X128092331Y-120626204D01*
X128081161Y-120622038D01*
X128025231Y-120580166D01*
X128000816Y-120514701D01*
X128000500Y-120505858D01*
X128000500Y-117627930D01*
X128020185Y-117560891D01*
X128062500Y-117520543D01*
X128113803Y-117490924D01*
X128321851Y-117331282D01*
X128321855Y-117331277D01*
X128321860Y-117331274D01*
X128507274Y-117145860D01*
X128507277Y-117145855D01*
X128507282Y-117145851D01*
X128666924Y-116937803D01*
X128798043Y-116710697D01*
X128898398Y-116468419D01*
X128966270Y-116215116D01*
X129000500Y-115955120D01*
X129000500Y-115692880D01*
X128966270Y-115432884D01*
X128898398Y-115179581D01*
X128898394Y-115179571D01*
X128798046Y-114937309D01*
X128798041Y-114937299D01*
X128666924Y-114710196D01*
X128507281Y-114502148D01*
X128507274Y-114502140D01*
X128321860Y-114316726D01*
X128321851Y-114316718D01*
X128113803Y-114157075D01*
X127886700Y-114025958D01*
X127886690Y-114025953D01*
X127644428Y-113925605D01*
X127644421Y-113925603D01*
X127644419Y-113925602D01*
X127391116Y-113857730D01*
X127333339Y-113850123D01*
X127131127Y-113823500D01*
X127131120Y-113823500D01*
X126868880Y-113823500D01*
X126868872Y-113823500D01*
X126637772Y-113853926D01*
X126608884Y-113857730D01*
X126388397Y-113916809D01*
X126355581Y-113925602D01*
X126355571Y-113925605D01*
X126113309Y-114025953D01*
X126113299Y-114025958D01*
X125886196Y-114157075D01*
X125678148Y-114316718D01*
X125492718Y-114502148D01*
X125333075Y-114710196D01*
X125201958Y-114937299D01*
X125201953Y-114937309D01*
X125101605Y-115179571D01*
X125101602Y-115179581D01*
X125033730Y-115432885D01*
X124999500Y-115692872D01*
X110500500Y-115692872D01*
X110500500Y-110733802D01*
X110500703Y-110726716D01*
X110507455Y-110608745D01*
X110516414Y-110452219D01*
X110518030Y-110438150D01*
X110530308Y-110367261D01*
X110564351Y-110170705D01*
X110567555Y-110156938D01*
X110644082Y-109896525D01*
X110648836Y-109883210D01*
X110754575Y-109633214D01*
X110760822Y-109620521D01*
X110894380Y-109384233D01*
X110902029Y-109372342D01*
X111030162Y-109196155D01*
X125000000Y-109196155D01*
X125000000Y-110494000D01*
X126280936Y-110494000D01*
X126269207Y-110522316D01*
X126240000Y-110669147D01*
X126240000Y-110818853D01*
X126269207Y-110965684D01*
X126280936Y-110994000D01*
X125000000Y-110994000D01*
X125000000Y-112291844D01*
X125006401Y-112351372D01*
X125006403Y-112351379D01*
X125056645Y-112486086D01*
X125056649Y-112486093D01*
X125142809Y-112601187D01*
X125142812Y-112601190D01*
X125257906Y-112687350D01*
X125257913Y-112687354D01*
X125392620Y-112737596D01*
X125392627Y-112737598D01*
X125452155Y-112743999D01*
X125452172Y-112744000D01*
X126750000Y-112744000D01*
X126750000Y-111463064D01*
X126778316Y-111474793D01*
X126925147Y-111504000D01*
X127074853Y-111504000D01*
X127221684Y-111474793D01*
X127250000Y-111463064D01*
X127250000Y-112744000D01*
X128547828Y-112744000D01*
X128547844Y-112743999D01*
X128607372Y-112737598D01*
X128607379Y-112737596D01*
X128742086Y-112687354D01*
X128742093Y-112687350D01*
X128857187Y-112601190D01*
X128857190Y-112601187D01*
X128943350Y-112486093D01*
X128943354Y-112486086D01*
X128993596Y-112351379D01*
X128993598Y-112351372D01*
X128999999Y-112291844D01*
X129000000Y-112291827D01*
X129000000Y-110994000D01*
X127719064Y-110994000D01*
X127730793Y-110965684D01*
X127760000Y-110818853D01*
X127760000Y-110669147D01*
X127730793Y-110522316D01*
X127719064Y-110494000D01*
X129000000Y-110494000D01*
X129000000Y-109196172D01*
X128999999Y-109196155D01*
X128993598Y-109136627D01*
X128993596Y-109136620D01*
X128943354Y-109001913D01*
X128943350Y-109001906D01*
X128857190Y-108886812D01*
X128857187Y-108886809D01*
X128742093Y-108800649D01*
X128742086Y-108800645D01*
X128607379Y-108750403D01*
X128607372Y-108750401D01*
X128547844Y-108744000D01*
X127250000Y-108744000D01*
X127250000Y-110024935D01*
X127221684Y-110013207D01*
X127074853Y-109984000D01*
X126925147Y-109984000D01*
X126778316Y-110013207D01*
X126750000Y-110024935D01*
X126750000Y-108744000D01*
X125452155Y-108744000D01*
X125392627Y-108750401D01*
X125392620Y-108750403D01*
X125257913Y-108800645D01*
X125257906Y-108800649D01*
X125142812Y-108886809D01*
X125142809Y-108886812D01*
X125056649Y-109001906D01*
X125056645Y-109001913D01*
X125006403Y-109136620D01*
X125006401Y-109136627D01*
X125000000Y-109196155D01*
X111030162Y-109196155D01*
X111061680Y-109152817D01*
X111070622Y-109141892D01*
X111254286Y-108942000D01*
X111264423Y-108932162D01*
X111469668Y-108754543D01*
X111480866Y-108745920D01*
X111705033Y-108592874D01*
X111717160Y-108585574D01*
X111957314Y-108459103D01*
X111970188Y-108453237D01*
X112223195Y-108354989D01*
X112236672Y-108350624D01*
X112499244Y-108281877D01*
X112513107Y-108279083D01*
X112786035Y-108240134D01*
X112793048Y-108239336D01*
X113171468Y-108207237D01*
X113932624Y-108104525D01*
X114687759Y-107964247D01*
X115435020Y-107786747D01*
X116172576Y-107572460D01*
X116898615Y-107321913D01*
X117611356Y-107035720D01*
X118309051Y-106714582D01*
X118355403Y-106690397D01*
X118989974Y-106359296D01*
X118989977Y-106359294D01*
X118989987Y-106359289D01*
X119652493Y-105970713D01*
X120294944Y-105549805D01*
X120915764Y-105097600D01*
X121513429Y-104615207D01*
X122061553Y-104126048D01*
X122086462Y-104103819D01*
X122086463Y-104103817D01*
X122086473Y-104103809D01*
X122633489Y-103564661D01*
X123153135Y-102999087D01*
X123644137Y-102408474D01*
X124105290Y-101794271D01*
X124535461Y-101157986D01*
X124933596Y-100501179D01*
X125298717Y-99825462D01*
X125629929Y-99132493D01*
X125629940Y-99132464D01*
X125629946Y-99132454D01*
X125926416Y-98423981D01*
X125926415Y-98423981D01*
X125926419Y-98423974D01*
X126187459Y-97701641D01*
X126199801Y-97661351D01*
X126321281Y-97264763D01*
X126412409Y-96967267D01*
X126562859Y-96372355D01*
X126600714Y-96222669D01*
X126600714Y-96222664D01*
X126600717Y-96222656D01*
X126751921Y-95469632D01*
X126865650Y-94710045D01*
X126941625Y-93945758D01*
X126979659Y-93178647D01*
X126979659Y-92410593D01*
X126944819Y-91707896D01*
X126941625Y-91643479D01*
X126920938Y-91435374D01*
X126865650Y-90879194D01*
X126751921Y-90119607D01*
X126675664Y-89739835D01*
X126600718Y-89366588D01*
X126600714Y-89366570D01*
X126424654Y-88670390D01*
X126412409Y-88621972D01*
X126353171Y-88428583D01*
X126187476Y-87887653D01*
X126187462Y-87887610D01*
X126187459Y-87887599D01*
X125926419Y-87165266D01*
X125889045Y-87075953D01*
X125629940Y-86456771D01*
X125629935Y-86456761D01*
X125629929Y-86456746D01*
X125298717Y-85763778D01*
X125298707Y-85763761D01*
X125298704Y-85763753D01*
X124933592Y-85088053D01*
X124727025Y-84747280D01*
X124535461Y-84431254D01*
X124443423Y-84295117D01*
X124158802Y-83874120D01*
X124105290Y-83794968D01*
X123644137Y-83180766D01*
X123633911Y-83168466D01*
X123153150Y-82590170D01*
X123153149Y-82590169D01*
X123153135Y-82590152D01*
X122633489Y-82024578D01*
X122254993Y-81651527D01*
X122086461Y-81485420D01*
X121513426Y-80974030D01*
X120915782Y-80491654D01*
X120915739Y-80491621D01*
X120294971Y-80039454D01*
X120294947Y-80039437D01*
X119652501Y-79618532D01*
X119652498Y-79618530D01*
X119652493Y-79618527D01*
X119132991Y-79313826D01*
X118989973Y-79229942D01*
X118309054Y-78874658D01*
X117611351Y-78553517D01*
X116898610Y-78267325D01*
X116418968Y-78101807D01*
X116172576Y-78016780D01*
X116172573Y-78016779D01*
X116172564Y-78016776D01*
X115435033Y-77802496D01*
X115435028Y-77802495D01*
X114687750Y-77624991D01*
X113932628Y-77484715D01*
X113932616Y-77484713D01*
X113171451Y-77382000D01*
X112862967Y-77355833D01*
X112854476Y-77355112D01*
X112854472Y-77355111D01*
X112819630Y-77352156D01*
X112792355Y-77349843D01*
X112792354Y-77349842D01*
X112785318Y-77349043D01*
X112513110Y-77310197D01*
X112499220Y-77307397D01*
X112236675Y-77238656D01*
X112223196Y-77234290D01*
X111970191Y-77136041D01*
X111957299Y-77130167D01*
X111717154Y-77003700D01*
X111705030Y-76996401D01*
X111480870Y-76843358D01*
X111469654Y-76834721D01*
X111313083Y-76699223D01*
X111264426Y-76657114D01*
X111254261Y-76647247D01*
X111070636Y-76447390D01*
X111061662Y-76436426D01*
X110964157Y-76302351D01*
X110902031Y-76216923D01*
X110894376Y-76205023D01*
X110760818Y-75968728D01*
X110754570Y-75956030D01*
X110648846Y-75706057D01*
X110644088Y-75692734D01*
X110567564Y-75432316D01*
X110564355Y-75418522D01*
X110557329Y-75377954D01*
X110518045Y-75151110D01*
X110516428Y-75137035D01*
X110513308Y-75082505D01*
X110500701Y-74862166D01*
X110500500Y-74855112D01*
X110500500Y-74855049D01*
X110500501Y-74793091D01*
X110500500Y-74793087D01*
X110500500Y-69258675D01*
X110520185Y-69191636D01*
X110536814Y-69170999D01*
X115738321Y-63969491D01*
X115799642Y-63936008D01*
X115869334Y-63940992D01*
X115925267Y-63982864D01*
X115949684Y-64048328D01*
X115950000Y-64057174D01*
X115950000Y-64058827D01*
X115983322Y-64354576D01*
X115983325Y-64354594D01*
X116049555Y-64644769D01*
X116049559Y-64644781D01*
X116147858Y-64925702D01*
X116147864Y-64925716D01*
X116277001Y-65193872D01*
X116435359Y-65445897D01*
X116435362Y-65445901D01*
X116557449Y-65598995D01*
X116822599Y-65333845D01*
X116883922Y-65300360D01*
X116953613Y-65305344D01*
X116997961Y-65333845D01*
X117176153Y-65512037D01*
X117209638Y-65573360D01*
X117204654Y-65643052D01*
X117176153Y-65687399D01*
X116911003Y-65952548D01*
X117064112Y-66074646D01*
X117316127Y-66232998D01*
X117584283Y-66362135D01*
X117584297Y-66362141D01*
X117865218Y-66460440D01*
X117865230Y-66460444D01*
X118155405Y-66526674D01*
X118155423Y-66526677D01*
X118451172Y-66559999D01*
X118451176Y-66560000D01*
X118748824Y-66560000D01*
X118748827Y-66559999D01*
X119044576Y-66526677D01*
X119044594Y-66526674D01*
X119334769Y-66460444D01*
X119334781Y-66460440D01*
X119615702Y-66362141D01*
X119615716Y-66362135D01*
X119883872Y-66232998D01*
X120135893Y-66074642D01*
X120288995Y-65952549D01*
X120044304Y-65707858D01*
X120010819Y-65646535D01*
X120015803Y-65576843D01*
X120044304Y-65532496D01*
X120222496Y-65354304D01*
X120283819Y-65320819D01*
X120353511Y-65325803D01*
X120397858Y-65354304D01*
X120642549Y-65598995D01*
X120764642Y-65445893D01*
X120922998Y-65193872D01*
X121052135Y-64925716D01*
X121052141Y-64925702D01*
X121150440Y-64644781D01*
X121150444Y-64644769D01*
X121216674Y-64354594D01*
X121216677Y-64354576D01*
X121249999Y-64058827D01*
X121250000Y-64058823D01*
X121250000Y-63905648D01*
X124175500Y-63905648D01*
X124175500Y-64110351D01*
X124207522Y-64312534D01*
X124270781Y-64507223D01*
X124326891Y-64617343D01*
X124355716Y-64673916D01*
X124363715Y-64689613D01*
X124484028Y-64855213D01*
X124628786Y-64999971D01*
X124794385Y-65120284D01*
X124794387Y-65120285D01*
X124794390Y-65120287D01*
X124832129Y-65139516D01*
X124837020Y-65142008D01*
X124887816Y-65189983D01*
X124904611Y-65257804D01*
X124883828Y-65321383D01*
X124850731Y-65370917D01*
X124810914Y-65430508D01*
X124754343Y-65567082D01*
X124754340Y-65567092D01*
X124725500Y-65712079D01*
X124725500Y-78122582D01*
X124705815Y-78189621D01*
X124674385Y-78222900D01*
X124628787Y-78256028D01*
X124628782Y-78256032D01*
X124484028Y-78400786D01*
X124363715Y-78566386D01*
X124270781Y-78748776D01*
X124207522Y-78943465D01*
X124175500Y-79145648D01*
X124175500Y-79350351D01*
X124207522Y-79552534D01*
X124270781Y-79747223D01*
X124363715Y-79929613D01*
X124484028Y-80095213D01*
X124628786Y-80239971D01*
X124783463Y-80352348D01*
X124794390Y-80360287D01*
X124910607Y-80419503D01*
X124976776Y-80453218D01*
X124976778Y-80453218D01*
X124976781Y-80453220D01*
X125081137Y-80487127D01*
X125171465Y-80516477D01*
X125272557Y-80532488D01*
X125373648Y-80548500D01*
X125373649Y-80548500D01*
X125578351Y-80548500D01*
X125578352Y-80548500D01*
X125780534Y-80516477D01*
X125975219Y-80453220D01*
X126157610Y-80360287D01*
X126260809Y-80285309D01*
X126323213Y-80239971D01*
X126323215Y-80239968D01*
X126323219Y-80239966D01*
X126467966Y-80095219D01*
X126467968Y-80095215D01*
X126467971Y-80095213D01*
X126588284Y-79929614D01*
X126588286Y-79929611D01*
X126588287Y-79929610D01*
X126635516Y-79836917D01*
X126683489Y-79786123D01*
X126751310Y-79769328D01*
X126817445Y-79791865D01*
X126856485Y-79836919D01*
X126903715Y-79929614D01*
X127024028Y-80095213D01*
X127168786Y-80239971D01*
X127323463Y-80352348D01*
X127334390Y-80360287D01*
X127450607Y-80419503D01*
X127516776Y-80453218D01*
X127516778Y-80453218D01*
X127516781Y-80453220D01*
X127621137Y-80487127D01*
X127711465Y-80516477D01*
X127812557Y-80532488D01*
X127913648Y-80548500D01*
X127913649Y-80548500D01*
X128118351Y-80548500D01*
X128118352Y-80548500D01*
X128320534Y-80516477D01*
X128320539Y-80516475D01*
X128320541Y-80516475D01*
X128354180Y-80505545D01*
X128424021Y-80503548D01*
X128483854Y-80539628D01*
X128514684Y-80602328D01*
X128516500Y-80623475D01*
X128516500Y-95050918D01*
X128516500Y-95050920D01*
X128516499Y-95050920D01*
X128545340Y-95195907D01*
X128545342Y-95195913D01*
X128601917Y-95332497D01*
X128601919Y-95332500D01*
X128606437Y-95339261D01*
X128606440Y-95339273D01*
X128606444Y-95339271D01*
X128684051Y-95455420D01*
X128684052Y-95455421D01*
X130227049Y-96998416D01*
X130331584Y-97102951D01*
X130331586Y-97102952D01*
X130331586Y-97102953D01*
X130454503Y-97185083D01*
X130454506Y-97185085D01*
X130504665Y-97205861D01*
X130511080Y-97208518D01*
X130591088Y-97241659D01*
X130707241Y-97264763D01*
X130730380Y-97269365D01*
X130736081Y-97270500D01*
X130736082Y-97270500D01*
X130736083Y-97270500D01*
X130883918Y-97270500D01*
X132479770Y-97270500D01*
X132546809Y-97290185D01*
X132567451Y-97306819D01*
X133056440Y-97795808D01*
X133089925Y-97857131D01*
X133084941Y-97926823D01*
X133043069Y-97982756D01*
X133041644Y-97983807D01*
X132978211Y-98029893D01*
X132864285Y-98143819D01*
X132802962Y-98177303D01*
X132733270Y-98172319D01*
X132677337Y-98130447D01*
X132660422Y-98099470D01*
X132611354Y-97967913D01*
X132611350Y-97967906D01*
X132525190Y-97852812D01*
X132525187Y-97852809D01*
X132410093Y-97766649D01*
X132410086Y-97766645D01*
X132275379Y-97716403D01*
X132275372Y-97716401D01*
X132215844Y-97710000D01*
X131568000Y-97710000D01*
X131568000Y-98626988D01*
X131510993Y-98594075D01*
X131383826Y-98560000D01*
X131252174Y-98560000D01*
X131125007Y-98594075D01*
X131068000Y-98626988D01*
X131068000Y-97710000D01*
X130420155Y-97710000D01*
X130360627Y-97716401D01*
X130360620Y-97716403D01*
X130225913Y-97766645D01*
X130225906Y-97766649D01*
X130110812Y-97852809D01*
X130110809Y-97852812D01*
X130024649Y-97967906D01*
X130024645Y-97967913D01*
X129974403Y-98102620D01*
X129974401Y-98102627D01*
X129968000Y-98162155D01*
X129968000Y-98810000D01*
X130884988Y-98810000D01*
X130852075Y-98867007D01*
X130818000Y-98994174D01*
X130818000Y-99125826D01*
X130852075Y-99252993D01*
X130884988Y-99310000D01*
X129968000Y-99310000D01*
X129968000Y-99957844D01*
X129974401Y-100017372D01*
X129974403Y-100017379D01*
X130024645Y-100152086D01*
X130024649Y-100152093D01*
X130110809Y-100267187D01*
X130110812Y-100267190D01*
X130225906Y-100353350D01*
X130225913Y-100353354D01*
X130360620Y-100403596D01*
X130360627Y-100403598D01*
X130420155Y-100409999D01*
X130420172Y-100410000D01*
X131068000Y-100410000D01*
X131068000Y-99493012D01*
X131125007Y-99525925D01*
X131252174Y-99560000D01*
X131383826Y-99560000D01*
X131510993Y-99525925D01*
X131568000Y-99493012D01*
X131568000Y-100410000D01*
X132215828Y-100410000D01*
X132215844Y-100409999D01*
X132275372Y-100403598D01*
X132275379Y-100403596D01*
X132410086Y-100353354D01*
X132410093Y-100353350D01*
X132525187Y-100267190D01*
X132525190Y-100267187D01*
X132611350Y-100152093D01*
X132611354Y-100152086D01*
X132660422Y-100020529D01*
X132702293Y-99964595D01*
X132767757Y-99940178D01*
X132836030Y-99955030D01*
X132864285Y-99976181D01*
X132978213Y-100090109D01*
X133150179Y-100215048D01*
X133150181Y-100215049D01*
X133150184Y-100215051D01*
X133339588Y-100311557D01*
X133541757Y-100377246D01*
X133751713Y-100410500D01*
X133751714Y-100410500D01*
X133964286Y-100410500D01*
X133964287Y-100410500D01*
X134174243Y-100377246D01*
X134376412Y-100311557D01*
X134565816Y-100215051D01*
X134652471Y-100152093D01*
X134737786Y-100090109D01*
X134737788Y-100090106D01*
X134737792Y-100090104D01*
X134888104Y-99939792D01*
X134888106Y-99939788D01*
X134888109Y-99939786D01*
X135013048Y-99767820D01*
X135013047Y-99767820D01*
X135013051Y-99767816D01*
X135109557Y-99578412D01*
X135175246Y-99376243D01*
X135208500Y-99166287D01*
X135208500Y-98953713D01*
X135175246Y-98743757D01*
X135109557Y-98541588D01*
X135013051Y-98352184D01*
X135013049Y-98352181D01*
X135013048Y-98352179D01*
X134888109Y-98180213D01*
X134737794Y-98029898D01*
X134737788Y-98029893D01*
X134659615Y-97973097D01*
X134616949Y-97917767D01*
X134608500Y-97872779D01*
X134608500Y-97462079D01*
X134579659Y-97317092D01*
X134579658Y-97317091D01*
X134579658Y-97317087D01*
X134523084Y-97180505D01*
X134471265Y-97102952D01*
X134456108Y-97080268D01*
X134440954Y-97057586D01*
X134440952Y-97057584D01*
X133320421Y-95937052D01*
X133320414Y-95937046D01*
X133246729Y-95887812D01*
X133246729Y-95887813D01*
X133197491Y-95854913D01*
X133060917Y-95798343D01*
X133060907Y-95798340D01*
X132915920Y-95769500D01*
X132915918Y-95769500D01*
X131172229Y-95769500D01*
X131105190Y-95749815D01*
X131084548Y-95733181D01*
X130053819Y-94702451D01*
X130020334Y-94641128D01*
X130017500Y-94614770D01*
X130017500Y-94123058D01*
X130037185Y-94056019D01*
X130089989Y-94010264D01*
X130159147Y-94000320D01*
X130215815Y-94023794D01*
X130225913Y-94031354D01*
X130360620Y-94081596D01*
X130360627Y-94081598D01*
X130420155Y-94087999D01*
X130420172Y-94088000D01*
X131068000Y-94088000D01*
X131068000Y-93171012D01*
X131125007Y-93203925D01*
X131252174Y-93238000D01*
X131383826Y-93238000D01*
X131510993Y-93203925D01*
X131568000Y-93171012D01*
X131568000Y-94088000D01*
X132215828Y-94088000D01*
X132215844Y-94087999D01*
X132275372Y-94081598D01*
X132275379Y-94081596D01*
X132410086Y-94031354D01*
X132410093Y-94031350D01*
X132525187Y-93945190D01*
X132525190Y-93945187D01*
X132611350Y-93830093D01*
X132611354Y-93830086D01*
X132660422Y-93698529D01*
X132702293Y-93642595D01*
X132767757Y-93618178D01*
X132836030Y-93633030D01*
X132864285Y-93654181D01*
X132978213Y-93768109D01*
X133150179Y-93893048D01*
X133150181Y-93893049D01*
X133150184Y-93893051D01*
X133339588Y-93989557D01*
X133541757Y-94055246D01*
X133751713Y-94088500D01*
X133751714Y-94088500D01*
X133964286Y-94088500D01*
X133964287Y-94088500D01*
X134174243Y-94055246D01*
X134376412Y-93989557D01*
X134565816Y-93893051D01*
X134652471Y-93830093D01*
X134737786Y-93768109D01*
X134737788Y-93768106D01*
X134737792Y-93768104D01*
X134888104Y-93617792D01*
X134888106Y-93617788D01*
X134888109Y-93617786D01*
X135013048Y-93445820D01*
X135013047Y-93445820D01*
X135013051Y-93445816D01*
X135109557Y-93256412D01*
X135175246Y-93054243D01*
X135208500Y-92844287D01*
X135208500Y-92631713D01*
X135208500Y-92631712D01*
X135193747Y-92538563D01*
X135191025Y-92521377D01*
X138849500Y-92521377D01*
X138849500Y-93067858D01*
X138888485Y-93612941D01*
X138966257Y-94153861D01*
X139082416Y-94687835D01*
X139082419Y-94687845D01*
X139178504Y-95015079D01*
X139236379Y-95212183D01*
X139236383Y-95212193D01*
X139427355Y-95724211D01*
X139427357Y-95724214D01*
X139654361Y-96221285D01*
X139654365Y-96221292D01*
X139916262Y-96700921D01*
X140211709Y-97160648D01*
X140539210Y-97598137D01*
X140745624Y-97836351D01*
X140897071Y-98011130D01*
X140897080Y-98011139D01*
X140897092Y-98011152D01*
X141283465Y-98397525D01*
X141283478Y-98397537D01*
X141283488Y-98397547D01*
X141313995Y-98423981D01*
X141696480Y-98755407D01*
X142133969Y-99082908D01*
X142263710Y-99166287D01*
X142593690Y-99378352D01*
X142926354Y-99560000D01*
X143073325Y-99640252D01*
X143073332Y-99640256D01*
X143570403Y-99867260D01*
X143570406Y-99867262D01*
X143570413Y-99867264D01*
X143570414Y-99867265D01*
X144082435Y-100058239D01*
X144606772Y-100212198D01*
X144606782Y-100212201D01*
X145140756Y-100328360D01*
X145140763Y-100328361D01*
X145681677Y-100406133D01*
X146226762Y-100445118D01*
X146773238Y-100445118D01*
X147318323Y-100406133D01*
X147859237Y-100328361D01*
X147859238Y-100328360D01*
X147859243Y-100328360D01*
X148393217Y-100212201D01*
X148393220Y-100212200D01*
X148393225Y-100212199D01*
X148917565Y-100058239D01*
X149429586Y-99867265D01*
X149655537Y-99764076D01*
X149926667Y-99640256D01*
X149926671Y-99640253D01*
X149926679Y-99640250D01*
X150406310Y-99378352D01*
X150866035Y-99082905D01*
X151303512Y-98755413D01*
X151716512Y-98397547D01*
X152102929Y-98011130D01*
X152460795Y-97598130D01*
X152788287Y-97160653D01*
X153083734Y-96700928D01*
X153345632Y-96221297D01*
X153345635Y-96221289D01*
X153345638Y-96221285D01*
X153512954Y-95854913D01*
X153572647Y-95724204D01*
X153763621Y-95212183D01*
X153917581Y-94687843D01*
X153933477Y-94614770D01*
X154033742Y-94153861D01*
X154038171Y-94123058D01*
X154111515Y-93612941D01*
X154150500Y-93067856D01*
X154150500Y-92521380D01*
X154111515Y-91976295D01*
X154033743Y-91435381D01*
X154033742Y-91435374D01*
X153917583Y-90901400D01*
X153917580Y-90901390D01*
X153763621Y-90377053D01*
X153572647Y-89865032D01*
X153572646Y-89865031D01*
X153572644Y-89865024D01*
X153572642Y-89865021D01*
X153345638Y-89367950D01*
X153345634Y-89367943D01*
X153344884Y-89366570D01*
X153083734Y-88888308D01*
X152788287Y-88428583D01*
X152460795Y-87991106D01*
X152460794Y-87991105D01*
X152460789Y-87991098D01*
X152217215Y-87709999D01*
X152102929Y-87578106D01*
X152102919Y-87578096D01*
X152102907Y-87578083D01*
X151716534Y-87191710D01*
X151716521Y-87191698D01*
X151716512Y-87191689D01*
X151512774Y-87015149D01*
X151303519Y-86833828D01*
X150866030Y-86506327D01*
X150495327Y-86268092D01*
X150406310Y-86210884D01*
X150406303Y-86210880D01*
X149926674Y-85948983D01*
X149926667Y-85948979D01*
X149429596Y-85721975D01*
X149429593Y-85721973D01*
X149074594Y-85589565D01*
X148917565Y-85530997D01*
X148917548Y-85530992D01*
X148393227Y-85377037D01*
X148393217Y-85377034D01*
X147859243Y-85260875D01*
X147318323Y-85183103D01*
X146773240Y-85144118D01*
X146773238Y-85144118D01*
X146226762Y-85144118D01*
X146226759Y-85144118D01*
X145681676Y-85183103D01*
X145140756Y-85260875D01*
X144606782Y-85377034D01*
X144606772Y-85377037D01*
X144082451Y-85530992D01*
X144082443Y-85530994D01*
X144082435Y-85530997D01*
X144082426Y-85531000D01*
X144082424Y-85531001D01*
X143570406Y-85721973D01*
X143570403Y-85721975D01*
X143073332Y-85948979D01*
X143073325Y-85948983D01*
X142593696Y-86210880D01*
X142133969Y-86506327D01*
X141696480Y-86833828D01*
X141283491Y-87191686D01*
X141283465Y-87191710D01*
X140897092Y-87578083D01*
X140897068Y-87578109D01*
X140539210Y-87991098D01*
X140211709Y-88428587D01*
X139916262Y-88888314D01*
X139654365Y-89367943D01*
X139654361Y-89367950D01*
X139427357Y-89865021D01*
X139427355Y-89865024D01*
X139236383Y-90377042D01*
X139236374Y-90377069D01*
X139082419Y-90901390D01*
X139082416Y-90901400D01*
X138966257Y-91435374D01*
X138888485Y-91976294D01*
X138849500Y-92521377D01*
X135191025Y-92521377D01*
X135183306Y-92472645D01*
X135175246Y-92421757D01*
X135109557Y-92219588D01*
X135013051Y-92030184D01*
X135013049Y-92030181D01*
X135013048Y-92030179D01*
X134888109Y-91858213D01*
X134737786Y-91707890D01*
X134565820Y-91582951D01*
X134376414Y-91486444D01*
X134376413Y-91486443D01*
X134376412Y-91486443D01*
X134174243Y-91420754D01*
X134174241Y-91420753D01*
X134174240Y-91420753D01*
X134012957Y-91395208D01*
X133964287Y-91387500D01*
X133751713Y-91387500D01*
X133703042Y-91395208D01*
X133541760Y-91420753D01*
X133339585Y-91486444D01*
X133150179Y-91582951D01*
X132978215Y-91707889D01*
X132864285Y-91821819D01*
X132802962Y-91855303D01*
X132733270Y-91850319D01*
X132677337Y-91808447D01*
X132660422Y-91777470D01*
X132611354Y-91645913D01*
X132611350Y-91645906D01*
X132525190Y-91530812D01*
X132525187Y-91530809D01*
X132410093Y-91444649D01*
X132410086Y-91444645D01*
X132275379Y-91394403D01*
X132275372Y-91394401D01*
X132215844Y-91388000D01*
X131568000Y-91388000D01*
X131568000Y-92304988D01*
X131510993Y-92272075D01*
X131383826Y-92238000D01*
X131252174Y-92238000D01*
X131125007Y-92272075D01*
X131068000Y-92304988D01*
X131068000Y-91388000D01*
X130420155Y-91388000D01*
X130360627Y-91394401D01*
X130360620Y-91394403D01*
X130225913Y-91444645D01*
X130225906Y-91444649D01*
X130215811Y-91452207D01*
X130150347Y-91476625D01*
X130082074Y-91461774D01*
X130032668Y-91412369D01*
X130017500Y-91352941D01*
X130017500Y-87745058D01*
X130037185Y-87678019D01*
X130089989Y-87632264D01*
X130159147Y-87622320D01*
X130215815Y-87645794D01*
X130225913Y-87653354D01*
X130360620Y-87703596D01*
X130360627Y-87703598D01*
X130420155Y-87709999D01*
X130420172Y-87710000D01*
X131068000Y-87710000D01*
X131068000Y-86793012D01*
X131125007Y-86825925D01*
X131252174Y-86860000D01*
X131383826Y-86860000D01*
X131510993Y-86825925D01*
X131568000Y-86793012D01*
X131568000Y-87710000D01*
X132215828Y-87710000D01*
X132215844Y-87709999D01*
X132275372Y-87703598D01*
X132275379Y-87703596D01*
X132410086Y-87653354D01*
X132410093Y-87653350D01*
X132525187Y-87567190D01*
X132525190Y-87567187D01*
X132611350Y-87452093D01*
X132611354Y-87452086D01*
X132660422Y-87320529D01*
X132702293Y-87264595D01*
X132767757Y-87240178D01*
X132836030Y-87255030D01*
X132864285Y-87276181D01*
X132978213Y-87390109D01*
X133150179Y-87515048D01*
X133150181Y-87515049D01*
X133150184Y-87515051D01*
X133339588Y-87611557D01*
X133541757Y-87677246D01*
X133751713Y-87710500D01*
X133751714Y-87710500D01*
X133964286Y-87710500D01*
X133964287Y-87710500D01*
X134174243Y-87677246D01*
X134376412Y-87611557D01*
X134565816Y-87515051D01*
X134652471Y-87452093D01*
X134737786Y-87390109D01*
X134737788Y-87390106D01*
X134737792Y-87390104D01*
X134888104Y-87239792D01*
X134888106Y-87239788D01*
X134888109Y-87239786D01*
X135013048Y-87067820D01*
X135013047Y-87067820D01*
X135013051Y-87067816D01*
X135109557Y-86878412D01*
X135175246Y-86676243D01*
X135208500Y-86466287D01*
X135208500Y-86253713D01*
X135175246Y-86043757D01*
X135109557Y-85841588D01*
X135013051Y-85652184D01*
X135013049Y-85652181D01*
X135013048Y-85652179D01*
X134888109Y-85480213D01*
X134737794Y-85329898D01*
X134737788Y-85329893D01*
X134659615Y-85273097D01*
X134616949Y-85217767D01*
X134608500Y-85172779D01*
X134608500Y-80352348D01*
X134628185Y-80285309D01*
X134680989Y-80239554D01*
X134750147Y-80229610D01*
X134805385Y-80252030D01*
X134933824Y-80345345D01*
X134954390Y-80360287D01*
X135070607Y-80419503D01*
X135136776Y-80453218D01*
X135136778Y-80453218D01*
X135136781Y-80453220D01*
X135241137Y-80487127D01*
X135331465Y-80516477D01*
X135432557Y-80532488D01*
X135533648Y-80548500D01*
X135533649Y-80548500D01*
X135738351Y-80548500D01*
X135738352Y-80548500D01*
X135940534Y-80516477D01*
X136135219Y-80453220D01*
X136317610Y-80360287D01*
X136420809Y-80285309D01*
X136483213Y-80239971D01*
X136483215Y-80239968D01*
X136483219Y-80239966D01*
X136627966Y-80095219D01*
X136627968Y-80095215D01*
X136627971Y-80095213D01*
X136748284Y-79929614D01*
X136748286Y-79929611D01*
X136748287Y-79929610D01*
X136795516Y-79836917D01*
X136843489Y-79786123D01*
X136911310Y-79769328D01*
X136977445Y-79791865D01*
X137016485Y-79836919D01*
X137063715Y-79929614D01*
X137184028Y-80095213D01*
X137328786Y-80239971D01*
X137483463Y-80352348D01*
X137494390Y-80360287D01*
X137610607Y-80419503D01*
X137676776Y-80453218D01*
X137676778Y-80453218D01*
X137676781Y-80453220D01*
X137781137Y-80487127D01*
X137871465Y-80516477D01*
X137972557Y-80532488D01*
X138073648Y-80548500D01*
X138073649Y-80548500D01*
X138278351Y-80548500D01*
X138278352Y-80548500D01*
X138480534Y-80516477D01*
X138675219Y-80453220D01*
X138857610Y-80360287D01*
X138960809Y-80285309D01*
X139023213Y-80239971D01*
X139023215Y-80239968D01*
X139023219Y-80239966D01*
X139167966Y-80095219D01*
X139167968Y-80095215D01*
X139167971Y-80095213D01*
X139288284Y-79929614D01*
X139288286Y-79929611D01*
X139288287Y-79929610D01*
X139335516Y-79836917D01*
X139383489Y-79786123D01*
X139451310Y-79769328D01*
X139517445Y-79791865D01*
X139556485Y-79836919D01*
X139603715Y-79929614D01*
X139724028Y-80095213D01*
X139868786Y-80239971D01*
X140023463Y-80352348D01*
X140034390Y-80360287D01*
X140150607Y-80419503D01*
X140216776Y-80453218D01*
X140216778Y-80453218D01*
X140216781Y-80453220D01*
X140321137Y-80487127D01*
X140411465Y-80516477D01*
X140512557Y-80532488D01*
X140613648Y-80548500D01*
X140613649Y-80548500D01*
X140818351Y-80548500D01*
X140818352Y-80548500D01*
X141020534Y-80516477D01*
X141215219Y-80453220D01*
X141397610Y-80360287D01*
X141500809Y-80285309D01*
X141563213Y-80239971D01*
X141563215Y-80239968D01*
X141563219Y-80239966D01*
X141707966Y-80095219D01*
X141707968Y-80095215D01*
X141707971Y-80095213D01*
X141828284Y-79929614D01*
X141828286Y-79929611D01*
X141828287Y-79929610D01*
X141875516Y-79836917D01*
X141923489Y-79786123D01*
X141991310Y-79769328D01*
X142057445Y-79791865D01*
X142096485Y-79836919D01*
X142143715Y-79929614D01*
X142264028Y-80095213D01*
X142408786Y-80239971D01*
X142563463Y-80352348D01*
X142574390Y-80360287D01*
X142690607Y-80419503D01*
X142756776Y-80453218D01*
X142756778Y-80453218D01*
X142756781Y-80453220D01*
X142861137Y-80487127D01*
X142951465Y-80516477D01*
X143052557Y-80532488D01*
X143153648Y-80548500D01*
X143153649Y-80548500D01*
X143358351Y-80548500D01*
X143358352Y-80548500D01*
X143560534Y-80516477D01*
X143755219Y-80453220D01*
X143937610Y-80360287D01*
X144040809Y-80285309D01*
X144103213Y-80239971D01*
X144103215Y-80239968D01*
X144103219Y-80239966D01*
X144247966Y-80095219D01*
X144247968Y-80095215D01*
X144247971Y-80095213D01*
X144368284Y-79929614D01*
X144368286Y-79929611D01*
X144368287Y-79929610D01*
X144415516Y-79836917D01*
X144463489Y-79786123D01*
X144531310Y-79769328D01*
X144597445Y-79791865D01*
X144636485Y-79836919D01*
X144683715Y-79929614D01*
X144804028Y-80095213D01*
X144948786Y-80239971D01*
X145103463Y-80352348D01*
X145114390Y-80360287D01*
X145230607Y-80419503D01*
X145296776Y-80453218D01*
X145296778Y-80453218D01*
X145296781Y-80453220D01*
X145401137Y-80487127D01*
X145491465Y-80516477D01*
X145592557Y-80532488D01*
X145693648Y-80548500D01*
X145693649Y-80548500D01*
X145898351Y-80548500D01*
X145898352Y-80548500D01*
X146100534Y-80516477D01*
X146295219Y-80453220D01*
X146477610Y-80360287D01*
X146580809Y-80285309D01*
X146643213Y-80239971D01*
X146643215Y-80239968D01*
X146643219Y-80239966D01*
X146787966Y-80095219D01*
X146787968Y-80095215D01*
X146787971Y-80095213D01*
X146908284Y-79929614D01*
X146908286Y-79929611D01*
X146908287Y-79929610D01*
X146955516Y-79836917D01*
X147003489Y-79786123D01*
X147071310Y-79769328D01*
X147137445Y-79791865D01*
X147176485Y-79836919D01*
X147223715Y-79929614D01*
X147344028Y-80095213D01*
X147488786Y-80239971D01*
X147643463Y-80352348D01*
X147654390Y-80360287D01*
X147770607Y-80419503D01*
X147836776Y-80453218D01*
X147836778Y-80453218D01*
X147836781Y-80453220D01*
X147941137Y-80487127D01*
X148031465Y-80516477D01*
X148132557Y-80532488D01*
X148233648Y-80548500D01*
X148233649Y-80548500D01*
X148438351Y-80548500D01*
X148438352Y-80548500D01*
X148640534Y-80516477D01*
X148835219Y-80453220D01*
X149017610Y-80360287D01*
X149120809Y-80285309D01*
X149183213Y-80239971D01*
X149183215Y-80239968D01*
X149183219Y-80239966D01*
X149327966Y-80095219D01*
X149327968Y-80095215D01*
X149327971Y-80095213D01*
X149448284Y-79929614D01*
X149448286Y-79929611D01*
X149448287Y-79929610D01*
X149495516Y-79836917D01*
X149543489Y-79786123D01*
X149611310Y-79769328D01*
X149677445Y-79791865D01*
X149716485Y-79836919D01*
X149763715Y-79929614D01*
X149884028Y-80095213D01*
X150028786Y-80239971D01*
X150183463Y-80352348D01*
X150194390Y-80360287D01*
X150310607Y-80419503D01*
X150376776Y-80453218D01*
X150376778Y-80453218D01*
X150376781Y-80453220D01*
X150481137Y-80487127D01*
X150571465Y-80516477D01*
X150672557Y-80532488D01*
X150773648Y-80548500D01*
X150773649Y-80548500D01*
X150978351Y-80548500D01*
X150978352Y-80548500D01*
X151180534Y-80516477D01*
X151375219Y-80453220D01*
X151557610Y-80360287D01*
X151660809Y-80285309D01*
X151723213Y-80239971D01*
X151723215Y-80239968D01*
X151723219Y-80239966D01*
X151867966Y-80095219D01*
X151867968Y-80095215D01*
X151867971Y-80095213D01*
X151988284Y-79929614D01*
X151988286Y-79929611D01*
X151988287Y-79929610D01*
X152035516Y-79836917D01*
X152083489Y-79786123D01*
X152151310Y-79769328D01*
X152217445Y-79791865D01*
X152256485Y-79836919D01*
X152303715Y-79929614D01*
X152424028Y-80095213D01*
X152568786Y-80239971D01*
X152723463Y-80352348D01*
X152734390Y-80360287D01*
X152850607Y-80419503D01*
X152916776Y-80453218D01*
X152916778Y-80453218D01*
X152916781Y-80453220D01*
X153021137Y-80487127D01*
X153111465Y-80516477D01*
X153212557Y-80532488D01*
X153313648Y-80548500D01*
X153313649Y-80548500D01*
X153518351Y-80548500D01*
X153518352Y-80548500D01*
X153720534Y-80516477D01*
X153915219Y-80453220D01*
X154097610Y-80360287D01*
X154200809Y-80285309D01*
X154263213Y-80239971D01*
X154263215Y-80239968D01*
X154263219Y-80239966D01*
X154407966Y-80095219D01*
X154407968Y-80095215D01*
X154407971Y-80095213D01*
X154528284Y-79929614D01*
X154528286Y-79929611D01*
X154528287Y-79929610D01*
X154575516Y-79836917D01*
X154623489Y-79786123D01*
X154691310Y-79769328D01*
X154757445Y-79791865D01*
X154796485Y-79836919D01*
X154843715Y-79929614D01*
X154964028Y-80095213D01*
X155108786Y-80239971D01*
X155263463Y-80352348D01*
X155274390Y-80360287D01*
X155390607Y-80419503D01*
X155456776Y-80453218D01*
X155456778Y-80453218D01*
X155456781Y-80453220D01*
X155561137Y-80487127D01*
X155651465Y-80516477D01*
X155752557Y-80532488D01*
X155853648Y-80548500D01*
X155853649Y-80548500D01*
X156058351Y-80548500D01*
X156058352Y-80548500D01*
X156260534Y-80516477D01*
X156455219Y-80453220D01*
X156637610Y-80360287D01*
X156740809Y-80285309D01*
X156803213Y-80239971D01*
X156803215Y-80239968D01*
X156803219Y-80239966D01*
X156947966Y-80095219D01*
X156947968Y-80095215D01*
X156947971Y-80095213D01*
X157068284Y-79929614D01*
X157068286Y-79929611D01*
X157068287Y-79929610D01*
X157115795Y-79836369D01*
X157163770Y-79785574D01*
X157231591Y-79768779D01*
X157297725Y-79791316D01*
X157336765Y-79836370D01*
X157384140Y-79929349D01*
X157504417Y-80094894D01*
X157504417Y-80094895D01*
X157649104Y-80239582D01*
X157814650Y-80359859D01*
X157996968Y-80452754D01*
X158191578Y-80515988D01*
X158246000Y-80524607D01*
X158246000Y-79681012D01*
X158303007Y-79713925D01*
X158430174Y-79748000D01*
X158561826Y-79748000D01*
X158688993Y-79713925D01*
X158746000Y-79681012D01*
X158746000Y-80524606D01*
X158800421Y-80515988D01*
X158995031Y-80452754D01*
X159177349Y-80359859D01*
X159342894Y-80239582D01*
X159342895Y-80239582D01*
X159487582Y-80094895D01*
X159487582Y-80094894D01*
X159607861Y-79929347D01*
X159655234Y-79836371D01*
X159703208Y-79785575D01*
X159771028Y-79768779D01*
X159837164Y-79791316D01*
X159876203Y-79836369D01*
X159923713Y-79929611D01*
X160044028Y-80095213D01*
X160188786Y-80239971D01*
X160343463Y-80352348D01*
X160354390Y-80360287D01*
X160470607Y-80419503D01*
X160536776Y-80453218D01*
X160536778Y-80453218D01*
X160536781Y-80453220D01*
X160641137Y-80487127D01*
X160731465Y-80516477D01*
X160832557Y-80532488D01*
X160933648Y-80548500D01*
X160933649Y-80548500D01*
X161138351Y-80548500D01*
X161138352Y-80548500D01*
X161340534Y-80516477D01*
X161535219Y-80453220D01*
X161717610Y-80360287D01*
X161820809Y-80285309D01*
X161883213Y-80239971D01*
X161883215Y-80239968D01*
X161883219Y-80239966D01*
X162027966Y-80095219D01*
X162027968Y-80095215D01*
X162027971Y-80095213D01*
X162148284Y-79929614D01*
X162148286Y-79929611D01*
X162148287Y-79929610D01*
X162210015Y-79808461D01*
X162257990Y-79757666D01*
X162325811Y-79740871D01*
X162391946Y-79763408D01*
X162435397Y-79818124D01*
X162444500Y-79864757D01*
X162444500Y-81298769D01*
X162424815Y-81365808D01*
X162408181Y-81386450D01*
X157786052Y-86008578D01*
X157786049Y-86008581D01*
X157746237Y-86068164D01*
X157746238Y-86068165D01*
X157703914Y-86131508D01*
X157647343Y-86268082D01*
X157647340Y-86268092D01*
X157618500Y-86413079D01*
X157618500Y-99078770D01*
X157598815Y-99145809D01*
X157582181Y-99166451D01*
X154411451Y-102337181D01*
X154350128Y-102370666D01*
X154323770Y-102373500D01*
X131426230Y-102373500D01*
X131359191Y-102353815D01*
X131338549Y-102337181D01*
X130780417Y-101779049D01*
X130774080Y-101774815D01*
X130705099Y-101728724D01*
X130705098Y-101728723D01*
X130657501Y-101696919D01*
X130657488Y-101696912D01*
X130520917Y-101640343D01*
X130520907Y-101640340D01*
X130375920Y-101611500D01*
X130375918Y-101611500D01*
X126164082Y-101611500D01*
X126164080Y-101611500D01*
X126019092Y-101640340D01*
X126019082Y-101640343D01*
X125882511Y-101696912D01*
X125882498Y-101696919D01*
X125834902Y-101728723D01*
X125834901Y-101728724D01*
X125759582Y-101779049D01*
X124639048Y-102899583D01*
X124618277Y-102930670D01*
X124597643Y-102961553D01*
X124592289Y-102969566D01*
X124556916Y-103022504D01*
X124556912Y-103022511D01*
X124500342Y-103159084D01*
X124500340Y-103159091D01*
X124485434Y-103234026D01*
X124453048Y-103295937D01*
X124438129Y-103309099D01*
X124329452Y-103390455D01*
X124243206Y-103505664D01*
X124243202Y-103505671D01*
X124192908Y-103640517D01*
X124186501Y-103700116D01*
X124186500Y-103700135D01*
X124186500Y-105595870D01*
X124186501Y-105595876D01*
X124192908Y-105655483D01*
X124243202Y-105790328D01*
X124243206Y-105790335D01*
X124329452Y-105905544D01*
X124329455Y-105905547D01*
X124444664Y-105991793D01*
X124444671Y-105991797D01*
X124579517Y-106042091D01*
X124579516Y-106042091D01*
X124586444Y-106042835D01*
X124639127Y-106048500D01*
X125804872Y-106048499D01*
X125864483Y-106042091D01*
X125999331Y-105991796D01*
X125999335Y-105991792D01*
X126007118Y-105987544D01*
X126008190Y-105989507D01*
X126062082Y-105969401D01*
X126118394Y-105978523D01*
X126190101Y-106008225D01*
X126190109Y-106008227D01*
X126241999Y-106018549D01*
X126242000Y-106018549D01*
X126242000Y-105702230D01*
X126249819Y-105658895D01*
X126251089Y-105655488D01*
X126251091Y-105655483D01*
X126257500Y-105595873D01*
X126257499Y-105032226D01*
X126318306Y-105067333D01*
X126432756Y-105098000D01*
X126551244Y-105098000D01*
X126665694Y-105067333D01*
X126726500Y-105032226D01*
X126726500Y-105114988D01*
X126739617Y-105180929D01*
X126742000Y-105205122D01*
X126742000Y-106018549D01*
X126793890Y-106008227D01*
X126793898Y-106008225D01*
X126982252Y-105930206D01*
X126982256Y-105930204D01*
X127057658Y-105879822D01*
X127124336Y-105858944D01*
X127191716Y-105877428D01*
X127195401Y-105879796D01*
X127271507Y-105930648D01*
X127271509Y-105930649D01*
X127271513Y-105930651D01*
X127459951Y-106008704D01*
X127459956Y-106008706D01*
X127459960Y-106008706D01*
X127459961Y-106008707D01*
X127660009Y-106048500D01*
X127660012Y-106048500D01*
X127863990Y-106048500D01*
X128014560Y-106018549D01*
X128064044Y-106008706D01*
X128252493Y-105930648D01*
X128309696Y-105892426D01*
X128328109Y-105880123D01*
X128394786Y-105859245D01*
X128462166Y-105877729D01*
X128465891Y-105880123D01*
X128541501Y-105930644D01*
X128541507Y-105930648D01*
X128541509Y-105930649D01*
X128541513Y-105930651D01*
X128729951Y-106008704D01*
X128729956Y-106008706D01*
X128729960Y-106008706D01*
X128729961Y-106008707D01*
X128930009Y-106048500D01*
X128930012Y-106048500D01*
X129133990Y-106048500D01*
X129284560Y-106018549D01*
X129334044Y-106008706D01*
X129522493Y-105930648D01*
X129523158Y-105930204D01*
X129560064Y-105905544D01*
X129692093Y-105817325D01*
X129836325Y-105673093D01*
X129949648Y-105503493D01*
X129961430Y-105475047D01*
X130005270Y-105420645D01*
X130071564Y-105398579D01*
X130075991Y-105398500D01*
X147782570Y-105398500D01*
X147849609Y-105418185D01*
X147895364Y-105470989D01*
X147905308Y-105540147D01*
X147876283Y-105603703D01*
X147820888Y-105640430D01*
X147720364Y-105673093D01*
X147691585Y-105682444D01*
X147502179Y-105778951D01*
X147330213Y-105903890D01*
X147179890Y-106054213D01*
X147054951Y-106226179D01*
X146958444Y-106415585D01*
X146892753Y-106617760D01*
X146862622Y-106808000D01*
X146859500Y-106827713D01*
X146859500Y-107040287D01*
X146867582Y-107091317D01*
X146892377Y-107247868D01*
X146892754Y-107250243D01*
X146952238Y-107433316D01*
X146958444Y-107452414D01*
X147054951Y-107641820D01*
X147179890Y-107813786D01*
X147330213Y-107964109D01*
X147502179Y-108089048D01*
X147502181Y-108089049D01*
X147502184Y-108089051D01*
X147691588Y-108185557D01*
X147893757Y-108251246D01*
X148103713Y-108284500D01*
X148103714Y-108284500D01*
X148316286Y-108284500D01*
X148316287Y-108284500D01*
X148526243Y-108251246D01*
X148728412Y-108185557D01*
X148917816Y-108089051D01*
X148947706Y-108067335D01*
X149089786Y-107964109D01*
X149089788Y-107964106D01*
X149089792Y-107964104D01*
X149240104Y-107813792D01*
X149240106Y-107813788D01*
X149240109Y-107813786D01*
X149365048Y-107641820D01*
X149365047Y-107641820D01*
X149365051Y-107641816D01*
X149369514Y-107633054D01*
X149417488Y-107582259D01*
X149485308Y-107565463D01*
X149551444Y-107587999D01*
X149590486Y-107633056D01*
X149594951Y-107641820D01*
X149719890Y-107813786D01*
X149870213Y-107964109D01*
X150042179Y-108089048D01*
X150042181Y-108089049D01*
X150042184Y-108089051D01*
X150231588Y-108185557D01*
X150433757Y-108251246D01*
X150643713Y-108284500D01*
X150643714Y-108284500D01*
X150856286Y-108284500D01*
X150856287Y-108284500D01*
X151066243Y-108251246D01*
X151268412Y-108185557D01*
X151457816Y-108089051D01*
X151487706Y-108067335D01*
X151629786Y-107964109D01*
X151629788Y-107964106D01*
X151629792Y-107964104D01*
X151780104Y-107813792D01*
X151780106Y-107813788D01*
X151780109Y-107813786D01*
X151905048Y-107641820D01*
X151905047Y-107641820D01*
X151905051Y-107641816D01*
X151909514Y-107633054D01*
X151957488Y-107582259D01*
X152025308Y-107565463D01*
X152091444Y-107587999D01*
X152130486Y-107633056D01*
X152134951Y-107641820D01*
X152259890Y-107813786D01*
X152410213Y-107964109D01*
X152582179Y-108089048D01*
X152582181Y-108089049D01*
X152582184Y-108089051D01*
X152771588Y-108185557D01*
X152973757Y-108251246D01*
X153183713Y-108284500D01*
X153183714Y-108284500D01*
X153396286Y-108284500D01*
X153396287Y-108284500D01*
X153606243Y-108251246D01*
X153808412Y-108185557D01*
X153997816Y-108089051D01*
X154027706Y-108067335D01*
X154169786Y-107964109D01*
X154169788Y-107964106D01*
X154169792Y-107964104D01*
X154320104Y-107813792D01*
X154320106Y-107813788D01*
X154320109Y-107813786D01*
X154445048Y-107641820D01*
X154445047Y-107641820D01*
X154445051Y-107641816D01*
X154449514Y-107633054D01*
X154497488Y-107582259D01*
X154565308Y-107565463D01*
X154631444Y-107587999D01*
X154670486Y-107633056D01*
X154674951Y-107641820D01*
X154799890Y-107813786D01*
X154950213Y-107964109D01*
X155122179Y-108089048D01*
X155122181Y-108089049D01*
X155122184Y-108089051D01*
X155311588Y-108185557D01*
X155513757Y-108251246D01*
X155723713Y-108284500D01*
X155723714Y-108284500D01*
X155936286Y-108284500D01*
X155936287Y-108284500D01*
X156146243Y-108251246D01*
X156348412Y-108185557D01*
X156537816Y-108089051D01*
X156567706Y-108067335D01*
X156709786Y-107964109D01*
X156709788Y-107964106D01*
X156709792Y-107964104D01*
X156860104Y-107813792D01*
X156868951Y-107801614D01*
X156924281Y-107758949D01*
X156969270Y-107750500D01*
X157230730Y-107750500D01*
X157297769Y-107770185D01*
X157331049Y-107801615D01*
X157339896Y-107813792D01*
X157490213Y-107964109D01*
X157662179Y-108089048D01*
X157662181Y-108089049D01*
X157662184Y-108089051D01*
X157851588Y-108185557D01*
X158053757Y-108251246D01*
X158263713Y-108284500D01*
X158263714Y-108284500D01*
X158476286Y-108284500D01*
X158476287Y-108284500D01*
X158686243Y-108251246D01*
X158888412Y-108185557D01*
X159077816Y-108089051D01*
X159107706Y-108067335D01*
X159249786Y-107964109D01*
X159249788Y-107964106D01*
X159249792Y-107964104D01*
X159400104Y-107813792D01*
X159400106Y-107813788D01*
X159400109Y-107813786D01*
X159494039Y-107684500D01*
X159525051Y-107641816D01*
X159529793Y-107632508D01*
X159577763Y-107581711D01*
X159645583Y-107564911D01*
X159711719Y-107587445D01*
X159750763Y-107632500D01*
X159755377Y-107641555D01*
X159880272Y-107813459D01*
X159880276Y-107813464D01*
X160030535Y-107963723D01*
X160030540Y-107963727D01*
X160202442Y-108088620D01*
X160391782Y-108185095D01*
X160593871Y-108250757D01*
X160660000Y-108261231D01*
X160660000Y-107367012D01*
X160717007Y-107399925D01*
X160844174Y-107434000D01*
X160975826Y-107434000D01*
X161102993Y-107399925D01*
X161160000Y-107367012D01*
X161160000Y-108261230D01*
X161226126Y-108250757D01*
X161226129Y-108250757D01*
X161428217Y-108185095D01*
X161617557Y-108088620D01*
X161789459Y-107963727D01*
X161789464Y-107963723D01*
X161939723Y-107813464D01*
X161939727Y-107813459D01*
X162064620Y-107641558D01*
X162069232Y-107632507D01*
X162117205Y-107581709D01*
X162185025Y-107564912D01*
X162251161Y-107587447D01*
X162290204Y-107632504D01*
X162294949Y-107641817D01*
X162419890Y-107813786D01*
X162570213Y-107964109D01*
X162742179Y-108089048D01*
X162742181Y-108089049D01*
X162742184Y-108089051D01*
X162931588Y-108185557D01*
X163133757Y-108251246D01*
X163343713Y-108284500D01*
X163343714Y-108284500D01*
X163556286Y-108284500D01*
X163556287Y-108284500D01*
X163766243Y-108251246D01*
X163968412Y-108185557D01*
X164157816Y-108089051D01*
X164329792Y-107964104D01*
X164443329Y-107850566D01*
X164504648Y-107817084D01*
X164574340Y-107822068D01*
X164630274Y-107863939D01*
X164647189Y-107894917D01*
X164696202Y-108026328D01*
X164696206Y-108026335D01*
X164782452Y-108141544D01*
X164782455Y-108141547D01*
X164897664Y-108227793D01*
X164897671Y-108227797D01*
X165032517Y-108278091D01*
X165032516Y-108278091D01*
X165039444Y-108278835D01*
X165092127Y-108284500D01*
X166887872Y-108284499D01*
X166947483Y-108278091D01*
X167082331Y-108227796D01*
X167197546Y-108141546D01*
X167283796Y-108026331D01*
X167334091Y-107891483D01*
X167340500Y-107831873D01*
X167340499Y-107739125D01*
X167360183Y-107672090D01*
X167412986Y-107626334D01*
X167482145Y-107616390D01*
X167545701Y-107645414D01*
X167560547Y-107662237D01*
X167561188Y-107661712D01*
X167565052Y-107666421D01*
X169082584Y-109183952D01*
X169082586Y-109183954D01*
X169100873Y-109196172D01*
X169134811Y-109218848D01*
X169205505Y-109266084D01*
X169342087Y-109322658D01*
X169342091Y-109322658D01*
X169342092Y-109322659D01*
X169487079Y-109351500D01*
X169487082Y-109351500D01*
X178142920Y-109351500D01*
X178240462Y-109332096D01*
X178287913Y-109322658D01*
X178424495Y-109266084D01*
X178495189Y-109218848D01*
X178547416Y-109183952D01*
X179421500Y-108309866D01*
X179482821Y-108276383D01*
X179489770Y-108275078D01*
X179640243Y-108251246D01*
X179842412Y-108185557D01*
X180031816Y-108089051D01*
X180052281Y-108074181D01*
X180118087Y-108050702D01*
X180125167Y-108050500D01*
X181062833Y-108050500D01*
X181129872Y-108070185D01*
X181135711Y-108074176D01*
X181156184Y-108089051D01*
X181345588Y-108185557D01*
X181547757Y-108251246D01*
X181757713Y-108284500D01*
X181757714Y-108284500D01*
X181970286Y-108284500D01*
X181970287Y-108284500D01*
X182180243Y-108251246D01*
X182382412Y-108185557D01*
X182571816Y-108089051D01*
X182601706Y-108067335D01*
X182743786Y-107964109D01*
X182743788Y-107964106D01*
X182743792Y-107964104D01*
X182894104Y-107813792D01*
X182894106Y-107813788D01*
X182894109Y-107813786D01*
X182988039Y-107684500D01*
X183019051Y-107641816D01*
X183023793Y-107632508D01*
X183071763Y-107581711D01*
X183139583Y-107564911D01*
X183205719Y-107587445D01*
X183244763Y-107632500D01*
X183249377Y-107641555D01*
X183374272Y-107813459D01*
X183374276Y-107813464D01*
X183524535Y-107963723D01*
X183524540Y-107963727D01*
X183696442Y-108088620D01*
X183885782Y-108185095D01*
X184087871Y-108250757D01*
X184154000Y-108261231D01*
X184154000Y-107367012D01*
X184211007Y-107399925D01*
X184338174Y-107434000D01*
X184469826Y-107434000D01*
X184596993Y-107399925D01*
X184654000Y-107367012D01*
X184654000Y-108261230D01*
X184720126Y-108250757D01*
X184720129Y-108250757D01*
X184922217Y-108185095D01*
X185111557Y-108088620D01*
X185283459Y-107963727D01*
X185283464Y-107963723D01*
X185433723Y-107813464D01*
X185433727Y-107813459D01*
X185558620Y-107641558D01*
X185563514Y-107631954D01*
X185611488Y-107581157D01*
X185679308Y-107564361D01*
X185745444Y-107586897D01*
X185784486Y-107631954D01*
X185789379Y-107641558D01*
X185914272Y-107813459D01*
X185914276Y-107813464D01*
X186064535Y-107963723D01*
X186064540Y-107963727D01*
X186236442Y-108088620D01*
X186425782Y-108185095D01*
X186627871Y-108250757D01*
X186694000Y-108261231D01*
X186694000Y-107367012D01*
X186751007Y-107399925D01*
X186878174Y-107434000D01*
X187009826Y-107434000D01*
X187136993Y-107399925D01*
X187194000Y-107367012D01*
X187194000Y-108261230D01*
X187260126Y-108250757D01*
X187260129Y-108250757D01*
X187462217Y-108185095D01*
X187651557Y-108088620D01*
X187823458Y-107963728D01*
X187937133Y-107850053D01*
X187998456Y-107816568D01*
X188068148Y-107821552D01*
X188124082Y-107863423D01*
X188140997Y-107894401D01*
X188190202Y-108026328D01*
X188190206Y-108026335D01*
X188276452Y-108141544D01*
X188276455Y-108141547D01*
X188391664Y-108227793D01*
X188391671Y-108227797D01*
X188526517Y-108278091D01*
X188526516Y-108278091D01*
X188533444Y-108278835D01*
X188586127Y-108284500D01*
X190381872Y-108284499D01*
X190441483Y-108278091D01*
X190576331Y-108227796D01*
X190691546Y-108141546D01*
X190777796Y-108026331D01*
X190828091Y-107891483D01*
X190834500Y-107831873D01*
X190834499Y-106036128D01*
X190828091Y-105976517D01*
X190825926Y-105970713D01*
X190777797Y-105841671D01*
X190777793Y-105841664D01*
X190691547Y-105726455D01*
X190691544Y-105726452D01*
X190576335Y-105640206D01*
X190576328Y-105640202D01*
X190441482Y-105589908D01*
X190441483Y-105589908D01*
X190381883Y-105583501D01*
X190381881Y-105583500D01*
X190381873Y-105583500D01*
X190381865Y-105583500D01*
X189500229Y-105583500D01*
X189433190Y-105563815D01*
X189412548Y-105547181D01*
X188692421Y-104827052D01*
X188692414Y-104827046D01*
X188618729Y-104777812D01*
X188618729Y-104777813D01*
X188569491Y-104744913D01*
X188432917Y-104688343D01*
X188432907Y-104688340D01*
X188287920Y-104659500D01*
X188287918Y-104659500D01*
X174073594Y-104659500D01*
X174044153Y-104650855D01*
X174014167Y-104644332D01*
X174009151Y-104640577D01*
X174006555Y-104639815D01*
X173985913Y-104623181D01*
X173899416Y-104536684D01*
X173488785Y-104126052D01*
X173488778Y-104126046D01*
X173399132Y-104066147D01*
X173399033Y-104066082D01*
X173365859Y-104043916D01*
X173365858Y-104043915D01*
X173365856Y-104043914D01*
X173229281Y-103987343D01*
X173229271Y-103987340D01*
X173084284Y-103958500D01*
X173084282Y-103958500D01*
X172503554Y-103958500D01*
X170529321Y-103958500D01*
X170462282Y-103938815D01*
X170441640Y-103922181D01*
X169683801Y-103164342D01*
X168892144Y-102372684D01*
X168697620Y-102178160D01*
X168481513Y-101962052D01*
X168481506Y-101962046D01*
X168380177Y-101894341D01*
X168380176Y-101894341D01*
X168358587Y-101879916D01*
X168358580Y-101879912D01*
X168222009Y-101823343D01*
X168221999Y-101823340D01*
X168077012Y-101794500D01*
X168077010Y-101794500D01*
X167496282Y-101794500D01*
X163500500Y-101794500D01*
X163433461Y-101774815D01*
X163387706Y-101722011D01*
X163376500Y-101670500D01*
X163376500Y-88565050D01*
X163396185Y-88498011D01*
X163412819Y-88477369D01*
X167979161Y-83911027D01*
X167979162Y-83911028D01*
X167979167Y-83911018D01*
X167983951Y-83906236D01*
X168066084Y-83783315D01*
X168122658Y-83646733D01*
X168132096Y-83599282D01*
X168151500Y-83501740D01*
X168151500Y-68697351D01*
X168122659Y-68552364D01*
X168122658Y-68552363D01*
X168122658Y-68552359D01*
X168121474Y-68549500D01*
X168066087Y-68415783D01*
X168066080Y-68415770D01*
X167983951Y-68292856D01*
X167983948Y-68292852D01*
X167973291Y-68282195D01*
X167973283Y-68282186D01*
X167464461Y-67773364D01*
X167464438Y-67773343D01*
X164918780Y-65227684D01*
X164508144Y-64817048D01*
X164447144Y-64756048D01*
X164447143Y-64756047D01*
X164447142Y-64756046D01*
X164373457Y-64706812D01*
X164373457Y-64706813D01*
X164324219Y-64673913D01*
X164187645Y-64617343D01*
X164187635Y-64617340D01*
X164042648Y-64588500D01*
X164042646Y-64588500D01*
X163940282Y-64588500D01*
X163359554Y-64588500D01*
X162460500Y-64588500D01*
X162393461Y-64568815D01*
X162347706Y-64516011D01*
X162336500Y-64464500D01*
X162336499Y-63160129D01*
X162336498Y-63160123D01*
X162330091Y-63100516D01*
X162279797Y-62965671D01*
X162279793Y-62965664D01*
X162193547Y-62850455D01*
X162193544Y-62850452D01*
X162078335Y-62764206D01*
X162078328Y-62764202D01*
X161943482Y-62713908D01*
X161943483Y-62713908D01*
X161883883Y-62707501D01*
X161883881Y-62707500D01*
X161883873Y-62707500D01*
X161883864Y-62707500D01*
X160188129Y-62707500D01*
X160188123Y-62707501D01*
X160128516Y-62713908D01*
X159993671Y-62764202D01*
X159993664Y-62764206D01*
X159878455Y-62850452D01*
X159878452Y-62850455D01*
X159792206Y-62965664D01*
X159792202Y-62965671D01*
X159741908Y-63100516D01*
X159737939Y-63137440D01*
X159711201Y-63201991D01*
X159653809Y-63241839D01*
X159583983Y-63244332D01*
X159523895Y-63208679D01*
X159514332Y-63197070D01*
X159487967Y-63160782D01*
X159343213Y-63016028D01*
X159177613Y-62895715D01*
X159177612Y-62895714D01*
X159177610Y-62895713D01*
X159102947Y-62857670D01*
X158995223Y-62802781D01*
X158800534Y-62739522D01*
X158618006Y-62710613D01*
X158598352Y-62707500D01*
X158393648Y-62707500D01*
X158373994Y-62710613D01*
X158191465Y-62739522D01*
X157996776Y-62802781D01*
X157814386Y-62895715D01*
X157648786Y-63016028D01*
X157504028Y-63160786D01*
X157383715Y-63326386D01*
X157336485Y-63419080D01*
X157288510Y-63469876D01*
X157220689Y-63486671D01*
X157154554Y-63464134D01*
X157115515Y-63419080D01*
X157068419Y-63326650D01*
X157068287Y-63326390D01*
X157046072Y-63295813D01*
X156947971Y-63160786D01*
X156803213Y-63016028D01*
X156637613Y-62895715D01*
X156637612Y-62895714D01*
X156637610Y-62895713D01*
X156562947Y-62857670D01*
X156455223Y-62802781D01*
X156260534Y-62739522D01*
X156078006Y-62710613D01*
X156058352Y-62707500D01*
X155853648Y-62707500D01*
X155833994Y-62710613D01*
X155651465Y-62739522D01*
X155456776Y-62802781D01*
X155274386Y-62895715D01*
X155108786Y-63016028D01*
X154964028Y-63160786D01*
X154843713Y-63326388D01*
X154796203Y-63419630D01*
X154748228Y-63470426D01*
X154680407Y-63487220D01*
X154614272Y-63464682D01*
X154575234Y-63419628D01*
X154527861Y-63326652D01*
X154407582Y-63161105D01*
X154407582Y-63161104D01*
X154262895Y-63016417D01*
X154097349Y-62896140D01*
X153915029Y-62803244D01*
X153720413Y-62740009D01*
X153666000Y-62731390D01*
X153666000Y-63574988D01*
X153608993Y-63542075D01*
X153481826Y-63508000D01*
X153350174Y-63508000D01*
X153223007Y-63542075D01*
X153166000Y-63574988D01*
X153166000Y-62731390D01*
X153111586Y-62740009D01*
X152916970Y-62803244D01*
X152734650Y-62896140D01*
X152569105Y-63016417D01*
X152569104Y-63016417D01*
X152424417Y-63161104D01*
X152424417Y-63161105D01*
X152304140Y-63326650D01*
X152256765Y-63419629D01*
X152208790Y-63470425D01*
X152140969Y-63487220D01*
X152074834Y-63464682D01*
X152035795Y-63419629D01*
X151988419Y-63326650D01*
X151988287Y-63326390D01*
X151966072Y-63295813D01*
X151867971Y-63160786D01*
X151723213Y-63016028D01*
X151557613Y-62895715D01*
X151557612Y-62895714D01*
X151557610Y-62895713D01*
X151482947Y-62857670D01*
X151375223Y-62802781D01*
X151180534Y-62739522D01*
X150998006Y-62710613D01*
X150978352Y-62707500D01*
X150773648Y-62707500D01*
X150717972Y-62716318D01*
X150648679Y-62707363D01*
X150610894Y-62681526D01*
X149576421Y-61647052D01*
X149576414Y-61647046D01*
X149502729Y-61597812D01*
X149502729Y-61597813D01*
X149453491Y-61564913D01*
X149316917Y-61508343D01*
X149316907Y-61508340D01*
X149171920Y-61479500D01*
X149171918Y-61479500D01*
X147754082Y-61479500D01*
X147754076Y-61479500D01*
X147725242Y-61485234D01*
X147725243Y-61485235D01*
X147609093Y-61508339D01*
X147609089Y-61508340D01*
X147537662Y-61537927D01*
X147472506Y-61564915D01*
X147390372Y-61619795D01*
X147349585Y-61647047D01*
X147349581Y-61647050D01*
X146502052Y-62494578D01*
X146502049Y-62494581D01*
X146459730Y-62557916D01*
X146459731Y-62557917D01*
X146419915Y-62617506D01*
X146381349Y-62710613D01*
X146337508Y-62765016D01*
X146271214Y-62787081D01*
X146228470Y-62781091D01*
X146100537Y-62739523D01*
X145918006Y-62710613D01*
X145898352Y-62707500D01*
X145693648Y-62707500D01*
X145673994Y-62710613D01*
X145491465Y-62739522D01*
X145296776Y-62802781D01*
X145114386Y-62895715D01*
X144948786Y-63016028D01*
X144804028Y-63160786D01*
X144683715Y-63326386D01*
X144636485Y-63419080D01*
X144588510Y-63469876D01*
X144520689Y-63486671D01*
X144454554Y-63464134D01*
X144415515Y-63419080D01*
X144368419Y-63326650D01*
X144368287Y-63326390D01*
X144346072Y-63295813D01*
X144247971Y-63160786D01*
X144103213Y-63016028D01*
X143937613Y-62895715D01*
X143937612Y-62895714D01*
X143937610Y-62895713D01*
X143862947Y-62857670D01*
X143755223Y-62802781D01*
X143560534Y-62739522D01*
X143378006Y-62710613D01*
X143358352Y-62707500D01*
X143153648Y-62707500D01*
X143133994Y-62710613D01*
X142951465Y-62739522D01*
X142756776Y-62802781D01*
X142574386Y-62895715D01*
X142408786Y-63016028D01*
X142264028Y-63160786D01*
X142143715Y-63326386D01*
X142096485Y-63419080D01*
X142048510Y-63469876D01*
X141980689Y-63486671D01*
X141914554Y-63464134D01*
X141875515Y-63419080D01*
X141828419Y-63326650D01*
X141828287Y-63326390D01*
X141806072Y-63295813D01*
X141707971Y-63160786D01*
X141563213Y-63016028D01*
X141397613Y-62895715D01*
X141397612Y-62895714D01*
X141397610Y-62895713D01*
X141322947Y-62857670D01*
X141215223Y-62802781D01*
X141020534Y-62739522D01*
X140838006Y-62710613D01*
X140818352Y-62707500D01*
X140613648Y-62707500D01*
X140593994Y-62710613D01*
X140411465Y-62739522D01*
X140216776Y-62802781D01*
X140034386Y-62895715D01*
X139868786Y-63016028D01*
X139724028Y-63160786D01*
X139603715Y-63326386D01*
X139556485Y-63419080D01*
X139508510Y-63469876D01*
X139440689Y-63486671D01*
X139374554Y-63464134D01*
X139335515Y-63419080D01*
X139288419Y-63326650D01*
X139288287Y-63326390D01*
X139266072Y-63295813D01*
X139167971Y-63160786D01*
X139023213Y-63016028D01*
X138857613Y-62895715D01*
X138857612Y-62895714D01*
X138857610Y-62895713D01*
X138782947Y-62857670D01*
X138675223Y-62802781D01*
X138480534Y-62739522D01*
X138298006Y-62710613D01*
X138278352Y-62707500D01*
X138073648Y-62707500D01*
X138033184Y-62713909D01*
X137871464Y-62739523D01*
X137871457Y-62739524D01*
X137818817Y-62756628D01*
X137748976Y-62758623D01*
X137689143Y-62722542D01*
X137658316Y-62659840D01*
X137656500Y-62638697D01*
X137656500Y-60560230D01*
X137676185Y-60493191D01*
X137692819Y-60472549D01*
X137942549Y-60222819D01*
X138003872Y-60189334D01*
X138030230Y-60186500D01*
X168293770Y-60186500D01*
X168360809Y-60206185D01*
X168381451Y-60222819D01*
X168753181Y-60594549D01*
X168786666Y-60655872D01*
X168789500Y-60682230D01*
X168789500Y-74060647D01*
X168792433Y-74075391D01*
X168794219Y-74087431D01*
X168794500Y-74090284D01*
X168823340Y-74235271D01*
X168823343Y-74235281D01*
X168879914Y-74371856D01*
X168879915Y-74371858D01*
X168879916Y-74371859D01*
X168908129Y-74414083D01*
X168962048Y-74494780D01*
X169023048Y-74555780D01*
X169027583Y-74560315D01*
X169433684Y-74966416D01*
X170669707Y-76202438D01*
X170669728Y-76202461D01*
X171084684Y-76617416D01*
X171250214Y-76782947D01*
X171250217Y-76782950D01*
X171250220Y-76782952D01*
X171314719Y-76826048D01*
X171373141Y-76865084D01*
X171509723Y-76921658D01*
X171509727Y-76921658D01*
X171509728Y-76921659D01*
X171654715Y-76950500D01*
X171654718Y-76950500D01*
X184731920Y-76950500D01*
X184829462Y-76931096D01*
X184876913Y-76921658D01*
X185013495Y-76865084D01*
X185071917Y-76826048D01*
X185136416Y-76782952D01*
X187973952Y-73945415D01*
X188021898Y-73873658D01*
X188056084Y-73822495D01*
X188101404Y-73713083D01*
X188112659Y-73685912D01*
X188141500Y-73540917D01*
X188141500Y-73393082D01*
X188141500Y-73368446D01*
X188141500Y-72787718D01*
X188141500Y-70574446D01*
X188141500Y-69993718D01*
X188141500Y-69993715D01*
X188112659Y-69848728D01*
X188112658Y-69848727D01*
X188112658Y-69848723D01*
X188070792Y-69747649D01*
X188056085Y-69712143D01*
X188056084Y-69712141D01*
X188005437Y-69636342D01*
X187986553Y-69608079D01*
X187973954Y-69589222D01*
X187973952Y-69589220D01*
X187454461Y-69069728D01*
X187454438Y-69069707D01*
X186599416Y-68214684D01*
X186188780Y-67804048D01*
X186127780Y-67743048D01*
X186127779Y-67743047D01*
X186127778Y-67743046D01*
X186054093Y-67693812D01*
X186054093Y-67693813D01*
X186004855Y-67660913D01*
X185868281Y-67604343D01*
X185868271Y-67604340D01*
X185723284Y-67575500D01*
X185723282Y-67575500D01*
X178127917Y-67575500D01*
X177980082Y-67575500D01*
X177980080Y-67575500D01*
X177835092Y-67604340D01*
X177835082Y-67604343D01*
X177698511Y-67660912D01*
X177698498Y-67660919D01*
X177575584Y-67743048D01*
X177575580Y-67743051D01*
X176917047Y-68401584D01*
X176907565Y-68415777D01*
X176895019Y-68434554D01*
X176874554Y-68465182D01*
X176834914Y-68524507D01*
X176778343Y-68661082D01*
X176778340Y-68661092D01*
X176749500Y-68806079D01*
X176749500Y-70687779D01*
X176729815Y-70754818D01*
X176698385Y-70788097D01*
X176620211Y-70844893D01*
X176620205Y-70844898D01*
X176469894Y-70995209D01*
X176469890Y-70995214D01*
X176350008Y-71160218D01*
X176294678Y-71202884D01*
X176225065Y-71208863D01*
X176163270Y-71176257D01*
X176149372Y-71160218D01*
X176029727Y-70995540D01*
X176029723Y-70995535D01*
X175879464Y-70845276D01*
X175879459Y-70845272D01*
X175707557Y-70720379D01*
X175518215Y-70623903D01*
X175316124Y-70558241D01*
X175250000Y-70547768D01*
X175250000Y-71595854D01*
X175183343Y-71557370D01*
X175062535Y-71525000D01*
X174937465Y-71525000D01*
X174816657Y-71557370D01*
X174750000Y-71595854D01*
X174750000Y-70547768D01*
X174749999Y-70547768D01*
X174683875Y-70558241D01*
X174481784Y-70623903D01*
X174292442Y-70720379D01*
X174120541Y-70845271D01*
X173981668Y-70984144D01*
X173920345Y-71017628D01*
X173850653Y-71012644D01*
X173794720Y-70970772D01*
X173788448Y-70961558D01*
X173780006Y-70947872D01*
X173692712Y-70806344D01*
X173568656Y-70682288D01*
X173419334Y-70590186D01*
X173252797Y-70535001D01*
X173252795Y-70535000D01*
X173150010Y-70524500D01*
X171849998Y-70524500D01*
X171849970Y-70524502D01*
X171829097Y-70526634D01*
X171760405Y-70513862D01*
X171709522Y-70465980D01*
X171692500Y-70403276D01*
X171692500Y-63596724D01*
X171712185Y-63529685D01*
X171764989Y-63483930D01*
X171829103Y-63473366D01*
X171849991Y-63475500D01*
X173150008Y-63475499D01*
X173252797Y-63464999D01*
X173419334Y-63409814D01*
X173568656Y-63317712D01*
X173692712Y-63193656D01*
X173784814Y-63044334D01*
X173784814Y-63044331D01*
X173788448Y-63038441D01*
X173840395Y-62991716D01*
X173909358Y-62980493D01*
X173973440Y-63008336D01*
X173981668Y-63015856D01*
X174120535Y-63154723D01*
X174120540Y-63154727D01*
X174292442Y-63279620D01*
X174481782Y-63376095D01*
X174683871Y-63441757D01*
X174750000Y-63452231D01*
X174750000Y-62404145D01*
X174816657Y-62442630D01*
X174937465Y-62475000D01*
X175062535Y-62475000D01*
X175183343Y-62442630D01*
X175250000Y-62404145D01*
X175250000Y-63452230D01*
X175316126Y-63441757D01*
X175316129Y-63441757D01*
X175518217Y-63376095D01*
X175707557Y-63279620D01*
X175879459Y-63154727D01*
X175879464Y-63154723D01*
X176029721Y-63004466D01*
X176149371Y-62839781D01*
X176204701Y-62797115D01*
X176274314Y-62791136D01*
X176336110Y-62823741D01*
X176350008Y-62839781D01*
X176469890Y-63004785D01*
X176469894Y-63004790D01*
X176620213Y-63155109D01*
X176792179Y-63280048D01*
X176792181Y-63280049D01*
X176792184Y-63280051D01*
X176981588Y-63376557D01*
X177183757Y-63442246D01*
X177393713Y-63475500D01*
X177393714Y-63475500D01*
X177606286Y-63475500D01*
X177606287Y-63475500D01*
X177816243Y-63442246D01*
X178018412Y-63376557D01*
X178207816Y-63280051D01*
X178306052Y-63208679D01*
X178379786Y-63155109D01*
X178379788Y-63155106D01*
X178379792Y-63155104D01*
X178530104Y-63004792D01*
X178649683Y-62840204D01*
X178705011Y-62797540D01*
X178774624Y-62791561D01*
X178836420Y-62824166D01*
X178850313Y-62840199D01*
X178941468Y-62965664D01*
X178969896Y-63004792D01*
X179120213Y-63155109D01*
X179292179Y-63280048D01*
X179292181Y-63280049D01*
X179292184Y-63280051D01*
X179481588Y-63376557D01*
X179683757Y-63442246D01*
X179893713Y-63475500D01*
X179893714Y-63475500D01*
X180106286Y-63475500D01*
X180106287Y-63475500D01*
X180316243Y-63442246D01*
X180518412Y-63376557D01*
X180707816Y-63280051D01*
X180806052Y-63208679D01*
X180879786Y-63155109D01*
X180879788Y-63155106D01*
X180879792Y-63155104D01*
X181030104Y-63004792D01*
X181149683Y-62840204D01*
X181205011Y-62797540D01*
X181274624Y-62791561D01*
X181336420Y-62824166D01*
X181350313Y-62840199D01*
X181441468Y-62965664D01*
X181469896Y-63004792D01*
X181620213Y-63155109D01*
X181792179Y-63280048D01*
X181792181Y-63280049D01*
X181792184Y-63280051D01*
X181981588Y-63376557D01*
X182183757Y-63442246D01*
X182393713Y-63475500D01*
X182393714Y-63475500D01*
X182606286Y-63475500D01*
X182606287Y-63475500D01*
X182816243Y-63442246D01*
X183018412Y-63376557D01*
X183207816Y-63280051D01*
X183306052Y-63208679D01*
X183379786Y-63155109D01*
X183379788Y-63155106D01*
X183379792Y-63155104D01*
X183530104Y-63004792D01*
X183649683Y-62840204D01*
X183705011Y-62797540D01*
X183774624Y-62791561D01*
X183836420Y-62824166D01*
X183850313Y-62840199D01*
X183941468Y-62965664D01*
X183969896Y-63004792D01*
X184120213Y-63155109D01*
X184292179Y-63280048D01*
X184292181Y-63280049D01*
X184292184Y-63280051D01*
X184481588Y-63376557D01*
X184683757Y-63442246D01*
X184893713Y-63475500D01*
X184893714Y-63475500D01*
X185106286Y-63475500D01*
X185106287Y-63475500D01*
X185316243Y-63442246D01*
X185518412Y-63376557D01*
X185707816Y-63280051D01*
X185806052Y-63208679D01*
X185879786Y-63155109D01*
X185879788Y-63155106D01*
X185879792Y-63155104D01*
X186030104Y-63004792D01*
X186030106Y-63004788D01*
X186030109Y-63004786D01*
X186155048Y-62832820D01*
X186155047Y-62832820D01*
X186155051Y-62832816D01*
X186251557Y-62643412D01*
X186317246Y-62441243D01*
X186350500Y-62231287D01*
X186350500Y-61768713D01*
X186317246Y-61558757D01*
X186251557Y-61356588D01*
X186155051Y-61167184D01*
X186155049Y-61167181D01*
X186155048Y-61167179D01*
X186030109Y-60995213D01*
X185879794Y-60844898D01*
X185879788Y-60844893D01*
X185801615Y-60788097D01*
X185758949Y-60732767D01*
X185750500Y-60687779D01*
X185750500Y-59577079D01*
X185721659Y-59432092D01*
X185721658Y-59432091D01*
X185721658Y-59432087D01*
X185686338Y-59346816D01*
X185665087Y-59295511D01*
X185665080Y-59295498D01*
X185582952Y-59172585D01*
X185582951Y-59172584D01*
X185478416Y-59068049D01*
X185072867Y-58662500D01*
X183739421Y-57329052D01*
X183739414Y-57329046D01*
X183665729Y-57279812D01*
X183665729Y-57279813D01*
X183616491Y-57246913D01*
X183479917Y-57190343D01*
X183479907Y-57190340D01*
X183334920Y-57161500D01*
X183334918Y-57161500D01*
X170492957Y-57161500D01*
X170425918Y-57141815D01*
X170405276Y-57125181D01*
X169969149Y-56689052D01*
X169969142Y-56689046D01*
X169895457Y-56639812D01*
X169895457Y-56639813D01*
X169846219Y-56606913D01*
X169709645Y-56550343D01*
X169709635Y-56550340D01*
X169564648Y-56521500D01*
X169564646Y-56521500D01*
X134727354Y-56521500D01*
X134727352Y-56521500D01*
X134582364Y-56550340D01*
X134582354Y-56550343D01*
X134445780Y-56606913D01*
X134322856Y-56689048D01*
X134322856Y-56689049D01*
X131346723Y-59665181D01*
X131285400Y-59698666D01*
X131259042Y-59701500D01*
X127688080Y-59701500D01*
X127543092Y-59730340D01*
X127543082Y-59730343D01*
X127406511Y-59786912D01*
X127406498Y-59786919D01*
X127283584Y-59869048D01*
X127283580Y-59869051D01*
X124893050Y-62259580D01*
X124893044Y-62259588D01*
X124843812Y-62333268D01*
X124843813Y-62333269D01*
X124810921Y-62382496D01*
X124810914Y-62382508D01*
X124754342Y-62519086D01*
X124754340Y-62519092D01*
X124725500Y-62664079D01*
X124725500Y-62882582D01*
X124705815Y-62949621D01*
X124674385Y-62982900D01*
X124628787Y-63016028D01*
X124628782Y-63016032D01*
X124484028Y-63160786D01*
X124363715Y-63326386D01*
X124270781Y-63508776D01*
X124207522Y-63703465D01*
X124175500Y-63905648D01*
X121250000Y-63905648D01*
X121250000Y-63761176D01*
X121249999Y-63761172D01*
X121216677Y-63465423D01*
X121216674Y-63465405D01*
X121150444Y-63175230D01*
X121150440Y-63175218D01*
X121052141Y-62894297D01*
X121052135Y-62894283D01*
X120922998Y-62626127D01*
X120764646Y-62374112D01*
X120642548Y-62221004D01*
X120392781Y-62470771D01*
X120331458Y-62504256D01*
X120261766Y-62499272D01*
X120217419Y-62470771D01*
X120039227Y-62292579D01*
X120005742Y-62231256D01*
X120010726Y-62161564D01*
X120039227Y-62117217D01*
X120288995Y-61867449D01*
X120135901Y-61745362D01*
X120135897Y-61745359D01*
X119883872Y-61587001D01*
X119615716Y-61457864D01*
X119615702Y-61457858D01*
X119334781Y-61359559D01*
X119334769Y-61359555D01*
X119044594Y-61293325D01*
X119044576Y-61293322D01*
X118748827Y-61260000D01*
X118747174Y-61260000D01*
X118746784Y-61259885D01*
X118745350Y-61259805D01*
X118745368Y-61259469D01*
X118680135Y-61240315D01*
X118634380Y-61187511D01*
X118624436Y-61118353D01*
X118653461Y-61054797D01*
X118659477Y-61048335D01*
X123876377Y-55831437D01*
X123937700Y-55797952D01*
X123964058Y-55795118D01*
X189035942Y-55795118D01*
X189102981Y-55814803D01*
G37*
%TD.AperFunction*%
%TD*%
M02*
