M48
; DRILL file {KiCad 9.0.0} date 2025-03-23T18:07:35+0100
; FORMAT={-:-/ absolute / metric / decimal}
; #@! TF.CreationDate,2025-03-23T18:07:35+01:00
; #@! TF.GenerationSoftware,Kicad,Pcbnew,9.0.0
; #@! TF.FileFunction,Plated,1,2,PTH
FMAT,2
METRIC
; #@! TA.AperFunction,Plated,PTH,ComponentDrill
T1C0.800
; #@! TA.AperFunction,Plated,PTH,ComponentDrill
T2C0.900
; #@! TA.AperFunction,Plated,PTH,ComponentDrill
T3C0.950
; #@! TA.AperFunction,Plated,PTH,ComponentDrill
T4C1.000
; #@! TA.AperFunction,Plated,PTH,ComponentDrill
T5C1.520
; #@! TA.AperFunction,Plated,PTH,ComponentDrill
T6C3.200
%
G90
G05
T1
X131.572Y-67.056
X135.636Y-69.85
X135.636Y-72.898
X135.636Y-76.2
X136.144Y-124.206
X141.732Y-67.056
X145.796Y-69.85
X145.796Y-72.898
X145.796Y-76.2
X146.304Y-124.206
T2
X125.222Y-104.648
X126.492Y-104.648
X127.762Y-104.648
X129.032Y-104.648
X131.064Y-124.206
X133.604Y-124.206
T3
X153.536Y-126.0
X156.036Y-126.0
X158.536Y-126.0
X161.036Y-126.0
X172.5Y-62.0
X172.5Y-72.0
X175.0Y-62.0
X175.0Y-72.0
X176.904Y-126.0
X177.5Y-62.0
X177.5Y-72.0
X179.404Y-126.0
X180.0Y-62.0
X180.0Y-72.0
X181.904Y-126.0
X182.5Y-62.0
X182.5Y-72.0
X184.404Y-126.0
X185.0Y-62.0
X185.0Y-72.0
T4
X125.476Y-64.008
X125.476Y-79.248
X127.0Y-121.92
X127.0Y-124.46
X128.016Y-64.008
X128.016Y-79.248
X130.556Y-64.008
X130.556Y-79.248
X131.318Y-86.36
X131.318Y-92.738
X131.318Y-99.06
X133.096Y-64.008
X133.096Y-79.248
X133.858Y-86.36
X133.858Y-92.738
X133.858Y-99.06
X135.636Y-64.008
X135.636Y-79.248
X136.892Y-110.044
X136.892Y-112.584
X136.892Y-115.124
X138.176Y-64.008
X138.176Y-79.248
X140.716Y-64.008
X140.716Y-79.248
X141.986Y-109.982
X141.986Y-112.522
X141.986Y-115.062
X143.256Y-64.008
X143.256Y-79.248
X145.796Y-64.008
X145.796Y-79.248
X148.21Y-106.934
X148.21Y-119.634
X148.336Y-64.008
X148.336Y-79.248
X150.75Y-106.934
X150.75Y-119.634
X150.876Y-64.008
X150.876Y-79.248
X153.29Y-106.934
X153.29Y-119.634
X153.416Y-64.008
X153.416Y-79.248
X155.83Y-106.934
X155.83Y-119.634
X155.956Y-64.008
X155.956Y-79.248
X158.37Y-106.934
X158.37Y-119.634
X158.496Y-64.008
X158.496Y-79.248
X160.91Y-106.934
X160.91Y-119.634
X161.036Y-64.008
X161.036Y-79.248
X163.45Y-106.934
X163.45Y-119.634
X165.99Y-106.934
X165.99Y-119.634
X171.704Y-106.934
X171.704Y-119.634
X174.244Y-106.934
X174.244Y-119.634
X176.784Y-106.934
X176.784Y-119.634
X179.324Y-106.934
X179.324Y-119.634
X181.864Y-106.934
X181.864Y-119.634
X184.404Y-106.934
X184.404Y-119.634
X186.944Y-106.934
X186.944Y-119.634
X189.484Y-106.934
X189.484Y-119.634
T5
X127.0Y-110.744
X127.0Y-115.824
T6
X118.6Y-63.91
X118.6Y-121.7
X194.4Y-63.9
X194.4Y-121.7
M30
