%TF.GenerationSoftware,KiCad,Pcbnew,9.0.0*%
%TF.CreationDate,2025-03-23T18:41:59+01:00*%
%TF.ProjectId,Board_Main,426f6172-645f-44d6-9169-6e2e6b696361,rev?*%
%TF.SameCoordinates,Original*%
%TF.FileFunction,Profile,NP*%
%FSLAX46Y46*%
G04 Gerber Fmt 4.6, Leading zero omitted, Abs format (unit mm)*
G04 Created by KiCad (PCBNEW 9.0.0) date 2025-03-23 18:41:59*
%MOMM*%
%LPD*%
G01*
G04 APERTURE LIST*
%TA.AperFunction,Profile*%
%ADD10C,0.200000*%
%TD*%
G04 APERTURE END LIST*
D10*
X36540000Y-23450000D02*
X46540000Y-23450000D01*
X133540000Y-183450000D02*
X146540000Y-183450000D01*
X59540000Y-183450000D02*
X133540000Y-183450000D01*
X133190001Y-177450001D02*
G75*
G02*
X129890001Y-177450001I-1650000J0D01*
G01*
X129890001Y-177450001D02*
G75*
G02*
X133190001Y-177450001I1650000J0D01*
G01*
X46540000Y-23450000D02*
X59540000Y-23450000D01*
X59540000Y-183450000D02*
X46540000Y-183450000D01*
X63189999Y-29449999D02*
G75*
G02*
X59889999Y-29449999I-1650000J0D01*
G01*
X59889999Y-29449999D02*
G75*
G02*
X63189999Y-29449999I1650000J0D01*
G01*
X166540000Y-183450000D02*
X146540000Y-183450000D01*
X133190001Y-29449999D02*
G75*
G02*
X129890001Y-29449999I-1650000J0D01*
G01*
X129890001Y-29449999D02*
G75*
G02*
X133190001Y-29449999I1650000J0D01*
G01*
X133540000Y-23450000D02*
X146540000Y-23450000D01*
X166540000Y-183450000D02*
X166540000Y-23450000D01*
X36540000Y-183450000D02*
X46540000Y-183450000D01*
X166540000Y-23450000D02*
X146540000Y-23450000D01*
X133540000Y-23450000D02*
X59540000Y-23450000D01*
X63189999Y-177450001D02*
G75*
G02*
X59889999Y-177450001I-1650000J0D01*
G01*
X59889999Y-177450001D02*
G75*
G02*
X63189999Y-177450001I1650000J0D01*
G01*
X36540000Y-23450000D02*
X36540000Y-183450000D01*
M02*
