M48
; DRILL file {KiCad 9.0.0} date 2025-03-23T18:42:04+0100
; FORMAT={-:-/ absolute / metric / decimal}
; #@! TF.CreationDate,2025-03-23T18:42:04+01:00
; #@! TF.GenerationSoftware,Kicad,Pcbnew,9.0.0
; #@! TF.FileFunction,Plated,1,2,PTH
FMAT,2
METRIC
; #@! TA.AperFunction,Plated,PTH,ViaDrill
T1C0.300
; #@! TA.AperFunction,Plated,PTH,ComponentDrill
T2C0.800
; #@! TA.AperFunction,Plated,PTH,ComponentDrill
T3C0.900
; #@! TA.AperFunction,Plated,PTH,ComponentDrill
T4C0.950
; #@! TA.AperFunction,Plated,PTH,ComponentDrill
T5C1.000
; #@! TA.AperFunction,Plated,PTH,ComponentDrill
T6C1.020
; #@! TA.AperFunction,Plated,PTH,ComponentDrill
T7C1.400
; #@! TA.AperFunction,Plated,PTH,ComponentDrill
T8C1.520
; #@! TA.AperFunction,Plated,PTH,ComponentDrill
T9C3.200
%
G90
G05
T1
X107.95Y-38.735
X114.807Y-82.244
X114.924Y-132.091
X118.212Y-38.202
X118.23Y-46.856
X120.344Y-82.244
X123.19Y-86.995
X123.19Y-124.46
T2
X68.58Y-34.29
X71.628Y-99.013
X71.628Y-101.553
X71.628Y-104.093
X71.628Y-106.633
X71.628Y-109.173
X71.628Y-111.713
X71.628Y-114.253
X78.74Y-34.29
X79.248Y-99.013
X79.248Y-101.553
X79.248Y-104.093
X79.248Y-106.633
X79.248Y-109.173
X79.248Y-111.713
X79.248Y-114.253
X110.49Y-34.29
X113.792Y-114.3
X113.792Y-124.46
X120.65Y-34.29
X138.39Y-101.172
X138.517Y-65.485
X138.771Y-135.081
X148.55Y-101.172
X148.677Y-65.485
X148.931Y-135.081
T3
X78.74Y-27.94
X81.28Y-27.94
T4
X67.51Y-177.372
X70.01Y-177.372
X72.51Y-177.372
X75.01Y-177.372
X77.51Y-177.372
X80.01Y-177.372
X86.68Y-177.372
X89.18Y-177.372
X91.68Y-177.372
X94.18Y-177.372
X96.68Y-177.372
X99.18Y-177.372
X101.68Y-177.372
X104.18Y-177.372
X106.68Y-177.372
X113.03Y-177.343
X115.53Y-177.343
X117.595Y-29.211
X118.03Y-177.343
X120.095Y-29.211
X120.53Y-177.343
X122.595Y-29.211
X123.03Y-177.343
X125.095Y-29.211
X125.53Y-177.343
X160.655Y-28.902
X160.655Y-31.402
X160.655Y-33.902
X160.655Y-36.402
X160.655Y-46.682
X160.655Y-49.182
X160.655Y-51.682
X160.655Y-54.182
X160.655Y-64.462
X160.655Y-66.962
X160.655Y-69.462
X160.655Y-71.962
X160.655Y-82.242
X160.655Y-84.742
X160.655Y-87.242
X160.655Y-89.742
X160.655Y-100.022
X160.655Y-102.522
X160.655Y-105.022
X160.655Y-107.522
X160.655Y-116.532
X160.655Y-119.032
X160.655Y-121.532
X160.655Y-124.032
X160.655Y-134.312
X160.655Y-136.812
X160.655Y-139.312
X160.655Y-141.812
X160.655Y-152.092
X160.655Y-154.592
X160.655Y-157.092
X160.655Y-159.592
X160.655Y-169.752
X160.655Y-172.252
X160.655Y-174.752
X160.655Y-177.252
T5
X43.18Y-27.94
X43.18Y-30.44
X43.18Y-38.1
X43.18Y-40.6
X43.18Y-48.22
X43.18Y-50.72
X43.18Y-58.38
X43.18Y-60.88
X43.18Y-68.58
X43.18Y-71.08
X43.18Y-78.74
X43.18Y-81.24
X43.18Y-88.94
X43.18Y-91.44
X43.18Y-99.1
X43.18Y-101.6
X43.18Y-109.26
X43.18Y-111.76
X43.18Y-119.42
X43.18Y-121.92
X43.18Y-129.58
X43.18Y-132.08
X43.18Y-139.74
X43.18Y-142.24
X43.18Y-149.9
X43.18Y-152.4
X43.18Y-160.06
X43.18Y-162.56
X43.18Y-170.22
X43.18Y-172.72
X52.11Y-29.21
X52.11Y-176.53
X54.61Y-29.21
X54.61Y-176.53
X68.58Y-29.21
X71.08Y-29.21
X107.99Y-29.21
X110.49Y-29.21
X125.73Y-133.35
X125.73Y-138.43
X125.73Y-143.08
X125.73Y-147.73
X125.73Y-152.38
X125.73Y-157.03
X125.73Y-161.68
X125.73Y-166.37
X128.27Y-133.35
X128.27Y-138.43
X128.27Y-143.08
X128.27Y-147.73
X128.27Y-152.38
X128.27Y-157.03
X128.27Y-161.68
X128.27Y-166.37
X130.81Y-133.35
X130.81Y-138.43
X130.81Y-143.08
X130.81Y-147.73
X130.81Y-152.38
X130.81Y-157.03
X130.81Y-161.68
X130.81Y-166.37
X137.12Y-26.242
X137.12Y-38.942
X137.12Y-44.022
X137.12Y-56.722
X137.12Y-61.802
X137.12Y-74.502
X137.12Y-79.582
X137.12Y-92.282
X137.12Y-97.362
X137.12Y-110.062
X137.12Y-113.872
X137.12Y-126.572
X137.12Y-131.652
X137.12Y-144.352
X137.12Y-149.432
X137.12Y-162.132
X137.12Y-167.212
X137.12Y-179.912
X139.66Y-26.242
X139.66Y-38.942
X139.66Y-44.022
X139.66Y-56.722
X139.66Y-61.802
X139.66Y-74.502
X139.66Y-79.582
X139.66Y-92.282
X139.66Y-97.362
X139.66Y-110.062
X139.66Y-113.872
X139.66Y-126.572
X139.66Y-131.652
X139.66Y-144.352
X139.66Y-149.432
X139.66Y-162.132
X139.66Y-167.212
X139.66Y-179.912
X142.2Y-26.242
X142.2Y-38.942
X142.2Y-44.022
X142.2Y-56.722
X142.2Y-61.802
X142.2Y-74.502
X142.2Y-79.582
X142.2Y-92.282
X142.2Y-97.362
X142.2Y-110.062
X142.2Y-113.872
X142.2Y-126.572
X142.2Y-131.652
X142.2Y-144.352
X142.2Y-149.432
X142.2Y-162.132
X142.2Y-167.212
X142.2Y-179.912
X144.74Y-26.242
X144.74Y-38.942
X144.74Y-44.022
X144.74Y-56.722
X144.74Y-61.802
X144.74Y-74.502
X144.74Y-79.582
X144.74Y-92.282
X144.74Y-97.362
X144.74Y-110.062
X144.74Y-113.872
X144.74Y-126.572
X144.74Y-131.652
X144.74Y-144.352
X144.74Y-149.432
X144.74Y-162.132
X144.74Y-167.212
X144.74Y-179.912
X147.28Y-26.242
X147.28Y-38.942
X147.28Y-44.022
X147.28Y-56.722
X147.28Y-61.802
X147.28Y-74.502
X147.28Y-79.582
X147.28Y-92.282
X147.28Y-97.362
X147.28Y-110.062
X147.28Y-113.872
X147.28Y-126.572
X147.28Y-131.652
X147.28Y-144.352
X147.28Y-149.432
X147.28Y-162.132
X147.28Y-167.212
X147.28Y-179.912
X149.82Y-26.242
X149.82Y-38.942
X149.82Y-44.022
X149.82Y-56.722
X149.82Y-61.802
X149.82Y-74.502
X149.82Y-79.582
X149.82Y-92.282
X149.82Y-97.362
X149.82Y-110.062
X149.82Y-113.872
X149.82Y-126.572
X149.82Y-131.652
X149.82Y-144.352
X149.82Y-149.432
X149.82Y-162.132
X149.82Y-167.212
X149.82Y-179.912
X152.36Y-26.242
X152.36Y-38.942
X152.36Y-44.022
X152.36Y-56.722
X152.36Y-61.802
X152.36Y-74.502
X152.36Y-79.582
X152.36Y-92.282
X152.36Y-97.362
X152.36Y-110.062
X152.36Y-113.872
X152.36Y-126.572
X152.36Y-131.652
X152.36Y-144.352
X152.36Y-149.432
X152.36Y-162.132
X152.36Y-167.212
X152.36Y-179.912
X154.9Y-26.242
X154.9Y-38.942
X154.9Y-44.022
X154.9Y-56.722
X154.9Y-61.802
X154.9Y-74.502
X154.9Y-79.582
X154.9Y-92.282
X154.9Y-97.362
X154.9Y-110.062
X154.9Y-113.872
X154.9Y-126.572
X154.9Y-131.652
X154.9Y-144.352
X154.9Y-149.432
X154.9Y-162.132
X154.9Y-167.212
X154.9Y-179.912
T6
X62.35Y-78.688
X62.35Y-81.228
X62.35Y-83.768
X62.35Y-86.308
X62.35Y-88.848
X62.35Y-91.388
X62.35Y-93.928
X62.35Y-96.468
X62.35Y-101.548
X62.35Y-104.088
X62.35Y-106.628
X62.35Y-109.168
X62.35Y-111.708
X62.35Y-114.248
X62.35Y-116.788
X62.35Y-119.328
X62.35Y-121.868
X62.35Y-124.408
X62.35Y-126.948
X62.35Y-129.488
X62.35Y-132.028
X62.35Y-134.568
X62.35Y-137.108
X64.89Y-78.688
X64.89Y-81.228
X64.89Y-83.768
X64.89Y-86.308
X64.89Y-88.848
X64.89Y-91.388
X64.89Y-93.928
X64.89Y-96.468
X64.89Y-101.548
X64.89Y-104.088
X64.89Y-106.628
X64.89Y-109.168
X64.89Y-111.708
X64.89Y-114.248
X64.89Y-116.788
X64.89Y-119.328
X64.89Y-121.868
X64.89Y-124.408
X64.89Y-126.948
X64.89Y-129.488
X64.89Y-132.028
X64.89Y-134.568
X64.89Y-137.108
X108.07Y-69.544
X108.07Y-72.084
X108.07Y-74.624
X108.07Y-77.164
X108.07Y-79.704
X108.07Y-82.244
X108.07Y-84.784
X108.07Y-87.324
X108.07Y-89.864
X108.07Y-92.404
X108.07Y-96.468
X108.07Y-99.008
X108.07Y-101.548
X108.07Y-104.088
X108.07Y-106.628
X108.07Y-109.168
X108.07Y-111.708
X108.07Y-114.248
X108.07Y-116.788
X108.07Y-119.328
X108.07Y-121.868
X108.07Y-124.408
X108.07Y-126.948
X108.07Y-129.488
X108.07Y-132.028
X108.07Y-134.568
X108.07Y-137.108
X110.61Y-69.544
X110.61Y-72.084
X110.61Y-74.624
X110.61Y-77.164
X110.61Y-79.704
X110.61Y-82.244
X110.61Y-84.784
X110.61Y-87.324
X110.61Y-89.864
X110.61Y-92.404
X110.61Y-96.468
X110.61Y-99.008
X110.61Y-101.548
X110.61Y-104.088
X110.61Y-106.628
X110.61Y-109.168
X110.61Y-111.708
X110.61Y-114.248
X110.61Y-116.788
X110.61Y-119.328
X110.61Y-121.868
X110.61Y-124.408
X110.61Y-126.948
X110.61Y-129.488
X110.61Y-132.028
X110.61Y-134.568
X110.61Y-137.108
T7
X57.912Y-76.2
X57.912Y-88.9
T8
X86.36Y-29.21
X91.44Y-29.21
X96.52Y-29.21
X101.6Y-29.21
T9
X61.52Y-177.44
X61.56Y-29.46
X131.53Y-177.44
X131.59Y-29.46
M30
