%TF.GenerationSoftware,KiCad,Pcbnew,9.0.0*%
%TF.CreationDate,2025-03-23T18:41:59+01:00*%
%TF.ProjectId,Board_Main,426f6172-645f-44d6-9169-6e2e6b696361,rev?*%
%TF.SameCoordinates,Original*%
%TF.FileFunction,Legend,Top*%
%TF.FilePolarity,Positive*%
%FSLAX46Y46*%
G04 Gerber Fmt 4.6, Leading zero omitted, Abs format (unit mm)*
G04 Created by KiCad (PCBNEW 9.0.0) date 2025-03-23 18:41:59*
%MOMM*%
%LPD*%
G01*
G04 APERTURE LIST*
%ADD10C,0.250000*%
%ADD11C,0.150000*%
%ADD12C,0.100000*%
%ADD13C,0.120000*%
%ADD14C,0.127000*%
%ADD15C,0.200000*%
G04 APERTURE END LIST*
D10*
X86016377Y-33837238D02*
X85921139Y-33789619D01*
X85921139Y-33789619D02*
X85778282Y-33789619D01*
X85778282Y-33789619D02*
X85635425Y-33837238D01*
X85635425Y-33837238D02*
X85540187Y-33932476D01*
X85540187Y-33932476D02*
X85492568Y-34027714D01*
X85492568Y-34027714D02*
X85444949Y-34218190D01*
X85444949Y-34218190D02*
X85444949Y-34361047D01*
X85444949Y-34361047D02*
X85492568Y-34551523D01*
X85492568Y-34551523D02*
X85540187Y-34646761D01*
X85540187Y-34646761D02*
X85635425Y-34742000D01*
X85635425Y-34742000D02*
X85778282Y-34789619D01*
X85778282Y-34789619D02*
X85873520Y-34789619D01*
X85873520Y-34789619D02*
X86016377Y-34742000D01*
X86016377Y-34742000D02*
X86063996Y-34694380D01*
X86063996Y-34694380D02*
X86063996Y-34361047D01*
X86063996Y-34361047D02*
X85873520Y-34361047D01*
X86492568Y-34789619D02*
X86492568Y-33789619D01*
X86492568Y-33789619D02*
X87063996Y-34789619D01*
X87063996Y-34789619D02*
X87063996Y-33789619D01*
X87540187Y-34789619D02*
X87540187Y-33789619D01*
X87540187Y-33789619D02*
X87778282Y-33789619D01*
X87778282Y-33789619D02*
X87921139Y-33837238D01*
X87921139Y-33837238D02*
X88016377Y-33932476D01*
X88016377Y-33932476D02*
X88063996Y-34027714D01*
X88063996Y-34027714D02*
X88111615Y-34218190D01*
X88111615Y-34218190D02*
X88111615Y-34361047D01*
X88111615Y-34361047D02*
X88063996Y-34551523D01*
X88063996Y-34551523D02*
X88016377Y-34646761D01*
X88016377Y-34646761D02*
X87921139Y-34742000D01*
X87921139Y-34742000D02*
X87778282Y-34789619D01*
X87778282Y-34789619D02*
X87540187Y-34789619D01*
X91683758Y-33789619D02*
X91207568Y-33789619D01*
X91207568Y-33789619D02*
X91159949Y-34265809D01*
X91159949Y-34265809D02*
X91207568Y-34218190D01*
X91207568Y-34218190D02*
X91302806Y-34170571D01*
X91302806Y-34170571D02*
X91540901Y-34170571D01*
X91540901Y-34170571D02*
X91636139Y-34218190D01*
X91636139Y-34218190D02*
X91683758Y-34265809D01*
X91683758Y-34265809D02*
X91731377Y-34361047D01*
X91731377Y-34361047D02*
X91731377Y-34599142D01*
X91731377Y-34599142D02*
X91683758Y-34694380D01*
X91683758Y-34694380D02*
X91636139Y-34742000D01*
X91636139Y-34742000D02*
X91540901Y-34789619D01*
X91540901Y-34789619D02*
X91302806Y-34789619D01*
X91302806Y-34789619D02*
X91207568Y-34742000D01*
X91207568Y-34742000D02*
X91159949Y-34694380D01*
X92017092Y-33789619D02*
X92350425Y-34789619D01*
X92350425Y-34789619D02*
X92683758Y-33789619D01*
X101256377Y-34789619D02*
X100684949Y-34789619D01*
X100970663Y-34789619D02*
X100970663Y-33789619D01*
X100970663Y-33789619D02*
X100875425Y-33932476D01*
X100875425Y-33932476D02*
X100780187Y-34027714D01*
X100780187Y-34027714D02*
X100684949Y-34075333D01*
X102113520Y-33789619D02*
X101923044Y-33789619D01*
X101923044Y-33789619D02*
X101827806Y-33837238D01*
X101827806Y-33837238D02*
X101780187Y-33884857D01*
X101780187Y-33884857D02*
X101684949Y-34027714D01*
X101684949Y-34027714D02*
X101637330Y-34218190D01*
X101637330Y-34218190D02*
X101637330Y-34599142D01*
X101637330Y-34599142D02*
X101684949Y-34694380D01*
X101684949Y-34694380D02*
X101732568Y-34742000D01*
X101732568Y-34742000D02*
X101827806Y-34789619D01*
X101827806Y-34789619D02*
X102018282Y-34789619D01*
X102018282Y-34789619D02*
X102113520Y-34742000D01*
X102113520Y-34742000D02*
X102161139Y-34694380D01*
X102161139Y-34694380D02*
X102208758Y-34599142D01*
X102208758Y-34599142D02*
X102208758Y-34361047D01*
X102208758Y-34361047D02*
X102161139Y-34265809D01*
X102161139Y-34265809D02*
X102113520Y-34218190D01*
X102113520Y-34218190D02*
X102018282Y-34170571D01*
X102018282Y-34170571D02*
X101827806Y-34170571D01*
X101827806Y-34170571D02*
X101732568Y-34218190D01*
X101732568Y-34218190D02*
X101684949Y-34265809D01*
X101684949Y-34265809D02*
X101637330Y-34361047D01*
X102494473Y-33789619D02*
X102827806Y-34789619D01*
X102827806Y-34789619D02*
X103161139Y-33789619D01*
X95557330Y-33789619D02*
X96223996Y-33789619D01*
X96223996Y-33789619D02*
X95795425Y-34789619D01*
X96462092Y-33789619D02*
X96795425Y-34789619D01*
X96795425Y-34789619D02*
X97128758Y-33789619D01*
D11*
X124499857Y-33221526D02*
X124023667Y-33221526D01*
X124023667Y-33221526D02*
X124023667Y-32221526D01*
X124833191Y-33221526D02*
X124833191Y-32221526D01*
X125309381Y-33221526D02*
X125309381Y-32221526D01*
X125309381Y-32221526D02*
X125547476Y-32221526D01*
X125547476Y-32221526D02*
X125690333Y-32269145D01*
X125690333Y-32269145D02*
X125785571Y-32364383D01*
X125785571Y-32364383D02*
X125833190Y-32459621D01*
X125833190Y-32459621D02*
X125880809Y-32650097D01*
X125880809Y-32650097D02*
X125880809Y-32792954D01*
X125880809Y-32792954D02*
X125833190Y-32983430D01*
X125833190Y-32983430D02*
X125785571Y-33078668D01*
X125785571Y-33078668D02*
X125690333Y-33173907D01*
X125690333Y-33173907D02*
X125547476Y-33221526D01*
X125547476Y-33221526D02*
X125309381Y-33221526D01*
X126261762Y-32935811D02*
X126737952Y-32935811D01*
X126166524Y-33221526D02*
X126499857Y-32221526D01*
X126499857Y-32221526D02*
X126833190Y-33221526D01*
X127737952Y-33221526D02*
X127404619Y-32745335D01*
X127166524Y-33221526D02*
X127166524Y-32221526D01*
X127166524Y-32221526D02*
X127547476Y-32221526D01*
X127547476Y-32221526D02*
X127642714Y-32269145D01*
X127642714Y-32269145D02*
X127690333Y-32316764D01*
X127690333Y-32316764D02*
X127737952Y-32412002D01*
X127737952Y-32412002D02*
X127737952Y-32554859D01*
X127737952Y-32554859D02*
X127690333Y-32650097D01*
X127690333Y-32650097D02*
X127642714Y-32697716D01*
X127642714Y-32697716D02*
X127547476Y-32745335D01*
X127547476Y-32745335D02*
X127166524Y-32745335D01*
X55108333Y-34478866D02*
X55108333Y-35612200D01*
X55108333Y-35612200D02*
X55175000Y-35745533D01*
X55175000Y-35745533D02*
X55241666Y-35812200D01*
X55241666Y-35812200D02*
X55375000Y-35878866D01*
X55375000Y-35878866D02*
X55641666Y-35878866D01*
X55641666Y-35878866D02*
X55775000Y-35812200D01*
X55775000Y-35812200D02*
X55841666Y-35745533D01*
X55841666Y-35745533D02*
X55908333Y-35612200D01*
X55908333Y-35612200D02*
X55908333Y-34478866D01*
X57308333Y-35878866D02*
X56508333Y-35878866D01*
X56908333Y-35878866D02*
X56908333Y-34478866D01*
X56908333Y-34478866D02*
X56775000Y-34678866D01*
X56775000Y-34678866D02*
X56641667Y-34812200D01*
X56641667Y-34812200D02*
X56508333Y-34878866D01*
X130768095Y-174094819D02*
X130768095Y-173094819D01*
X130768095Y-173571009D02*
X131339523Y-173571009D01*
X131339523Y-174094819D02*
X131339523Y-173094819D01*
X132244285Y-173428152D02*
X132244285Y-174094819D01*
X132006190Y-173047200D02*
X131768095Y-173761485D01*
X131768095Y-173761485D02*
X132387142Y-173761485D01*
X60758095Y-174094819D02*
X60758095Y-173094819D01*
X60758095Y-173571009D02*
X61329523Y-173571009D01*
X61329523Y-174094819D02*
X61329523Y-173094819D01*
X61710476Y-173094819D02*
X62329523Y-173094819D01*
X62329523Y-173094819D02*
X61996190Y-173475771D01*
X61996190Y-173475771D02*
X62139047Y-173475771D01*
X62139047Y-173475771D02*
X62234285Y-173523390D01*
X62234285Y-173523390D02*
X62281904Y-173571009D01*
X62281904Y-173571009D02*
X62329523Y-173666247D01*
X62329523Y-173666247D02*
X62329523Y-173904342D01*
X62329523Y-173904342D02*
X62281904Y-173999580D01*
X62281904Y-173999580D02*
X62234285Y-174047200D01*
X62234285Y-174047200D02*
X62139047Y-174094819D01*
X62139047Y-174094819D02*
X61853333Y-174094819D01*
X61853333Y-174094819D02*
X61758095Y-174047200D01*
X61758095Y-174047200D02*
X61710476Y-173999580D01*
X130828095Y-26114819D02*
X130828095Y-25114819D01*
X130828095Y-25591009D02*
X131399523Y-25591009D01*
X131399523Y-26114819D02*
X131399523Y-25114819D01*
X131828095Y-25210057D02*
X131875714Y-25162438D01*
X131875714Y-25162438D02*
X131970952Y-25114819D01*
X131970952Y-25114819D02*
X132209047Y-25114819D01*
X132209047Y-25114819D02*
X132304285Y-25162438D01*
X132304285Y-25162438D02*
X132351904Y-25210057D01*
X132351904Y-25210057D02*
X132399523Y-25305295D01*
X132399523Y-25305295D02*
X132399523Y-25400533D01*
X132399523Y-25400533D02*
X132351904Y-25543390D01*
X132351904Y-25543390D02*
X131780476Y-26114819D01*
X131780476Y-26114819D02*
X132399523Y-26114819D01*
X60798095Y-26114819D02*
X60798095Y-25114819D01*
X60798095Y-25591009D02*
X61369523Y-25591009D01*
X61369523Y-26114819D02*
X61369523Y-25114819D01*
X62369523Y-26114819D02*
X61798095Y-26114819D01*
X62083809Y-26114819D02*
X62083809Y-25114819D01*
X62083809Y-25114819D02*
X61988571Y-25257676D01*
X61988571Y-25257676D02*
X61893333Y-25352914D01*
X61893333Y-25352914D02*
X61798095Y-25400533D01*
X47137200Y-100393332D02*
X47184819Y-100250475D01*
X47184819Y-100250475D02*
X47184819Y-100012380D01*
X47184819Y-100012380D02*
X47137200Y-99917142D01*
X47137200Y-99917142D02*
X47089580Y-99869523D01*
X47089580Y-99869523D02*
X46994342Y-99821904D01*
X46994342Y-99821904D02*
X46899104Y-99821904D01*
X46899104Y-99821904D02*
X46803866Y-99869523D01*
X46803866Y-99869523D02*
X46756247Y-99917142D01*
X46756247Y-99917142D02*
X46708628Y-100012380D01*
X46708628Y-100012380D02*
X46661009Y-100202856D01*
X46661009Y-100202856D02*
X46613390Y-100298094D01*
X46613390Y-100298094D02*
X46565771Y-100345713D01*
X46565771Y-100345713D02*
X46470533Y-100393332D01*
X46470533Y-100393332D02*
X46375295Y-100393332D01*
X46375295Y-100393332D02*
X46280057Y-100345713D01*
X46280057Y-100345713D02*
X46232438Y-100298094D01*
X46232438Y-100298094D02*
X46184819Y-100202856D01*
X46184819Y-100202856D02*
X46184819Y-99964761D01*
X46184819Y-99964761D02*
X46232438Y-99821904D01*
X46184819Y-99488570D02*
X47184819Y-99250475D01*
X47184819Y-99250475D02*
X46470533Y-99059999D01*
X46470533Y-99059999D02*
X47184819Y-98869523D01*
X47184819Y-98869523D02*
X46184819Y-98631428D01*
X46613390Y-98107618D02*
X46565771Y-98202856D01*
X46565771Y-98202856D02*
X46518152Y-98250475D01*
X46518152Y-98250475D02*
X46422914Y-98298094D01*
X46422914Y-98298094D02*
X46375295Y-98298094D01*
X46375295Y-98298094D02*
X46280057Y-98250475D01*
X46280057Y-98250475D02*
X46232438Y-98202856D01*
X46232438Y-98202856D02*
X46184819Y-98107618D01*
X46184819Y-98107618D02*
X46184819Y-97917142D01*
X46184819Y-97917142D02*
X46232438Y-97821904D01*
X46232438Y-97821904D02*
X46280057Y-97774285D01*
X46280057Y-97774285D02*
X46375295Y-97726666D01*
X46375295Y-97726666D02*
X46422914Y-97726666D01*
X46422914Y-97726666D02*
X46518152Y-97774285D01*
X46518152Y-97774285D02*
X46565771Y-97821904D01*
X46565771Y-97821904D02*
X46613390Y-97917142D01*
X46613390Y-97917142D02*
X46613390Y-98107618D01*
X46613390Y-98107618D02*
X46661009Y-98202856D01*
X46661009Y-98202856D02*
X46708628Y-98250475D01*
X46708628Y-98250475D02*
X46803866Y-98298094D01*
X46803866Y-98298094D02*
X46994342Y-98298094D01*
X46994342Y-98298094D02*
X47089580Y-98250475D01*
X47089580Y-98250475D02*
X47137200Y-98202856D01*
X47137200Y-98202856D02*
X47184819Y-98107618D01*
X47184819Y-98107618D02*
X47184819Y-97917142D01*
X47184819Y-97917142D02*
X47137200Y-97821904D01*
X47137200Y-97821904D02*
X47089580Y-97774285D01*
X47089580Y-97774285D02*
X46994342Y-97726666D01*
X46994342Y-97726666D02*
X46803866Y-97726666D01*
X46803866Y-97726666D02*
X46708628Y-97774285D01*
X46708628Y-97774285D02*
X46661009Y-97821904D01*
X46661009Y-97821904D02*
X46613390Y-97917142D01*
X126190666Y-150267200D02*
X126333523Y-150314819D01*
X126333523Y-150314819D02*
X126571618Y-150314819D01*
X126571618Y-150314819D02*
X126666856Y-150267200D01*
X126666856Y-150267200D02*
X126714475Y-150219580D01*
X126714475Y-150219580D02*
X126762094Y-150124342D01*
X126762094Y-150124342D02*
X126762094Y-150029104D01*
X126762094Y-150029104D02*
X126714475Y-149933866D01*
X126714475Y-149933866D02*
X126666856Y-149886247D01*
X126666856Y-149886247D02*
X126571618Y-149838628D01*
X126571618Y-149838628D02*
X126381142Y-149791009D01*
X126381142Y-149791009D02*
X126285904Y-149743390D01*
X126285904Y-149743390D02*
X126238285Y-149695771D01*
X126238285Y-149695771D02*
X126190666Y-149600533D01*
X126190666Y-149600533D02*
X126190666Y-149505295D01*
X126190666Y-149505295D02*
X126238285Y-149410057D01*
X126238285Y-149410057D02*
X126285904Y-149362438D01*
X126285904Y-149362438D02*
X126381142Y-149314819D01*
X126381142Y-149314819D02*
X126619237Y-149314819D01*
X126619237Y-149314819D02*
X126762094Y-149362438D01*
X127571618Y-150267200D02*
X127476380Y-150314819D01*
X127476380Y-150314819D02*
X127285904Y-150314819D01*
X127285904Y-150314819D02*
X127190666Y-150267200D01*
X127190666Y-150267200D02*
X127143047Y-150171961D01*
X127143047Y-150171961D02*
X127143047Y-149791009D01*
X127143047Y-149791009D02*
X127190666Y-149695771D01*
X127190666Y-149695771D02*
X127285904Y-149648152D01*
X127285904Y-149648152D02*
X127476380Y-149648152D01*
X127476380Y-149648152D02*
X127571618Y-149695771D01*
X127571618Y-149695771D02*
X127619237Y-149791009D01*
X127619237Y-149791009D02*
X127619237Y-149886247D01*
X127619237Y-149886247D02*
X127143047Y-149981485D01*
X128047809Y-150314819D02*
X128047809Y-149648152D01*
X128047809Y-149838628D02*
X128095428Y-149743390D01*
X128095428Y-149743390D02*
X128143047Y-149695771D01*
X128143047Y-149695771D02*
X128238285Y-149648152D01*
X128238285Y-149648152D02*
X128333523Y-149648152D01*
X128571619Y-149648152D02*
X128809714Y-150314819D01*
X128809714Y-150314819D02*
X129047809Y-149648152D01*
X129571619Y-150314819D02*
X129476381Y-150267200D01*
X129476381Y-150267200D02*
X129428762Y-150219580D01*
X129428762Y-150219580D02*
X129381143Y-150124342D01*
X129381143Y-150124342D02*
X129381143Y-149838628D01*
X129381143Y-149838628D02*
X129428762Y-149743390D01*
X129428762Y-149743390D02*
X129476381Y-149695771D01*
X129476381Y-149695771D02*
X129571619Y-149648152D01*
X129571619Y-149648152D02*
X129714476Y-149648152D01*
X129714476Y-149648152D02*
X129809714Y-149695771D01*
X129809714Y-149695771D02*
X129857333Y-149743390D01*
X129857333Y-149743390D02*
X129904952Y-149838628D01*
X129904952Y-149838628D02*
X129904952Y-150124342D01*
X129904952Y-150124342D02*
X129857333Y-150219580D01*
X129857333Y-150219580D02*
X129809714Y-150267200D01*
X129809714Y-150267200D02*
X129714476Y-150314819D01*
X129714476Y-150314819D02*
X129571619Y-150314819D01*
X130762095Y-149648152D02*
X130762095Y-150314819D01*
X130524000Y-149267200D02*
X130285905Y-149981485D01*
X130285905Y-149981485D02*
X130904952Y-149981485D01*
X78676667Y-25434819D02*
X78676667Y-24434819D01*
X78676667Y-24434819D02*
X79057619Y-24434819D01*
X79057619Y-24434819D02*
X79152857Y-24482438D01*
X79152857Y-24482438D02*
X79200476Y-24530057D01*
X79200476Y-24530057D02*
X79248095Y-24625295D01*
X79248095Y-24625295D02*
X79248095Y-24768152D01*
X79248095Y-24768152D02*
X79200476Y-24863390D01*
X79200476Y-24863390D02*
X79152857Y-24911009D01*
X79152857Y-24911009D02*
X79057619Y-24958628D01*
X79057619Y-24958628D02*
X78676667Y-24958628D01*
X79581429Y-24434819D02*
X79819524Y-25434819D01*
X79819524Y-25434819D02*
X80010000Y-24720533D01*
X80010000Y-24720533D02*
X80200476Y-25434819D01*
X80200476Y-25434819D02*
X80438572Y-24434819D01*
X81390952Y-25434819D02*
X81057619Y-24958628D01*
X80819524Y-25434819D02*
X80819524Y-24434819D01*
X80819524Y-24434819D02*
X81200476Y-24434819D01*
X81200476Y-24434819D02*
X81295714Y-24482438D01*
X81295714Y-24482438D02*
X81343333Y-24530057D01*
X81343333Y-24530057D02*
X81390952Y-24625295D01*
X81390952Y-24625295D02*
X81390952Y-24768152D01*
X81390952Y-24768152D02*
X81343333Y-24863390D01*
X81343333Y-24863390D02*
X81295714Y-24911009D01*
X81295714Y-24911009D02*
X81200476Y-24958628D01*
X81200476Y-24958628D02*
X80819524Y-24958628D01*
X47137200Y-111843332D02*
X47184819Y-111700475D01*
X47184819Y-111700475D02*
X47184819Y-111462380D01*
X47184819Y-111462380D02*
X47137200Y-111367142D01*
X47137200Y-111367142D02*
X47089580Y-111319523D01*
X47089580Y-111319523D02*
X46994342Y-111271904D01*
X46994342Y-111271904D02*
X46899104Y-111271904D01*
X46899104Y-111271904D02*
X46803866Y-111319523D01*
X46803866Y-111319523D02*
X46756247Y-111367142D01*
X46756247Y-111367142D02*
X46708628Y-111462380D01*
X46708628Y-111462380D02*
X46661009Y-111652856D01*
X46661009Y-111652856D02*
X46613390Y-111748094D01*
X46613390Y-111748094D02*
X46565771Y-111795713D01*
X46565771Y-111795713D02*
X46470533Y-111843332D01*
X46470533Y-111843332D02*
X46375295Y-111843332D01*
X46375295Y-111843332D02*
X46280057Y-111795713D01*
X46280057Y-111795713D02*
X46232438Y-111748094D01*
X46232438Y-111748094D02*
X46184819Y-111652856D01*
X46184819Y-111652856D02*
X46184819Y-111414761D01*
X46184819Y-111414761D02*
X46232438Y-111271904D01*
X46184819Y-110938570D02*
X47184819Y-110700475D01*
X47184819Y-110700475D02*
X46470533Y-110509999D01*
X46470533Y-110509999D02*
X47184819Y-110319523D01*
X47184819Y-110319523D02*
X46184819Y-110081428D01*
X47184819Y-109652856D02*
X47184819Y-109462380D01*
X47184819Y-109462380D02*
X47137200Y-109367142D01*
X47137200Y-109367142D02*
X47089580Y-109319523D01*
X47089580Y-109319523D02*
X46946723Y-109224285D01*
X46946723Y-109224285D02*
X46756247Y-109176666D01*
X46756247Y-109176666D02*
X46375295Y-109176666D01*
X46375295Y-109176666D02*
X46280057Y-109224285D01*
X46280057Y-109224285D02*
X46232438Y-109271904D01*
X46232438Y-109271904D02*
X46184819Y-109367142D01*
X46184819Y-109367142D02*
X46184819Y-109557618D01*
X46184819Y-109557618D02*
X46232438Y-109652856D01*
X46232438Y-109652856D02*
X46280057Y-109700475D01*
X46280057Y-109700475D02*
X46375295Y-109748094D01*
X46375295Y-109748094D02*
X46613390Y-109748094D01*
X46613390Y-109748094D02*
X46708628Y-109700475D01*
X46708628Y-109700475D02*
X46756247Y-109652856D01*
X46756247Y-109652856D02*
X46803866Y-109557618D01*
X46803866Y-109557618D02*
X46803866Y-109367142D01*
X46803866Y-109367142D02*
X46756247Y-109271904D01*
X46756247Y-109271904D02*
X46708628Y-109224285D01*
X46708628Y-109224285D02*
X46613390Y-109176666D01*
X47137200Y-163980475D02*
X47184819Y-163837618D01*
X47184819Y-163837618D02*
X47184819Y-163599523D01*
X47184819Y-163599523D02*
X47137200Y-163504285D01*
X47137200Y-163504285D02*
X47089580Y-163456666D01*
X47089580Y-163456666D02*
X46994342Y-163409047D01*
X46994342Y-163409047D02*
X46899104Y-163409047D01*
X46899104Y-163409047D02*
X46803866Y-163456666D01*
X46803866Y-163456666D02*
X46756247Y-163504285D01*
X46756247Y-163504285D02*
X46708628Y-163599523D01*
X46708628Y-163599523D02*
X46661009Y-163789999D01*
X46661009Y-163789999D02*
X46613390Y-163885237D01*
X46613390Y-163885237D02*
X46565771Y-163932856D01*
X46565771Y-163932856D02*
X46470533Y-163980475D01*
X46470533Y-163980475D02*
X46375295Y-163980475D01*
X46375295Y-163980475D02*
X46280057Y-163932856D01*
X46280057Y-163932856D02*
X46232438Y-163885237D01*
X46232438Y-163885237D02*
X46184819Y-163789999D01*
X46184819Y-163789999D02*
X46184819Y-163551904D01*
X46184819Y-163551904D02*
X46232438Y-163409047D01*
X46184819Y-163075713D02*
X47184819Y-162837618D01*
X47184819Y-162837618D02*
X46470533Y-162647142D01*
X46470533Y-162647142D02*
X47184819Y-162456666D01*
X47184819Y-162456666D02*
X46184819Y-162218571D01*
X47280057Y-162075714D02*
X47280057Y-161313809D01*
X46661009Y-160742380D02*
X46708628Y-160599523D01*
X46708628Y-160599523D02*
X46756247Y-160551904D01*
X46756247Y-160551904D02*
X46851485Y-160504285D01*
X46851485Y-160504285D02*
X46994342Y-160504285D01*
X46994342Y-160504285D02*
X47089580Y-160551904D01*
X47089580Y-160551904D02*
X47137200Y-160599523D01*
X47137200Y-160599523D02*
X47184819Y-160694761D01*
X47184819Y-160694761D02*
X47184819Y-161075713D01*
X47184819Y-161075713D02*
X46184819Y-161075713D01*
X46184819Y-161075713D02*
X46184819Y-160742380D01*
X46184819Y-160742380D02*
X46232438Y-160647142D01*
X46232438Y-160647142D02*
X46280057Y-160599523D01*
X46280057Y-160599523D02*
X46375295Y-160551904D01*
X46375295Y-160551904D02*
X46470533Y-160551904D01*
X46470533Y-160551904D02*
X46565771Y-160599523D01*
X46565771Y-160599523D02*
X46613390Y-160647142D01*
X46613390Y-160647142D02*
X46661009Y-160742380D01*
X46661009Y-160742380D02*
X46661009Y-161075713D01*
X46899104Y-160123332D02*
X46899104Y-159647142D01*
X47184819Y-160218570D02*
X46184819Y-159885237D01*
X46184819Y-159885237D02*
X47184819Y-159551904D01*
X46184819Y-159218570D02*
X46994342Y-159218570D01*
X46994342Y-159218570D02*
X47089580Y-159170951D01*
X47089580Y-159170951D02*
X47137200Y-159123332D01*
X47137200Y-159123332D02*
X47184819Y-159028094D01*
X47184819Y-159028094D02*
X47184819Y-158837618D01*
X47184819Y-158837618D02*
X47137200Y-158742380D01*
X47137200Y-158742380D02*
X47089580Y-158694761D01*
X47089580Y-158694761D02*
X46994342Y-158647142D01*
X46994342Y-158647142D02*
X46184819Y-158647142D01*
X126190666Y-155093200D02*
X126333523Y-155140819D01*
X126333523Y-155140819D02*
X126571618Y-155140819D01*
X126571618Y-155140819D02*
X126666856Y-155093200D01*
X126666856Y-155093200D02*
X126714475Y-155045580D01*
X126714475Y-155045580D02*
X126762094Y-154950342D01*
X126762094Y-154950342D02*
X126762094Y-154855104D01*
X126762094Y-154855104D02*
X126714475Y-154759866D01*
X126714475Y-154759866D02*
X126666856Y-154712247D01*
X126666856Y-154712247D02*
X126571618Y-154664628D01*
X126571618Y-154664628D02*
X126381142Y-154617009D01*
X126381142Y-154617009D02*
X126285904Y-154569390D01*
X126285904Y-154569390D02*
X126238285Y-154521771D01*
X126238285Y-154521771D02*
X126190666Y-154426533D01*
X126190666Y-154426533D02*
X126190666Y-154331295D01*
X126190666Y-154331295D02*
X126238285Y-154236057D01*
X126238285Y-154236057D02*
X126285904Y-154188438D01*
X126285904Y-154188438D02*
X126381142Y-154140819D01*
X126381142Y-154140819D02*
X126619237Y-154140819D01*
X126619237Y-154140819D02*
X126762094Y-154188438D01*
X127571618Y-155093200D02*
X127476380Y-155140819D01*
X127476380Y-155140819D02*
X127285904Y-155140819D01*
X127285904Y-155140819D02*
X127190666Y-155093200D01*
X127190666Y-155093200D02*
X127143047Y-154997961D01*
X127143047Y-154997961D02*
X127143047Y-154617009D01*
X127143047Y-154617009D02*
X127190666Y-154521771D01*
X127190666Y-154521771D02*
X127285904Y-154474152D01*
X127285904Y-154474152D02*
X127476380Y-154474152D01*
X127476380Y-154474152D02*
X127571618Y-154521771D01*
X127571618Y-154521771D02*
X127619237Y-154617009D01*
X127619237Y-154617009D02*
X127619237Y-154712247D01*
X127619237Y-154712247D02*
X127143047Y-154807485D01*
X128047809Y-155140819D02*
X128047809Y-154474152D01*
X128047809Y-154664628D02*
X128095428Y-154569390D01*
X128095428Y-154569390D02*
X128143047Y-154521771D01*
X128143047Y-154521771D02*
X128238285Y-154474152D01*
X128238285Y-154474152D02*
X128333523Y-154474152D01*
X128571619Y-154474152D02*
X128809714Y-155140819D01*
X128809714Y-155140819D02*
X129047809Y-154474152D01*
X129571619Y-155140819D02*
X129476381Y-155093200D01*
X129476381Y-155093200D02*
X129428762Y-155045580D01*
X129428762Y-155045580D02*
X129381143Y-154950342D01*
X129381143Y-154950342D02*
X129381143Y-154664628D01*
X129381143Y-154664628D02*
X129428762Y-154569390D01*
X129428762Y-154569390D02*
X129476381Y-154521771D01*
X129476381Y-154521771D02*
X129571619Y-154474152D01*
X129571619Y-154474152D02*
X129714476Y-154474152D01*
X129714476Y-154474152D02*
X129809714Y-154521771D01*
X129809714Y-154521771D02*
X129857333Y-154569390D01*
X129857333Y-154569390D02*
X129904952Y-154664628D01*
X129904952Y-154664628D02*
X129904952Y-154950342D01*
X129904952Y-154950342D02*
X129857333Y-155045580D01*
X129857333Y-155045580D02*
X129809714Y-155093200D01*
X129809714Y-155093200D02*
X129714476Y-155140819D01*
X129714476Y-155140819D02*
X129571619Y-155140819D01*
X130809714Y-154140819D02*
X130333524Y-154140819D01*
X130333524Y-154140819D02*
X130285905Y-154617009D01*
X130285905Y-154617009D02*
X130333524Y-154569390D01*
X130333524Y-154569390D02*
X130428762Y-154521771D01*
X130428762Y-154521771D02*
X130666857Y-154521771D01*
X130666857Y-154521771D02*
X130762095Y-154569390D01*
X130762095Y-154569390D02*
X130809714Y-154617009D01*
X130809714Y-154617009D02*
X130857333Y-154712247D01*
X130857333Y-154712247D02*
X130857333Y-154950342D01*
X130857333Y-154950342D02*
X130809714Y-155045580D01*
X130809714Y-155045580D02*
X130762095Y-155093200D01*
X130762095Y-155093200D02*
X130666857Y-155140819D01*
X130666857Y-155140819D02*
X130428762Y-155140819D01*
X130428762Y-155140819D02*
X130333524Y-155093200D01*
X130333524Y-155093200D02*
X130285905Y-155045580D01*
X118446666Y-180823809D02*
X118589523Y-180871428D01*
X118589523Y-180871428D02*
X118637142Y-180919047D01*
X118637142Y-180919047D02*
X118684761Y-181014285D01*
X118684761Y-181014285D02*
X118684761Y-181157142D01*
X118684761Y-181157142D02*
X118637142Y-181252380D01*
X118637142Y-181252380D02*
X118589523Y-181300000D01*
X118589523Y-181300000D02*
X118494285Y-181347619D01*
X118494285Y-181347619D02*
X118113333Y-181347619D01*
X118113333Y-181347619D02*
X118113333Y-180347619D01*
X118113333Y-180347619D02*
X118446666Y-180347619D01*
X118446666Y-180347619D02*
X118541904Y-180395238D01*
X118541904Y-180395238D02*
X118589523Y-180442857D01*
X118589523Y-180442857D02*
X118637142Y-180538095D01*
X118637142Y-180538095D02*
X118637142Y-180633333D01*
X118637142Y-180633333D02*
X118589523Y-180728571D01*
X118589523Y-180728571D02*
X118541904Y-180776190D01*
X118541904Y-180776190D02*
X118446666Y-180823809D01*
X118446666Y-180823809D02*
X118113333Y-180823809D01*
X118970476Y-180347619D02*
X119541904Y-180347619D01*
X119256190Y-181347619D02*
X119256190Y-180347619D01*
X119875238Y-181347619D02*
X119875238Y-180347619D01*
X119875238Y-180823809D02*
X120446666Y-180823809D01*
X120446666Y-181347619D02*
X120446666Y-180347619D01*
X47137200Y-60963332D02*
X47184819Y-60820475D01*
X47184819Y-60820475D02*
X47184819Y-60582380D01*
X47184819Y-60582380D02*
X47137200Y-60487142D01*
X47137200Y-60487142D02*
X47089580Y-60439523D01*
X47089580Y-60439523D02*
X46994342Y-60391904D01*
X46994342Y-60391904D02*
X46899104Y-60391904D01*
X46899104Y-60391904D02*
X46803866Y-60439523D01*
X46803866Y-60439523D02*
X46756247Y-60487142D01*
X46756247Y-60487142D02*
X46708628Y-60582380D01*
X46708628Y-60582380D02*
X46661009Y-60772856D01*
X46661009Y-60772856D02*
X46613390Y-60868094D01*
X46613390Y-60868094D02*
X46565771Y-60915713D01*
X46565771Y-60915713D02*
X46470533Y-60963332D01*
X46470533Y-60963332D02*
X46375295Y-60963332D01*
X46375295Y-60963332D02*
X46280057Y-60915713D01*
X46280057Y-60915713D02*
X46232438Y-60868094D01*
X46232438Y-60868094D02*
X46184819Y-60772856D01*
X46184819Y-60772856D02*
X46184819Y-60534761D01*
X46184819Y-60534761D02*
X46232438Y-60391904D01*
X46184819Y-60058570D02*
X47184819Y-59820475D01*
X47184819Y-59820475D02*
X46470533Y-59629999D01*
X46470533Y-59629999D02*
X47184819Y-59439523D01*
X47184819Y-59439523D02*
X46184819Y-59201428D01*
X46518152Y-58391904D02*
X47184819Y-58391904D01*
X46137200Y-58629999D02*
X46851485Y-58868094D01*
X46851485Y-58868094D02*
X46851485Y-58249047D01*
X157512200Y-35771047D02*
X157559819Y-35628190D01*
X157559819Y-35628190D02*
X157559819Y-35390095D01*
X157559819Y-35390095D02*
X157512200Y-35294857D01*
X157512200Y-35294857D02*
X157464580Y-35247238D01*
X157464580Y-35247238D02*
X157369342Y-35199619D01*
X157369342Y-35199619D02*
X157274104Y-35199619D01*
X157274104Y-35199619D02*
X157178866Y-35247238D01*
X157178866Y-35247238D02*
X157131247Y-35294857D01*
X157131247Y-35294857D02*
X157083628Y-35390095D01*
X157083628Y-35390095D02*
X157036009Y-35580571D01*
X157036009Y-35580571D02*
X156988390Y-35675809D01*
X156988390Y-35675809D02*
X156940771Y-35723428D01*
X156940771Y-35723428D02*
X156845533Y-35771047D01*
X156845533Y-35771047D02*
X156750295Y-35771047D01*
X156750295Y-35771047D02*
X156655057Y-35723428D01*
X156655057Y-35723428D02*
X156607438Y-35675809D01*
X156607438Y-35675809D02*
X156559819Y-35580571D01*
X156559819Y-35580571D02*
X156559819Y-35342476D01*
X156559819Y-35342476D02*
X156607438Y-35199619D01*
X156893152Y-34913904D02*
X156893152Y-34532952D01*
X156559819Y-34771047D02*
X157416961Y-34771047D01*
X157416961Y-34771047D02*
X157512200Y-34723428D01*
X157512200Y-34723428D02*
X157559819Y-34628190D01*
X157559819Y-34628190D02*
X157559819Y-34532952D01*
X157512200Y-33818666D02*
X157559819Y-33913904D01*
X157559819Y-33913904D02*
X157559819Y-34104380D01*
X157559819Y-34104380D02*
X157512200Y-34199618D01*
X157512200Y-34199618D02*
X157416961Y-34247237D01*
X157416961Y-34247237D02*
X157036009Y-34247237D01*
X157036009Y-34247237D02*
X156940771Y-34199618D01*
X156940771Y-34199618D02*
X156893152Y-34104380D01*
X156893152Y-34104380D02*
X156893152Y-33913904D01*
X156893152Y-33913904D02*
X156940771Y-33818666D01*
X156940771Y-33818666D02*
X157036009Y-33771047D01*
X157036009Y-33771047D02*
X157131247Y-33771047D01*
X157131247Y-33771047D02*
X157226485Y-34247237D01*
X156893152Y-33342475D02*
X157893152Y-33342475D01*
X156940771Y-33342475D02*
X156893152Y-33247237D01*
X156893152Y-33247237D02*
X156893152Y-33056761D01*
X156893152Y-33056761D02*
X156940771Y-32961523D01*
X156940771Y-32961523D02*
X156988390Y-32913904D01*
X156988390Y-32913904D02*
X157083628Y-32866285D01*
X157083628Y-32866285D02*
X157369342Y-32866285D01*
X157369342Y-32866285D02*
X157464580Y-32913904D01*
X157464580Y-32913904D02*
X157512200Y-32961523D01*
X157512200Y-32961523D02*
X157559819Y-33056761D01*
X157559819Y-33056761D02*
X157559819Y-33247237D01*
X157559819Y-33247237D02*
X157512200Y-33342475D01*
X156893152Y-32437713D02*
X157893152Y-32437713D01*
X156940771Y-32437713D02*
X156893152Y-32342475D01*
X156893152Y-32342475D02*
X156893152Y-32151999D01*
X156893152Y-32151999D02*
X156940771Y-32056761D01*
X156940771Y-32056761D02*
X156988390Y-32009142D01*
X156988390Y-32009142D02*
X157083628Y-31961523D01*
X157083628Y-31961523D02*
X157369342Y-31961523D01*
X157369342Y-31961523D02*
X157464580Y-32009142D01*
X157464580Y-32009142D02*
X157512200Y-32056761D01*
X157512200Y-32056761D02*
X157559819Y-32151999D01*
X157559819Y-32151999D02*
X157559819Y-32342475D01*
X157559819Y-32342475D02*
X157512200Y-32437713D01*
X157512200Y-31151999D02*
X157559819Y-31247237D01*
X157559819Y-31247237D02*
X157559819Y-31437713D01*
X157559819Y-31437713D02*
X157512200Y-31532951D01*
X157512200Y-31532951D02*
X157416961Y-31580570D01*
X157416961Y-31580570D02*
X157036009Y-31580570D01*
X157036009Y-31580570D02*
X156940771Y-31532951D01*
X156940771Y-31532951D02*
X156893152Y-31437713D01*
X156893152Y-31437713D02*
X156893152Y-31247237D01*
X156893152Y-31247237D02*
X156940771Y-31151999D01*
X156940771Y-31151999D02*
X157036009Y-31104380D01*
X157036009Y-31104380D02*
X157131247Y-31104380D01*
X157131247Y-31104380D02*
X157226485Y-31580570D01*
X157559819Y-30675808D02*
X156893152Y-30675808D01*
X157083628Y-30675808D02*
X156988390Y-30628189D01*
X156988390Y-30628189D02*
X156940771Y-30580570D01*
X156940771Y-30580570D02*
X156893152Y-30485332D01*
X156893152Y-30485332D02*
X156893152Y-30390094D01*
X157559819Y-29532951D02*
X157559819Y-30104379D01*
X157559819Y-29818665D02*
X156559819Y-29818665D01*
X156559819Y-29818665D02*
X156702676Y-29913903D01*
X156702676Y-29913903D02*
X156797914Y-30009141D01*
X156797914Y-30009141D02*
X156845533Y-30104379D01*
X115403333Y-34744819D02*
X115070000Y-34268628D01*
X114831905Y-34744819D02*
X114831905Y-33744819D01*
X114831905Y-33744819D02*
X115212857Y-33744819D01*
X115212857Y-33744819D02*
X115308095Y-33792438D01*
X115308095Y-33792438D02*
X115355714Y-33840057D01*
X115355714Y-33840057D02*
X115403333Y-33935295D01*
X115403333Y-33935295D02*
X115403333Y-34078152D01*
X115403333Y-34078152D02*
X115355714Y-34173390D01*
X115355714Y-34173390D02*
X115308095Y-34221009D01*
X115308095Y-34221009D02*
X115212857Y-34268628D01*
X115212857Y-34268628D02*
X114831905Y-34268628D01*
X115784286Y-33840057D02*
X115831905Y-33792438D01*
X115831905Y-33792438D02*
X115927143Y-33744819D01*
X115927143Y-33744819D02*
X116165238Y-33744819D01*
X116165238Y-33744819D02*
X116260476Y-33792438D01*
X116260476Y-33792438D02*
X116308095Y-33840057D01*
X116308095Y-33840057D02*
X116355714Y-33935295D01*
X116355714Y-33935295D02*
X116355714Y-34030533D01*
X116355714Y-34030533D02*
X116308095Y-34173390D01*
X116308095Y-34173390D02*
X115736667Y-34744819D01*
X115736667Y-34744819D02*
X116355714Y-34744819D01*
X126190666Y-136297200D02*
X126333523Y-136344819D01*
X126333523Y-136344819D02*
X126571618Y-136344819D01*
X126571618Y-136344819D02*
X126666856Y-136297200D01*
X126666856Y-136297200D02*
X126714475Y-136249580D01*
X126714475Y-136249580D02*
X126762094Y-136154342D01*
X126762094Y-136154342D02*
X126762094Y-136059104D01*
X126762094Y-136059104D02*
X126714475Y-135963866D01*
X126714475Y-135963866D02*
X126666856Y-135916247D01*
X126666856Y-135916247D02*
X126571618Y-135868628D01*
X126571618Y-135868628D02*
X126381142Y-135821009D01*
X126381142Y-135821009D02*
X126285904Y-135773390D01*
X126285904Y-135773390D02*
X126238285Y-135725771D01*
X126238285Y-135725771D02*
X126190666Y-135630533D01*
X126190666Y-135630533D02*
X126190666Y-135535295D01*
X126190666Y-135535295D02*
X126238285Y-135440057D01*
X126238285Y-135440057D02*
X126285904Y-135392438D01*
X126285904Y-135392438D02*
X126381142Y-135344819D01*
X126381142Y-135344819D02*
X126619237Y-135344819D01*
X126619237Y-135344819D02*
X126762094Y-135392438D01*
X127571618Y-136297200D02*
X127476380Y-136344819D01*
X127476380Y-136344819D02*
X127285904Y-136344819D01*
X127285904Y-136344819D02*
X127190666Y-136297200D01*
X127190666Y-136297200D02*
X127143047Y-136201961D01*
X127143047Y-136201961D02*
X127143047Y-135821009D01*
X127143047Y-135821009D02*
X127190666Y-135725771D01*
X127190666Y-135725771D02*
X127285904Y-135678152D01*
X127285904Y-135678152D02*
X127476380Y-135678152D01*
X127476380Y-135678152D02*
X127571618Y-135725771D01*
X127571618Y-135725771D02*
X127619237Y-135821009D01*
X127619237Y-135821009D02*
X127619237Y-135916247D01*
X127619237Y-135916247D02*
X127143047Y-136011485D01*
X128047809Y-136344819D02*
X128047809Y-135678152D01*
X128047809Y-135868628D02*
X128095428Y-135773390D01*
X128095428Y-135773390D02*
X128143047Y-135725771D01*
X128143047Y-135725771D02*
X128238285Y-135678152D01*
X128238285Y-135678152D02*
X128333523Y-135678152D01*
X128571619Y-135678152D02*
X128809714Y-136344819D01*
X128809714Y-136344819D02*
X129047809Y-135678152D01*
X129571619Y-136344819D02*
X129476381Y-136297200D01*
X129476381Y-136297200D02*
X129428762Y-136249580D01*
X129428762Y-136249580D02*
X129381143Y-136154342D01*
X129381143Y-136154342D02*
X129381143Y-135868628D01*
X129381143Y-135868628D02*
X129428762Y-135773390D01*
X129428762Y-135773390D02*
X129476381Y-135725771D01*
X129476381Y-135725771D02*
X129571619Y-135678152D01*
X129571619Y-135678152D02*
X129714476Y-135678152D01*
X129714476Y-135678152D02*
X129809714Y-135725771D01*
X129809714Y-135725771D02*
X129857333Y-135773390D01*
X129857333Y-135773390D02*
X129904952Y-135868628D01*
X129904952Y-135868628D02*
X129904952Y-136154342D01*
X129904952Y-136154342D02*
X129857333Y-136249580D01*
X129857333Y-136249580D02*
X129809714Y-136297200D01*
X129809714Y-136297200D02*
X129714476Y-136344819D01*
X129714476Y-136344819D02*
X129571619Y-136344819D01*
X130857333Y-136344819D02*
X130285905Y-136344819D01*
X130571619Y-136344819D02*
X130571619Y-135344819D01*
X130571619Y-135344819D02*
X130476381Y-135487676D01*
X130476381Y-135487676D02*
X130381143Y-135582914D01*
X130381143Y-135582914D02*
X130285905Y-135630533D01*
X47137200Y-122479523D02*
X47184819Y-122336666D01*
X47184819Y-122336666D02*
X47184819Y-122098571D01*
X47184819Y-122098571D02*
X47137200Y-122003333D01*
X47137200Y-122003333D02*
X47089580Y-121955714D01*
X47089580Y-121955714D02*
X46994342Y-121908095D01*
X46994342Y-121908095D02*
X46899104Y-121908095D01*
X46899104Y-121908095D02*
X46803866Y-121955714D01*
X46803866Y-121955714D02*
X46756247Y-122003333D01*
X46756247Y-122003333D02*
X46708628Y-122098571D01*
X46708628Y-122098571D02*
X46661009Y-122289047D01*
X46661009Y-122289047D02*
X46613390Y-122384285D01*
X46613390Y-122384285D02*
X46565771Y-122431904D01*
X46565771Y-122431904D02*
X46470533Y-122479523D01*
X46470533Y-122479523D02*
X46375295Y-122479523D01*
X46375295Y-122479523D02*
X46280057Y-122431904D01*
X46280057Y-122431904D02*
X46232438Y-122384285D01*
X46232438Y-122384285D02*
X46184819Y-122289047D01*
X46184819Y-122289047D02*
X46184819Y-122050952D01*
X46184819Y-122050952D02*
X46232438Y-121908095D01*
X46184819Y-121574761D02*
X47184819Y-121336666D01*
X47184819Y-121336666D02*
X46470533Y-121146190D01*
X46470533Y-121146190D02*
X47184819Y-120955714D01*
X47184819Y-120955714D02*
X46184819Y-120717619D01*
X47184819Y-119812857D02*
X47184819Y-120384285D01*
X47184819Y-120098571D02*
X46184819Y-120098571D01*
X46184819Y-120098571D02*
X46327676Y-120193809D01*
X46327676Y-120193809D02*
X46422914Y-120289047D01*
X46422914Y-120289047D02*
X46470533Y-120384285D01*
X46184819Y-119193809D02*
X46184819Y-119098571D01*
X46184819Y-119098571D02*
X46232438Y-119003333D01*
X46232438Y-119003333D02*
X46280057Y-118955714D01*
X46280057Y-118955714D02*
X46375295Y-118908095D01*
X46375295Y-118908095D02*
X46565771Y-118860476D01*
X46565771Y-118860476D02*
X46803866Y-118860476D01*
X46803866Y-118860476D02*
X46994342Y-118908095D01*
X46994342Y-118908095D02*
X47089580Y-118955714D01*
X47089580Y-118955714D02*
X47137200Y-119003333D01*
X47137200Y-119003333D02*
X47184819Y-119098571D01*
X47184819Y-119098571D02*
X47184819Y-119193809D01*
X47184819Y-119193809D02*
X47137200Y-119289047D01*
X47137200Y-119289047D02*
X47089580Y-119336666D01*
X47089580Y-119336666D02*
X46994342Y-119384285D01*
X46994342Y-119384285D02*
X46803866Y-119431904D01*
X46803866Y-119431904D02*
X46565771Y-119431904D01*
X46565771Y-119431904D02*
X46375295Y-119384285D01*
X46375295Y-119384285D02*
X46280057Y-119336666D01*
X46280057Y-119336666D02*
X46232438Y-119289047D01*
X46232438Y-119289047D02*
X46184819Y-119193809D01*
D12*
X157982580Y-78820095D02*
X157173057Y-78820095D01*
X157173057Y-78820095D02*
X157077819Y-78867714D01*
X157077819Y-78867714D02*
X157030200Y-78915333D01*
X157030200Y-78915333D02*
X156982580Y-79010571D01*
X156982580Y-79010571D02*
X156982580Y-79201047D01*
X156982580Y-79201047D02*
X157030200Y-79296285D01*
X157030200Y-79296285D02*
X157077819Y-79343904D01*
X157077819Y-79343904D02*
X157173057Y-79391523D01*
X157173057Y-79391523D02*
X157982580Y-79391523D01*
X157554009Y-80010571D02*
X157601628Y-79915333D01*
X157601628Y-79915333D02*
X157649247Y-79867714D01*
X157649247Y-79867714D02*
X157744485Y-79820095D01*
X157744485Y-79820095D02*
X157792104Y-79820095D01*
X157792104Y-79820095D02*
X157887342Y-79867714D01*
X157887342Y-79867714D02*
X157934961Y-79915333D01*
X157934961Y-79915333D02*
X157982580Y-80010571D01*
X157982580Y-80010571D02*
X157982580Y-80201047D01*
X157982580Y-80201047D02*
X157934961Y-80296285D01*
X157934961Y-80296285D02*
X157887342Y-80343904D01*
X157887342Y-80343904D02*
X157792104Y-80391523D01*
X157792104Y-80391523D02*
X157744485Y-80391523D01*
X157744485Y-80391523D02*
X157649247Y-80343904D01*
X157649247Y-80343904D02*
X157601628Y-80296285D01*
X157601628Y-80296285D02*
X157554009Y-80201047D01*
X157554009Y-80201047D02*
X157554009Y-80010571D01*
X157554009Y-80010571D02*
X157506390Y-79915333D01*
X157506390Y-79915333D02*
X157458771Y-79867714D01*
X157458771Y-79867714D02*
X157363533Y-79820095D01*
X157363533Y-79820095D02*
X157173057Y-79820095D01*
X157173057Y-79820095D02*
X157077819Y-79867714D01*
X157077819Y-79867714D02*
X157030200Y-79915333D01*
X157030200Y-79915333D02*
X156982580Y-80010571D01*
X156982580Y-80010571D02*
X156982580Y-80201047D01*
X156982580Y-80201047D02*
X157030200Y-80296285D01*
X157030200Y-80296285D02*
X157077819Y-80343904D01*
X157077819Y-80343904D02*
X157173057Y-80391523D01*
X157173057Y-80391523D02*
X157363533Y-80391523D01*
X157363533Y-80391523D02*
X157458771Y-80343904D01*
X157458771Y-80343904D02*
X157506390Y-80296285D01*
X157506390Y-80296285D02*
X157554009Y-80201047D01*
D11*
X47137200Y-71691332D02*
X47184819Y-71548475D01*
X47184819Y-71548475D02*
X47184819Y-71310380D01*
X47184819Y-71310380D02*
X47137200Y-71215142D01*
X47137200Y-71215142D02*
X47089580Y-71167523D01*
X47089580Y-71167523D02*
X46994342Y-71119904D01*
X46994342Y-71119904D02*
X46899104Y-71119904D01*
X46899104Y-71119904D02*
X46803866Y-71167523D01*
X46803866Y-71167523D02*
X46756247Y-71215142D01*
X46756247Y-71215142D02*
X46708628Y-71310380D01*
X46708628Y-71310380D02*
X46661009Y-71500856D01*
X46661009Y-71500856D02*
X46613390Y-71596094D01*
X46613390Y-71596094D02*
X46565771Y-71643713D01*
X46565771Y-71643713D02*
X46470533Y-71691332D01*
X46470533Y-71691332D02*
X46375295Y-71691332D01*
X46375295Y-71691332D02*
X46280057Y-71643713D01*
X46280057Y-71643713D02*
X46232438Y-71596094D01*
X46232438Y-71596094D02*
X46184819Y-71500856D01*
X46184819Y-71500856D02*
X46184819Y-71262761D01*
X46184819Y-71262761D02*
X46232438Y-71119904D01*
X46184819Y-70786570D02*
X47184819Y-70548475D01*
X47184819Y-70548475D02*
X46470533Y-70357999D01*
X46470533Y-70357999D02*
X47184819Y-70167523D01*
X47184819Y-70167523D02*
X46184819Y-69929428D01*
X46184819Y-69072285D02*
X46184819Y-69548475D01*
X46184819Y-69548475D02*
X46661009Y-69596094D01*
X46661009Y-69596094D02*
X46613390Y-69548475D01*
X46613390Y-69548475D02*
X46565771Y-69453237D01*
X46565771Y-69453237D02*
X46565771Y-69215142D01*
X46565771Y-69215142D02*
X46613390Y-69119904D01*
X46613390Y-69119904D02*
X46661009Y-69072285D01*
X46661009Y-69072285D02*
X46756247Y-69024666D01*
X46756247Y-69024666D02*
X46994342Y-69024666D01*
X46994342Y-69024666D02*
X47089580Y-69072285D01*
X47089580Y-69072285D02*
X47137200Y-69119904D01*
X47137200Y-69119904D02*
X47184819Y-69215142D01*
X47184819Y-69215142D02*
X47184819Y-69453237D01*
X47184819Y-69453237D02*
X47137200Y-69548475D01*
X47137200Y-69548475D02*
X47089580Y-69596094D01*
X73239333Y-34744819D02*
X72906000Y-34268628D01*
X72667905Y-34744819D02*
X72667905Y-33744819D01*
X72667905Y-33744819D02*
X73048857Y-33744819D01*
X73048857Y-33744819D02*
X73144095Y-33792438D01*
X73144095Y-33792438D02*
X73191714Y-33840057D01*
X73191714Y-33840057D02*
X73239333Y-33935295D01*
X73239333Y-33935295D02*
X73239333Y-34078152D01*
X73239333Y-34078152D02*
X73191714Y-34173390D01*
X73191714Y-34173390D02*
X73144095Y-34221009D01*
X73144095Y-34221009D02*
X73048857Y-34268628D01*
X73048857Y-34268628D02*
X72667905Y-34268628D01*
X74191714Y-34744819D02*
X73620286Y-34744819D01*
X73906000Y-34744819D02*
X73906000Y-33744819D01*
X73906000Y-33744819D02*
X73810762Y-33887676D01*
X73810762Y-33887676D02*
X73715524Y-33982914D01*
X73715524Y-33982914D02*
X73620286Y-34030533D01*
X47143200Y-174069046D02*
X47190819Y-173926189D01*
X47190819Y-173926189D02*
X47190819Y-173688094D01*
X47190819Y-173688094D02*
X47143200Y-173592856D01*
X47143200Y-173592856D02*
X47095580Y-173545237D01*
X47095580Y-173545237D02*
X47000342Y-173497618D01*
X47000342Y-173497618D02*
X46905104Y-173497618D01*
X46905104Y-173497618D02*
X46809866Y-173545237D01*
X46809866Y-173545237D02*
X46762247Y-173592856D01*
X46762247Y-173592856D02*
X46714628Y-173688094D01*
X46714628Y-173688094D02*
X46667009Y-173878570D01*
X46667009Y-173878570D02*
X46619390Y-173973808D01*
X46619390Y-173973808D02*
X46571771Y-174021427D01*
X46571771Y-174021427D02*
X46476533Y-174069046D01*
X46476533Y-174069046D02*
X46381295Y-174069046D01*
X46381295Y-174069046D02*
X46286057Y-174021427D01*
X46286057Y-174021427D02*
X46238438Y-173973808D01*
X46238438Y-173973808D02*
X46190819Y-173878570D01*
X46190819Y-173878570D02*
X46190819Y-173640475D01*
X46190819Y-173640475D02*
X46238438Y-173497618D01*
X46190819Y-173164284D02*
X47190819Y-172926189D01*
X47190819Y-172926189D02*
X46476533Y-172735713D01*
X46476533Y-172735713D02*
X47190819Y-172545237D01*
X47190819Y-172545237D02*
X46190819Y-172307142D01*
X47286057Y-172164285D02*
X47286057Y-171402380D01*
X47190819Y-171164284D02*
X46190819Y-171164284D01*
X47190819Y-170688094D02*
X46190819Y-170688094D01*
X46190819Y-170688094D02*
X47190819Y-170116666D01*
X47190819Y-170116666D02*
X46190819Y-170116666D01*
X47190819Y-169640475D02*
X46190819Y-169640475D01*
X46190819Y-169307142D02*
X46190819Y-168735714D01*
X47190819Y-169021428D02*
X46190819Y-169021428D01*
X64968762Y-32919200D02*
X65111619Y-32966819D01*
X65111619Y-32966819D02*
X65349714Y-32966819D01*
X65349714Y-32966819D02*
X65444952Y-32919200D01*
X65444952Y-32919200D02*
X65492571Y-32871580D01*
X65492571Y-32871580D02*
X65540190Y-32776342D01*
X65540190Y-32776342D02*
X65540190Y-32681104D01*
X65540190Y-32681104D02*
X65492571Y-32585866D01*
X65492571Y-32585866D02*
X65444952Y-32538247D01*
X65444952Y-32538247D02*
X65349714Y-32490628D01*
X65349714Y-32490628D02*
X65159238Y-32443009D01*
X65159238Y-32443009D02*
X65064000Y-32395390D01*
X65064000Y-32395390D02*
X65016381Y-32347771D01*
X65016381Y-32347771D02*
X64968762Y-32252533D01*
X64968762Y-32252533D02*
X64968762Y-32157295D01*
X64968762Y-32157295D02*
X65016381Y-32062057D01*
X65016381Y-32062057D02*
X65064000Y-32014438D01*
X65064000Y-32014438D02*
X65159238Y-31966819D01*
X65159238Y-31966819D02*
X65397333Y-31966819D01*
X65397333Y-31966819D02*
X65540190Y-32014438D01*
X65873524Y-31966819D02*
X66111619Y-32966819D01*
X66111619Y-32966819D02*
X66302095Y-32252533D01*
X66302095Y-32252533D02*
X66492571Y-32966819D01*
X66492571Y-32966819D02*
X66730667Y-31966819D01*
X66873524Y-33062057D02*
X67635428Y-33062057D01*
X68444952Y-32966819D02*
X68111619Y-32490628D01*
X67873524Y-32966819D02*
X67873524Y-31966819D01*
X67873524Y-31966819D02*
X68254476Y-31966819D01*
X68254476Y-31966819D02*
X68349714Y-32014438D01*
X68349714Y-32014438D02*
X68397333Y-32062057D01*
X68397333Y-32062057D02*
X68444952Y-32157295D01*
X68444952Y-32157295D02*
X68444952Y-32300152D01*
X68444952Y-32300152D02*
X68397333Y-32395390D01*
X68397333Y-32395390D02*
X68349714Y-32443009D01*
X68349714Y-32443009D02*
X68254476Y-32490628D01*
X68254476Y-32490628D02*
X67873524Y-32490628D01*
X68825905Y-32919200D02*
X68968762Y-32966819D01*
X68968762Y-32966819D02*
X69206857Y-32966819D01*
X69206857Y-32966819D02*
X69302095Y-32919200D01*
X69302095Y-32919200D02*
X69349714Y-32871580D01*
X69349714Y-32871580D02*
X69397333Y-32776342D01*
X69397333Y-32776342D02*
X69397333Y-32681104D01*
X69397333Y-32681104D02*
X69349714Y-32585866D01*
X69349714Y-32585866D02*
X69302095Y-32538247D01*
X69302095Y-32538247D02*
X69206857Y-32490628D01*
X69206857Y-32490628D02*
X69016381Y-32443009D01*
X69016381Y-32443009D02*
X68921143Y-32395390D01*
X68921143Y-32395390D02*
X68873524Y-32347771D01*
X68873524Y-32347771D02*
X68825905Y-32252533D01*
X68825905Y-32252533D02*
X68825905Y-32157295D01*
X68825905Y-32157295D02*
X68873524Y-32062057D01*
X68873524Y-32062057D02*
X68921143Y-32014438D01*
X68921143Y-32014438D02*
X69016381Y-31966819D01*
X69016381Y-31966819D02*
X69254476Y-31966819D01*
X69254476Y-31966819D02*
X69397333Y-32014438D01*
X69683048Y-31966819D02*
X70254476Y-31966819D01*
X69968762Y-32966819D02*
X69968762Y-31966819D01*
X47137200Y-50803332D02*
X47184819Y-50660475D01*
X47184819Y-50660475D02*
X47184819Y-50422380D01*
X47184819Y-50422380D02*
X47137200Y-50327142D01*
X47137200Y-50327142D02*
X47089580Y-50279523D01*
X47089580Y-50279523D02*
X46994342Y-50231904D01*
X46994342Y-50231904D02*
X46899104Y-50231904D01*
X46899104Y-50231904D02*
X46803866Y-50279523D01*
X46803866Y-50279523D02*
X46756247Y-50327142D01*
X46756247Y-50327142D02*
X46708628Y-50422380D01*
X46708628Y-50422380D02*
X46661009Y-50612856D01*
X46661009Y-50612856D02*
X46613390Y-50708094D01*
X46613390Y-50708094D02*
X46565771Y-50755713D01*
X46565771Y-50755713D02*
X46470533Y-50803332D01*
X46470533Y-50803332D02*
X46375295Y-50803332D01*
X46375295Y-50803332D02*
X46280057Y-50755713D01*
X46280057Y-50755713D02*
X46232438Y-50708094D01*
X46232438Y-50708094D02*
X46184819Y-50612856D01*
X46184819Y-50612856D02*
X46184819Y-50374761D01*
X46184819Y-50374761D02*
X46232438Y-50231904D01*
X46184819Y-49898570D02*
X47184819Y-49660475D01*
X47184819Y-49660475D02*
X46470533Y-49469999D01*
X46470533Y-49469999D02*
X47184819Y-49279523D01*
X47184819Y-49279523D02*
X46184819Y-49041428D01*
X46184819Y-48755713D02*
X46184819Y-48136666D01*
X46184819Y-48136666D02*
X46565771Y-48469999D01*
X46565771Y-48469999D02*
X46565771Y-48327142D01*
X46565771Y-48327142D02*
X46613390Y-48231904D01*
X46613390Y-48231904D02*
X46661009Y-48184285D01*
X46661009Y-48184285D02*
X46756247Y-48136666D01*
X46756247Y-48136666D02*
X46994342Y-48136666D01*
X46994342Y-48136666D02*
X47089580Y-48184285D01*
X47089580Y-48184285D02*
X47137200Y-48231904D01*
X47137200Y-48231904D02*
X47184819Y-48327142D01*
X47184819Y-48327142D02*
X47184819Y-48612856D01*
X47184819Y-48612856D02*
X47137200Y-48708094D01*
X47137200Y-48708094D02*
X47089580Y-48755713D01*
X47137200Y-81323332D02*
X47184819Y-81180475D01*
X47184819Y-81180475D02*
X47184819Y-80942380D01*
X47184819Y-80942380D02*
X47137200Y-80847142D01*
X47137200Y-80847142D02*
X47089580Y-80799523D01*
X47089580Y-80799523D02*
X46994342Y-80751904D01*
X46994342Y-80751904D02*
X46899104Y-80751904D01*
X46899104Y-80751904D02*
X46803866Y-80799523D01*
X46803866Y-80799523D02*
X46756247Y-80847142D01*
X46756247Y-80847142D02*
X46708628Y-80942380D01*
X46708628Y-80942380D02*
X46661009Y-81132856D01*
X46661009Y-81132856D02*
X46613390Y-81228094D01*
X46613390Y-81228094D02*
X46565771Y-81275713D01*
X46565771Y-81275713D02*
X46470533Y-81323332D01*
X46470533Y-81323332D02*
X46375295Y-81323332D01*
X46375295Y-81323332D02*
X46280057Y-81275713D01*
X46280057Y-81275713D02*
X46232438Y-81228094D01*
X46232438Y-81228094D02*
X46184819Y-81132856D01*
X46184819Y-81132856D02*
X46184819Y-80894761D01*
X46184819Y-80894761D02*
X46232438Y-80751904D01*
X46184819Y-80418570D02*
X47184819Y-80180475D01*
X47184819Y-80180475D02*
X46470533Y-79989999D01*
X46470533Y-79989999D02*
X47184819Y-79799523D01*
X47184819Y-79799523D02*
X46184819Y-79561428D01*
X46184819Y-78751904D02*
X46184819Y-78942380D01*
X46184819Y-78942380D02*
X46232438Y-79037618D01*
X46232438Y-79037618D02*
X46280057Y-79085237D01*
X46280057Y-79085237D02*
X46422914Y-79180475D01*
X46422914Y-79180475D02*
X46613390Y-79228094D01*
X46613390Y-79228094D02*
X46994342Y-79228094D01*
X46994342Y-79228094D02*
X47089580Y-79180475D01*
X47089580Y-79180475D02*
X47137200Y-79132856D01*
X47137200Y-79132856D02*
X47184819Y-79037618D01*
X47184819Y-79037618D02*
X47184819Y-78847142D01*
X47184819Y-78847142D02*
X47137200Y-78751904D01*
X47137200Y-78751904D02*
X47089580Y-78704285D01*
X47089580Y-78704285D02*
X46994342Y-78656666D01*
X46994342Y-78656666D02*
X46756247Y-78656666D01*
X46756247Y-78656666D02*
X46661009Y-78704285D01*
X46661009Y-78704285D02*
X46613390Y-78751904D01*
X46613390Y-78751904D02*
X46565771Y-78847142D01*
X46565771Y-78847142D02*
X46565771Y-79037618D01*
X46565771Y-79037618D02*
X46613390Y-79132856D01*
X46613390Y-79132856D02*
X46661009Y-79180475D01*
X46661009Y-79180475D02*
X46756247Y-79228094D01*
X126190666Y-141123200D02*
X126333523Y-141170819D01*
X126333523Y-141170819D02*
X126571618Y-141170819D01*
X126571618Y-141170819D02*
X126666856Y-141123200D01*
X126666856Y-141123200D02*
X126714475Y-141075580D01*
X126714475Y-141075580D02*
X126762094Y-140980342D01*
X126762094Y-140980342D02*
X126762094Y-140885104D01*
X126762094Y-140885104D02*
X126714475Y-140789866D01*
X126714475Y-140789866D02*
X126666856Y-140742247D01*
X126666856Y-140742247D02*
X126571618Y-140694628D01*
X126571618Y-140694628D02*
X126381142Y-140647009D01*
X126381142Y-140647009D02*
X126285904Y-140599390D01*
X126285904Y-140599390D02*
X126238285Y-140551771D01*
X126238285Y-140551771D02*
X126190666Y-140456533D01*
X126190666Y-140456533D02*
X126190666Y-140361295D01*
X126190666Y-140361295D02*
X126238285Y-140266057D01*
X126238285Y-140266057D02*
X126285904Y-140218438D01*
X126285904Y-140218438D02*
X126381142Y-140170819D01*
X126381142Y-140170819D02*
X126619237Y-140170819D01*
X126619237Y-140170819D02*
X126762094Y-140218438D01*
X127571618Y-141123200D02*
X127476380Y-141170819D01*
X127476380Y-141170819D02*
X127285904Y-141170819D01*
X127285904Y-141170819D02*
X127190666Y-141123200D01*
X127190666Y-141123200D02*
X127143047Y-141027961D01*
X127143047Y-141027961D02*
X127143047Y-140647009D01*
X127143047Y-140647009D02*
X127190666Y-140551771D01*
X127190666Y-140551771D02*
X127285904Y-140504152D01*
X127285904Y-140504152D02*
X127476380Y-140504152D01*
X127476380Y-140504152D02*
X127571618Y-140551771D01*
X127571618Y-140551771D02*
X127619237Y-140647009D01*
X127619237Y-140647009D02*
X127619237Y-140742247D01*
X127619237Y-140742247D02*
X127143047Y-140837485D01*
X128047809Y-141170819D02*
X128047809Y-140504152D01*
X128047809Y-140694628D02*
X128095428Y-140599390D01*
X128095428Y-140599390D02*
X128143047Y-140551771D01*
X128143047Y-140551771D02*
X128238285Y-140504152D01*
X128238285Y-140504152D02*
X128333523Y-140504152D01*
X128571619Y-140504152D02*
X128809714Y-141170819D01*
X128809714Y-141170819D02*
X129047809Y-140504152D01*
X129571619Y-141170819D02*
X129476381Y-141123200D01*
X129476381Y-141123200D02*
X129428762Y-141075580D01*
X129428762Y-141075580D02*
X129381143Y-140980342D01*
X129381143Y-140980342D02*
X129381143Y-140694628D01*
X129381143Y-140694628D02*
X129428762Y-140599390D01*
X129428762Y-140599390D02*
X129476381Y-140551771D01*
X129476381Y-140551771D02*
X129571619Y-140504152D01*
X129571619Y-140504152D02*
X129714476Y-140504152D01*
X129714476Y-140504152D02*
X129809714Y-140551771D01*
X129809714Y-140551771D02*
X129857333Y-140599390D01*
X129857333Y-140599390D02*
X129904952Y-140694628D01*
X129904952Y-140694628D02*
X129904952Y-140980342D01*
X129904952Y-140980342D02*
X129857333Y-141075580D01*
X129857333Y-141075580D02*
X129809714Y-141123200D01*
X129809714Y-141123200D02*
X129714476Y-141170819D01*
X129714476Y-141170819D02*
X129571619Y-141170819D01*
X130285905Y-140266057D02*
X130333524Y-140218438D01*
X130333524Y-140218438D02*
X130428762Y-140170819D01*
X130428762Y-140170819D02*
X130666857Y-140170819D01*
X130666857Y-140170819D02*
X130762095Y-140218438D01*
X130762095Y-140218438D02*
X130809714Y-140266057D01*
X130809714Y-140266057D02*
X130857333Y-140361295D01*
X130857333Y-140361295D02*
X130857333Y-140456533D01*
X130857333Y-140456533D02*
X130809714Y-140599390D01*
X130809714Y-140599390D02*
X130238286Y-141170819D01*
X130238286Y-141170819D02*
X130857333Y-141170819D01*
X46889200Y-30797332D02*
X46936819Y-30654475D01*
X46936819Y-30654475D02*
X46936819Y-30416380D01*
X46936819Y-30416380D02*
X46889200Y-30321142D01*
X46889200Y-30321142D02*
X46841580Y-30273523D01*
X46841580Y-30273523D02*
X46746342Y-30225904D01*
X46746342Y-30225904D02*
X46651104Y-30225904D01*
X46651104Y-30225904D02*
X46555866Y-30273523D01*
X46555866Y-30273523D02*
X46508247Y-30321142D01*
X46508247Y-30321142D02*
X46460628Y-30416380D01*
X46460628Y-30416380D02*
X46413009Y-30606856D01*
X46413009Y-30606856D02*
X46365390Y-30702094D01*
X46365390Y-30702094D02*
X46317771Y-30749713D01*
X46317771Y-30749713D02*
X46222533Y-30797332D01*
X46222533Y-30797332D02*
X46127295Y-30797332D01*
X46127295Y-30797332D02*
X46032057Y-30749713D01*
X46032057Y-30749713D02*
X45984438Y-30702094D01*
X45984438Y-30702094D02*
X45936819Y-30606856D01*
X45936819Y-30606856D02*
X45936819Y-30368761D01*
X45936819Y-30368761D02*
X45984438Y-30225904D01*
X45936819Y-29892570D02*
X46936819Y-29654475D01*
X46936819Y-29654475D02*
X46222533Y-29463999D01*
X46222533Y-29463999D02*
X46936819Y-29273523D01*
X46936819Y-29273523D02*
X45936819Y-29035428D01*
X46936819Y-28130666D02*
X46936819Y-28702094D01*
X46936819Y-28416380D02*
X45936819Y-28416380D01*
X45936819Y-28416380D02*
X46079676Y-28511618D01*
X46079676Y-28511618D02*
X46174914Y-28606856D01*
X46174914Y-28606856D02*
X46222533Y-28702094D01*
X157512200Y-158984857D02*
X157559819Y-158842000D01*
X157559819Y-158842000D02*
X157559819Y-158603905D01*
X157559819Y-158603905D02*
X157512200Y-158508667D01*
X157512200Y-158508667D02*
X157464580Y-158461048D01*
X157464580Y-158461048D02*
X157369342Y-158413429D01*
X157369342Y-158413429D02*
X157274104Y-158413429D01*
X157274104Y-158413429D02*
X157178866Y-158461048D01*
X157178866Y-158461048D02*
X157131247Y-158508667D01*
X157131247Y-158508667D02*
X157083628Y-158603905D01*
X157083628Y-158603905D02*
X157036009Y-158794381D01*
X157036009Y-158794381D02*
X156988390Y-158889619D01*
X156988390Y-158889619D02*
X156940771Y-158937238D01*
X156940771Y-158937238D02*
X156845533Y-158984857D01*
X156845533Y-158984857D02*
X156750295Y-158984857D01*
X156750295Y-158984857D02*
X156655057Y-158937238D01*
X156655057Y-158937238D02*
X156607438Y-158889619D01*
X156607438Y-158889619D02*
X156559819Y-158794381D01*
X156559819Y-158794381D02*
X156559819Y-158556286D01*
X156559819Y-158556286D02*
X156607438Y-158413429D01*
X156893152Y-158127714D02*
X156893152Y-157746762D01*
X156559819Y-157984857D02*
X157416961Y-157984857D01*
X157416961Y-157984857D02*
X157512200Y-157937238D01*
X157512200Y-157937238D02*
X157559819Y-157842000D01*
X157559819Y-157842000D02*
X157559819Y-157746762D01*
X157512200Y-157032476D02*
X157559819Y-157127714D01*
X157559819Y-157127714D02*
X157559819Y-157318190D01*
X157559819Y-157318190D02*
X157512200Y-157413428D01*
X157512200Y-157413428D02*
X157416961Y-157461047D01*
X157416961Y-157461047D02*
X157036009Y-157461047D01*
X157036009Y-157461047D02*
X156940771Y-157413428D01*
X156940771Y-157413428D02*
X156893152Y-157318190D01*
X156893152Y-157318190D02*
X156893152Y-157127714D01*
X156893152Y-157127714D02*
X156940771Y-157032476D01*
X156940771Y-157032476D02*
X157036009Y-156984857D01*
X157036009Y-156984857D02*
X157131247Y-156984857D01*
X157131247Y-156984857D02*
X157226485Y-157461047D01*
X156893152Y-156556285D02*
X157893152Y-156556285D01*
X156940771Y-156556285D02*
X156893152Y-156461047D01*
X156893152Y-156461047D02*
X156893152Y-156270571D01*
X156893152Y-156270571D02*
X156940771Y-156175333D01*
X156940771Y-156175333D02*
X156988390Y-156127714D01*
X156988390Y-156127714D02*
X157083628Y-156080095D01*
X157083628Y-156080095D02*
X157369342Y-156080095D01*
X157369342Y-156080095D02*
X157464580Y-156127714D01*
X157464580Y-156127714D02*
X157512200Y-156175333D01*
X157512200Y-156175333D02*
X157559819Y-156270571D01*
X157559819Y-156270571D02*
X157559819Y-156461047D01*
X157559819Y-156461047D02*
X157512200Y-156556285D01*
X156893152Y-155651523D02*
X157893152Y-155651523D01*
X156940771Y-155651523D02*
X156893152Y-155556285D01*
X156893152Y-155556285D02*
X156893152Y-155365809D01*
X156893152Y-155365809D02*
X156940771Y-155270571D01*
X156940771Y-155270571D02*
X156988390Y-155222952D01*
X156988390Y-155222952D02*
X157083628Y-155175333D01*
X157083628Y-155175333D02*
X157369342Y-155175333D01*
X157369342Y-155175333D02*
X157464580Y-155222952D01*
X157464580Y-155222952D02*
X157512200Y-155270571D01*
X157512200Y-155270571D02*
X157559819Y-155365809D01*
X157559819Y-155365809D02*
X157559819Y-155556285D01*
X157559819Y-155556285D02*
X157512200Y-155651523D01*
X157512200Y-154365809D02*
X157559819Y-154461047D01*
X157559819Y-154461047D02*
X157559819Y-154651523D01*
X157559819Y-154651523D02*
X157512200Y-154746761D01*
X157512200Y-154746761D02*
X157416961Y-154794380D01*
X157416961Y-154794380D02*
X157036009Y-154794380D01*
X157036009Y-154794380D02*
X156940771Y-154746761D01*
X156940771Y-154746761D02*
X156893152Y-154651523D01*
X156893152Y-154651523D02*
X156893152Y-154461047D01*
X156893152Y-154461047D02*
X156940771Y-154365809D01*
X156940771Y-154365809D02*
X157036009Y-154318190D01*
X157036009Y-154318190D02*
X157131247Y-154318190D01*
X157131247Y-154318190D02*
X157226485Y-154794380D01*
X157559819Y-153889618D02*
X156893152Y-153889618D01*
X157083628Y-153889618D02*
X156988390Y-153841999D01*
X156988390Y-153841999D02*
X156940771Y-153794380D01*
X156940771Y-153794380D02*
X156893152Y-153699142D01*
X156893152Y-153699142D02*
X156893152Y-153603904D01*
X157036009Y-152937237D02*
X157083628Y-152794380D01*
X157083628Y-152794380D02*
X157131247Y-152746761D01*
X157131247Y-152746761D02*
X157226485Y-152699142D01*
X157226485Y-152699142D02*
X157369342Y-152699142D01*
X157369342Y-152699142D02*
X157464580Y-152746761D01*
X157464580Y-152746761D02*
X157512200Y-152794380D01*
X157512200Y-152794380D02*
X157559819Y-152889618D01*
X157559819Y-152889618D02*
X157559819Y-153270570D01*
X157559819Y-153270570D02*
X156559819Y-153270570D01*
X156559819Y-153270570D02*
X156559819Y-152937237D01*
X156559819Y-152937237D02*
X156607438Y-152841999D01*
X156607438Y-152841999D02*
X156655057Y-152794380D01*
X156655057Y-152794380D02*
X156750295Y-152746761D01*
X156750295Y-152746761D02*
X156845533Y-152746761D01*
X156845533Y-152746761D02*
X156940771Y-152794380D01*
X156940771Y-152794380D02*
X156988390Y-152841999D01*
X156988390Y-152841999D02*
X157036009Y-152937237D01*
X157036009Y-152937237D02*
X157036009Y-153270570D01*
X61336819Y-83288094D02*
X60336819Y-83288094D01*
X60336819Y-83288094D02*
X60336819Y-83049999D01*
X60336819Y-83049999D02*
X60384438Y-82907142D01*
X60384438Y-82907142D02*
X60479676Y-82811904D01*
X60479676Y-82811904D02*
X60574914Y-82764285D01*
X60574914Y-82764285D02*
X60765390Y-82716666D01*
X60765390Y-82716666D02*
X60908247Y-82716666D01*
X60908247Y-82716666D02*
X61098723Y-82764285D01*
X61098723Y-82764285D02*
X61193961Y-82811904D01*
X61193961Y-82811904D02*
X61289200Y-82907142D01*
X61289200Y-82907142D02*
X61336819Y-83049999D01*
X61336819Y-83049999D02*
X61336819Y-83288094D01*
X60336819Y-82383332D02*
X60336819Y-81764285D01*
X60336819Y-81764285D02*
X60717771Y-82097618D01*
X60717771Y-82097618D02*
X60717771Y-81954761D01*
X60717771Y-81954761D02*
X60765390Y-81859523D01*
X60765390Y-81859523D02*
X60813009Y-81811904D01*
X60813009Y-81811904D02*
X60908247Y-81764285D01*
X60908247Y-81764285D02*
X61146342Y-81764285D01*
X61146342Y-81764285D02*
X61241580Y-81811904D01*
X61241580Y-81811904D02*
X61289200Y-81859523D01*
X61289200Y-81859523D02*
X61336819Y-81954761D01*
X61336819Y-81954761D02*
X61336819Y-82240475D01*
X61336819Y-82240475D02*
X61289200Y-82335713D01*
X61289200Y-82335713D02*
X61241580Y-82383332D01*
X60766819Y-76461904D02*
X59766819Y-76461904D01*
X60766819Y-75890476D02*
X60195390Y-76319047D01*
X59766819Y-75890476D02*
X60338247Y-76461904D01*
X157512200Y-89111047D02*
X157559819Y-88968190D01*
X157559819Y-88968190D02*
X157559819Y-88730095D01*
X157559819Y-88730095D02*
X157512200Y-88634857D01*
X157512200Y-88634857D02*
X157464580Y-88587238D01*
X157464580Y-88587238D02*
X157369342Y-88539619D01*
X157369342Y-88539619D02*
X157274104Y-88539619D01*
X157274104Y-88539619D02*
X157178866Y-88587238D01*
X157178866Y-88587238D02*
X157131247Y-88634857D01*
X157131247Y-88634857D02*
X157083628Y-88730095D01*
X157083628Y-88730095D02*
X157036009Y-88920571D01*
X157036009Y-88920571D02*
X156988390Y-89015809D01*
X156988390Y-89015809D02*
X156940771Y-89063428D01*
X156940771Y-89063428D02*
X156845533Y-89111047D01*
X156845533Y-89111047D02*
X156750295Y-89111047D01*
X156750295Y-89111047D02*
X156655057Y-89063428D01*
X156655057Y-89063428D02*
X156607438Y-89015809D01*
X156607438Y-89015809D02*
X156559819Y-88920571D01*
X156559819Y-88920571D02*
X156559819Y-88682476D01*
X156559819Y-88682476D02*
X156607438Y-88539619D01*
X156893152Y-88253904D02*
X156893152Y-87872952D01*
X156559819Y-88111047D02*
X157416961Y-88111047D01*
X157416961Y-88111047D02*
X157512200Y-88063428D01*
X157512200Y-88063428D02*
X157559819Y-87968190D01*
X157559819Y-87968190D02*
X157559819Y-87872952D01*
X157512200Y-87158666D02*
X157559819Y-87253904D01*
X157559819Y-87253904D02*
X157559819Y-87444380D01*
X157559819Y-87444380D02*
X157512200Y-87539618D01*
X157512200Y-87539618D02*
X157416961Y-87587237D01*
X157416961Y-87587237D02*
X157036009Y-87587237D01*
X157036009Y-87587237D02*
X156940771Y-87539618D01*
X156940771Y-87539618D02*
X156893152Y-87444380D01*
X156893152Y-87444380D02*
X156893152Y-87253904D01*
X156893152Y-87253904D02*
X156940771Y-87158666D01*
X156940771Y-87158666D02*
X157036009Y-87111047D01*
X157036009Y-87111047D02*
X157131247Y-87111047D01*
X157131247Y-87111047D02*
X157226485Y-87587237D01*
X156893152Y-86682475D02*
X157893152Y-86682475D01*
X156940771Y-86682475D02*
X156893152Y-86587237D01*
X156893152Y-86587237D02*
X156893152Y-86396761D01*
X156893152Y-86396761D02*
X156940771Y-86301523D01*
X156940771Y-86301523D02*
X156988390Y-86253904D01*
X156988390Y-86253904D02*
X157083628Y-86206285D01*
X157083628Y-86206285D02*
X157369342Y-86206285D01*
X157369342Y-86206285D02*
X157464580Y-86253904D01*
X157464580Y-86253904D02*
X157512200Y-86301523D01*
X157512200Y-86301523D02*
X157559819Y-86396761D01*
X157559819Y-86396761D02*
X157559819Y-86587237D01*
X157559819Y-86587237D02*
X157512200Y-86682475D01*
X156893152Y-85777713D02*
X157893152Y-85777713D01*
X156940771Y-85777713D02*
X156893152Y-85682475D01*
X156893152Y-85682475D02*
X156893152Y-85491999D01*
X156893152Y-85491999D02*
X156940771Y-85396761D01*
X156940771Y-85396761D02*
X156988390Y-85349142D01*
X156988390Y-85349142D02*
X157083628Y-85301523D01*
X157083628Y-85301523D02*
X157369342Y-85301523D01*
X157369342Y-85301523D02*
X157464580Y-85349142D01*
X157464580Y-85349142D02*
X157512200Y-85396761D01*
X157512200Y-85396761D02*
X157559819Y-85491999D01*
X157559819Y-85491999D02*
X157559819Y-85682475D01*
X157559819Y-85682475D02*
X157512200Y-85777713D01*
X157512200Y-84491999D02*
X157559819Y-84587237D01*
X157559819Y-84587237D02*
X157559819Y-84777713D01*
X157559819Y-84777713D02*
X157512200Y-84872951D01*
X157512200Y-84872951D02*
X157416961Y-84920570D01*
X157416961Y-84920570D02*
X157036009Y-84920570D01*
X157036009Y-84920570D02*
X156940771Y-84872951D01*
X156940771Y-84872951D02*
X156893152Y-84777713D01*
X156893152Y-84777713D02*
X156893152Y-84587237D01*
X156893152Y-84587237D02*
X156940771Y-84491999D01*
X156940771Y-84491999D02*
X157036009Y-84444380D01*
X157036009Y-84444380D02*
X157131247Y-84444380D01*
X157131247Y-84444380D02*
X157226485Y-84920570D01*
X157559819Y-84015808D02*
X156893152Y-84015808D01*
X157083628Y-84015808D02*
X156988390Y-83968189D01*
X156988390Y-83968189D02*
X156940771Y-83920570D01*
X156940771Y-83920570D02*
X156893152Y-83825332D01*
X156893152Y-83825332D02*
X156893152Y-83730094D01*
X156893152Y-82968189D02*
X157559819Y-82968189D01*
X156512200Y-83206284D02*
X157226485Y-83444379D01*
X157226485Y-83444379D02*
X157226485Y-82825332D01*
X126444666Y-164237200D02*
X126587523Y-164284819D01*
X126587523Y-164284819D02*
X126825618Y-164284819D01*
X126825618Y-164284819D02*
X126920856Y-164237200D01*
X126920856Y-164237200D02*
X126968475Y-164189580D01*
X126968475Y-164189580D02*
X127016094Y-164094342D01*
X127016094Y-164094342D02*
X127016094Y-163999104D01*
X127016094Y-163999104D02*
X126968475Y-163903866D01*
X126968475Y-163903866D02*
X126920856Y-163856247D01*
X126920856Y-163856247D02*
X126825618Y-163808628D01*
X126825618Y-163808628D02*
X126635142Y-163761009D01*
X126635142Y-163761009D02*
X126539904Y-163713390D01*
X126539904Y-163713390D02*
X126492285Y-163665771D01*
X126492285Y-163665771D02*
X126444666Y-163570533D01*
X126444666Y-163570533D02*
X126444666Y-163475295D01*
X126444666Y-163475295D02*
X126492285Y-163380057D01*
X126492285Y-163380057D02*
X126539904Y-163332438D01*
X126539904Y-163332438D02*
X126635142Y-163284819D01*
X126635142Y-163284819D02*
X126873237Y-163284819D01*
X126873237Y-163284819D02*
X127016094Y-163332438D01*
X127825618Y-164237200D02*
X127730380Y-164284819D01*
X127730380Y-164284819D02*
X127539904Y-164284819D01*
X127539904Y-164284819D02*
X127444666Y-164237200D01*
X127444666Y-164237200D02*
X127397047Y-164141961D01*
X127397047Y-164141961D02*
X127397047Y-163761009D01*
X127397047Y-163761009D02*
X127444666Y-163665771D01*
X127444666Y-163665771D02*
X127539904Y-163618152D01*
X127539904Y-163618152D02*
X127730380Y-163618152D01*
X127730380Y-163618152D02*
X127825618Y-163665771D01*
X127825618Y-163665771D02*
X127873237Y-163761009D01*
X127873237Y-163761009D02*
X127873237Y-163856247D01*
X127873237Y-163856247D02*
X127397047Y-163951485D01*
X128301809Y-164284819D02*
X128301809Y-163618152D01*
X128301809Y-163808628D02*
X128349428Y-163713390D01*
X128349428Y-163713390D02*
X128397047Y-163665771D01*
X128397047Y-163665771D02*
X128492285Y-163618152D01*
X128492285Y-163618152D02*
X128587523Y-163618152D01*
X128825619Y-163618152D02*
X129063714Y-164284819D01*
X129063714Y-164284819D02*
X129301809Y-163618152D01*
X129825619Y-164284819D02*
X129730381Y-164237200D01*
X129730381Y-164237200D02*
X129682762Y-164189580D01*
X129682762Y-164189580D02*
X129635143Y-164094342D01*
X129635143Y-164094342D02*
X129635143Y-163808628D01*
X129635143Y-163808628D02*
X129682762Y-163713390D01*
X129682762Y-163713390D02*
X129730381Y-163665771D01*
X129730381Y-163665771D02*
X129825619Y-163618152D01*
X129825619Y-163618152D02*
X129968476Y-163618152D01*
X129968476Y-163618152D02*
X130063714Y-163665771D01*
X130063714Y-163665771D02*
X130111333Y-163713390D01*
X130111333Y-163713390D02*
X130158952Y-163808628D01*
X130158952Y-163808628D02*
X130158952Y-164094342D01*
X130158952Y-164094342D02*
X130111333Y-164189580D01*
X130111333Y-164189580D02*
X130063714Y-164237200D01*
X130063714Y-164237200D02*
X129968476Y-164284819D01*
X129968476Y-164284819D02*
X129825619Y-164284819D01*
X130492286Y-163284819D02*
X131158952Y-163284819D01*
X131158952Y-163284819D02*
X130730381Y-164284819D01*
X157633200Y-176497857D02*
X157680819Y-176355000D01*
X157680819Y-176355000D02*
X157680819Y-176116905D01*
X157680819Y-176116905D02*
X157633200Y-176021667D01*
X157633200Y-176021667D02*
X157585580Y-175974048D01*
X157585580Y-175974048D02*
X157490342Y-175926429D01*
X157490342Y-175926429D02*
X157395104Y-175926429D01*
X157395104Y-175926429D02*
X157299866Y-175974048D01*
X157299866Y-175974048D02*
X157252247Y-176021667D01*
X157252247Y-176021667D02*
X157204628Y-176116905D01*
X157204628Y-176116905D02*
X157157009Y-176307381D01*
X157157009Y-176307381D02*
X157109390Y-176402619D01*
X157109390Y-176402619D02*
X157061771Y-176450238D01*
X157061771Y-176450238D02*
X156966533Y-176497857D01*
X156966533Y-176497857D02*
X156871295Y-176497857D01*
X156871295Y-176497857D02*
X156776057Y-176450238D01*
X156776057Y-176450238D02*
X156728438Y-176402619D01*
X156728438Y-176402619D02*
X156680819Y-176307381D01*
X156680819Y-176307381D02*
X156680819Y-176069286D01*
X156680819Y-176069286D02*
X156728438Y-175926429D01*
X157014152Y-175640714D02*
X157014152Y-175259762D01*
X156680819Y-175497857D02*
X157537961Y-175497857D01*
X157537961Y-175497857D02*
X157633200Y-175450238D01*
X157633200Y-175450238D02*
X157680819Y-175355000D01*
X157680819Y-175355000D02*
X157680819Y-175259762D01*
X157633200Y-174545476D02*
X157680819Y-174640714D01*
X157680819Y-174640714D02*
X157680819Y-174831190D01*
X157680819Y-174831190D02*
X157633200Y-174926428D01*
X157633200Y-174926428D02*
X157537961Y-174974047D01*
X157537961Y-174974047D02*
X157157009Y-174974047D01*
X157157009Y-174974047D02*
X157061771Y-174926428D01*
X157061771Y-174926428D02*
X157014152Y-174831190D01*
X157014152Y-174831190D02*
X157014152Y-174640714D01*
X157014152Y-174640714D02*
X157061771Y-174545476D01*
X157061771Y-174545476D02*
X157157009Y-174497857D01*
X157157009Y-174497857D02*
X157252247Y-174497857D01*
X157252247Y-174497857D02*
X157347485Y-174974047D01*
X157014152Y-174069285D02*
X158014152Y-174069285D01*
X157061771Y-174069285D02*
X157014152Y-173974047D01*
X157014152Y-173974047D02*
X157014152Y-173783571D01*
X157014152Y-173783571D02*
X157061771Y-173688333D01*
X157061771Y-173688333D02*
X157109390Y-173640714D01*
X157109390Y-173640714D02*
X157204628Y-173593095D01*
X157204628Y-173593095D02*
X157490342Y-173593095D01*
X157490342Y-173593095D02*
X157585580Y-173640714D01*
X157585580Y-173640714D02*
X157633200Y-173688333D01*
X157633200Y-173688333D02*
X157680819Y-173783571D01*
X157680819Y-173783571D02*
X157680819Y-173974047D01*
X157680819Y-173974047D02*
X157633200Y-174069285D01*
X157014152Y-173164523D02*
X158014152Y-173164523D01*
X157061771Y-173164523D02*
X157014152Y-173069285D01*
X157014152Y-173069285D02*
X157014152Y-172878809D01*
X157014152Y-172878809D02*
X157061771Y-172783571D01*
X157061771Y-172783571D02*
X157109390Y-172735952D01*
X157109390Y-172735952D02*
X157204628Y-172688333D01*
X157204628Y-172688333D02*
X157490342Y-172688333D01*
X157490342Y-172688333D02*
X157585580Y-172735952D01*
X157585580Y-172735952D02*
X157633200Y-172783571D01*
X157633200Y-172783571D02*
X157680819Y-172878809D01*
X157680819Y-172878809D02*
X157680819Y-173069285D01*
X157680819Y-173069285D02*
X157633200Y-173164523D01*
X157633200Y-171878809D02*
X157680819Y-171974047D01*
X157680819Y-171974047D02*
X157680819Y-172164523D01*
X157680819Y-172164523D02*
X157633200Y-172259761D01*
X157633200Y-172259761D02*
X157537961Y-172307380D01*
X157537961Y-172307380D02*
X157157009Y-172307380D01*
X157157009Y-172307380D02*
X157061771Y-172259761D01*
X157061771Y-172259761D02*
X157014152Y-172164523D01*
X157014152Y-172164523D02*
X157014152Y-171974047D01*
X157014152Y-171974047D02*
X157061771Y-171878809D01*
X157061771Y-171878809D02*
X157157009Y-171831190D01*
X157157009Y-171831190D02*
X157252247Y-171831190D01*
X157252247Y-171831190D02*
X157347485Y-172307380D01*
X157680819Y-171402618D02*
X157014152Y-171402618D01*
X157204628Y-171402618D02*
X157109390Y-171354999D01*
X157109390Y-171354999D02*
X157061771Y-171307380D01*
X157061771Y-171307380D02*
X157014152Y-171212142D01*
X157014152Y-171212142D02*
X157014152Y-171116904D01*
X157585580Y-170212142D02*
X157633200Y-170259761D01*
X157633200Y-170259761D02*
X157680819Y-170402618D01*
X157680819Y-170402618D02*
X157680819Y-170497856D01*
X157680819Y-170497856D02*
X157633200Y-170640713D01*
X157633200Y-170640713D02*
X157537961Y-170735951D01*
X157537961Y-170735951D02*
X157442723Y-170783570D01*
X157442723Y-170783570D02*
X157252247Y-170831189D01*
X157252247Y-170831189D02*
X157109390Y-170831189D01*
X157109390Y-170831189D02*
X156918914Y-170783570D01*
X156918914Y-170783570D02*
X156823676Y-170735951D01*
X156823676Y-170735951D02*
X156728438Y-170640713D01*
X156728438Y-170640713D02*
X156680819Y-170497856D01*
X156680819Y-170497856D02*
X156680819Y-170402618D01*
X156680819Y-170402618D02*
X156728438Y-170259761D01*
X156728438Y-170259761D02*
X156776057Y-170212142D01*
X74676095Y-96137819D02*
X74676095Y-96947342D01*
X74676095Y-96947342D02*
X74723714Y-97042580D01*
X74723714Y-97042580D02*
X74771333Y-97090200D01*
X74771333Y-97090200D02*
X74866571Y-97137819D01*
X74866571Y-97137819D02*
X75057047Y-97137819D01*
X75057047Y-97137819D02*
X75152285Y-97090200D01*
X75152285Y-97090200D02*
X75199904Y-97042580D01*
X75199904Y-97042580D02*
X75247523Y-96947342D01*
X75247523Y-96947342D02*
X75247523Y-96137819D01*
X75676095Y-96233057D02*
X75723714Y-96185438D01*
X75723714Y-96185438D02*
X75818952Y-96137819D01*
X75818952Y-96137819D02*
X76057047Y-96137819D01*
X76057047Y-96137819D02*
X76152285Y-96185438D01*
X76152285Y-96185438D02*
X76199904Y-96233057D01*
X76199904Y-96233057D02*
X76247523Y-96328295D01*
X76247523Y-96328295D02*
X76247523Y-96423533D01*
X76247523Y-96423533D02*
X76199904Y-96566390D01*
X76199904Y-96566390D02*
X75628476Y-97137819D01*
X75628476Y-97137819D02*
X76247523Y-97137819D01*
D12*
X157982580Y-61040095D02*
X157173057Y-61040095D01*
X157173057Y-61040095D02*
X157077819Y-61087714D01*
X157077819Y-61087714D02*
X157030200Y-61135333D01*
X157030200Y-61135333D02*
X156982580Y-61230571D01*
X156982580Y-61230571D02*
X156982580Y-61421047D01*
X156982580Y-61421047D02*
X157030200Y-61516285D01*
X157030200Y-61516285D02*
X157077819Y-61563904D01*
X157077819Y-61563904D02*
X157173057Y-61611523D01*
X157173057Y-61611523D02*
X157982580Y-61611523D01*
X157982580Y-61992476D02*
X157982580Y-62659142D01*
X157982580Y-62659142D02*
X156982580Y-62230571D01*
D11*
X157512200Y-71331047D02*
X157559819Y-71188190D01*
X157559819Y-71188190D02*
X157559819Y-70950095D01*
X157559819Y-70950095D02*
X157512200Y-70854857D01*
X157512200Y-70854857D02*
X157464580Y-70807238D01*
X157464580Y-70807238D02*
X157369342Y-70759619D01*
X157369342Y-70759619D02*
X157274104Y-70759619D01*
X157274104Y-70759619D02*
X157178866Y-70807238D01*
X157178866Y-70807238D02*
X157131247Y-70854857D01*
X157131247Y-70854857D02*
X157083628Y-70950095D01*
X157083628Y-70950095D02*
X157036009Y-71140571D01*
X157036009Y-71140571D02*
X156988390Y-71235809D01*
X156988390Y-71235809D02*
X156940771Y-71283428D01*
X156940771Y-71283428D02*
X156845533Y-71331047D01*
X156845533Y-71331047D02*
X156750295Y-71331047D01*
X156750295Y-71331047D02*
X156655057Y-71283428D01*
X156655057Y-71283428D02*
X156607438Y-71235809D01*
X156607438Y-71235809D02*
X156559819Y-71140571D01*
X156559819Y-71140571D02*
X156559819Y-70902476D01*
X156559819Y-70902476D02*
X156607438Y-70759619D01*
X156893152Y-70473904D02*
X156893152Y-70092952D01*
X156559819Y-70331047D02*
X157416961Y-70331047D01*
X157416961Y-70331047D02*
X157512200Y-70283428D01*
X157512200Y-70283428D02*
X157559819Y-70188190D01*
X157559819Y-70188190D02*
X157559819Y-70092952D01*
X157512200Y-69378666D02*
X157559819Y-69473904D01*
X157559819Y-69473904D02*
X157559819Y-69664380D01*
X157559819Y-69664380D02*
X157512200Y-69759618D01*
X157512200Y-69759618D02*
X157416961Y-69807237D01*
X157416961Y-69807237D02*
X157036009Y-69807237D01*
X157036009Y-69807237D02*
X156940771Y-69759618D01*
X156940771Y-69759618D02*
X156893152Y-69664380D01*
X156893152Y-69664380D02*
X156893152Y-69473904D01*
X156893152Y-69473904D02*
X156940771Y-69378666D01*
X156940771Y-69378666D02*
X157036009Y-69331047D01*
X157036009Y-69331047D02*
X157131247Y-69331047D01*
X157131247Y-69331047D02*
X157226485Y-69807237D01*
X156893152Y-68902475D02*
X157893152Y-68902475D01*
X156940771Y-68902475D02*
X156893152Y-68807237D01*
X156893152Y-68807237D02*
X156893152Y-68616761D01*
X156893152Y-68616761D02*
X156940771Y-68521523D01*
X156940771Y-68521523D02*
X156988390Y-68473904D01*
X156988390Y-68473904D02*
X157083628Y-68426285D01*
X157083628Y-68426285D02*
X157369342Y-68426285D01*
X157369342Y-68426285D02*
X157464580Y-68473904D01*
X157464580Y-68473904D02*
X157512200Y-68521523D01*
X157512200Y-68521523D02*
X157559819Y-68616761D01*
X157559819Y-68616761D02*
X157559819Y-68807237D01*
X157559819Y-68807237D02*
X157512200Y-68902475D01*
X156893152Y-67997713D02*
X157893152Y-67997713D01*
X156940771Y-67997713D02*
X156893152Y-67902475D01*
X156893152Y-67902475D02*
X156893152Y-67711999D01*
X156893152Y-67711999D02*
X156940771Y-67616761D01*
X156940771Y-67616761D02*
X156988390Y-67569142D01*
X156988390Y-67569142D02*
X157083628Y-67521523D01*
X157083628Y-67521523D02*
X157369342Y-67521523D01*
X157369342Y-67521523D02*
X157464580Y-67569142D01*
X157464580Y-67569142D02*
X157512200Y-67616761D01*
X157512200Y-67616761D02*
X157559819Y-67711999D01*
X157559819Y-67711999D02*
X157559819Y-67902475D01*
X157559819Y-67902475D02*
X157512200Y-67997713D01*
X157512200Y-66711999D02*
X157559819Y-66807237D01*
X157559819Y-66807237D02*
X157559819Y-66997713D01*
X157559819Y-66997713D02*
X157512200Y-67092951D01*
X157512200Y-67092951D02*
X157416961Y-67140570D01*
X157416961Y-67140570D02*
X157036009Y-67140570D01*
X157036009Y-67140570D02*
X156940771Y-67092951D01*
X156940771Y-67092951D02*
X156893152Y-66997713D01*
X156893152Y-66997713D02*
X156893152Y-66807237D01*
X156893152Y-66807237D02*
X156940771Y-66711999D01*
X156940771Y-66711999D02*
X157036009Y-66664380D01*
X157036009Y-66664380D02*
X157131247Y-66664380D01*
X157131247Y-66664380D02*
X157226485Y-67140570D01*
X157559819Y-66235808D02*
X156893152Y-66235808D01*
X157083628Y-66235808D02*
X156988390Y-66188189D01*
X156988390Y-66188189D02*
X156940771Y-66140570D01*
X156940771Y-66140570D02*
X156893152Y-66045332D01*
X156893152Y-66045332D02*
X156893152Y-65950094D01*
X156559819Y-65711998D02*
X156559819Y-65092951D01*
X156559819Y-65092951D02*
X156940771Y-65426284D01*
X156940771Y-65426284D02*
X156940771Y-65283427D01*
X156940771Y-65283427D02*
X156988390Y-65188189D01*
X156988390Y-65188189D02*
X157036009Y-65140570D01*
X157036009Y-65140570D02*
X157131247Y-65092951D01*
X157131247Y-65092951D02*
X157369342Y-65092951D01*
X157369342Y-65092951D02*
X157464580Y-65140570D01*
X157464580Y-65140570D02*
X157512200Y-65188189D01*
X157512200Y-65188189D02*
X157559819Y-65283427D01*
X157559819Y-65283427D02*
X157559819Y-65569141D01*
X157559819Y-65569141D02*
X157512200Y-65664379D01*
X157512200Y-65664379D02*
X157464580Y-65711998D01*
X116616819Y-119546666D02*
X116140628Y-119879999D01*
X116616819Y-120118094D02*
X115616819Y-120118094D01*
X115616819Y-120118094D02*
X115616819Y-119737142D01*
X115616819Y-119737142D02*
X115664438Y-119641904D01*
X115664438Y-119641904D02*
X115712057Y-119594285D01*
X115712057Y-119594285D02*
X115807295Y-119546666D01*
X115807295Y-119546666D02*
X115950152Y-119546666D01*
X115950152Y-119546666D02*
X116045390Y-119594285D01*
X116045390Y-119594285D02*
X116093009Y-119641904D01*
X116093009Y-119641904D02*
X116140628Y-119737142D01*
X116140628Y-119737142D02*
X116140628Y-120118094D01*
X115950152Y-118689523D02*
X116616819Y-118689523D01*
X115569200Y-118927618D02*
X116283485Y-119165713D01*
X116283485Y-119165713D02*
X116283485Y-118546666D01*
X48907619Y-33167200D02*
X49050476Y-33214819D01*
X49050476Y-33214819D02*
X49288571Y-33214819D01*
X49288571Y-33214819D02*
X49383809Y-33167200D01*
X49383809Y-33167200D02*
X49431428Y-33119580D01*
X49431428Y-33119580D02*
X49479047Y-33024342D01*
X49479047Y-33024342D02*
X49479047Y-32929104D01*
X49479047Y-32929104D02*
X49431428Y-32833866D01*
X49431428Y-32833866D02*
X49383809Y-32786247D01*
X49383809Y-32786247D02*
X49288571Y-32738628D01*
X49288571Y-32738628D02*
X49098095Y-32691009D01*
X49098095Y-32691009D02*
X49002857Y-32643390D01*
X49002857Y-32643390D02*
X48955238Y-32595771D01*
X48955238Y-32595771D02*
X48907619Y-32500533D01*
X48907619Y-32500533D02*
X48907619Y-32405295D01*
X48907619Y-32405295D02*
X48955238Y-32310057D01*
X48955238Y-32310057D02*
X49002857Y-32262438D01*
X49002857Y-32262438D02*
X49098095Y-32214819D01*
X49098095Y-32214819D02*
X49336190Y-32214819D01*
X49336190Y-32214819D02*
X49479047Y-32262438D01*
X49812381Y-32214819D02*
X50050476Y-33214819D01*
X50050476Y-33214819D02*
X50240952Y-32500533D01*
X50240952Y-32500533D02*
X50431428Y-33214819D01*
X50431428Y-33214819D02*
X50669524Y-32214819D01*
X50812381Y-33310057D02*
X51574285Y-33310057D01*
X51764762Y-33167200D02*
X51907619Y-33214819D01*
X51907619Y-33214819D02*
X52145714Y-33214819D01*
X52145714Y-33214819D02*
X52240952Y-33167200D01*
X52240952Y-33167200D02*
X52288571Y-33119580D01*
X52288571Y-33119580D02*
X52336190Y-33024342D01*
X52336190Y-33024342D02*
X52336190Y-32929104D01*
X52336190Y-32929104D02*
X52288571Y-32833866D01*
X52288571Y-32833866D02*
X52240952Y-32786247D01*
X52240952Y-32786247D02*
X52145714Y-32738628D01*
X52145714Y-32738628D02*
X51955238Y-32691009D01*
X51955238Y-32691009D02*
X51860000Y-32643390D01*
X51860000Y-32643390D02*
X51812381Y-32595771D01*
X51812381Y-32595771D02*
X51764762Y-32500533D01*
X51764762Y-32500533D02*
X51764762Y-32405295D01*
X51764762Y-32405295D02*
X51812381Y-32310057D01*
X51812381Y-32310057D02*
X51860000Y-32262438D01*
X51860000Y-32262438D02*
X51955238Y-32214819D01*
X51955238Y-32214819D02*
X52193333Y-32214819D01*
X52193333Y-32214819D02*
X52336190Y-32262438D01*
X52764762Y-33214819D02*
X52764762Y-32214819D01*
X52764762Y-32214819D02*
X53145714Y-32214819D01*
X53145714Y-32214819D02*
X53240952Y-32262438D01*
X53240952Y-32262438D02*
X53288571Y-32310057D01*
X53288571Y-32310057D02*
X53336190Y-32405295D01*
X53336190Y-32405295D02*
X53336190Y-32548152D01*
X53336190Y-32548152D02*
X53288571Y-32643390D01*
X53288571Y-32643390D02*
X53240952Y-32691009D01*
X53240952Y-32691009D02*
X53145714Y-32738628D01*
X53145714Y-32738628D02*
X52764762Y-32738628D01*
X53717143Y-32929104D02*
X54193333Y-32929104D01*
X53621905Y-33214819D02*
X53955238Y-32214819D01*
X53955238Y-32214819D02*
X54288571Y-33214819D01*
X55193333Y-33214819D02*
X54860000Y-32738628D01*
X54621905Y-33214819D02*
X54621905Y-32214819D01*
X54621905Y-32214819D02*
X55002857Y-32214819D01*
X55002857Y-32214819D02*
X55098095Y-32262438D01*
X55098095Y-32262438D02*
X55145714Y-32310057D01*
X55145714Y-32310057D02*
X55193333Y-32405295D01*
X55193333Y-32405295D02*
X55193333Y-32548152D01*
X55193333Y-32548152D02*
X55145714Y-32643390D01*
X55145714Y-32643390D02*
X55098095Y-32691009D01*
X55098095Y-32691009D02*
X55002857Y-32738628D01*
X55002857Y-32738628D02*
X54621905Y-32738628D01*
X55621905Y-32691009D02*
X55955238Y-32691009D01*
X56098095Y-33214819D02*
X55621905Y-33214819D01*
X55621905Y-33214819D02*
X55621905Y-32214819D01*
X55621905Y-32214819D02*
X56098095Y-32214819D01*
X56288572Y-33310057D02*
X57050476Y-33310057D01*
X57812381Y-33214819D02*
X57240953Y-33214819D01*
X57526667Y-33214819D02*
X57526667Y-32214819D01*
X57526667Y-32214819D02*
X57431429Y-32357676D01*
X57431429Y-32357676D02*
X57336191Y-32452914D01*
X57336191Y-32452914D02*
X57240953Y-32500533D01*
D12*
X157982580Y-25480095D02*
X157173057Y-25480095D01*
X157173057Y-25480095D02*
X157077819Y-25527714D01*
X157077819Y-25527714D02*
X157030200Y-25575333D01*
X157030200Y-25575333D02*
X156982580Y-25670571D01*
X156982580Y-25670571D02*
X156982580Y-25861047D01*
X156982580Y-25861047D02*
X157030200Y-25956285D01*
X157030200Y-25956285D02*
X157077819Y-26003904D01*
X157077819Y-26003904D02*
X157173057Y-26051523D01*
X157173057Y-26051523D02*
X157982580Y-26051523D01*
X157982580Y-27003904D02*
X157982580Y-26527714D01*
X157982580Y-26527714D02*
X157506390Y-26480095D01*
X157506390Y-26480095D02*
X157554009Y-26527714D01*
X157554009Y-26527714D02*
X157601628Y-26622952D01*
X157601628Y-26622952D02*
X157601628Y-26861047D01*
X157601628Y-26861047D02*
X157554009Y-26956285D01*
X157554009Y-26956285D02*
X157506390Y-27003904D01*
X157506390Y-27003904D02*
X157411152Y-27051523D01*
X157411152Y-27051523D02*
X157173057Y-27051523D01*
X157173057Y-27051523D02*
X157077819Y-27003904D01*
X157077819Y-27003904D02*
X157030200Y-26956285D01*
X157030200Y-26956285D02*
X156982580Y-26861047D01*
X156982580Y-26861047D02*
X156982580Y-26622952D01*
X156982580Y-26622952D02*
X157030200Y-26527714D01*
X157030200Y-26527714D02*
X157077819Y-26480095D01*
X157982580Y-43260095D02*
X157173057Y-43260095D01*
X157173057Y-43260095D02*
X157077819Y-43307714D01*
X157077819Y-43307714D02*
X157030200Y-43355333D01*
X157030200Y-43355333D02*
X156982580Y-43450571D01*
X156982580Y-43450571D02*
X156982580Y-43641047D01*
X156982580Y-43641047D02*
X157030200Y-43736285D01*
X157030200Y-43736285D02*
X157077819Y-43783904D01*
X157077819Y-43783904D02*
X157173057Y-43831523D01*
X157173057Y-43831523D02*
X157982580Y-43831523D01*
X157982580Y-44736285D02*
X157982580Y-44545809D01*
X157982580Y-44545809D02*
X157934961Y-44450571D01*
X157934961Y-44450571D02*
X157887342Y-44402952D01*
X157887342Y-44402952D02*
X157744485Y-44307714D01*
X157744485Y-44307714D02*
X157554009Y-44260095D01*
X157554009Y-44260095D02*
X157173057Y-44260095D01*
X157173057Y-44260095D02*
X157077819Y-44307714D01*
X157077819Y-44307714D02*
X157030200Y-44355333D01*
X157030200Y-44355333D02*
X156982580Y-44450571D01*
X156982580Y-44450571D02*
X156982580Y-44641047D01*
X156982580Y-44641047D02*
X157030200Y-44736285D01*
X157030200Y-44736285D02*
X157077819Y-44783904D01*
X157077819Y-44783904D02*
X157173057Y-44831523D01*
X157173057Y-44831523D02*
X157411152Y-44831523D01*
X157411152Y-44831523D02*
X157506390Y-44783904D01*
X157506390Y-44783904D02*
X157554009Y-44736285D01*
X157554009Y-44736285D02*
X157601628Y-44641047D01*
X157601628Y-44641047D02*
X157601628Y-44450571D01*
X157601628Y-44450571D02*
X157554009Y-44355333D01*
X157554009Y-44355333D02*
X157506390Y-44307714D01*
X157506390Y-44307714D02*
X157411152Y-44260095D01*
D11*
X73069523Y-181376819D02*
X72593333Y-181376819D01*
X72593333Y-181376819D02*
X72593333Y-180376819D01*
X73974285Y-181281580D02*
X73926666Y-181329200D01*
X73926666Y-181329200D02*
X73783809Y-181376819D01*
X73783809Y-181376819D02*
X73688571Y-181376819D01*
X73688571Y-181376819D02*
X73545714Y-181329200D01*
X73545714Y-181329200D02*
X73450476Y-181233961D01*
X73450476Y-181233961D02*
X73402857Y-181138723D01*
X73402857Y-181138723D02*
X73355238Y-180948247D01*
X73355238Y-180948247D02*
X73355238Y-180805390D01*
X73355238Y-180805390D02*
X73402857Y-180614914D01*
X73402857Y-180614914D02*
X73450476Y-180519676D01*
X73450476Y-180519676D02*
X73545714Y-180424438D01*
X73545714Y-180424438D02*
X73688571Y-180376819D01*
X73688571Y-180376819D02*
X73783809Y-180376819D01*
X73783809Y-180376819D02*
X73926666Y-180424438D01*
X73926666Y-180424438D02*
X73974285Y-180472057D01*
X74402857Y-181376819D02*
X74402857Y-180376819D01*
X74402857Y-180376819D02*
X74640952Y-180376819D01*
X74640952Y-180376819D02*
X74783809Y-180424438D01*
X74783809Y-180424438D02*
X74879047Y-180519676D01*
X74879047Y-180519676D02*
X74926666Y-180614914D01*
X74926666Y-180614914D02*
X74974285Y-180805390D01*
X74974285Y-180805390D02*
X74974285Y-180948247D01*
X74974285Y-180948247D02*
X74926666Y-181138723D01*
X74926666Y-181138723D02*
X74879047Y-181233961D01*
X74879047Y-181233961D02*
X74783809Y-181329200D01*
X74783809Y-181329200D02*
X74640952Y-181376819D01*
X74640952Y-181376819D02*
X74402857Y-181376819D01*
X157512200Y-53551047D02*
X157559819Y-53408190D01*
X157559819Y-53408190D02*
X157559819Y-53170095D01*
X157559819Y-53170095D02*
X157512200Y-53074857D01*
X157512200Y-53074857D02*
X157464580Y-53027238D01*
X157464580Y-53027238D02*
X157369342Y-52979619D01*
X157369342Y-52979619D02*
X157274104Y-52979619D01*
X157274104Y-52979619D02*
X157178866Y-53027238D01*
X157178866Y-53027238D02*
X157131247Y-53074857D01*
X157131247Y-53074857D02*
X157083628Y-53170095D01*
X157083628Y-53170095D02*
X157036009Y-53360571D01*
X157036009Y-53360571D02*
X156988390Y-53455809D01*
X156988390Y-53455809D02*
X156940771Y-53503428D01*
X156940771Y-53503428D02*
X156845533Y-53551047D01*
X156845533Y-53551047D02*
X156750295Y-53551047D01*
X156750295Y-53551047D02*
X156655057Y-53503428D01*
X156655057Y-53503428D02*
X156607438Y-53455809D01*
X156607438Y-53455809D02*
X156559819Y-53360571D01*
X156559819Y-53360571D02*
X156559819Y-53122476D01*
X156559819Y-53122476D02*
X156607438Y-52979619D01*
X156893152Y-52693904D02*
X156893152Y-52312952D01*
X156559819Y-52551047D02*
X157416961Y-52551047D01*
X157416961Y-52551047D02*
X157512200Y-52503428D01*
X157512200Y-52503428D02*
X157559819Y-52408190D01*
X157559819Y-52408190D02*
X157559819Y-52312952D01*
X157512200Y-51598666D02*
X157559819Y-51693904D01*
X157559819Y-51693904D02*
X157559819Y-51884380D01*
X157559819Y-51884380D02*
X157512200Y-51979618D01*
X157512200Y-51979618D02*
X157416961Y-52027237D01*
X157416961Y-52027237D02*
X157036009Y-52027237D01*
X157036009Y-52027237D02*
X156940771Y-51979618D01*
X156940771Y-51979618D02*
X156893152Y-51884380D01*
X156893152Y-51884380D02*
X156893152Y-51693904D01*
X156893152Y-51693904D02*
X156940771Y-51598666D01*
X156940771Y-51598666D02*
X157036009Y-51551047D01*
X157036009Y-51551047D02*
X157131247Y-51551047D01*
X157131247Y-51551047D02*
X157226485Y-52027237D01*
X156893152Y-51122475D02*
X157893152Y-51122475D01*
X156940771Y-51122475D02*
X156893152Y-51027237D01*
X156893152Y-51027237D02*
X156893152Y-50836761D01*
X156893152Y-50836761D02*
X156940771Y-50741523D01*
X156940771Y-50741523D02*
X156988390Y-50693904D01*
X156988390Y-50693904D02*
X157083628Y-50646285D01*
X157083628Y-50646285D02*
X157369342Y-50646285D01*
X157369342Y-50646285D02*
X157464580Y-50693904D01*
X157464580Y-50693904D02*
X157512200Y-50741523D01*
X157512200Y-50741523D02*
X157559819Y-50836761D01*
X157559819Y-50836761D02*
X157559819Y-51027237D01*
X157559819Y-51027237D02*
X157512200Y-51122475D01*
X156893152Y-50217713D02*
X157893152Y-50217713D01*
X156940771Y-50217713D02*
X156893152Y-50122475D01*
X156893152Y-50122475D02*
X156893152Y-49931999D01*
X156893152Y-49931999D02*
X156940771Y-49836761D01*
X156940771Y-49836761D02*
X156988390Y-49789142D01*
X156988390Y-49789142D02*
X157083628Y-49741523D01*
X157083628Y-49741523D02*
X157369342Y-49741523D01*
X157369342Y-49741523D02*
X157464580Y-49789142D01*
X157464580Y-49789142D02*
X157512200Y-49836761D01*
X157512200Y-49836761D02*
X157559819Y-49931999D01*
X157559819Y-49931999D02*
X157559819Y-50122475D01*
X157559819Y-50122475D02*
X157512200Y-50217713D01*
X157512200Y-48931999D02*
X157559819Y-49027237D01*
X157559819Y-49027237D02*
X157559819Y-49217713D01*
X157559819Y-49217713D02*
X157512200Y-49312951D01*
X157512200Y-49312951D02*
X157416961Y-49360570D01*
X157416961Y-49360570D02*
X157036009Y-49360570D01*
X157036009Y-49360570D02*
X156940771Y-49312951D01*
X156940771Y-49312951D02*
X156893152Y-49217713D01*
X156893152Y-49217713D02*
X156893152Y-49027237D01*
X156893152Y-49027237D02*
X156940771Y-48931999D01*
X156940771Y-48931999D02*
X157036009Y-48884380D01*
X157036009Y-48884380D02*
X157131247Y-48884380D01*
X157131247Y-48884380D02*
X157226485Y-49360570D01*
X157559819Y-48455808D02*
X156893152Y-48455808D01*
X157083628Y-48455808D02*
X156988390Y-48408189D01*
X156988390Y-48408189D02*
X156940771Y-48360570D01*
X156940771Y-48360570D02*
X156893152Y-48265332D01*
X156893152Y-48265332D02*
X156893152Y-48170094D01*
X156655057Y-47884379D02*
X156607438Y-47836760D01*
X156607438Y-47836760D02*
X156559819Y-47741522D01*
X156559819Y-47741522D02*
X156559819Y-47503427D01*
X156559819Y-47503427D02*
X156607438Y-47408189D01*
X156607438Y-47408189D02*
X156655057Y-47360570D01*
X156655057Y-47360570D02*
X156750295Y-47312951D01*
X156750295Y-47312951D02*
X156845533Y-47312951D01*
X156845533Y-47312951D02*
X156988390Y-47360570D01*
X156988390Y-47360570D02*
X157559819Y-47931998D01*
X157559819Y-47931998D02*
X157559819Y-47312951D01*
X157512200Y-123401047D02*
X157559819Y-123258190D01*
X157559819Y-123258190D02*
X157559819Y-123020095D01*
X157559819Y-123020095D02*
X157512200Y-122924857D01*
X157512200Y-122924857D02*
X157464580Y-122877238D01*
X157464580Y-122877238D02*
X157369342Y-122829619D01*
X157369342Y-122829619D02*
X157274104Y-122829619D01*
X157274104Y-122829619D02*
X157178866Y-122877238D01*
X157178866Y-122877238D02*
X157131247Y-122924857D01*
X157131247Y-122924857D02*
X157083628Y-123020095D01*
X157083628Y-123020095D02*
X157036009Y-123210571D01*
X157036009Y-123210571D02*
X156988390Y-123305809D01*
X156988390Y-123305809D02*
X156940771Y-123353428D01*
X156940771Y-123353428D02*
X156845533Y-123401047D01*
X156845533Y-123401047D02*
X156750295Y-123401047D01*
X156750295Y-123401047D02*
X156655057Y-123353428D01*
X156655057Y-123353428D02*
X156607438Y-123305809D01*
X156607438Y-123305809D02*
X156559819Y-123210571D01*
X156559819Y-123210571D02*
X156559819Y-122972476D01*
X156559819Y-122972476D02*
X156607438Y-122829619D01*
X156893152Y-122543904D02*
X156893152Y-122162952D01*
X156559819Y-122401047D02*
X157416961Y-122401047D01*
X157416961Y-122401047D02*
X157512200Y-122353428D01*
X157512200Y-122353428D02*
X157559819Y-122258190D01*
X157559819Y-122258190D02*
X157559819Y-122162952D01*
X157512200Y-121448666D02*
X157559819Y-121543904D01*
X157559819Y-121543904D02*
X157559819Y-121734380D01*
X157559819Y-121734380D02*
X157512200Y-121829618D01*
X157512200Y-121829618D02*
X157416961Y-121877237D01*
X157416961Y-121877237D02*
X157036009Y-121877237D01*
X157036009Y-121877237D02*
X156940771Y-121829618D01*
X156940771Y-121829618D02*
X156893152Y-121734380D01*
X156893152Y-121734380D02*
X156893152Y-121543904D01*
X156893152Y-121543904D02*
X156940771Y-121448666D01*
X156940771Y-121448666D02*
X157036009Y-121401047D01*
X157036009Y-121401047D02*
X157131247Y-121401047D01*
X157131247Y-121401047D02*
X157226485Y-121877237D01*
X156893152Y-120972475D02*
X157893152Y-120972475D01*
X156940771Y-120972475D02*
X156893152Y-120877237D01*
X156893152Y-120877237D02*
X156893152Y-120686761D01*
X156893152Y-120686761D02*
X156940771Y-120591523D01*
X156940771Y-120591523D02*
X156988390Y-120543904D01*
X156988390Y-120543904D02*
X157083628Y-120496285D01*
X157083628Y-120496285D02*
X157369342Y-120496285D01*
X157369342Y-120496285D02*
X157464580Y-120543904D01*
X157464580Y-120543904D02*
X157512200Y-120591523D01*
X157512200Y-120591523D02*
X157559819Y-120686761D01*
X157559819Y-120686761D02*
X157559819Y-120877237D01*
X157559819Y-120877237D02*
X157512200Y-120972475D01*
X156893152Y-120067713D02*
X157893152Y-120067713D01*
X156940771Y-120067713D02*
X156893152Y-119972475D01*
X156893152Y-119972475D02*
X156893152Y-119781999D01*
X156893152Y-119781999D02*
X156940771Y-119686761D01*
X156940771Y-119686761D02*
X156988390Y-119639142D01*
X156988390Y-119639142D02*
X157083628Y-119591523D01*
X157083628Y-119591523D02*
X157369342Y-119591523D01*
X157369342Y-119591523D02*
X157464580Y-119639142D01*
X157464580Y-119639142D02*
X157512200Y-119686761D01*
X157512200Y-119686761D02*
X157559819Y-119781999D01*
X157559819Y-119781999D02*
X157559819Y-119972475D01*
X157559819Y-119972475D02*
X157512200Y-120067713D01*
X157512200Y-118781999D02*
X157559819Y-118877237D01*
X157559819Y-118877237D02*
X157559819Y-119067713D01*
X157559819Y-119067713D02*
X157512200Y-119162951D01*
X157512200Y-119162951D02*
X157416961Y-119210570D01*
X157416961Y-119210570D02*
X157036009Y-119210570D01*
X157036009Y-119210570D02*
X156940771Y-119162951D01*
X156940771Y-119162951D02*
X156893152Y-119067713D01*
X156893152Y-119067713D02*
X156893152Y-118877237D01*
X156893152Y-118877237D02*
X156940771Y-118781999D01*
X156940771Y-118781999D02*
X157036009Y-118734380D01*
X157036009Y-118734380D02*
X157131247Y-118734380D01*
X157131247Y-118734380D02*
X157226485Y-119210570D01*
X157559819Y-118305808D02*
X156893152Y-118305808D01*
X157083628Y-118305808D02*
X156988390Y-118258189D01*
X156988390Y-118258189D02*
X156940771Y-118210570D01*
X156940771Y-118210570D02*
X156893152Y-118115332D01*
X156893152Y-118115332D02*
X156893152Y-118020094D01*
X156559819Y-117258189D02*
X156559819Y-117448665D01*
X156559819Y-117448665D02*
X156607438Y-117543903D01*
X156607438Y-117543903D02*
X156655057Y-117591522D01*
X156655057Y-117591522D02*
X156797914Y-117686760D01*
X156797914Y-117686760D02*
X156988390Y-117734379D01*
X156988390Y-117734379D02*
X157369342Y-117734379D01*
X157369342Y-117734379D02*
X157464580Y-117686760D01*
X157464580Y-117686760D02*
X157512200Y-117639141D01*
X157512200Y-117639141D02*
X157559819Y-117543903D01*
X157559819Y-117543903D02*
X157559819Y-117353427D01*
X157559819Y-117353427D02*
X157512200Y-117258189D01*
X157512200Y-117258189D02*
X157464580Y-117210570D01*
X157464580Y-117210570D02*
X157369342Y-117162951D01*
X157369342Y-117162951D02*
X157131247Y-117162951D01*
X157131247Y-117162951D02*
X157036009Y-117210570D01*
X157036009Y-117210570D02*
X156988390Y-117258189D01*
X156988390Y-117258189D02*
X156940771Y-117353427D01*
X156940771Y-117353427D02*
X156940771Y-117543903D01*
X156940771Y-117543903D02*
X156988390Y-117639141D01*
X156988390Y-117639141D02*
X157036009Y-117686760D01*
X157036009Y-117686760D02*
X157131247Y-117734379D01*
X47143200Y-132619523D02*
X47190819Y-132476666D01*
X47190819Y-132476666D02*
X47190819Y-132238571D01*
X47190819Y-132238571D02*
X47143200Y-132143333D01*
X47143200Y-132143333D02*
X47095580Y-132095714D01*
X47095580Y-132095714D02*
X47000342Y-132048095D01*
X47000342Y-132048095D02*
X46905104Y-132048095D01*
X46905104Y-132048095D02*
X46809866Y-132095714D01*
X46809866Y-132095714D02*
X46762247Y-132143333D01*
X46762247Y-132143333D02*
X46714628Y-132238571D01*
X46714628Y-132238571D02*
X46667009Y-132429047D01*
X46667009Y-132429047D02*
X46619390Y-132524285D01*
X46619390Y-132524285D02*
X46571771Y-132571904D01*
X46571771Y-132571904D02*
X46476533Y-132619523D01*
X46476533Y-132619523D02*
X46381295Y-132619523D01*
X46381295Y-132619523D02*
X46286057Y-132571904D01*
X46286057Y-132571904D02*
X46238438Y-132524285D01*
X46238438Y-132524285D02*
X46190819Y-132429047D01*
X46190819Y-132429047D02*
X46190819Y-132190952D01*
X46190819Y-132190952D02*
X46238438Y-132048095D01*
X46190819Y-131714761D02*
X47190819Y-131476666D01*
X47190819Y-131476666D02*
X46476533Y-131286190D01*
X46476533Y-131286190D02*
X47190819Y-131095714D01*
X47190819Y-131095714D02*
X46190819Y-130857619D01*
X47190819Y-129952857D02*
X47190819Y-130524285D01*
X47190819Y-130238571D02*
X46190819Y-130238571D01*
X46190819Y-130238571D02*
X46333676Y-130333809D01*
X46333676Y-130333809D02*
X46428914Y-130429047D01*
X46428914Y-130429047D02*
X46476533Y-130524285D01*
X47190819Y-129000476D02*
X47190819Y-129571904D01*
X47190819Y-129286190D02*
X46190819Y-129286190D01*
X46190819Y-129286190D02*
X46333676Y-129381428D01*
X46333676Y-129381428D02*
X46428914Y-129476666D01*
X46428914Y-129476666D02*
X46476533Y-129571904D01*
X126190666Y-145695200D02*
X126333523Y-145742819D01*
X126333523Y-145742819D02*
X126571618Y-145742819D01*
X126571618Y-145742819D02*
X126666856Y-145695200D01*
X126666856Y-145695200D02*
X126714475Y-145647580D01*
X126714475Y-145647580D02*
X126762094Y-145552342D01*
X126762094Y-145552342D02*
X126762094Y-145457104D01*
X126762094Y-145457104D02*
X126714475Y-145361866D01*
X126714475Y-145361866D02*
X126666856Y-145314247D01*
X126666856Y-145314247D02*
X126571618Y-145266628D01*
X126571618Y-145266628D02*
X126381142Y-145219009D01*
X126381142Y-145219009D02*
X126285904Y-145171390D01*
X126285904Y-145171390D02*
X126238285Y-145123771D01*
X126238285Y-145123771D02*
X126190666Y-145028533D01*
X126190666Y-145028533D02*
X126190666Y-144933295D01*
X126190666Y-144933295D02*
X126238285Y-144838057D01*
X126238285Y-144838057D02*
X126285904Y-144790438D01*
X126285904Y-144790438D02*
X126381142Y-144742819D01*
X126381142Y-144742819D02*
X126619237Y-144742819D01*
X126619237Y-144742819D02*
X126762094Y-144790438D01*
X127571618Y-145695200D02*
X127476380Y-145742819D01*
X127476380Y-145742819D02*
X127285904Y-145742819D01*
X127285904Y-145742819D02*
X127190666Y-145695200D01*
X127190666Y-145695200D02*
X127143047Y-145599961D01*
X127143047Y-145599961D02*
X127143047Y-145219009D01*
X127143047Y-145219009D02*
X127190666Y-145123771D01*
X127190666Y-145123771D02*
X127285904Y-145076152D01*
X127285904Y-145076152D02*
X127476380Y-145076152D01*
X127476380Y-145076152D02*
X127571618Y-145123771D01*
X127571618Y-145123771D02*
X127619237Y-145219009D01*
X127619237Y-145219009D02*
X127619237Y-145314247D01*
X127619237Y-145314247D02*
X127143047Y-145409485D01*
X128047809Y-145742819D02*
X128047809Y-145076152D01*
X128047809Y-145266628D02*
X128095428Y-145171390D01*
X128095428Y-145171390D02*
X128143047Y-145123771D01*
X128143047Y-145123771D02*
X128238285Y-145076152D01*
X128238285Y-145076152D02*
X128333523Y-145076152D01*
X128571619Y-145076152D02*
X128809714Y-145742819D01*
X128809714Y-145742819D02*
X129047809Y-145076152D01*
X129571619Y-145742819D02*
X129476381Y-145695200D01*
X129476381Y-145695200D02*
X129428762Y-145647580D01*
X129428762Y-145647580D02*
X129381143Y-145552342D01*
X129381143Y-145552342D02*
X129381143Y-145266628D01*
X129381143Y-145266628D02*
X129428762Y-145171390D01*
X129428762Y-145171390D02*
X129476381Y-145123771D01*
X129476381Y-145123771D02*
X129571619Y-145076152D01*
X129571619Y-145076152D02*
X129714476Y-145076152D01*
X129714476Y-145076152D02*
X129809714Y-145123771D01*
X129809714Y-145123771D02*
X129857333Y-145171390D01*
X129857333Y-145171390D02*
X129904952Y-145266628D01*
X129904952Y-145266628D02*
X129904952Y-145552342D01*
X129904952Y-145552342D02*
X129857333Y-145647580D01*
X129857333Y-145647580D02*
X129809714Y-145695200D01*
X129809714Y-145695200D02*
X129714476Y-145742819D01*
X129714476Y-145742819D02*
X129571619Y-145742819D01*
X130238286Y-144742819D02*
X130857333Y-144742819D01*
X130857333Y-144742819D02*
X130524000Y-145123771D01*
X130524000Y-145123771D02*
X130666857Y-145123771D01*
X130666857Y-145123771D02*
X130762095Y-145171390D01*
X130762095Y-145171390D02*
X130809714Y-145219009D01*
X130809714Y-145219009D02*
X130857333Y-145314247D01*
X130857333Y-145314247D02*
X130857333Y-145552342D01*
X130857333Y-145552342D02*
X130809714Y-145647580D01*
X130809714Y-145647580D02*
X130762095Y-145695200D01*
X130762095Y-145695200D02*
X130666857Y-145742819D01*
X130666857Y-145742819D02*
X130381143Y-145742819D01*
X130381143Y-145742819D02*
X130285905Y-145695200D01*
X130285905Y-145695200D02*
X130238286Y-145647580D01*
D12*
X157982580Y-113110095D02*
X157173057Y-113110095D01*
X157173057Y-113110095D02*
X157077819Y-113157714D01*
X157077819Y-113157714D02*
X157030200Y-113205333D01*
X157030200Y-113205333D02*
X156982580Y-113300571D01*
X156982580Y-113300571D02*
X156982580Y-113491047D01*
X156982580Y-113491047D02*
X157030200Y-113586285D01*
X157030200Y-113586285D02*
X157077819Y-113633904D01*
X157077819Y-113633904D02*
X157173057Y-113681523D01*
X157173057Y-113681523D02*
X157982580Y-113681523D01*
X157982580Y-114062476D02*
X157982580Y-114681523D01*
X157982580Y-114681523D02*
X157601628Y-114348190D01*
X157601628Y-114348190D02*
X157601628Y-114491047D01*
X157601628Y-114491047D02*
X157554009Y-114586285D01*
X157554009Y-114586285D02*
X157506390Y-114633904D01*
X157506390Y-114633904D02*
X157411152Y-114681523D01*
X157411152Y-114681523D02*
X157173057Y-114681523D01*
X157173057Y-114681523D02*
X157077819Y-114633904D01*
X157077819Y-114633904D02*
X157030200Y-114586285D01*
X157030200Y-114586285D02*
X156982580Y-114491047D01*
X156982580Y-114491047D02*
X156982580Y-114205333D01*
X156982580Y-114205333D02*
X157030200Y-114110095D01*
X157030200Y-114110095D02*
X157077819Y-114062476D01*
X157982580Y-165973905D02*
X157173057Y-165973905D01*
X157173057Y-165973905D02*
X157077819Y-166021524D01*
X157077819Y-166021524D02*
X157030200Y-166069143D01*
X157030200Y-166069143D02*
X156982580Y-166164381D01*
X156982580Y-166164381D02*
X156982580Y-166354857D01*
X156982580Y-166354857D02*
X157030200Y-166450095D01*
X157030200Y-166450095D02*
X157077819Y-166497714D01*
X157077819Y-166497714D02*
X157173057Y-166545333D01*
X157173057Y-166545333D02*
X157982580Y-166545333D01*
X156982580Y-167545333D02*
X156982580Y-166973905D01*
X156982580Y-167259619D02*
X157982580Y-167259619D01*
X157982580Y-167259619D02*
X157839723Y-167164381D01*
X157839723Y-167164381D02*
X157744485Y-167069143D01*
X157744485Y-167069143D02*
X157696866Y-166973905D01*
X156982580Y-168497714D02*
X156982580Y-167926286D01*
X156982580Y-168212000D02*
X157982580Y-168212000D01*
X157982580Y-168212000D02*
X157839723Y-168116762D01*
X157839723Y-168116762D02*
X157744485Y-168021524D01*
X157744485Y-168021524D02*
X157696866Y-167926286D01*
D11*
X47137200Y-91523332D02*
X47184819Y-91380475D01*
X47184819Y-91380475D02*
X47184819Y-91142380D01*
X47184819Y-91142380D02*
X47137200Y-91047142D01*
X47137200Y-91047142D02*
X47089580Y-90999523D01*
X47089580Y-90999523D02*
X46994342Y-90951904D01*
X46994342Y-90951904D02*
X46899104Y-90951904D01*
X46899104Y-90951904D02*
X46803866Y-90999523D01*
X46803866Y-90999523D02*
X46756247Y-91047142D01*
X46756247Y-91047142D02*
X46708628Y-91142380D01*
X46708628Y-91142380D02*
X46661009Y-91332856D01*
X46661009Y-91332856D02*
X46613390Y-91428094D01*
X46613390Y-91428094D02*
X46565771Y-91475713D01*
X46565771Y-91475713D02*
X46470533Y-91523332D01*
X46470533Y-91523332D02*
X46375295Y-91523332D01*
X46375295Y-91523332D02*
X46280057Y-91475713D01*
X46280057Y-91475713D02*
X46232438Y-91428094D01*
X46232438Y-91428094D02*
X46184819Y-91332856D01*
X46184819Y-91332856D02*
X46184819Y-91094761D01*
X46184819Y-91094761D02*
X46232438Y-90951904D01*
X46184819Y-90618570D02*
X47184819Y-90380475D01*
X47184819Y-90380475D02*
X46470533Y-90189999D01*
X46470533Y-90189999D02*
X47184819Y-89999523D01*
X47184819Y-89999523D02*
X46184819Y-89761428D01*
X46184819Y-89475713D02*
X46184819Y-88809047D01*
X46184819Y-88809047D02*
X47184819Y-89237618D01*
X126190666Y-159665200D02*
X126333523Y-159712819D01*
X126333523Y-159712819D02*
X126571618Y-159712819D01*
X126571618Y-159712819D02*
X126666856Y-159665200D01*
X126666856Y-159665200D02*
X126714475Y-159617580D01*
X126714475Y-159617580D02*
X126762094Y-159522342D01*
X126762094Y-159522342D02*
X126762094Y-159427104D01*
X126762094Y-159427104D02*
X126714475Y-159331866D01*
X126714475Y-159331866D02*
X126666856Y-159284247D01*
X126666856Y-159284247D02*
X126571618Y-159236628D01*
X126571618Y-159236628D02*
X126381142Y-159189009D01*
X126381142Y-159189009D02*
X126285904Y-159141390D01*
X126285904Y-159141390D02*
X126238285Y-159093771D01*
X126238285Y-159093771D02*
X126190666Y-158998533D01*
X126190666Y-158998533D02*
X126190666Y-158903295D01*
X126190666Y-158903295D02*
X126238285Y-158808057D01*
X126238285Y-158808057D02*
X126285904Y-158760438D01*
X126285904Y-158760438D02*
X126381142Y-158712819D01*
X126381142Y-158712819D02*
X126619237Y-158712819D01*
X126619237Y-158712819D02*
X126762094Y-158760438D01*
X127571618Y-159665200D02*
X127476380Y-159712819D01*
X127476380Y-159712819D02*
X127285904Y-159712819D01*
X127285904Y-159712819D02*
X127190666Y-159665200D01*
X127190666Y-159665200D02*
X127143047Y-159569961D01*
X127143047Y-159569961D02*
X127143047Y-159189009D01*
X127143047Y-159189009D02*
X127190666Y-159093771D01*
X127190666Y-159093771D02*
X127285904Y-159046152D01*
X127285904Y-159046152D02*
X127476380Y-159046152D01*
X127476380Y-159046152D02*
X127571618Y-159093771D01*
X127571618Y-159093771D02*
X127619237Y-159189009D01*
X127619237Y-159189009D02*
X127619237Y-159284247D01*
X127619237Y-159284247D02*
X127143047Y-159379485D01*
X128047809Y-159712819D02*
X128047809Y-159046152D01*
X128047809Y-159236628D02*
X128095428Y-159141390D01*
X128095428Y-159141390D02*
X128143047Y-159093771D01*
X128143047Y-159093771D02*
X128238285Y-159046152D01*
X128238285Y-159046152D02*
X128333523Y-159046152D01*
X128571619Y-159046152D02*
X128809714Y-159712819D01*
X128809714Y-159712819D02*
X129047809Y-159046152D01*
X129571619Y-159712819D02*
X129476381Y-159665200D01*
X129476381Y-159665200D02*
X129428762Y-159617580D01*
X129428762Y-159617580D02*
X129381143Y-159522342D01*
X129381143Y-159522342D02*
X129381143Y-159236628D01*
X129381143Y-159236628D02*
X129428762Y-159141390D01*
X129428762Y-159141390D02*
X129476381Y-159093771D01*
X129476381Y-159093771D02*
X129571619Y-159046152D01*
X129571619Y-159046152D02*
X129714476Y-159046152D01*
X129714476Y-159046152D02*
X129809714Y-159093771D01*
X129809714Y-159093771D02*
X129857333Y-159141390D01*
X129857333Y-159141390D02*
X129904952Y-159236628D01*
X129904952Y-159236628D02*
X129904952Y-159522342D01*
X129904952Y-159522342D02*
X129857333Y-159617580D01*
X129857333Y-159617580D02*
X129809714Y-159665200D01*
X129809714Y-159665200D02*
X129714476Y-159712819D01*
X129714476Y-159712819D02*
X129571619Y-159712819D01*
X130762095Y-158712819D02*
X130571619Y-158712819D01*
X130571619Y-158712819D02*
X130476381Y-158760438D01*
X130476381Y-158760438D02*
X130428762Y-158808057D01*
X130428762Y-158808057D02*
X130333524Y-158950914D01*
X130333524Y-158950914D02*
X130285905Y-159141390D01*
X130285905Y-159141390D02*
X130285905Y-159522342D01*
X130285905Y-159522342D02*
X130333524Y-159617580D01*
X130333524Y-159617580D02*
X130381143Y-159665200D01*
X130381143Y-159665200D02*
X130476381Y-159712819D01*
X130476381Y-159712819D02*
X130666857Y-159712819D01*
X130666857Y-159712819D02*
X130762095Y-159665200D01*
X130762095Y-159665200D02*
X130809714Y-159617580D01*
X130809714Y-159617580D02*
X130857333Y-159522342D01*
X130857333Y-159522342D02*
X130857333Y-159284247D01*
X130857333Y-159284247D02*
X130809714Y-159189009D01*
X130809714Y-159189009D02*
X130762095Y-159141390D01*
X130762095Y-159141390D02*
X130666857Y-159093771D01*
X130666857Y-159093771D02*
X130476381Y-159093771D01*
X130476381Y-159093771D02*
X130381143Y-159141390D01*
X130381143Y-159141390D02*
X130333524Y-159189009D01*
X130333524Y-159189009D02*
X130285905Y-159284247D01*
D12*
X157982580Y-96600095D02*
X157173057Y-96600095D01*
X157173057Y-96600095D02*
X157077819Y-96647714D01*
X157077819Y-96647714D02*
X157030200Y-96695333D01*
X157030200Y-96695333D02*
X156982580Y-96790571D01*
X156982580Y-96790571D02*
X156982580Y-96981047D01*
X156982580Y-96981047D02*
X157030200Y-97076285D01*
X157030200Y-97076285D02*
X157077819Y-97123904D01*
X157077819Y-97123904D02*
X157173057Y-97171523D01*
X157173057Y-97171523D02*
X157982580Y-97171523D01*
X157649247Y-98076285D02*
X156982580Y-98076285D01*
X158030200Y-97838190D02*
X157315914Y-97600095D01*
X157315914Y-97600095D02*
X157315914Y-98219142D01*
D11*
X48907619Y-171857200D02*
X49050476Y-171904819D01*
X49050476Y-171904819D02*
X49288571Y-171904819D01*
X49288571Y-171904819D02*
X49383809Y-171857200D01*
X49383809Y-171857200D02*
X49431428Y-171809580D01*
X49431428Y-171809580D02*
X49479047Y-171714342D01*
X49479047Y-171714342D02*
X49479047Y-171619104D01*
X49479047Y-171619104D02*
X49431428Y-171523866D01*
X49431428Y-171523866D02*
X49383809Y-171476247D01*
X49383809Y-171476247D02*
X49288571Y-171428628D01*
X49288571Y-171428628D02*
X49098095Y-171381009D01*
X49098095Y-171381009D02*
X49002857Y-171333390D01*
X49002857Y-171333390D02*
X48955238Y-171285771D01*
X48955238Y-171285771D02*
X48907619Y-171190533D01*
X48907619Y-171190533D02*
X48907619Y-171095295D01*
X48907619Y-171095295D02*
X48955238Y-171000057D01*
X48955238Y-171000057D02*
X49002857Y-170952438D01*
X49002857Y-170952438D02*
X49098095Y-170904819D01*
X49098095Y-170904819D02*
X49336190Y-170904819D01*
X49336190Y-170904819D02*
X49479047Y-170952438D01*
X49812381Y-170904819D02*
X50050476Y-171904819D01*
X50050476Y-171904819D02*
X50240952Y-171190533D01*
X50240952Y-171190533D02*
X50431428Y-171904819D01*
X50431428Y-171904819D02*
X50669524Y-170904819D01*
X50812381Y-172000057D02*
X51574285Y-172000057D01*
X51764762Y-171857200D02*
X51907619Y-171904819D01*
X51907619Y-171904819D02*
X52145714Y-171904819D01*
X52145714Y-171904819D02*
X52240952Y-171857200D01*
X52240952Y-171857200D02*
X52288571Y-171809580D01*
X52288571Y-171809580D02*
X52336190Y-171714342D01*
X52336190Y-171714342D02*
X52336190Y-171619104D01*
X52336190Y-171619104D02*
X52288571Y-171523866D01*
X52288571Y-171523866D02*
X52240952Y-171476247D01*
X52240952Y-171476247D02*
X52145714Y-171428628D01*
X52145714Y-171428628D02*
X51955238Y-171381009D01*
X51955238Y-171381009D02*
X51860000Y-171333390D01*
X51860000Y-171333390D02*
X51812381Y-171285771D01*
X51812381Y-171285771D02*
X51764762Y-171190533D01*
X51764762Y-171190533D02*
X51764762Y-171095295D01*
X51764762Y-171095295D02*
X51812381Y-171000057D01*
X51812381Y-171000057D02*
X51860000Y-170952438D01*
X51860000Y-170952438D02*
X51955238Y-170904819D01*
X51955238Y-170904819D02*
X52193333Y-170904819D01*
X52193333Y-170904819D02*
X52336190Y-170952438D01*
X52764762Y-171904819D02*
X52764762Y-170904819D01*
X52764762Y-170904819D02*
X53145714Y-170904819D01*
X53145714Y-170904819D02*
X53240952Y-170952438D01*
X53240952Y-170952438D02*
X53288571Y-171000057D01*
X53288571Y-171000057D02*
X53336190Y-171095295D01*
X53336190Y-171095295D02*
X53336190Y-171238152D01*
X53336190Y-171238152D02*
X53288571Y-171333390D01*
X53288571Y-171333390D02*
X53240952Y-171381009D01*
X53240952Y-171381009D02*
X53145714Y-171428628D01*
X53145714Y-171428628D02*
X52764762Y-171428628D01*
X53717143Y-171619104D02*
X54193333Y-171619104D01*
X53621905Y-171904819D02*
X53955238Y-170904819D01*
X53955238Y-170904819D02*
X54288571Y-171904819D01*
X55193333Y-171904819D02*
X54860000Y-171428628D01*
X54621905Y-171904819D02*
X54621905Y-170904819D01*
X54621905Y-170904819D02*
X55002857Y-170904819D01*
X55002857Y-170904819D02*
X55098095Y-170952438D01*
X55098095Y-170952438D02*
X55145714Y-171000057D01*
X55145714Y-171000057D02*
X55193333Y-171095295D01*
X55193333Y-171095295D02*
X55193333Y-171238152D01*
X55193333Y-171238152D02*
X55145714Y-171333390D01*
X55145714Y-171333390D02*
X55098095Y-171381009D01*
X55098095Y-171381009D02*
X55002857Y-171428628D01*
X55002857Y-171428628D02*
X54621905Y-171428628D01*
X55621905Y-171381009D02*
X55955238Y-171381009D01*
X56098095Y-171904819D02*
X55621905Y-171904819D01*
X55621905Y-171904819D02*
X55621905Y-170904819D01*
X55621905Y-170904819D02*
X56098095Y-170904819D01*
X56288572Y-172000057D02*
X57050476Y-172000057D01*
X57240953Y-171000057D02*
X57288572Y-170952438D01*
X57288572Y-170952438D02*
X57383810Y-170904819D01*
X57383810Y-170904819D02*
X57621905Y-170904819D01*
X57621905Y-170904819D02*
X57717143Y-170952438D01*
X57717143Y-170952438D02*
X57764762Y-171000057D01*
X57764762Y-171000057D02*
X57812381Y-171095295D01*
X57812381Y-171095295D02*
X57812381Y-171190533D01*
X57812381Y-171190533D02*
X57764762Y-171333390D01*
X57764762Y-171333390D02*
X57193334Y-171904819D01*
X57193334Y-171904819D02*
X57812381Y-171904819D01*
X157512200Y-106891047D02*
X157559819Y-106748190D01*
X157559819Y-106748190D02*
X157559819Y-106510095D01*
X157559819Y-106510095D02*
X157512200Y-106414857D01*
X157512200Y-106414857D02*
X157464580Y-106367238D01*
X157464580Y-106367238D02*
X157369342Y-106319619D01*
X157369342Y-106319619D02*
X157274104Y-106319619D01*
X157274104Y-106319619D02*
X157178866Y-106367238D01*
X157178866Y-106367238D02*
X157131247Y-106414857D01*
X157131247Y-106414857D02*
X157083628Y-106510095D01*
X157083628Y-106510095D02*
X157036009Y-106700571D01*
X157036009Y-106700571D02*
X156988390Y-106795809D01*
X156988390Y-106795809D02*
X156940771Y-106843428D01*
X156940771Y-106843428D02*
X156845533Y-106891047D01*
X156845533Y-106891047D02*
X156750295Y-106891047D01*
X156750295Y-106891047D02*
X156655057Y-106843428D01*
X156655057Y-106843428D02*
X156607438Y-106795809D01*
X156607438Y-106795809D02*
X156559819Y-106700571D01*
X156559819Y-106700571D02*
X156559819Y-106462476D01*
X156559819Y-106462476D02*
X156607438Y-106319619D01*
X156893152Y-106033904D02*
X156893152Y-105652952D01*
X156559819Y-105891047D02*
X157416961Y-105891047D01*
X157416961Y-105891047D02*
X157512200Y-105843428D01*
X157512200Y-105843428D02*
X157559819Y-105748190D01*
X157559819Y-105748190D02*
X157559819Y-105652952D01*
X157512200Y-104938666D02*
X157559819Y-105033904D01*
X157559819Y-105033904D02*
X157559819Y-105224380D01*
X157559819Y-105224380D02*
X157512200Y-105319618D01*
X157512200Y-105319618D02*
X157416961Y-105367237D01*
X157416961Y-105367237D02*
X157036009Y-105367237D01*
X157036009Y-105367237D02*
X156940771Y-105319618D01*
X156940771Y-105319618D02*
X156893152Y-105224380D01*
X156893152Y-105224380D02*
X156893152Y-105033904D01*
X156893152Y-105033904D02*
X156940771Y-104938666D01*
X156940771Y-104938666D02*
X157036009Y-104891047D01*
X157036009Y-104891047D02*
X157131247Y-104891047D01*
X157131247Y-104891047D02*
X157226485Y-105367237D01*
X156893152Y-104462475D02*
X157893152Y-104462475D01*
X156940771Y-104462475D02*
X156893152Y-104367237D01*
X156893152Y-104367237D02*
X156893152Y-104176761D01*
X156893152Y-104176761D02*
X156940771Y-104081523D01*
X156940771Y-104081523D02*
X156988390Y-104033904D01*
X156988390Y-104033904D02*
X157083628Y-103986285D01*
X157083628Y-103986285D02*
X157369342Y-103986285D01*
X157369342Y-103986285D02*
X157464580Y-104033904D01*
X157464580Y-104033904D02*
X157512200Y-104081523D01*
X157512200Y-104081523D02*
X157559819Y-104176761D01*
X157559819Y-104176761D02*
X157559819Y-104367237D01*
X157559819Y-104367237D02*
X157512200Y-104462475D01*
X156893152Y-103557713D02*
X157893152Y-103557713D01*
X156940771Y-103557713D02*
X156893152Y-103462475D01*
X156893152Y-103462475D02*
X156893152Y-103271999D01*
X156893152Y-103271999D02*
X156940771Y-103176761D01*
X156940771Y-103176761D02*
X156988390Y-103129142D01*
X156988390Y-103129142D02*
X157083628Y-103081523D01*
X157083628Y-103081523D02*
X157369342Y-103081523D01*
X157369342Y-103081523D02*
X157464580Y-103129142D01*
X157464580Y-103129142D02*
X157512200Y-103176761D01*
X157512200Y-103176761D02*
X157559819Y-103271999D01*
X157559819Y-103271999D02*
X157559819Y-103462475D01*
X157559819Y-103462475D02*
X157512200Y-103557713D01*
X157512200Y-102271999D02*
X157559819Y-102367237D01*
X157559819Y-102367237D02*
X157559819Y-102557713D01*
X157559819Y-102557713D02*
X157512200Y-102652951D01*
X157512200Y-102652951D02*
X157416961Y-102700570D01*
X157416961Y-102700570D02*
X157036009Y-102700570D01*
X157036009Y-102700570D02*
X156940771Y-102652951D01*
X156940771Y-102652951D02*
X156893152Y-102557713D01*
X156893152Y-102557713D02*
X156893152Y-102367237D01*
X156893152Y-102367237D02*
X156940771Y-102271999D01*
X156940771Y-102271999D02*
X157036009Y-102224380D01*
X157036009Y-102224380D02*
X157131247Y-102224380D01*
X157131247Y-102224380D02*
X157226485Y-102700570D01*
X157559819Y-101795808D02*
X156893152Y-101795808D01*
X157083628Y-101795808D02*
X156988390Y-101748189D01*
X156988390Y-101748189D02*
X156940771Y-101700570D01*
X156940771Y-101700570D02*
X156893152Y-101605332D01*
X156893152Y-101605332D02*
X156893152Y-101510094D01*
X156559819Y-100700570D02*
X156559819Y-101176760D01*
X156559819Y-101176760D02*
X157036009Y-101224379D01*
X157036009Y-101224379D02*
X156988390Y-101176760D01*
X156988390Y-101176760D02*
X156940771Y-101081522D01*
X156940771Y-101081522D02*
X156940771Y-100843427D01*
X156940771Y-100843427D02*
X156988390Y-100748189D01*
X156988390Y-100748189D02*
X157036009Y-100700570D01*
X157036009Y-100700570D02*
X157131247Y-100652951D01*
X157131247Y-100652951D02*
X157369342Y-100652951D01*
X157369342Y-100652951D02*
X157464580Y-100700570D01*
X157464580Y-100700570D02*
X157512200Y-100748189D01*
X157512200Y-100748189D02*
X157559819Y-100843427D01*
X157559819Y-100843427D02*
X157559819Y-101081522D01*
X157559819Y-101081522D02*
X157512200Y-101176760D01*
X157512200Y-101176760D02*
X157464580Y-101224379D01*
D12*
X157982580Y-130890095D02*
X157173057Y-130890095D01*
X157173057Y-130890095D02*
X157077819Y-130937714D01*
X157077819Y-130937714D02*
X157030200Y-130985333D01*
X157030200Y-130985333D02*
X156982580Y-131080571D01*
X156982580Y-131080571D02*
X156982580Y-131271047D01*
X156982580Y-131271047D02*
X157030200Y-131366285D01*
X157030200Y-131366285D02*
X157077819Y-131413904D01*
X157077819Y-131413904D02*
X157173057Y-131461523D01*
X157173057Y-131461523D02*
X157982580Y-131461523D01*
X156982580Y-131985333D02*
X156982580Y-132175809D01*
X156982580Y-132175809D02*
X157030200Y-132271047D01*
X157030200Y-132271047D02*
X157077819Y-132318666D01*
X157077819Y-132318666D02*
X157220676Y-132413904D01*
X157220676Y-132413904D02*
X157411152Y-132461523D01*
X157411152Y-132461523D02*
X157792104Y-132461523D01*
X157792104Y-132461523D02*
X157887342Y-132413904D01*
X157887342Y-132413904D02*
X157934961Y-132366285D01*
X157934961Y-132366285D02*
X157982580Y-132271047D01*
X157982580Y-132271047D02*
X157982580Y-132080571D01*
X157982580Y-132080571D02*
X157934961Y-131985333D01*
X157934961Y-131985333D02*
X157887342Y-131937714D01*
X157887342Y-131937714D02*
X157792104Y-131890095D01*
X157792104Y-131890095D02*
X157554009Y-131890095D01*
X157554009Y-131890095D02*
X157458771Y-131937714D01*
X157458771Y-131937714D02*
X157411152Y-131985333D01*
X157411152Y-131985333D02*
X157363533Y-132080571D01*
X157363533Y-132080571D02*
X157363533Y-132271047D01*
X157363533Y-132271047D02*
X157411152Y-132366285D01*
X157411152Y-132366285D02*
X157458771Y-132413904D01*
X157458771Y-132413904D02*
X157554009Y-132461523D01*
D11*
X157512200Y-141133428D02*
X157559819Y-140990571D01*
X157559819Y-140990571D02*
X157559819Y-140752476D01*
X157559819Y-140752476D02*
X157512200Y-140657238D01*
X157512200Y-140657238D02*
X157464580Y-140609619D01*
X157464580Y-140609619D02*
X157369342Y-140562000D01*
X157369342Y-140562000D02*
X157274104Y-140562000D01*
X157274104Y-140562000D02*
X157178866Y-140609619D01*
X157178866Y-140609619D02*
X157131247Y-140657238D01*
X157131247Y-140657238D02*
X157083628Y-140752476D01*
X157083628Y-140752476D02*
X157036009Y-140942952D01*
X157036009Y-140942952D02*
X156988390Y-141038190D01*
X156988390Y-141038190D02*
X156940771Y-141085809D01*
X156940771Y-141085809D02*
X156845533Y-141133428D01*
X156845533Y-141133428D02*
X156750295Y-141133428D01*
X156750295Y-141133428D02*
X156655057Y-141085809D01*
X156655057Y-141085809D02*
X156607438Y-141038190D01*
X156607438Y-141038190D02*
X156559819Y-140942952D01*
X156559819Y-140942952D02*
X156559819Y-140704857D01*
X156559819Y-140704857D02*
X156607438Y-140562000D01*
X156893152Y-140276285D02*
X156893152Y-139895333D01*
X156559819Y-140133428D02*
X157416961Y-140133428D01*
X157416961Y-140133428D02*
X157512200Y-140085809D01*
X157512200Y-140085809D02*
X157559819Y-139990571D01*
X157559819Y-139990571D02*
X157559819Y-139895333D01*
X157512200Y-139181047D02*
X157559819Y-139276285D01*
X157559819Y-139276285D02*
X157559819Y-139466761D01*
X157559819Y-139466761D02*
X157512200Y-139561999D01*
X157512200Y-139561999D02*
X157416961Y-139609618D01*
X157416961Y-139609618D02*
X157036009Y-139609618D01*
X157036009Y-139609618D02*
X156940771Y-139561999D01*
X156940771Y-139561999D02*
X156893152Y-139466761D01*
X156893152Y-139466761D02*
X156893152Y-139276285D01*
X156893152Y-139276285D02*
X156940771Y-139181047D01*
X156940771Y-139181047D02*
X157036009Y-139133428D01*
X157036009Y-139133428D02*
X157131247Y-139133428D01*
X157131247Y-139133428D02*
X157226485Y-139609618D01*
X156893152Y-138704856D02*
X157893152Y-138704856D01*
X156940771Y-138704856D02*
X156893152Y-138609618D01*
X156893152Y-138609618D02*
X156893152Y-138419142D01*
X156893152Y-138419142D02*
X156940771Y-138323904D01*
X156940771Y-138323904D02*
X156988390Y-138276285D01*
X156988390Y-138276285D02*
X157083628Y-138228666D01*
X157083628Y-138228666D02*
X157369342Y-138228666D01*
X157369342Y-138228666D02*
X157464580Y-138276285D01*
X157464580Y-138276285D02*
X157512200Y-138323904D01*
X157512200Y-138323904D02*
X157559819Y-138419142D01*
X157559819Y-138419142D02*
X157559819Y-138609618D01*
X157559819Y-138609618D02*
X157512200Y-138704856D01*
X156893152Y-137800094D02*
X157893152Y-137800094D01*
X156940771Y-137800094D02*
X156893152Y-137704856D01*
X156893152Y-137704856D02*
X156893152Y-137514380D01*
X156893152Y-137514380D02*
X156940771Y-137419142D01*
X156940771Y-137419142D02*
X156988390Y-137371523D01*
X156988390Y-137371523D02*
X157083628Y-137323904D01*
X157083628Y-137323904D02*
X157369342Y-137323904D01*
X157369342Y-137323904D02*
X157464580Y-137371523D01*
X157464580Y-137371523D02*
X157512200Y-137419142D01*
X157512200Y-137419142D02*
X157559819Y-137514380D01*
X157559819Y-137514380D02*
X157559819Y-137704856D01*
X157559819Y-137704856D02*
X157512200Y-137800094D01*
X157512200Y-136514380D02*
X157559819Y-136609618D01*
X157559819Y-136609618D02*
X157559819Y-136800094D01*
X157559819Y-136800094D02*
X157512200Y-136895332D01*
X157512200Y-136895332D02*
X157416961Y-136942951D01*
X157416961Y-136942951D02*
X157036009Y-136942951D01*
X157036009Y-136942951D02*
X156940771Y-136895332D01*
X156940771Y-136895332D02*
X156893152Y-136800094D01*
X156893152Y-136800094D02*
X156893152Y-136609618D01*
X156893152Y-136609618D02*
X156940771Y-136514380D01*
X156940771Y-136514380D02*
X157036009Y-136466761D01*
X157036009Y-136466761D02*
X157131247Y-136466761D01*
X157131247Y-136466761D02*
X157226485Y-136942951D01*
X157559819Y-136038189D02*
X156893152Y-136038189D01*
X157083628Y-136038189D02*
X156988390Y-135990570D01*
X156988390Y-135990570D02*
X156940771Y-135942951D01*
X156940771Y-135942951D02*
X156893152Y-135847713D01*
X156893152Y-135847713D02*
X156893152Y-135752475D01*
X157274104Y-135466760D02*
X157274104Y-134990570D01*
X157559819Y-135561998D02*
X156559819Y-135228665D01*
X156559819Y-135228665D02*
X157559819Y-134895332D01*
D12*
X157982580Y-148193905D02*
X157173057Y-148193905D01*
X157173057Y-148193905D02*
X157077819Y-148241524D01*
X157077819Y-148241524D02*
X157030200Y-148289143D01*
X157030200Y-148289143D02*
X156982580Y-148384381D01*
X156982580Y-148384381D02*
X156982580Y-148574857D01*
X156982580Y-148574857D02*
X157030200Y-148670095D01*
X157030200Y-148670095D02*
X157077819Y-148717714D01*
X157077819Y-148717714D02*
X157173057Y-148765333D01*
X157173057Y-148765333D02*
X157982580Y-148765333D01*
X156982580Y-149765333D02*
X156982580Y-149193905D01*
X156982580Y-149479619D02*
X157982580Y-149479619D01*
X157982580Y-149479619D02*
X157839723Y-149384381D01*
X157839723Y-149384381D02*
X157744485Y-149289143D01*
X157744485Y-149289143D02*
X157696866Y-149193905D01*
X157982580Y-150384381D02*
X157982580Y-150479619D01*
X157982580Y-150479619D02*
X157934961Y-150574857D01*
X157934961Y-150574857D02*
X157887342Y-150622476D01*
X157887342Y-150622476D02*
X157792104Y-150670095D01*
X157792104Y-150670095D02*
X157601628Y-150717714D01*
X157601628Y-150717714D02*
X157363533Y-150717714D01*
X157363533Y-150717714D02*
X157173057Y-150670095D01*
X157173057Y-150670095D02*
X157077819Y-150622476D01*
X157077819Y-150622476D02*
X157030200Y-150574857D01*
X157030200Y-150574857D02*
X156982580Y-150479619D01*
X156982580Y-150479619D02*
X156982580Y-150384381D01*
X156982580Y-150384381D02*
X157030200Y-150289143D01*
X157030200Y-150289143D02*
X157077819Y-150241524D01*
X157077819Y-150241524D02*
X157173057Y-150193905D01*
X157173057Y-150193905D02*
X157363533Y-150146286D01*
X157363533Y-150146286D02*
X157601628Y-150146286D01*
X157601628Y-150146286D02*
X157792104Y-150193905D01*
X157792104Y-150193905D02*
X157887342Y-150241524D01*
X157887342Y-150241524D02*
X157934961Y-150289143D01*
X157934961Y-150289143D02*
X157982580Y-150384381D01*
D11*
X47137200Y-145013809D02*
X47184819Y-144870952D01*
X47184819Y-144870952D02*
X47184819Y-144632857D01*
X47184819Y-144632857D02*
X47137200Y-144537619D01*
X47137200Y-144537619D02*
X47089580Y-144490000D01*
X47089580Y-144490000D02*
X46994342Y-144442381D01*
X46994342Y-144442381D02*
X46899104Y-144442381D01*
X46899104Y-144442381D02*
X46803866Y-144490000D01*
X46803866Y-144490000D02*
X46756247Y-144537619D01*
X46756247Y-144537619D02*
X46708628Y-144632857D01*
X46708628Y-144632857D02*
X46661009Y-144823333D01*
X46661009Y-144823333D02*
X46613390Y-144918571D01*
X46613390Y-144918571D02*
X46565771Y-144966190D01*
X46565771Y-144966190D02*
X46470533Y-145013809D01*
X46470533Y-145013809D02*
X46375295Y-145013809D01*
X46375295Y-145013809D02*
X46280057Y-144966190D01*
X46280057Y-144966190D02*
X46232438Y-144918571D01*
X46232438Y-144918571D02*
X46184819Y-144823333D01*
X46184819Y-144823333D02*
X46184819Y-144585238D01*
X46184819Y-144585238D02*
X46232438Y-144442381D01*
X46184819Y-144109047D02*
X47184819Y-143870952D01*
X47184819Y-143870952D02*
X46470533Y-143680476D01*
X46470533Y-143680476D02*
X47184819Y-143490000D01*
X47184819Y-143490000D02*
X46184819Y-143251905D01*
X47280057Y-143109048D02*
X47280057Y-142347143D01*
X46184819Y-142251904D02*
X46184819Y-141680476D01*
X47184819Y-141966190D02*
X46184819Y-141966190D01*
X47184819Y-141347142D02*
X46184819Y-141347142D01*
X47184819Y-140299524D02*
X46708628Y-140632857D01*
X47184819Y-140870952D02*
X46184819Y-140870952D01*
X46184819Y-140870952D02*
X46184819Y-140490000D01*
X46184819Y-140490000D02*
X46232438Y-140394762D01*
X46232438Y-140394762D02*
X46280057Y-140347143D01*
X46280057Y-140347143D02*
X46375295Y-140299524D01*
X46375295Y-140299524D02*
X46518152Y-140299524D01*
X46518152Y-140299524D02*
X46613390Y-140347143D01*
X46613390Y-140347143D02*
X46661009Y-140394762D01*
X46661009Y-140394762D02*
X46708628Y-140490000D01*
X46708628Y-140490000D02*
X46708628Y-140870952D01*
X46661009Y-139870952D02*
X46661009Y-139537619D01*
X47184819Y-139394762D02*
X47184819Y-139870952D01*
X47184819Y-139870952D02*
X46184819Y-139870952D01*
X46184819Y-139870952D02*
X46184819Y-139394762D01*
X46184819Y-139109047D02*
X46184819Y-138537619D01*
X47184819Y-138823333D02*
X46184819Y-138823333D01*
X46184819Y-138347142D02*
X46184819Y-137775714D01*
X47184819Y-138061428D02*
X46184819Y-138061428D01*
X46661009Y-137442380D02*
X46661009Y-137109047D01*
X47184819Y-136966190D02*
X47184819Y-137442380D01*
X47184819Y-137442380D02*
X46184819Y-137442380D01*
X46184819Y-137442380D02*
X46184819Y-136966190D01*
X102314476Y-24219819D02*
X102314476Y-24934104D01*
X102314476Y-24934104D02*
X102266857Y-25076961D01*
X102266857Y-25076961D02*
X102171619Y-25172200D01*
X102171619Y-25172200D02*
X102028762Y-25219819D01*
X102028762Y-25219819D02*
X101933524Y-25219819D01*
X102743048Y-24315057D02*
X102790667Y-24267438D01*
X102790667Y-24267438D02*
X102885905Y-24219819D01*
X102885905Y-24219819D02*
X103124000Y-24219819D01*
X103124000Y-24219819D02*
X103219238Y-24267438D01*
X103219238Y-24267438D02*
X103266857Y-24315057D01*
X103266857Y-24315057D02*
X103314476Y-24410295D01*
X103314476Y-24410295D02*
X103314476Y-24505533D01*
X103314476Y-24505533D02*
X103266857Y-24648390D01*
X103266857Y-24648390D02*
X102695429Y-25219819D01*
X102695429Y-25219819D02*
X103314476Y-25219819D01*
X103647810Y-24219819D02*
X104266857Y-24219819D01*
X104266857Y-24219819D02*
X103933524Y-24600771D01*
X103933524Y-24600771D02*
X104076381Y-24600771D01*
X104076381Y-24600771D02*
X104171619Y-24648390D01*
X104171619Y-24648390D02*
X104219238Y-24696009D01*
X104219238Y-24696009D02*
X104266857Y-24791247D01*
X104266857Y-24791247D02*
X104266857Y-25029342D01*
X104266857Y-25029342D02*
X104219238Y-25124580D01*
X104219238Y-25124580D02*
X104171619Y-25172200D01*
X104171619Y-25172200D02*
X104076381Y-25219819D01*
X104076381Y-25219819D02*
X103790667Y-25219819D01*
X103790667Y-25219819D02*
X103695429Y-25172200D01*
X103695429Y-25172200D02*
X103647810Y-25124580D01*
X126190666Y-168809200D02*
X126333523Y-168856819D01*
X126333523Y-168856819D02*
X126571618Y-168856819D01*
X126571618Y-168856819D02*
X126666856Y-168809200D01*
X126666856Y-168809200D02*
X126714475Y-168761580D01*
X126714475Y-168761580D02*
X126762094Y-168666342D01*
X126762094Y-168666342D02*
X126762094Y-168571104D01*
X126762094Y-168571104D02*
X126714475Y-168475866D01*
X126714475Y-168475866D02*
X126666856Y-168428247D01*
X126666856Y-168428247D02*
X126571618Y-168380628D01*
X126571618Y-168380628D02*
X126381142Y-168333009D01*
X126381142Y-168333009D02*
X126285904Y-168285390D01*
X126285904Y-168285390D02*
X126238285Y-168237771D01*
X126238285Y-168237771D02*
X126190666Y-168142533D01*
X126190666Y-168142533D02*
X126190666Y-168047295D01*
X126190666Y-168047295D02*
X126238285Y-167952057D01*
X126238285Y-167952057D02*
X126285904Y-167904438D01*
X126285904Y-167904438D02*
X126381142Y-167856819D01*
X126381142Y-167856819D02*
X126619237Y-167856819D01*
X126619237Y-167856819D02*
X126762094Y-167904438D01*
X127571618Y-168809200D02*
X127476380Y-168856819D01*
X127476380Y-168856819D02*
X127285904Y-168856819D01*
X127285904Y-168856819D02*
X127190666Y-168809200D01*
X127190666Y-168809200D02*
X127143047Y-168713961D01*
X127143047Y-168713961D02*
X127143047Y-168333009D01*
X127143047Y-168333009D02*
X127190666Y-168237771D01*
X127190666Y-168237771D02*
X127285904Y-168190152D01*
X127285904Y-168190152D02*
X127476380Y-168190152D01*
X127476380Y-168190152D02*
X127571618Y-168237771D01*
X127571618Y-168237771D02*
X127619237Y-168333009D01*
X127619237Y-168333009D02*
X127619237Y-168428247D01*
X127619237Y-168428247D02*
X127143047Y-168523485D01*
X128047809Y-168856819D02*
X128047809Y-168190152D01*
X128047809Y-168380628D02*
X128095428Y-168285390D01*
X128095428Y-168285390D02*
X128143047Y-168237771D01*
X128143047Y-168237771D02*
X128238285Y-168190152D01*
X128238285Y-168190152D02*
X128333523Y-168190152D01*
X128571619Y-168190152D02*
X128809714Y-168856819D01*
X128809714Y-168856819D02*
X129047809Y-168190152D01*
X129571619Y-168856819D02*
X129476381Y-168809200D01*
X129476381Y-168809200D02*
X129428762Y-168761580D01*
X129428762Y-168761580D02*
X129381143Y-168666342D01*
X129381143Y-168666342D02*
X129381143Y-168380628D01*
X129381143Y-168380628D02*
X129428762Y-168285390D01*
X129428762Y-168285390D02*
X129476381Y-168237771D01*
X129476381Y-168237771D02*
X129571619Y-168190152D01*
X129571619Y-168190152D02*
X129714476Y-168190152D01*
X129714476Y-168190152D02*
X129809714Y-168237771D01*
X129809714Y-168237771D02*
X129857333Y-168285390D01*
X129857333Y-168285390D02*
X129904952Y-168380628D01*
X129904952Y-168380628D02*
X129904952Y-168666342D01*
X129904952Y-168666342D02*
X129857333Y-168761580D01*
X129857333Y-168761580D02*
X129809714Y-168809200D01*
X129809714Y-168809200D02*
X129714476Y-168856819D01*
X129714476Y-168856819D02*
X129571619Y-168856819D01*
X130476381Y-168285390D02*
X130381143Y-168237771D01*
X130381143Y-168237771D02*
X130333524Y-168190152D01*
X130333524Y-168190152D02*
X130285905Y-168094914D01*
X130285905Y-168094914D02*
X130285905Y-168047295D01*
X130285905Y-168047295D02*
X130333524Y-167952057D01*
X130333524Y-167952057D02*
X130381143Y-167904438D01*
X130381143Y-167904438D02*
X130476381Y-167856819D01*
X130476381Y-167856819D02*
X130666857Y-167856819D01*
X130666857Y-167856819D02*
X130762095Y-167904438D01*
X130762095Y-167904438D02*
X130809714Y-167952057D01*
X130809714Y-167952057D02*
X130857333Y-168047295D01*
X130857333Y-168047295D02*
X130857333Y-168094914D01*
X130857333Y-168094914D02*
X130809714Y-168190152D01*
X130809714Y-168190152D02*
X130762095Y-168237771D01*
X130762095Y-168237771D02*
X130666857Y-168285390D01*
X130666857Y-168285390D02*
X130476381Y-168285390D01*
X130476381Y-168285390D02*
X130381143Y-168333009D01*
X130381143Y-168333009D02*
X130333524Y-168380628D01*
X130333524Y-168380628D02*
X130285905Y-168475866D01*
X130285905Y-168475866D02*
X130285905Y-168666342D01*
X130285905Y-168666342D02*
X130333524Y-168761580D01*
X130333524Y-168761580D02*
X130381143Y-168809200D01*
X130381143Y-168809200D02*
X130476381Y-168856819D01*
X130476381Y-168856819D02*
X130666857Y-168856819D01*
X130666857Y-168856819D02*
X130762095Y-168809200D01*
X130762095Y-168809200D02*
X130809714Y-168761580D01*
X130809714Y-168761580D02*
X130857333Y-168666342D01*
X130857333Y-168666342D02*
X130857333Y-168475866D01*
X130857333Y-168475866D02*
X130809714Y-168380628D01*
X130809714Y-168380628D02*
X130762095Y-168333009D01*
X130762095Y-168333009D02*
X130666857Y-168285390D01*
X47137200Y-40683332D02*
X47184819Y-40540475D01*
X47184819Y-40540475D02*
X47184819Y-40302380D01*
X47184819Y-40302380D02*
X47137200Y-40207142D01*
X47137200Y-40207142D02*
X47089580Y-40159523D01*
X47089580Y-40159523D02*
X46994342Y-40111904D01*
X46994342Y-40111904D02*
X46899104Y-40111904D01*
X46899104Y-40111904D02*
X46803866Y-40159523D01*
X46803866Y-40159523D02*
X46756247Y-40207142D01*
X46756247Y-40207142D02*
X46708628Y-40302380D01*
X46708628Y-40302380D02*
X46661009Y-40492856D01*
X46661009Y-40492856D02*
X46613390Y-40588094D01*
X46613390Y-40588094D02*
X46565771Y-40635713D01*
X46565771Y-40635713D02*
X46470533Y-40683332D01*
X46470533Y-40683332D02*
X46375295Y-40683332D01*
X46375295Y-40683332D02*
X46280057Y-40635713D01*
X46280057Y-40635713D02*
X46232438Y-40588094D01*
X46232438Y-40588094D02*
X46184819Y-40492856D01*
X46184819Y-40492856D02*
X46184819Y-40254761D01*
X46184819Y-40254761D02*
X46232438Y-40111904D01*
X46184819Y-39778570D02*
X47184819Y-39540475D01*
X47184819Y-39540475D02*
X46470533Y-39349999D01*
X46470533Y-39349999D02*
X47184819Y-39159523D01*
X47184819Y-39159523D02*
X46184819Y-38921428D01*
X46280057Y-38588094D02*
X46232438Y-38540475D01*
X46232438Y-38540475D02*
X46184819Y-38445237D01*
X46184819Y-38445237D02*
X46184819Y-38207142D01*
X46184819Y-38207142D02*
X46232438Y-38111904D01*
X46232438Y-38111904D02*
X46280057Y-38064285D01*
X46280057Y-38064285D02*
X46375295Y-38016666D01*
X46375295Y-38016666D02*
X46470533Y-38016666D01*
X46470533Y-38016666D02*
X46613390Y-38064285D01*
X46613390Y-38064285D02*
X47184819Y-38635713D01*
X47184819Y-38635713D02*
X47184819Y-38016666D01*
X105362761Y-33220819D02*
X104886571Y-33220819D01*
X104886571Y-33220819D02*
X104886571Y-32220819D01*
X105696095Y-32697009D02*
X106029428Y-32697009D01*
X106172285Y-33220819D02*
X105696095Y-33220819D01*
X105696095Y-33220819D02*
X105696095Y-32220819D01*
X105696095Y-32220819D02*
X106172285Y-32220819D01*
X106600857Y-33220819D02*
X106600857Y-32220819D01*
X106600857Y-32220819D02*
X106838952Y-32220819D01*
X106838952Y-32220819D02*
X106981809Y-32268438D01*
X106981809Y-32268438D02*
X107077047Y-32363676D01*
X107077047Y-32363676D02*
X107124666Y-32458914D01*
X107124666Y-32458914D02*
X107172285Y-32649390D01*
X107172285Y-32649390D02*
X107172285Y-32792247D01*
X107172285Y-32792247D02*
X107124666Y-32982723D01*
X107124666Y-32982723D02*
X107077047Y-33077961D01*
X107077047Y-33077961D02*
X106981809Y-33173200D01*
X106981809Y-33173200D02*
X106838952Y-33220819D01*
X106838952Y-33220819D02*
X106600857Y-33220819D01*
X107362762Y-33316057D02*
X108124666Y-33316057D01*
X108838952Y-33220819D02*
X108362762Y-33220819D01*
X108362762Y-33220819D02*
X108362762Y-32220819D01*
X109172286Y-33220819D02*
X109172286Y-32220819D01*
X109648476Y-33220819D02*
X109648476Y-32220819D01*
X109648476Y-32220819D02*
X109886571Y-32220819D01*
X109886571Y-32220819D02*
X110029428Y-32268438D01*
X110029428Y-32268438D02*
X110124666Y-32363676D01*
X110124666Y-32363676D02*
X110172285Y-32458914D01*
X110172285Y-32458914D02*
X110219904Y-32649390D01*
X110219904Y-32649390D02*
X110219904Y-32792247D01*
X110219904Y-32792247D02*
X110172285Y-32982723D01*
X110172285Y-32982723D02*
X110124666Y-33077961D01*
X110124666Y-33077961D02*
X110029428Y-33173200D01*
X110029428Y-33173200D02*
X109886571Y-33220819D01*
X109886571Y-33220819D02*
X109648476Y-33220819D01*
X110600857Y-32935104D02*
X111077047Y-32935104D01*
X110505619Y-33220819D02*
X110838952Y-32220819D01*
X110838952Y-32220819D02*
X111172285Y-33220819D01*
X112077047Y-33220819D02*
X111743714Y-32744628D01*
X111505619Y-33220819D02*
X111505619Y-32220819D01*
X111505619Y-32220819D02*
X111886571Y-32220819D01*
X111886571Y-32220819D02*
X111981809Y-32268438D01*
X111981809Y-32268438D02*
X112029428Y-32316057D01*
X112029428Y-32316057D02*
X112077047Y-32411295D01*
X112077047Y-32411295D02*
X112077047Y-32554152D01*
X112077047Y-32554152D02*
X112029428Y-32649390D01*
X112029428Y-32649390D02*
X111981809Y-32697009D01*
X111981809Y-32697009D02*
X111886571Y-32744628D01*
X111886571Y-32744628D02*
X111505619Y-32744628D01*
X93060952Y-180376819D02*
X93727618Y-181376819D01*
X93727618Y-180376819D02*
X93060952Y-181376819D01*
X94441904Y-180853009D02*
X94584761Y-180900628D01*
X94584761Y-180900628D02*
X94632380Y-180948247D01*
X94632380Y-180948247D02*
X94679999Y-181043485D01*
X94679999Y-181043485D02*
X94679999Y-181186342D01*
X94679999Y-181186342D02*
X94632380Y-181281580D01*
X94632380Y-181281580D02*
X94584761Y-181329200D01*
X94584761Y-181329200D02*
X94489523Y-181376819D01*
X94489523Y-181376819D02*
X94108571Y-181376819D01*
X94108571Y-181376819D02*
X94108571Y-180376819D01*
X94108571Y-180376819D02*
X94441904Y-180376819D01*
X94441904Y-180376819D02*
X94537142Y-180424438D01*
X94537142Y-180424438D02*
X94584761Y-180472057D01*
X94584761Y-180472057D02*
X94632380Y-180567295D01*
X94632380Y-180567295D02*
X94632380Y-180662533D01*
X94632380Y-180662533D02*
X94584761Y-180757771D01*
X94584761Y-180757771D02*
X94537142Y-180805390D01*
X94537142Y-180805390D02*
X94441904Y-180853009D01*
X94441904Y-180853009D02*
X94108571Y-180853009D01*
X95299047Y-180376819D02*
X95489523Y-180376819D01*
X95489523Y-180376819D02*
X95584761Y-180424438D01*
X95584761Y-180424438D02*
X95679999Y-180519676D01*
X95679999Y-180519676D02*
X95727618Y-180710152D01*
X95727618Y-180710152D02*
X95727618Y-181043485D01*
X95727618Y-181043485D02*
X95679999Y-181233961D01*
X95679999Y-181233961D02*
X95584761Y-181329200D01*
X95584761Y-181329200D02*
X95489523Y-181376819D01*
X95489523Y-181376819D02*
X95299047Y-181376819D01*
X95299047Y-181376819D02*
X95203809Y-181329200D01*
X95203809Y-181329200D02*
X95108571Y-181233961D01*
X95108571Y-181233961D02*
X95060952Y-181043485D01*
X95060952Y-181043485D02*
X95060952Y-180710152D01*
X95060952Y-180710152D02*
X95108571Y-180519676D01*
X95108571Y-180519676D02*
X95203809Y-180424438D01*
X95203809Y-180424438D02*
X95299047Y-180376819D01*
X96060952Y-180376819D02*
X96727618Y-181376819D01*
X96727618Y-180376819D02*
X96060952Y-181376819D01*
X96870476Y-181472057D02*
X97632380Y-181472057D01*
X98203809Y-180853009D02*
X98346666Y-180900628D01*
X98346666Y-180900628D02*
X98394285Y-180948247D01*
X98394285Y-180948247D02*
X98441904Y-181043485D01*
X98441904Y-181043485D02*
X98441904Y-181186342D01*
X98441904Y-181186342D02*
X98394285Y-181281580D01*
X98394285Y-181281580D02*
X98346666Y-181329200D01*
X98346666Y-181329200D02*
X98251428Y-181376819D01*
X98251428Y-181376819D02*
X97870476Y-181376819D01*
X97870476Y-181376819D02*
X97870476Y-180376819D01*
X97870476Y-180376819D02*
X98203809Y-180376819D01*
X98203809Y-180376819D02*
X98299047Y-180424438D01*
X98299047Y-180424438D02*
X98346666Y-180472057D01*
X98346666Y-180472057D02*
X98394285Y-180567295D01*
X98394285Y-180567295D02*
X98394285Y-180662533D01*
X98394285Y-180662533D02*
X98346666Y-180757771D01*
X98346666Y-180757771D02*
X98299047Y-180805390D01*
X98299047Y-180805390D02*
X98203809Y-180853009D01*
X98203809Y-180853009D02*
X97870476Y-180853009D01*
X98727619Y-180376819D02*
X99299047Y-180376819D01*
X99013333Y-181376819D02*
X99013333Y-180376819D01*
X99632381Y-181376819D02*
X99632381Y-180376819D01*
X99632381Y-180853009D02*
X100203809Y-180853009D01*
X100203809Y-181376819D02*
X100203809Y-180376819D01*
X47137200Y-154221428D02*
X47184819Y-154078571D01*
X47184819Y-154078571D02*
X47184819Y-153840476D01*
X47184819Y-153840476D02*
X47137200Y-153745238D01*
X47137200Y-153745238D02*
X47089580Y-153697619D01*
X47089580Y-153697619D02*
X46994342Y-153650000D01*
X46994342Y-153650000D02*
X46899104Y-153650000D01*
X46899104Y-153650000D02*
X46803866Y-153697619D01*
X46803866Y-153697619D02*
X46756247Y-153745238D01*
X46756247Y-153745238D02*
X46708628Y-153840476D01*
X46708628Y-153840476D02*
X46661009Y-154030952D01*
X46661009Y-154030952D02*
X46613390Y-154126190D01*
X46613390Y-154126190D02*
X46565771Y-154173809D01*
X46565771Y-154173809D02*
X46470533Y-154221428D01*
X46470533Y-154221428D02*
X46375295Y-154221428D01*
X46375295Y-154221428D02*
X46280057Y-154173809D01*
X46280057Y-154173809D02*
X46232438Y-154126190D01*
X46232438Y-154126190D02*
X46184819Y-154030952D01*
X46184819Y-154030952D02*
X46184819Y-153792857D01*
X46184819Y-153792857D02*
X46232438Y-153650000D01*
X46184819Y-153316666D02*
X47184819Y-153078571D01*
X47184819Y-153078571D02*
X46470533Y-152888095D01*
X46470533Y-152888095D02*
X47184819Y-152697619D01*
X47184819Y-152697619D02*
X46184819Y-152459524D01*
X47280057Y-152316667D02*
X47280057Y-151554762D01*
X46184819Y-151459523D02*
X46184819Y-150888095D01*
X47184819Y-151173809D02*
X46184819Y-151173809D01*
X46661009Y-150554761D02*
X46661009Y-150221428D01*
X47184819Y-150078571D02*
X47184819Y-150554761D01*
X47184819Y-150554761D02*
X46184819Y-150554761D01*
X46184819Y-150554761D02*
X46184819Y-150078571D01*
X46899104Y-149697618D02*
X46899104Y-149221428D01*
X47184819Y-149792856D02*
X46184819Y-149459523D01*
X46184819Y-149459523D02*
X47184819Y-149126190D01*
X47184819Y-148792856D02*
X46184819Y-148792856D01*
X46184819Y-148792856D02*
X46899104Y-148459523D01*
X46899104Y-148459523D02*
X46184819Y-148126190D01*
X46184819Y-148126190D02*
X47184819Y-148126190D01*
D13*
%TO.C,LIDAR*%
X127945000Y-31960707D02*
X127945000Y-30710707D01*
X127655000Y-31670707D02*
X127655000Y-25700707D01*
X127655000Y-25700707D02*
X115035000Y-25700707D01*
X127645000Y-31660707D02*
X127645000Y-30910707D01*
X127645000Y-30910707D02*
X125845000Y-30910707D01*
X127645000Y-29410707D02*
X126895000Y-29410707D01*
X126895000Y-29410707D02*
X126895000Y-26460707D01*
X126895000Y-26460707D02*
X121345000Y-26460707D01*
X126695000Y-31960707D02*
X127945000Y-31960707D01*
X125845000Y-31660707D02*
X127645000Y-31660707D01*
X125845000Y-30910707D02*
X125845000Y-31660707D01*
X124345000Y-31660707D02*
X124345000Y-30910707D01*
X124345000Y-30910707D02*
X118345000Y-30910707D01*
X118345000Y-31660707D02*
X124345000Y-31660707D01*
X118345000Y-30910707D02*
X118345000Y-31660707D01*
X116845000Y-31660707D02*
X116845000Y-30910707D01*
X116845000Y-30910707D02*
X115045000Y-30910707D01*
X115795000Y-29410707D02*
X115795000Y-26460707D01*
X115795000Y-26460707D02*
X121345000Y-26460707D01*
X115045000Y-31660707D02*
X116845000Y-31660707D01*
X115045000Y-30910707D02*
X115045000Y-31660707D01*
X115045000Y-29410707D02*
X115795000Y-29410707D01*
X115035000Y-31670707D02*
X127655000Y-31670707D01*
X115035000Y-25700707D02*
X115035000Y-31670707D01*
D14*
%TO.C,U1*%
X51480000Y-38788000D02*
X51480000Y-61348000D01*
X51480000Y-61348000D02*
X66972800Y-61348000D01*
X51480000Y-62288000D02*
X51480000Y-168128000D01*
X51480000Y-62288000D02*
X66972800Y-62288000D01*
X53480000Y-170128000D02*
X119480000Y-170128000D01*
X70478000Y-61348000D02*
X89477200Y-61348000D01*
X70478000Y-62288000D02*
X89477200Y-62288000D01*
X94100000Y-61348000D02*
X101415200Y-61348000D01*
X94100000Y-62288000D02*
X101415200Y-62288000D01*
X105479200Y-61348000D02*
X121480000Y-61348000D01*
X105479200Y-62288000D02*
X121480000Y-62288000D01*
X119480000Y-36788000D02*
X53480000Y-36788000D01*
X121480000Y-61348000D02*
X121480000Y-38788000D01*
X121480000Y-168128000D02*
X121480000Y-62288000D01*
X51480000Y-38788000D02*
G75*
G02*
X53480000Y-36788000I1999999J1D01*
G01*
X53480000Y-170128000D02*
G75*
G02*
X51480000Y-168128000I-1J1999999D01*
G01*
X66972801Y-61348000D02*
G75*
G02*
X66972800Y-62288000I-7462J-470000D01*
G01*
X70477999Y-62288000D02*
G75*
G02*
X70478000Y-61348000I7462J470000D01*
G01*
X89477201Y-61348000D02*
G75*
G02*
X89477200Y-62288000I-7461J-470000D01*
G01*
X94099999Y-62288000D02*
G75*
G02*
X94100000Y-61348000I7461J470000D01*
G01*
X101415201Y-61348000D02*
G75*
G02*
X101415200Y-62288000I-7461J-470000D01*
G01*
X105479199Y-62288000D02*
G75*
G02*
X105479200Y-61348000I7461J470000D01*
G01*
X119480000Y-36788000D02*
G75*
G02*
X121480000Y-38788000I0J-2000000D01*
G01*
X121480000Y-168128000D02*
G75*
G02*
X119480000Y-170128000I-2000000J0D01*
G01*
D15*
X50540000Y-68528000D02*
G75*
G02*
X50340000Y-68528000I-100000J0D01*
G01*
X50340000Y-68528000D02*
G75*
G02*
X50540000Y-68528000I100000J0D01*
G01*
D13*
%TO.C,SW8*%
X39670000Y-96540000D02*
X39670000Y-104160000D01*
X39670000Y-104160000D02*
X45640000Y-104160000D01*
X40430000Y-97300000D02*
X40430000Y-100350000D01*
X40430000Y-103400000D02*
X40430000Y-100350000D01*
X43380000Y-96550000D02*
X43380000Y-97300000D01*
X43380000Y-97300000D02*
X40430000Y-97300000D01*
X43380000Y-103400000D02*
X40430000Y-103400000D01*
X43380000Y-104150000D02*
X43380000Y-103400000D01*
X44880000Y-96550000D02*
X44880000Y-98350000D01*
X44880000Y-98350000D02*
X45630000Y-98350000D01*
X44880000Y-99850000D02*
X44880000Y-100850000D01*
X44880000Y-100850000D02*
X45630000Y-100850000D01*
X44880000Y-102350000D02*
X44880000Y-104150000D01*
X44880000Y-104150000D02*
X45630000Y-104150000D01*
X45630000Y-96550000D02*
X44880000Y-96550000D01*
X45630000Y-98350000D02*
X45630000Y-96550000D01*
X45630000Y-99850000D02*
X44880000Y-99850000D01*
X45630000Y-100850000D02*
X45630000Y-99850000D01*
X45630000Y-102350000D02*
X44880000Y-102350000D01*
X45630000Y-104150000D02*
X45630000Y-102350000D01*
X45640000Y-96540000D02*
X39670000Y-96540000D01*
X45640000Y-104160000D02*
X45640000Y-96540000D01*
X45930000Y-96250000D02*
X44680000Y-96250000D01*
X45930000Y-97500000D02*
X45930000Y-96250000D01*
%TO.C,Servo4*%
X124400000Y-146400000D02*
X124400000Y-149060000D01*
X129540000Y-146400000D02*
X124400000Y-146400000D01*
X129540000Y-146400000D02*
X129540000Y-149060000D01*
X129540000Y-149060000D02*
X124400000Y-149060000D01*
X130810000Y-146400000D02*
X132140000Y-146400000D01*
X132140000Y-146400000D02*
X132140000Y-147730000D01*
%TO.C,PWR*%
X78450000Y-26704000D02*
X78450000Y-26860000D01*
X78450000Y-29020000D02*
X78450000Y-29176000D01*
X78450000Y-26704484D02*
G75*
G02*
X81681397Y-26859939I1560000J-1235516D01*
G01*
X78969039Y-26860000D02*
G75*
G02*
X81050910Y-26859951I1040961J-1080000D01*
G01*
X81050910Y-29020049D02*
G75*
G02*
X78969039Y-29020000I-1040910J1080049D01*
G01*
X81681397Y-29020061D02*
G75*
G02*
X78450000Y-29175516I-1671397J1080061D01*
G01*
%TO.C,SW9*%
X39670000Y-106700000D02*
X39670000Y-114320000D01*
X39670000Y-114320000D02*
X45640000Y-114320000D01*
X40430000Y-107460000D02*
X40430000Y-110510000D01*
X40430000Y-113560000D02*
X40430000Y-110510000D01*
X43380000Y-106710000D02*
X43380000Y-107460000D01*
X43380000Y-107460000D02*
X40430000Y-107460000D01*
X43380000Y-113560000D02*
X40430000Y-113560000D01*
X43380000Y-114310000D02*
X43380000Y-113560000D01*
X44880000Y-106710000D02*
X44880000Y-108510000D01*
X44880000Y-108510000D02*
X45630000Y-108510000D01*
X44880000Y-110010000D02*
X44880000Y-111010000D01*
X44880000Y-111010000D02*
X45630000Y-111010000D01*
X44880000Y-112510000D02*
X44880000Y-114310000D01*
X44880000Y-114310000D02*
X45630000Y-114310000D01*
X45630000Y-106710000D02*
X44880000Y-106710000D01*
X45630000Y-108510000D02*
X45630000Y-106710000D01*
X45630000Y-110010000D02*
X44880000Y-110010000D01*
X45630000Y-111010000D02*
X45630000Y-110010000D01*
X45630000Y-112510000D02*
X44880000Y-112510000D01*
X45630000Y-114310000D02*
X45630000Y-112510000D01*
X45640000Y-106700000D02*
X39670000Y-106700000D01*
X45640000Y-114320000D02*
X45640000Y-106700000D01*
X45930000Y-106410000D02*
X44680000Y-106410000D01*
X45930000Y-107660000D02*
X45930000Y-106410000D01*
%TO.C,SW_BAU*%
X39670000Y-157500000D02*
X39670000Y-165120000D01*
X39670000Y-165120000D02*
X45640000Y-165120000D01*
X40430000Y-158260000D02*
X40430000Y-161310000D01*
X40430000Y-164360000D02*
X40430000Y-161310000D01*
X43380000Y-157510000D02*
X43380000Y-158260000D01*
X43380000Y-158260000D02*
X40430000Y-158260000D01*
X43380000Y-164360000D02*
X40430000Y-164360000D01*
X43380000Y-165110000D02*
X43380000Y-164360000D01*
X44880000Y-157510000D02*
X44880000Y-159310000D01*
X44880000Y-159310000D02*
X45630000Y-159310000D01*
X44880000Y-160810000D02*
X44880000Y-161810000D01*
X44880000Y-161810000D02*
X45630000Y-161810000D01*
X44880000Y-163310000D02*
X44880000Y-165110000D01*
X44880000Y-165110000D02*
X45630000Y-165110000D01*
X45630000Y-157510000D02*
X44880000Y-157510000D01*
X45630000Y-159310000D02*
X45630000Y-157510000D01*
X45630000Y-160810000D02*
X44880000Y-160810000D01*
X45630000Y-161810000D02*
X45630000Y-160810000D01*
X45630000Y-163310000D02*
X44880000Y-163310000D01*
X45630000Y-165110000D02*
X45630000Y-163310000D01*
X45640000Y-157500000D02*
X39670000Y-157500000D01*
X45640000Y-165120000D02*
X45640000Y-157500000D01*
X45930000Y-157210000D02*
X44680000Y-157210000D01*
X45930000Y-158460000D02*
X45930000Y-157210000D01*
%TO.C,Servo5*%
X124400000Y-151050000D02*
X124400000Y-153710000D01*
X129540000Y-151050000D02*
X124400000Y-151050000D01*
X129540000Y-151050000D02*
X129540000Y-153710000D01*
X129540000Y-153710000D02*
X124400000Y-153710000D01*
X130810000Y-151050000D02*
X132140000Y-151050000D01*
X132140000Y-151050000D02*
X132140000Y-152380000D01*
%TO.C,BTH*%
X110470000Y-173832800D02*
X110470000Y-179802800D01*
X110470000Y-179802800D02*
X128090000Y-179802800D01*
X110480000Y-177542800D02*
X111230000Y-177542800D01*
X110480000Y-179042800D02*
X110480000Y-179792800D01*
X110480000Y-179792800D02*
X112280000Y-179792800D01*
X111230000Y-174592800D02*
X119280000Y-174592800D01*
X111230000Y-177542800D02*
X111230000Y-174592800D01*
X112280000Y-179042800D02*
X110480000Y-179042800D01*
X112280000Y-179792800D02*
X112280000Y-179042800D01*
X113780000Y-179042800D02*
X113780000Y-179792800D01*
X113780000Y-179792800D02*
X124780000Y-179792800D01*
X124780000Y-179042800D02*
X113780000Y-179042800D01*
X124780000Y-179792800D02*
X124780000Y-179042800D01*
X126280000Y-179042800D02*
X126280000Y-179792800D01*
X126280000Y-179792800D02*
X128080000Y-179792800D01*
X127130000Y-180092800D02*
X128380000Y-180092800D01*
X127330000Y-174592800D02*
X119280000Y-174592800D01*
X127330000Y-177542800D02*
X127330000Y-174592800D01*
X128080000Y-177542800D02*
X127330000Y-177542800D01*
X128080000Y-179042800D02*
X126280000Y-179042800D01*
X128080000Y-179792800D02*
X128080000Y-179042800D01*
X128090000Y-173832800D02*
X110470000Y-173832800D01*
X128090000Y-179802800D02*
X128090000Y-173832800D01*
X128380000Y-180092800D02*
X128380000Y-178842800D01*
%TO.C,SW4*%
X39670000Y-55820000D02*
X39670000Y-63440000D01*
X39670000Y-63440000D02*
X45640000Y-63440000D01*
X40430000Y-56580000D02*
X40430000Y-59630000D01*
X40430000Y-62680000D02*
X40430000Y-59630000D01*
X43380000Y-55830000D02*
X43380000Y-56580000D01*
X43380000Y-56580000D02*
X40430000Y-56580000D01*
X43380000Y-62680000D02*
X40430000Y-62680000D01*
X43380000Y-63430000D02*
X43380000Y-62680000D01*
X44880000Y-55830000D02*
X44880000Y-57630000D01*
X44880000Y-57630000D02*
X45630000Y-57630000D01*
X44880000Y-59130000D02*
X44880000Y-60130000D01*
X44880000Y-60130000D02*
X45630000Y-60130000D01*
X44880000Y-61630000D02*
X44880000Y-63430000D01*
X44880000Y-63430000D02*
X45630000Y-63430000D01*
X45630000Y-55830000D02*
X44880000Y-55830000D01*
X45630000Y-57630000D02*
X45630000Y-55830000D01*
X45630000Y-59130000D02*
X44880000Y-59130000D01*
X45630000Y-60130000D02*
X45630000Y-59130000D01*
X45630000Y-61630000D02*
X44880000Y-61630000D01*
X45630000Y-63430000D02*
X45630000Y-61630000D01*
X45640000Y-55820000D02*
X39670000Y-55820000D01*
X45640000Y-63440000D02*
X45640000Y-55820000D01*
X45930000Y-55530000D02*
X44680000Y-55530000D01*
X45930000Y-56780000D02*
X45930000Y-55530000D01*
%TO.C,Stepper1*%
X157905000Y-38002000D02*
X157905000Y-39252000D01*
X157905000Y-39252000D02*
X159155000Y-39252000D01*
X158195000Y-26342000D02*
X158195000Y-38962000D01*
X158195000Y-38962000D02*
X164165000Y-38962000D01*
X158205000Y-26352000D02*
X158205000Y-28152000D01*
X158205000Y-28152000D02*
X158955000Y-28152000D01*
X158205000Y-29652000D02*
X158205000Y-35652000D01*
X158205000Y-35652000D02*
X158955000Y-35652000D01*
X158205000Y-37152000D02*
X158205000Y-38952000D01*
X158205000Y-38952000D02*
X158955000Y-38952000D01*
X158955000Y-26352000D02*
X158205000Y-26352000D01*
X158955000Y-28152000D02*
X158955000Y-26352000D01*
X158955000Y-29652000D02*
X158205000Y-29652000D01*
X158955000Y-35652000D02*
X158955000Y-29652000D01*
X158955000Y-37152000D02*
X158205000Y-37152000D01*
X158955000Y-38952000D02*
X158955000Y-37152000D01*
X160455000Y-26352000D02*
X160455000Y-27102000D01*
X160455000Y-27102000D02*
X163405000Y-27102000D01*
X160455000Y-38202000D02*
X163405000Y-38202000D01*
X160455000Y-38952000D02*
X160455000Y-38202000D01*
X163405000Y-27102000D02*
X163405000Y-32652000D01*
X163405000Y-38202000D02*
X163405000Y-32652000D01*
X164165000Y-26342000D02*
X158195000Y-26342000D01*
X164165000Y-38962000D02*
X164165000Y-26342000D01*
%TO.C,R2*%
X111530000Y-34290000D02*
X112300000Y-34290000D01*
X112300000Y-32920000D02*
X112300000Y-35660000D01*
X112300000Y-35660000D02*
X118840000Y-35660000D01*
X118840000Y-32920000D02*
X112300000Y-32920000D01*
X118840000Y-35660000D02*
X118840000Y-32920000D01*
X119610000Y-34290000D02*
X118840000Y-34290000D01*
%TO.C,Servo1*%
X124400000Y-132020000D02*
X124400000Y-134680000D01*
X129540000Y-132020000D02*
X124400000Y-132020000D01*
X129540000Y-132020000D02*
X129540000Y-134680000D01*
X129540000Y-134680000D02*
X124400000Y-134680000D01*
X130810000Y-132020000D02*
X132140000Y-132020000D01*
X132140000Y-132020000D02*
X132140000Y-133350000D01*
%TO.C,SW10*%
X39670000Y-116860000D02*
X39670000Y-124480000D01*
X39670000Y-124480000D02*
X45640000Y-124480000D01*
X40430000Y-117620000D02*
X40430000Y-120670000D01*
X40430000Y-123720000D02*
X40430000Y-120670000D01*
X43380000Y-116870000D02*
X43380000Y-117620000D01*
X43380000Y-117620000D02*
X40430000Y-117620000D01*
X43380000Y-123720000D02*
X40430000Y-123720000D01*
X43380000Y-124470000D02*
X43380000Y-123720000D01*
X44880000Y-116870000D02*
X44880000Y-118670000D01*
X44880000Y-118670000D02*
X45630000Y-118670000D01*
X44880000Y-120170000D02*
X44880000Y-121170000D01*
X44880000Y-121170000D02*
X45630000Y-121170000D01*
X44880000Y-122670000D02*
X44880000Y-124470000D01*
X44880000Y-124470000D02*
X45630000Y-124470000D01*
X45630000Y-116870000D02*
X44880000Y-116870000D01*
X45630000Y-118670000D02*
X45630000Y-116870000D01*
X45630000Y-120170000D02*
X44880000Y-120170000D01*
X45630000Y-121170000D02*
X45630000Y-120170000D01*
X45630000Y-122670000D02*
X44880000Y-122670000D01*
X45630000Y-124470000D02*
X45630000Y-122670000D01*
X45640000Y-116860000D02*
X39670000Y-116860000D01*
X45640000Y-124480000D02*
X45640000Y-116860000D01*
X45930000Y-116570000D02*
X44680000Y-116570000D01*
X45930000Y-117820000D02*
X45930000Y-116570000D01*
D12*
%TO.C,U8*%
X135850000Y-78312000D02*
X135850000Y-93552000D01*
X135850000Y-93552000D02*
X156170000Y-93552000D01*
X156170000Y-78312000D02*
X135850000Y-78312000D01*
X156170000Y-93552000D02*
X156170000Y-78312000D01*
D13*
%TO.C,SW5*%
X39670000Y-66020000D02*
X39670000Y-73640000D01*
X39670000Y-73640000D02*
X45640000Y-73640000D01*
X40430000Y-66780000D02*
X40430000Y-69830000D01*
X40430000Y-72880000D02*
X40430000Y-69830000D01*
X43380000Y-66030000D02*
X43380000Y-66780000D01*
X43380000Y-66780000D02*
X40430000Y-66780000D01*
X43380000Y-72880000D02*
X40430000Y-72880000D01*
X43380000Y-73630000D02*
X43380000Y-72880000D01*
X44880000Y-66030000D02*
X44880000Y-67830000D01*
X44880000Y-67830000D02*
X45630000Y-67830000D01*
X44880000Y-69330000D02*
X44880000Y-70330000D01*
X44880000Y-70330000D02*
X45630000Y-70330000D01*
X44880000Y-71830000D02*
X44880000Y-73630000D01*
X44880000Y-73630000D02*
X45630000Y-73630000D01*
X45630000Y-66030000D02*
X44880000Y-66030000D01*
X45630000Y-67830000D02*
X45630000Y-66030000D01*
X45630000Y-69330000D02*
X44880000Y-69330000D01*
X45630000Y-70330000D02*
X45630000Y-69330000D01*
X45630000Y-71830000D02*
X44880000Y-71830000D01*
X45630000Y-73630000D02*
X45630000Y-71830000D01*
X45640000Y-66020000D02*
X39670000Y-66020000D01*
X45640000Y-73640000D02*
X45640000Y-66020000D01*
X45930000Y-65730000D02*
X44680000Y-65730000D01*
X45930000Y-66980000D02*
X45930000Y-65730000D01*
%TO.C,R1*%
X69620000Y-34290000D02*
X70390000Y-34290000D01*
X70390000Y-32920000D02*
X70390000Y-35660000D01*
X70390000Y-35660000D02*
X76930000Y-35660000D01*
X76930000Y-32920000D02*
X70390000Y-32920000D01*
X76930000Y-35660000D02*
X76930000Y-32920000D01*
X77700000Y-34290000D02*
X76930000Y-34290000D01*
%TO.C,SW_INIT*%
X39670000Y-167660000D02*
X39670000Y-175280000D01*
X39670000Y-175280000D02*
X45640000Y-175280000D01*
X40430000Y-168420000D02*
X40430000Y-171470000D01*
X40430000Y-174520000D02*
X40430000Y-171470000D01*
X43380000Y-167670000D02*
X43380000Y-168420000D01*
X43380000Y-168420000D02*
X40430000Y-168420000D01*
X43380000Y-174520000D02*
X40430000Y-174520000D01*
X43380000Y-175270000D02*
X43380000Y-174520000D01*
X44880000Y-167670000D02*
X44880000Y-169470000D01*
X44880000Y-169470000D02*
X45630000Y-169470000D01*
X44880000Y-170970000D02*
X44880000Y-171970000D01*
X44880000Y-171970000D02*
X45630000Y-171970000D01*
X44880000Y-173470000D02*
X44880000Y-175270000D01*
X44880000Y-175270000D02*
X45630000Y-175270000D01*
X45630000Y-167670000D02*
X44880000Y-167670000D01*
X45630000Y-169470000D02*
X45630000Y-167670000D01*
X45630000Y-170970000D02*
X44880000Y-170970000D01*
X45630000Y-171970000D02*
X45630000Y-170970000D01*
X45630000Y-173470000D02*
X44880000Y-173470000D01*
X45630000Y-175270000D02*
X45630000Y-173470000D01*
X45640000Y-167660000D02*
X39670000Y-167660000D01*
X45640000Y-175280000D02*
X45640000Y-167660000D01*
X45930000Y-167370000D02*
X44680000Y-167370000D01*
X45930000Y-168620000D02*
X45930000Y-167370000D01*
%TO.C,SW_RST*%
X66020000Y-25700000D02*
X66020000Y-31670000D01*
X66020000Y-31670000D02*
X73640000Y-31670000D01*
X66030000Y-29410000D02*
X66780000Y-29410000D01*
X66030000Y-30910000D02*
X66030000Y-31660000D01*
X66030000Y-31660000D02*
X67830000Y-31660000D01*
X66780000Y-26460000D02*
X69830000Y-26460000D01*
X66780000Y-29410000D02*
X66780000Y-26460000D01*
X67830000Y-30910000D02*
X66030000Y-30910000D01*
X67830000Y-31660000D02*
X67830000Y-30910000D01*
X69330000Y-30910000D02*
X69330000Y-31660000D01*
X69330000Y-31660000D02*
X70330000Y-31660000D01*
X70330000Y-30910000D02*
X69330000Y-30910000D01*
X70330000Y-31660000D02*
X70330000Y-30910000D01*
X71830000Y-30910000D02*
X71830000Y-31660000D01*
X71830000Y-31660000D02*
X73630000Y-31660000D01*
X72680000Y-31960000D02*
X73930000Y-31960000D01*
X72880000Y-26460000D02*
X69830000Y-26460000D01*
X72880000Y-29410000D02*
X72880000Y-26460000D01*
X73630000Y-29410000D02*
X72880000Y-29410000D01*
X73630000Y-30910000D02*
X71830000Y-30910000D01*
X73630000Y-31660000D02*
X73630000Y-30910000D01*
X73640000Y-25700000D02*
X66020000Y-25700000D01*
X73640000Y-31670000D02*
X73640000Y-25700000D01*
X73930000Y-31960000D02*
X73930000Y-30710000D01*
%TO.C,SW3*%
X39670000Y-45660000D02*
X39670000Y-53280000D01*
X39670000Y-53280000D02*
X45640000Y-53280000D01*
X40430000Y-46420000D02*
X40430000Y-49470000D01*
X40430000Y-52520000D02*
X40430000Y-49470000D01*
X43380000Y-45670000D02*
X43380000Y-46420000D01*
X43380000Y-46420000D02*
X40430000Y-46420000D01*
X43380000Y-52520000D02*
X40430000Y-52520000D01*
X43380000Y-53270000D02*
X43380000Y-52520000D01*
X44880000Y-45670000D02*
X44880000Y-47470000D01*
X44880000Y-47470000D02*
X45630000Y-47470000D01*
X44880000Y-48970000D02*
X44880000Y-49970000D01*
X44880000Y-49970000D02*
X45630000Y-49970000D01*
X44880000Y-51470000D02*
X44880000Y-53270000D01*
X44880000Y-53270000D02*
X45630000Y-53270000D01*
X45630000Y-45670000D02*
X44880000Y-45670000D01*
X45630000Y-47470000D02*
X45630000Y-45670000D01*
X45630000Y-48970000D02*
X44880000Y-48970000D01*
X45630000Y-49970000D02*
X45630000Y-48970000D01*
X45630000Y-51470000D02*
X44880000Y-51470000D01*
X45630000Y-53270000D02*
X45630000Y-51470000D01*
X45640000Y-45660000D02*
X39670000Y-45660000D01*
X45640000Y-53280000D02*
X45640000Y-45660000D01*
X45930000Y-45370000D02*
X44680000Y-45370000D01*
X45930000Y-46620000D02*
X45930000Y-45370000D01*
%TO.C,SW6*%
X39670000Y-76180000D02*
X39670000Y-83800000D01*
X39670000Y-83800000D02*
X45640000Y-83800000D01*
X40430000Y-76940000D02*
X40430000Y-79990000D01*
X40430000Y-83040000D02*
X40430000Y-79990000D01*
X43380000Y-76190000D02*
X43380000Y-76940000D01*
X43380000Y-76940000D02*
X40430000Y-76940000D01*
X43380000Y-83040000D02*
X40430000Y-83040000D01*
X43380000Y-83790000D02*
X43380000Y-83040000D01*
X44880000Y-76190000D02*
X44880000Y-77990000D01*
X44880000Y-77990000D02*
X45630000Y-77990000D01*
X44880000Y-79490000D02*
X44880000Y-80490000D01*
X44880000Y-80490000D02*
X45630000Y-80490000D01*
X44880000Y-81990000D02*
X44880000Y-83790000D01*
X44880000Y-83790000D02*
X45630000Y-83790000D01*
X45630000Y-76190000D02*
X44880000Y-76190000D01*
X45630000Y-77990000D02*
X45630000Y-76190000D01*
X45630000Y-79490000D02*
X44880000Y-79490000D01*
X45630000Y-80490000D02*
X45630000Y-79490000D01*
X45630000Y-81990000D02*
X44880000Y-81990000D01*
X45630000Y-83790000D02*
X45630000Y-81990000D01*
X45640000Y-76180000D02*
X39670000Y-76180000D01*
X45640000Y-83800000D02*
X45640000Y-76180000D01*
X45930000Y-75890000D02*
X44680000Y-75890000D01*
X45930000Y-77140000D02*
X45930000Y-75890000D01*
%TO.C,Servo2*%
X124400000Y-137100000D02*
X124400000Y-139760000D01*
X129540000Y-137100000D02*
X124400000Y-137100000D01*
X129540000Y-137100000D02*
X129540000Y-139760000D01*
X129540000Y-139760000D02*
X124400000Y-139760000D01*
X130810000Y-137100000D02*
X132140000Y-137100000D01*
X132140000Y-137100000D02*
X132140000Y-138430000D01*
%TO.C,SW1*%
X39670000Y-25380000D02*
X39670000Y-33000000D01*
X39670000Y-33000000D02*
X45640000Y-33000000D01*
X40430000Y-26140000D02*
X40430000Y-29190000D01*
X40430000Y-32240000D02*
X40430000Y-29190000D01*
X43380000Y-25390000D02*
X43380000Y-26140000D01*
X43380000Y-26140000D02*
X40430000Y-26140000D01*
X43380000Y-32240000D02*
X40430000Y-32240000D01*
X43380000Y-32990000D02*
X43380000Y-32240000D01*
X44880000Y-25390000D02*
X44880000Y-27190000D01*
X44880000Y-27190000D02*
X45630000Y-27190000D01*
X44880000Y-28690000D02*
X44880000Y-29690000D01*
X44880000Y-29690000D02*
X45630000Y-29690000D01*
X44880000Y-31190000D02*
X44880000Y-32990000D01*
X44880000Y-32990000D02*
X45630000Y-32990000D01*
X45630000Y-25390000D02*
X44880000Y-25390000D01*
X45630000Y-27190000D02*
X45630000Y-25390000D01*
X45630000Y-28690000D02*
X44880000Y-28690000D01*
X45630000Y-29690000D02*
X45630000Y-28690000D01*
X45630000Y-31190000D02*
X44880000Y-31190000D01*
X45630000Y-32990000D02*
X45630000Y-31190000D01*
X45640000Y-25380000D02*
X39670000Y-25380000D01*
X45640000Y-33000000D02*
X45640000Y-25380000D01*
X45930000Y-25090000D02*
X44680000Y-25090000D01*
X45930000Y-26340000D02*
X45930000Y-25090000D01*
%TO.C,StepperB*%
X157905000Y-161192000D02*
X157905000Y-162442000D01*
X157905000Y-162442000D02*
X159155000Y-162442000D01*
X158195000Y-149532000D02*
X158195000Y-162152000D01*
X158195000Y-162152000D02*
X164165000Y-162152000D01*
X158205000Y-149542000D02*
X158205000Y-151342000D01*
X158205000Y-151342000D02*
X158955000Y-151342000D01*
X158205000Y-152842000D02*
X158205000Y-158842000D01*
X158205000Y-158842000D02*
X158955000Y-158842000D01*
X158205000Y-160342000D02*
X158205000Y-162142000D01*
X158205000Y-162142000D02*
X158955000Y-162142000D01*
X158955000Y-149542000D02*
X158205000Y-149542000D01*
X158955000Y-151342000D02*
X158955000Y-149542000D01*
X158955000Y-152842000D02*
X158205000Y-152842000D01*
X158955000Y-158842000D02*
X158955000Y-152842000D01*
X158955000Y-160342000D02*
X158205000Y-160342000D01*
X158955000Y-162142000D02*
X158955000Y-160342000D01*
X160455000Y-149542000D02*
X160455000Y-150292000D01*
X160455000Y-150292000D02*
X163405000Y-150292000D01*
X160455000Y-161392000D02*
X163405000Y-161392000D01*
X160455000Y-162142000D02*
X160455000Y-161392000D01*
X163405000Y-150292000D02*
X163405000Y-155842000D01*
X163405000Y-161392000D02*
X163405000Y-155842000D01*
X164165000Y-149532000D02*
X158195000Y-149532000D01*
X164165000Y-162152000D02*
X164165000Y-149532000D01*
%TO.C,D3*%
X55942000Y-77980000D02*
X55942000Y-87120000D01*
X55942000Y-87120000D02*
X59882000Y-87120000D01*
X57912000Y-77840000D02*
X57912000Y-77980000D01*
X57912000Y-87260000D02*
X57912000Y-87120000D01*
X59882000Y-77980000D02*
X55942000Y-77980000D01*
X59882000Y-79315000D02*
X55942000Y-79315000D01*
X59882000Y-79435000D02*
X55942000Y-79435000D01*
X59882000Y-79555000D02*
X55942000Y-79555000D01*
X59882000Y-87120000D02*
X59882000Y-77980000D01*
%TO.C,Stepper4*%
X157905000Y-91342000D02*
X157905000Y-92592000D01*
X157905000Y-92592000D02*
X159155000Y-92592000D01*
X158195000Y-79682000D02*
X158195000Y-92302000D01*
X158195000Y-92302000D02*
X164165000Y-92302000D01*
X158205000Y-79692000D02*
X158205000Y-81492000D01*
X158205000Y-81492000D02*
X158955000Y-81492000D01*
X158205000Y-82992000D02*
X158205000Y-88992000D01*
X158205000Y-88992000D02*
X158955000Y-88992000D01*
X158205000Y-90492000D02*
X158205000Y-92292000D01*
X158205000Y-92292000D02*
X158955000Y-92292000D01*
X158955000Y-79692000D02*
X158205000Y-79692000D01*
X158955000Y-81492000D02*
X158955000Y-79692000D01*
X158955000Y-82992000D02*
X158205000Y-82992000D01*
X158955000Y-88992000D02*
X158955000Y-82992000D01*
X158955000Y-90492000D02*
X158205000Y-90492000D01*
X158955000Y-92292000D02*
X158955000Y-90492000D01*
X160455000Y-79692000D02*
X160455000Y-80442000D01*
X160455000Y-80442000D02*
X163405000Y-80442000D01*
X160455000Y-91542000D02*
X163405000Y-91542000D01*
X160455000Y-92292000D02*
X160455000Y-91542000D01*
X163405000Y-80442000D02*
X163405000Y-85992000D01*
X163405000Y-91542000D02*
X163405000Y-85992000D01*
X164165000Y-79682000D02*
X158195000Y-79682000D01*
X164165000Y-92302000D02*
X164165000Y-79682000D01*
%TO.C,Servo7*%
X124400000Y-160350000D02*
X124400000Y-163010000D01*
X129540000Y-160350000D02*
X124400000Y-160350000D01*
X129540000Y-160350000D02*
X129540000Y-163010000D01*
X129540000Y-163010000D02*
X124400000Y-163010000D01*
X130810000Y-160350000D02*
X132140000Y-160350000D01*
X132140000Y-160350000D02*
X132140000Y-161680000D01*
%TO.C,StepperC*%
X157905000Y-178852000D02*
X157905000Y-180102000D01*
X157905000Y-180102000D02*
X159155000Y-180102000D01*
X158195000Y-167192000D02*
X158195000Y-179812000D01*
X158195000Y-179812000D02*
X164165000Y-179812000D01*
X158205000Y-167202000D02*
X158205000Y-169002000D01*
X158205000Y-169002000D02*
X158955000Y-169002000D01*
X158205000Y-170502000D02*
X158205000Y-176502000D01*
X158205000Y-176502000D02*
X158955000Y-176502000D01*
X158205000Y-178002000D02*
X158205000Y-179802000D01*
X158205000Y-179802000D02*
X158955000Y-179802000D01*
X158955000Y-167202000D02*
X158205000Y-167202000D01*
X158955000Y-169002000D02*
X158955000Y-167202000D01*
X158955000Y-170502000D02*
X158205000Y-170502000D01*
X158955000Y-176502000D02*
X158955000Y-170502000D01*
X158955000Y-178002000D02*
X158205000Y-178002000D01*
X158955000Y-179802000D02*
X158955000Y-178002000D01*
X160455000Y-167202000D02*
X160455000Y-167952000D01*
X160455000Y-167952000D02*
X163405000Y-167952000D01*
X160455000Y-179052000D02*
X163405000Y-179052000D01*
X160455000Y-179802000D02*
X160455000Y-179052000D01*
X163405000Y-167952000D02*
X163405000Y-173502000D01*
X163405000Y-179052000D02*
X163405000Y-173502000D01*
X164165000Y-167192000D02*
X158195000Y-167192000D01*
X164165000Y-179812000D02*
X164165000Y-167192000D01*
%TO.C,U2*%
X72788000Y-97683000D02*
X72788000Y-115583000D01*
X72788000Y-115583000D02*
X78088000Y-115583000D01*
X74438000Y-97683000D02*
X72788000Y-97683000D01*
X78088000Y-97683000D02*
X76438000Y-97683000D01*
X78088000Y-115583000D02*
X78088000Y-97683000D01*
X76438000Y-97683000D02*
G75*
G02*
X74438000Y-97683000I-1000000J0D01*
G01*
D12*
%TO.C,U7*%
X135850000Y-60532000D02*
X135850000Y-75772000D01*
X135850000Y-75772000D02*
X156170000Y-75772000D01*
X156170000Y-60532000D02*
X135850000Y-60532000D01*
X156170000Y-75772000D02*
X156170000Y-60532000D01*
D13*
%TO.C,Stepper3*%
X157905000Y-73562000D02*
X157905000Y-74812000D01*
X157905000Y-74812000D02*
X159155000Y-74812000D01*
X158195000Y-61902000D02*
X158195000Y-74522000D01*
X158195000Y-74522000D02*
X164165000Y-74522000D01*
X158205000Y-61912000D02*
X158205000Y-63712000D01*
X158205000Y-63712000D02*
X158955000Y-63712000D01*
X158205000Y-65212000D02*
X158205000Y-71212000D01*
X158205000Y-71212000D02*
X158955000Y-71212000D01*
X158205000Y-72712000D02*
X158205000Y-74512000D01*
X158205000Y-74512000D02*
X158955000Y-74512000D01*
X158955000Y-61912000D02*
X158205000Y-61912000D01*
X158955000Y-63712000D02*
X158955000Y-61912000D01*
X158955000Y-65212000D02*
X158205000Y-65212000D01*
X158955000Y-71212000D02*
X158955000Y-65212000D01*
X158955000Y-72712000D02*
X158205000Y-72712000D01*
X158955000Y-74512000D02*
X158955000Y-72712000D01*
X160455000Y-61912000D02*
X160455000Y-62662000D01*
X160455000Y-62662000D02*
X163405000Y-62662000D01*
X160455000Y-73762000D02*
X163405000Y-73762000D01*
X160455000Y-74512000D02*
X160455000Y-73762000D01*
X163405000Y-62662000D02*
X163405000Y-68212000D01*
X163405000Y-73762000D02*
X163405000Y-68212000D01*
X164165000Y-61902000D02*
X158195000Y-61902000D01*
X164165000Y-74522000D02*
X164165000Y-61902000D01*
%TO.C,R4*%
X112422000Y-116110000D02*
X112422000Y-122650000D01*
X112422000Y-122650000D02*
X115162000Y-122650000D01*
X113792000Y-115340000D02*
X113792000Y-116110000D01*
X113792000Y-123420000D02*
X113792000Y-122650000D01*
X115162000Y-116110000D02*
X112422000Y-116110000D01*
X115162000Y-122650000D02*
X115162000Y-116110000D01*
%TO.C,SW_SPARE_1*%
X49550000Y-25700000D02*
X49550000Y-31670000D01*
X49550000Y-31670000D02*
X57170000Y-31670000D01*
X49560000Y-29410000D02*
X50310000Y-29410000D01*
X49560000Y-30910000D02*
X49560000Y-31660000D01*
X49560000Y-31660000D02*
X51360000Y-31660000D01*
X50310000Y-26460000D02*
X53360000Y-26460000D01*
X50310000Y-29410000D02*
X50310000Y-26460000D01*
X51360000Y-30910000D02*
X49560000Y-30910000D01*
X51360000Y-31660000D02*
X51360000Y-30910000D01*
X52860000Y-30910000D02*
X52860000Y-31660000D01*
X52860000Y-31660000D02*
X53860000Y-31660000D01*
X53860000Y-30910000D02*
X52860000Y-30910000D01*
X53860000Y-31660000D02*
X53860000Y-30910000D01*
X55360000Y-30910000D02*
X55360000Y-31660000D01*
X55360000Y-31660000D02*
X57160000Y-31660000D01*
X56210000Y-31960000D02*
X57460000Y-31960000D01*
X56410000Y-26460000D02*
X53360000Y-26460000D01*
X56410000Y-29410000D02*
X56410000Y-26460000D01*
X57160000Y-29410000D02*
X56410000Y-29410000D01*
X57160000Y-30910000D02*
X55360000Y-30910000D01*
X57160000Y-31660000D02*
X57160000Y-30910000D01*
X57170000Y-25700000D02*
X49550000Y-25700000D01*
X57170000Y-31670000D02*
X57170000Y-25700000D01*
X57460000Y-31960000D02*
X57460000Y-30710000D01*
D12*
%TO.C,U5*%
X135850000Y-24972000D02*
X135850000Y-40212000D01*
X135850000Y-40212000D02*
X156170000Y-40212000D01*
X156170000Y-24972000D02*
X135850000Y-24972000D01*
X156170000Y-40212000D02*
X156170000Y-24972000D01*
%TO.C,U6*%
X135850000Y-42752000D02*
X135850000Y-57992000D01*
X135850000Y-57992000D02*
X156170000Y-57992000D01*
X156170000Y-42752000D02*
X135850000Y-42752000D01*
X156170000Y-57992000D02*
X156170000Y-42752000D01*
D13*
%TO.C,LCD*%
X64950000Y-173862000D02*
X64950000Y-179832000D01*
X64950000Y-179832000D02*
X82570000Y-179832000D01*
X64960000Y-177572000D02*
X65710000Y-177572000D01*
X64960000Y-179072000D02*
X64960000Y-179822000D01*
X64960000Y-179822000D02*
X66760000Y-179822000D01*
X65710000Y-174622000D02*
X73760000Y-174622000D01*
X65710000Y-177572000D02*
X65710000Y-174622000D01*
X66760000Y-179072000D02*
X64960000Y-179072000D01*
X66760000Y-179822000D02*
X66760000Y-179072000D01*
X68260000Y-179072000D02*
X68260000Y-179822000D01*
X68260000Y-179822000D02*
X79260000Y-179822000D01*
X79260000Y-179072000D02*
X68260000Y-179072000D01*
X79260000Y-179822000D02*
X79260000Y-179072000D01*
X80760000Y-179072000D02*
X80760000Y-179822000D01*
X80760000Y-179822000D02*
X82560000Y-179822000D01*
X81610000Y-180122000D02*
X82860000Y-180122000D01*
X81810000Y-174622000D02*
X73760000Y-174622000D01*
X81810000Y-177572000D02*
X81810000Y-174622000D01*
X82560000Y-177572000D02*
X81810000Y-177572000D01*
X82560000Y-179072000D02*
X80760000Y-179072000D01*
X82560000Y-179822000D02*
X82560000Y-179072000D01*
X82570000Y-173862000D02*
X64950000Y-173862000D01*
X82570000Y-179832000D02*
X82570000Y-173862000D01*
X82860000Y-180122000D02*
X82860000Y-178872000D01*
%TO.C,Stepper2*%
X157905000Y-55782000D02*
X157905000Y-57032000D01*
X157905000Y-57032000D02*
X159155000Y-57032000D01*
X158195000Y-44122000D02*
X158195000Y-56742000D01*
X158195000Y-56742000D02*
X164165000Y-56742000D01*
X158205000Y-44132000D02*
X158205000Y-45932000D01*
X158205000Y-45932000D02*
X158955000Y-45932000D01*
X158205000Y-47432000D02*
X158205000Y-53432000D01*
X158205000Y-53432000D02*
X158955000Y-53432000D01*
X158205000Y-54932000D02*
X158205000Y-56732000D01*
X158205000Y-56732000D02*
X158955000Y-56732000D01*
X158955000Y-44132000D02*
X158205000Y-44132000D01*
X158955000Y-45932000D02*
X158955000Y-44132000D01*
X158955000Y-47432000D02*
X158205000Y-47432000D01*
X158955000Y-53432000D02*
X158955000Y-47432000D01*
X158955000Y-54932000D02*
X158205000Y-54932000D01*
X158955000Y-56732000D02*
X158955000Y-54932000D01*
X160455000Y-44132000D02*
X160455000Y-44882000D01*
X160455000Y-44882000D02*
X163405000Y-44882000D01*
X160455000Y-55982000D02*
X163405000Y-55982000D01*
X160455000Y-56732000D02*
X160455000Y-55982000D01*
X163405000Y-44882000D02*
X163405000Y-50432000D01*
X163405000Y-55982000D02*
X163405000Y-50432000D01*
X164165000Y-44122000D02*
X158195000Y-44122000D01*
X164165000Y-56742000D02*
X164165000Y-44122000D01*
%TO.C,Stepper6*%
X157905000Y-125632000D02*
X157905000Y-126882000D01*
X157905000Y-126882000D02*
X159155000Y-126882000D01*
X158195000Y-113972000D02*
X158195000Y-126592000D01*
X158195000Y-126592000D02*
X164165000Y-126592000D01*
X158205000Y-113982000D02*
X158205000Y-115782000D01*
X158205000Y-115782000D02*
X158955000Y-115782000D01*
X158205000Y-117282000D02*
X158205000Y-123282000D01*
X158205000Y-123282000D02*
X158955000Y-123282000D01*
X158205000Y-124782000D02*
X158205000Y-126582000D01*
X158205000Y-126582000D02*
X158955000Y-126582000D01*
X158955000Y-113982000D02*
X158205000Y-113982000D01*
X158955000Y-115782000D02*
X158955000Y-113982000D01*
X158955000Y-117282000D02*
X158205000Y-117282000D01*
X158955000Y-123282000D02*
X158955000Y-117282000D01*
X158955000Y-124782000D02*
X158205000Y-124782000D01*
X158955000Y-126582000D02*
X158955000Y-124782000D01*
X160455000Y-113982000D02*
X160455000Y-114732000D01*
X160455000Y-114732000D02*
X163405000Y-114732000D01*
X160455000Y-125832000D02*
X163405000Y-125832000D01*
X160455000Y-126582000D02*
X160455000Y-125832000D01*
X163405000Y-114732000D02*
X163405000Y-120282000D01*
X163405000Y-125832000D02*
X163405000Y-120282000D01*
X164165000Y-113972000D02*
X158195000Y-113972000D01*
X164165000Y-126592000D02*
X164165000Y-113972000D01*
%TO.C,SW11*%
X39670000Y-127020000D02*
X39670000Y-134640000D01*
X39670000Y-134640000D02*
X45640000Y-134640000D01*
X40430000Y-127780000D02*
X40430000Y-130830000D01*
X40430000Y-133880000D02*
X40430000Y-130830000D01*
X43380000Y-127030000D02*
X43380000Y-127780000D01*
X43380000Y-127780000D02*
X40430000Y-127780000D01*
X43380000Y-133880000D02*
X40430000Y-133880000D01*
X43380000Y-134630000D02*
X43380000Y-133880000D01*
X44880000Y-127030000D02*
X44880000Y-128830000D01*
X44880000Y-128830000D02*
X45630000Y-128830000D01*
X44880000Y-130330000D02*
X44880000Y-131330000D01*
X44880000Y-131330000D02*
X45630000Y-131330000D01*
X44880000Y-132830000D02*
X44880000Y-134630000D01*
X44880000Y-134630000D02*
X45630000Y-134630000D01*
X45630000Y-127030000D02*
X44880000Y-127030000D01*
X45630000Y-128830000D02*
X45630000Y-127030000D01*
X45630000Y-130330000D02*
X44880000Y-130330000D01*
X45630000Y-131330000D02*
X45630000Y-130330000D01*
X45630000Y-132830000D02*
X44880000Y-132830000D01*
X45630000Y-134630000D02*
X45630000Y-132830000D01*
X45640000Y-127020000D02*
X39670000Y-127020000D01*
X45640000Y-134640000D02*
X45640000Y-127020000D01*
X45930000Y-126730000D02*
X44680000Y-126730000D01*
X45930000Y-127980000D02*
X45930000Y-126730000D01*
%TO.C,Servo3*%
X124400000Y-141750000D02*
X124400000Y-144410000D01*
X129540000Y-141750000D02*
X124400000Y-141750000D01*
X129540000Y-141750000D02*
X129540000Y-144410000D01*
X129540000Y-144410000D02*
X124400000Y-144410000D01*
X130810000Y-141750000D02*
X132140000Y-141750000D01*
X132140000Y-141750000D02*
X132140000Y-143080000D01*
D12*
%TO.C,U3*%
X135850000Y-112602000D02*
X135850000Y-127842000D01*
X135850000Y-127842000D02*
X156170000Y-127842000D01*
X156170000Y-112602000D02*
X135850000Y-112602000D01*
X156170000Y-127842000D02*
X156170000Y-112602000D01*
%TO.C,U11*%
X135850000Y-165942000D02*
X135850000Y-181182000D01*
X135850000Y-181182000D02*
X156170000Y-181182000D01*
X156170000Y-165942000D02*
X135850000Y-165942000D01*
X156170000Y-181182000D02*
X156170000Y-165942000D01*
D13*
%TO.C,SW7*%
X39670000Y-86380000D02*
X39670000Y-94000000D01*
X39670000Y-94000000D02*
X45640000Y-94000000D01*
X40430000Y-87140000D02*
X40430000Y-90190000D01*
X40430000Y-93240000D02*
X40430000Y-90190000D01*
X43380000Y-86390000D02*
X43380000Y-87140000D01*
X43380000Y-87140000D02*
X40430000Y-87140000D01*
X43380000Y-93240000D02*
X40430000Y-93240000D01*
X43380000Y-93990000D02*
X43380000Y-93240000D01*
X44880000Y-86390000D02*
X44880000Y-88190000D01*
X44880000Y-88190000D02*
X45630000Y-88190000D01*
X44880000Y-89690000D02*
X44880000Y-90690000D01*
X44880000Y-90690000D02*
X45630000Y-90690000D01*
X44880000Y-92190000D02*
X44880000Y-93990000D01*
X44880000Y-93990000D02*
X45630000Y-93990000D01*
X45630000Y-86390000D02*
X44880000Y-86390000D01*
X45630000Y-88190000D02*
X45630000Y-86390000D01*
X45630000Y-89690000D02*
X44880000Y-89690000D01*
X45630000Y-90690000D02*
X45630000Y-89690000D01*
X45630000Y-92190000D02*
X44880000Y-92190000D01*
X45630000Y-93990000D02*
X45630000Y-92190000D01*
X45640000Y-86380000D02*
X39670000Y-86380000D01*
X45640000Y-94000000D02*
X45640000Y-86380000D01*
X45930000Y-86090000D02*
X44680000Y-86090000D01*
X45930000Y-87340000D02*
X45930000Y-86090000D01*
%TO.C,Servo6*%
X124400000Y-155700000D02*
X124400000Y-158360000D01*
X129540000Y-155700000D02*
X124400000Y-155700000D01*
X129540000Y-155700000D02*
X129540000Y-158360000D01*
X129540000Y-158360000D02*
X124400000Y-158360000D01*
X130810000Y-155700000D02*
X132140000Y-155700000D01*
X132140000Y-155700000D02*
X132140000Y-157030000D01*
D12*
%TO.C,U4*%
X135850000Y-96092000D02*
X135850000Y-111332000D01*
X135850000Y-111332000D02*
X156170000Y-111332000D01*
X156170000Y-96092000D02*
X135850000Y-96092000D01*
X156170000Y-111332000D02*
X156170000Y-96092000D01*
D13*
%TO.C,SW_SPARE_2*%
X49260000Y-173780000D02*
X49260000Y-175030000D01*
X49550000Y-174070000D02*
X49550000Y-180040000D01*
X49550000Y-180040000D02*
X57170000Y-180040000D01*
X49560000Y-174080000D02*
X49560000Y-174830000D01*
X49560000Y-174830000D02*
X51360000Y-174830000D01*
X49560000Y-176330000D02*
X50310000Y-176330000D01*
X50310000Y-176330000D02*
X50310000Y-179280000D01*
X50310000Y-179280000D02*
X53360000Y-179280000D01*
X50510000Y-173780000D02*
X49260000Y-173780000D01*
X51360000Y-174080000D02*
X49560000Y-174080000D01*
X51360000Y-174830000D02*
X51360000Y-174080000D01*
X52860000Y-174080000D02*
X52860000Y-174830000D01*
X52860000Y-174830000D02*
X53860000Y-174830000D01*
X53860000Y-174080000D02*
X52860000Y-174080000D01*
X53860000Y-174830000D02*
X53860000Y-174080000D01*
X55360000Y-174080000D02*
X55360000Y-174830000D01*
X55360000Y-174830000D02*
X57160000Y-174830000D01*
X56410000Y-176330000D02*
X56410000Y-179280000D01*
X56410000Y-179280000D02*
X53360000Y-179280000D01*
X57160000Y-174080000D02*
X55360000Y-174080000D01*
X57160000Y-174830000D02*
X57160000Y-174080000D01*
X57160000Y-176330000D02*
X56410000Y-176330000D01*
X57170000Y-174070000D02*
X49550000Y-174070000D01*
X57170000Y-180040000D02*
X57170000Y-174070000D01*
%TO.C,Stepper5*%
X157905000Y-109122000D02*
X157905000Y-110372000D01*
X157905000Y-110372000D02*
X159155000Y-110372000D01*
X158195000Y-97462000D02*
X158195000Y-110082000D01*
X158195000Y-110082000D02*
X164165000Y-110082000D01*
X158205000Y-97472000D02*
X158205000Y-99272000D01*
X158205000Y-99272000D02*
X158955000Y-99272000D01*
X158205000Y-100772000D02*
X158205000Y-106772000D01*
X158205000Y-106772000D02*
X158955000Y-106772000D01*
X158205000Y-108272000D02*
X158205000Y-110072000D01*
X158205000Y-110072000D02*
X158955000Y-110072000D01*
X158955000Y-97472000D02*
X158205000Y-97472000D01*
X158955000Y-99272000D02*
X158955000Y-97472000D01*
X158955000Y-100772000D02*
X158205000Y-100772000D01*
X158955000Y-106772000D02*
X158955000Y-100772000D01*
X158955000Y-108272000D02*
X158205000Y-108272000D01*
X158955000Y-110072000D02*
X158955000Y-108272000D01*
X160455000Y-97472000D02*
X160455000Y-98222000D01*
X160455000Y-98222000D02*
X163405000Y-98222000D01*
X160455000Y-109322000D02*
X163405000Y-109322000D01*
X160455000Y-110072000D02*
X160455000Y-109322000D01*
X163405000Y-98222000D02*
X163405000Y-103772000D01*
X163405000Y-109322000D02*
X163405000Y-103772000D01*
X164165000Y-97462000D02*
X158195000Y-97462000D01*
X164165000Y-110082000D02*
X164165000Y-97462000D01*
D12*
%TO.C,U9*%
X135850000Y-130382000D02*
X135850000Y-145622000D01*
X135850000Y-145622000D02*
X156170000Y-145622000D01*
X156170000Y-130382000D02*
X135850000Y-130382000D01*
X156170000Y-145622000D02*
X156170000Y-130382000D01*
D13*
%TO.C,StepperA*%
X157905000Y-143412000D02*
X157905000Y-144662000D01*
X157905000Y-144662000D02*
X159155000Y-144662000D01*
X158195000Y-131752000D02*
X158195000Y-144372000D01*
X158195000Y-144372000D02*
X164165000Y-144372000D01*
X158205000Y-131762000D02*
X158205000Y-133562000D01*
X158205000Y-133562000D02*
X158955000Y-133562000D01*
X158205000Y-135062000D02*
X158205000Y-141062000D01*
X158205000Y-141062000D02*
X158955000Y-141062000D01*
X158205000Y-142562000D02*
X158205000Y-144362000D01*
X158205000Y-144362000D02*
X158955000Y-144362000D01*
X158955000Y-131762000D02*
X158205000Y-131762000D01*
X158955000Y-133562000D02*
X158955000Y-131762000D01*
X158955000Y-135062000D02*
X158205000Y-135062000D01*
X158955000Y-141062000D02*
X158955000Y-135062000D01*
X158955000Y-142562000D02*
X158205000Y-142562000D01*
X158955000Y-144362000D02*
X158955000Y-142562000D01*
X160455000Y-131762000D02*
X160455000Y-132512000D01*
X160455000Y-132512000D02*
X163405000Y-132512000D01*
X160455000Y-143612000D02*
X163405000Y-143612000D01*
X160455000Y-144362000D02*
X160455000Y-143612000D01*
X163405000Y-132512000D02*
X163405000Y-138062000D01*
X163405000Y-143612000D02*
X163405000Y-138062000D01*
X164165000Y-131752000D02*
X158195000Y-131752000D01*
X164165000Y-144372000D02*
X164165000Y-131752000D01*
D12*
%TO.C,U10*%
X135850000Y-148162000D02*
X135850000Y-163402000D01*
X135850000Y-163402000D02*
X156170000Y-163402000D01*
X156170000Y-148162000D02*
X135850000Y-148162000D01*
X156170000Y-163402000D02*
X156170000Y-148162000D01*
D13*
%TO.C,SW_TIRETTE*%
X39670000Y-137180000D02*
X39670000Y-144800000D01*
X39670000Y-144800000D02*
X45640000Y-144800000D01*
X40430000Y-137940000D02*
X40430000Y-140990000D01*
X40430000Y-144040000D02*
X40430000Y-140990000D01*
X43380000Y-137190000D02*
X43380000Y-137940000D01*
X43380000Y-137940000D02*
X40430000Y-137940000D01*
X43380000Y-144040000D02*
X40430000Y-144040000D01*
X43380000Y-144790000D02*
X43380000Y-144040000D01*
X44880000Y-137190000D02*
X44880000Y-138990000D01*
X44880000Y-138990000D02*
X45630000Y-138990000D01*
X44880000Y-140490000D02*
X44880000Y-141490000D01*
X44880000Y-141490000D02*
X45630000Y-141490000D01*
X44880000Y-142990000D02*
X44880000Y-144790000D01*
X44880000Y-144790000D02*
X45630000Y-144790000D01*
X45630000Y-137190000D02*
X44880000Y-137190000D01*
X45630000Y-138990000D02*
X45630000Y-137190000D01*
X45630000Y-140490000D02*
X44880000Y-140490000D01*
X45630000Y-141490000D02*
X45630000Y-140490000D01*
X45630000Y-142990000D02*
X44880000Y-142990000D01*
X45630000Y-144790000D02*
X45630000Y-142990000D01*
X45640000Y-137180000D02*
X39670000Y-137180000D01*
X45640000Y-144800000D02*
X45640000Y-137180000D01*
X45930000Y-136890000D02*
X44680000Y-136890000D01*
X45930000Y-138140000D02*
X45930000Y-136890000D01*
%TO.C,J23*%
X83820000Y-25400000D02*
X83820000Y-33020000D01*
X83820000Y-25400000D02*
X104140000Y-25400000D01*
X83820000Y-33020000D02*
X104140000Y-33020000D01*
X104140000Y-31750000D02*
X83820000Y-31750000D01*
X104140000Y-33020000D02*
X104140000Y-25400000D01*
%TO.C,Servo8*%
X124400000Y-165040000D02*
X124400000Y-167700000D01*
X129540000Y-165040000D02*
X124400000Y-165040000D01*
X129540000Y-165040000D02*
X129540000Y-167700000D01*
X129540000Y-167700000D02*
X124400000Y-167700000D01*
X130810000Y-165040000D02*
X132140000Y-165040000D01*
X132140000Y-165040000D02*
X132140000Y-166370000D01*
%TO.C,SW2*%
X39670000Y-35540000D02*
X39670000Y-43160000D01*
X39670000Y-43160000D02*
X45640000Y-43160000D01*
X40430000Y-36300000D02*
X40430000Y-39350000D01*
X40430000Y-42400000D02*
X40430000Y-39350000D01*
X43380000Y-35550000D02*
X43380000Y-36300000D01*
X43380000Y-36300000D02*
X40430000Y-36300000D01*
X43380000Y-42400000D02*
X40430000Y-42400000D01*
X43380000Y-43150000D02*
X43380000Y-42400000D01*
X44880000Y-35550000D02*
X44880000Y-37350000D01*
X44880000Y-37350000D02*
X45630000Y-37350000D01*
X44880000Y-38850000D02*
X44880000Y-39850000D01*
X44880000Y-39850000D02*
X45630000Y-39850000D01*
X44880000Y-41350000D02*
X44880000Y-43150000D01*
X44880000Y-43150000D02*
X45630000Y-43150000D01*
X45630000Y-35550000D02*
X44880000Y-35550000D01*
X45630000Y-37350000D02*
X45630000Y-35550000D01*
X45630000Y-38850000D02*
X44880000Y-38850000D01*
X45630000Y-39850000D02*
X45630000Y-38850000D01*
X45630000Y-41350000D02*
X44880000Y-41350000D01*
X45630000Y-43150000D02*
X45630000Y-41350000D01*
X45640000Y-35540000D02*
X39670000Y-35540000D01*
X45640000Y-43160000D02*
X45640000Y-35540000D01*
X45930000Y-35250000D02*
X44680000Y-35250000D01*
X45930000Y-36500000D02*
X45930000Y-35250000D01*
%TO.C,LED_LIDAR*%
X105430000Y-25700000D02*
X105430000Y-31670000D01*
X105430000Y-31670000D02*
X113050000Y-31670000D01*
X105440000Y-29410000D02*
X106190000Y-29410000D01*
X105440000Y-30910000D02*
X105440000Y-31660000D01*
X105440000Y-31660000D02*
X107240000Y-31660000D01*
X106190000Y-26460000D02*
X109240000Y-26460000D01*
X106190000Y-29410000D02*
X106190000Y-26460000D01*
X107240000Y-30910000D02*
X105440000Y-30910000D01*
X107240000Y-31660000D02*
X107240000Y-30910000D01*
X108740000Y-30910000D02*
X108740000Y-31660000D01*
X108740000Y-31660000D02*
X109740000Y-31660000D01*
X109740000Y-30910000D02*
X108740000Y-30910000D01*
X109740000Y-31660000D02*
X109740000Y-30910000D01*
X111240000Y-30910000D02*
X111240000Y-31660000D01*
X111240000Y-31660000D02*
X113040000Y-31660000D01*
X112090000Y-31960000D02*
X113340000Y-31960000D01*
X112290000Y-26460000D02*
X109240000Y-26460000D01*
X112290000Y-29410000D02*
X112290000Y-26460000D01*
X113040000Y-29410000D02*
X112290000Y-29410000D01*
X113040000Y-30910000D02*
X111240000Y-30910000D01*
X113040000Y-31660000D02*
X113040000Y-30910000D01*
X113050000Y-25700000D02*
X105430000Y-25700000D01*
X113050000Y-31670000D02*
X113050000Y-25700000D01*
X113340000Y-31960000D02*
X113340000Y-30710000D01*
%TO.C,XBOX_BTH*%
X84120000Y-173862000D02*
X84120000Y-179832000D01*
X84120000Y-179832000D02*
X109240000Y-179832000D01*
X84130000Y-177572000D02*
X84880000Y-177572000D01*
X84130000Y-179072000D02*
X84130000Y-179822000D01*
X84130000Y-179822000D02*
X85930000Y-179822000D01*
X84880000Y-174622000D02*
X96680000Y-174622000D01*
X84880000Y-177572000D02*
X84880000Y-174622000D01*
X85930000Y-179072000D02*
X84130000Y-179072000D01*
X85930000Y-179822000D02*
X85930000Y-179072000D01*
X87430000Y-179072000D02*
X87430000Y-179822000D01*
X87430000Y-179822000D02*
X105930000Y-179822000D01*
X105930000Y-179072000D02*
X87430000Y-179072000D01*
X105930000Y-179822000D02*
X105930000Y-179072000D01*
X107430000Y-179072000D02*
X107430000Y-179822000D01*
X107430000Y-179822000D02*
X109230000Y-179822000D01*
X108280000Y-180122000D02*
X109530000Y-180122000D01*
X108480000Y-174622000D02*
X96680000Y-174622000D01*
X108480000Y-177572000D02*
X108480000Y-174622000D01*
X109230000Y-177572000D02*
X108480000Y-177572000D01*
X109230000Y-179072000D02*
X107430000Y-179072000D01*
X109230000Y-179822000D02*
X109230000Y-179072000D01*
X109240000Y-173862000D02*
X84120000Y-173862000D01*
X109240000Y-179832000D02*
X109240000Y-173862000D01*
X109530000Y-180122000D02*
X109530000Y-178872000D01*
%TO.C,SW_TEAM*%
X39670000Y-147340000D02*
X39670000Y-154960000D01*
X39670000Y-154960000D02*
X45640000Y-154960000D01*
X40430000Y-148100000D02*
X40430000Y-151150000D01*
X40430000Y-154200000D02*
X40430000Y-151150000D01*
X43380000Y-147350000D02*
X43380000Y-148100000D01*
X43380000Y-148100000D02*
X40430000Y-148100000D01*
X43380000Y-154200000D02*
X40430000Y-154200000D01*
X43380000Y-154950000D02*
X43380000Y-154200000D01*
X44880000Y-147350000D02*
X44880000Y-149150000D01*
X44880000Y-149150000D02*
X45630000Y-149150000D01*
X44880000Y-150650000D02*
X44880000Y-151650000D01*
X44880000Y-151650000D02*
X45630000Y-151650000D01*
X44880000Y-153150000D02*
X44880000Y-154950000D01*
X44880000Y-154950000D02*
X45630000Y-154950000D01*
X45630000Y-147350000D02*
X44880000Y-147350000D01*
X45630000Y-149150000D02*
X45630000Y-147350000D01*
X45630000Y-150650000D02*
X44880000Y-150650000D01*
X45630000Y-151650000D02*
X45630000Y-150650000D01*
X45630000Y-153150000D02*
X44880000Y-153150000D01*
X45630000Y-154950000D02*
X45630000Y-153150000D01*
X45640000Y-147340000D02*
X39670000Y-147340000D01*
X45640000Y-154960000D02*
X45640000Y-147340000D01*
X45930000Y-147050000D02*
X44680000Y-147050000D01*
X45930000Y-148300000D02*
X45930000Y-147050000D01*
%TD*%
M02*
